<svg width="944" height="266" viewBox="0 0 944 266" fill="none" xmlns="http://www.w3.org/2000/svg">
<path d="M299.537 79.03C306.557 79.03 311.957 74.05 311.957 66.97V65.89H299.027V68.62H308.597C308.237 72.97 304.577 76.21 299.657 76.21C294.047 76.21 290.087 72.13 290.087 66.46C290.087 60.82 294.047 56.77 299.597 56.77C303.707 56.77 307.097 59.02 308.087 62.05H311.507C310.247 57.46 305.657 53.89 299.537 53.89C292.187 53.89 286.937 59.2 286.937 66.46C286.937 73.72 292.187 79.03 299.537 79.03ZM315.817 61.33V78.49H318.907V69.22C318.907 66.13 320.797 63.61 323.347 63.61C325.747 63.61 327.277 65.47 327.277 68.68V78.49H330.367V69.25C330.367 66.13 332.227 63.61 334.807 63.61C337.237 63.61 338.737 65.47 338.737 68.56V78.49H341.827V68.05C341.827 63.7 339.187 60.91 335.527 60.91C332.617 60.91 330.457 62.35 329.437 64.51C328.597 62.32 326.647 60.91 324.097 60.91C321.217 60.91 319.687 62.5 318.907 63.76V61.33H315.817ZM353.817 78.91C356.937 78.91 359.037 77.41 359.907 75.94V78.49H362.997V61.33H359.907V63.88C359.037 62.41 356.937 60.91 353.817 60.91C348.957 60.91 345.327 64.78 345.327 69.91C345.327 75.04 348.957 78.91 353.817 78.91ZM354.087 76.18C350.637 76.18 348.357 73.48 348.357 69.91C348.357 66.34 350.637 63.64 354.087 63.64C357.567 63.64 359.967 66.34 359.967 69.91C359.967 73.48 357.567 76.18 354.087 76.18ZM367.848 61.33V78.49H370.938V69.61C370.938 66.49 373.398 63.67 376.908 63.67C377.958 63.67 378.798 63.85 379.458 64.15V61.21C378.858 61 378.168 60.91 377.118 60.91C373.758 60.91 371.688 62.68 370.938 63.97V61.33H367.848ZM394.676 78.49H398.336L390.776 68.56L397.616 61.33H393.986L385.436 70.51V53.71H382.346V78.49H385.436V74.2L388.826 70.63L394.676 78.49ZM407.609 78.91C411.539 78.91 414.629 76.78 415.559 73.81H412.409C411.779 75.22 409.949 76.3 407.609 76.3C404.549 76.3 402.419 74.11 402.089 71.17H416.129C416.189 70.75 416.189 70.3 416.189 69.91C416.189 64.75 412.619 60.91 407.609 60.91C402.599 60.91 398.999 64.75 398.999 69.91C398.999 75.07 402.599 78.91 407.609 78.91ZM413.159 68.65H402.089C402.419 65.68 404.519 63.52 407.609 63.52C410.699 63.52 412.799 65.65 413.159 68.65ZM428.557 61.33H424.747V56.11H421.657V61.33H417.847V64.06H421.657V78.49H424.747V64.06H428.557V61.33ZM449.153 53.89C443.843 53.89 439.913 56.32 439.913 60.31C439.913 64.3 442.673 66.25 448.103 67.39C453.323 68.5 455.513 69.58 455.513 72.25C455.513 74.65 452.963 76.3 449.363 76.3C445.343 76.3 442.733 74.23 442.403 71.32H439.163C439.493 75.97 443.543 79.03 449.153 79.03C454.493 79.03 458.723 76.39 458.723 72.07C458.723 68.5 456.353 66.22 450.443 64.96C445.313 63.88 443.093 62.8 443.093 60.31C443.093 58.15 445.223 56.59 449.003 56.59C452.753 56.59 455.063 58.54 455.393 61.09H458.633C458.333 56.89 454.433 53.89 449.153 53.89ZM470.155 78.91C473.275 78.91 475.375 77.41 476.245 75.94V78.49H479.335V61.33H476.245V63.88C475.375 62.41 473.275 60.91 470.155 60.91C465.295 60.91 461.665 64.78 461.665 69.91C461.665 75.04 465.295 78.91 470.155 78.91ZM470.425 76.18C466.975 76.18 464.695 73.48 464.695 69.91C464.695 66.34 466.975 63.64 470.425 63.64C473.905 63.64 476.305 66.34 476.305 69.91C476.305 73.48 473.905 76.18 470.425 76.18ZM484.186 61.33V78.49H487.276V69.61C487.276 66.43 489.436 63.61 492.436 63.61C495.226 63.61 496.906 65.5 496.906 68.98V78.49H499.996V68.44C499.996 63.82 497.146 60.91 493.096 60.91C489.946 60.91 487.996 62.68 487.276 63.94V61.33H484.186ZM511.121 60.91C506.921 60.91 503.711 62.86 503.711 65.89C503.711 68.89 505.871 70.39 510.551 71.02C514.661 71.56 515.981 72.37 515.981 73.78C515.981 75.31 513.971 76.39 511.331 76.39C508.271 76.39 506.711 75.04 506.531 73.69H503.501C503.711 76.69 506.651 78.91 511.241 78.91C515.501 78.91 519.011 76.93 519.011 73.6C519.011 70.93 517.181 69.25 512.021 68.56C507.821 67.99 506.741 67.12 506.741 65.71C506.741 64.42 508.541 63.43 511.031 63.43C513.521 63.43 515.471 64.45 515.591 65.89H518.621C518.471 62.98 515.321 60.91 511.121 60.91ZM531.475 54.46V78.49H534.625V60.76L542.365 74.44H544.645L552.385 60.76V78.49H555.535V54.46H552.775L543.505 70.78L534.235 54.46H531.475ZM568.214 78.91C572.144 78.91 575.234 76.78 576.164 73.81H573.014C572.384 75.22 570.554 76.3 568.214 76.3C565.154 76.3 563.024 74.11 562.694 71.17H576.734C576.794 70.75 576.794 70.3 576.794 69.91C576.794 64.75 573.224 60.91 568.214 60.91C563.204 60.91 559.604 64.75 559.604 69.91C559.604 75.07 563.204 78.91 568.214 78.91ZM573.764 68.65H562.694C563.024 65.68 565.124 63.52 568.214 63.52C571.304 63.52 573.404 65.65 573.764 68.65ZM588.309 78.91C591.429 78.91 593.529 77.41 594.399 75.94V78.49H597.489V53.71H594.399V63.88C593.529 62.41 591.429 60.91 588.309 60.91C583.449 60.91 579.819 64.78 579.819 69.91C579.819 75.04 583.449 78.91 588.309 78.91ZM588.579 76.18C585.129 76.18 582.849 73.48 582.849 69.91C582.849 66.34 585.129 63.64 588.579 63.64C592.059 63.64 594.459 66.34 594.459 69.91C594.459 73.48 592.059 76.18 588.579 76.18ZM603.87 53.41C602.7 53.41 601.83 54.28 601.83 55.45C601.83 56.62 602.7 57.49 603.87 57.49C605.07 57.49 605.94 56.62 605.94 55.45C605.94 54.28 605.07 53.41 603.87 53.41ZM605.43 78.52V61.33H602.34V78.52H605.43ZM625.7 78.49V61.33H622.61V70.21C622.61 73.39 620.45 76.21 617.45 76.21C614.66 76.21 612.98 74.32 612.98 70.84V61.33H609.89V71.38C609.89 76 612.74 78.91 616.79 78.91C619.94 78.91 621.89 77.14 622.61 75.88V78.49H625.7ZM630.553 61.33V78.49H633.643V69.22C633.643 66.13 635.533 63.61 638.083 63.61C640.483 63.61 642.013 65.47 642.013 68.68V78.49H645.103V69.25C645.103 66.13 646.963 63.61 649.543 63.61C651.973 63.61 653.473 65.47 653.473 68.56V78.49H656.563V68.05C656.563 63.7 653.923 60.91 650.263 60.91C647.353 60.91 645.193 62.35 644.173 64.51C643.333 62.32 641.383 60.91 638.833 60.91C635.953 60.91 634.423 62.5 633.643 63.76V61.33H630.553Z" fill="#222222"/>
<path d="M373.528 110.44H375.508V101H373.528V102.84H370.548V104.58H373.528V106.84H369.888V108.58H373.528V110.44ZM369.708 103.28V101.42H359.968V103.1H367.708V103.62C367.708 106.68 364.748 108.16 359.968 108.18V109.9C365.868 109.9 369.708 107.92 369.708 103.28ZM368.308 111C364.228 111 360.868 111.94 360.868 114.54C360.868 117.12 364.228 118.08 368.308 118.08C372.388 118.08 375.748 117.12 375.748 114.54C375.748 111.94 372.388 111 368.308 111ZM368.308 116.44C365.428 116.44 362.968 115.88 362.968 114.54C362.968 113.2 365.428 112.64 368.308 112.64C371.208 112.64 373.648 113.2 373.648 114.54C373.648 115.88 371.208 116.44 368.308 116.44ZM390.306 102.44H385.506V100.7H383.506V102.44H378.706V103.98H390.306V102.44ZM392.766 101V106.18H390.086V107.94H392.766V111.16H394.746V101H392.766ZM384.506 111.04C387.286 111.04 389.466 109.94 389.466 107.98C389.466 106.04 387.286 104.92 384.506 104.92C381.726 104.92 379.526 106.04 379.526 107.98C379.526 109.94 381.726 111.04 384.506 111.04ZM384.506 106.4C386.406 106.4 387.586 107.08 387.586 107.98C387.586 108.88 386.406 109.58 384.506 109.58C382.606 109.58 381.406 108.88 381.406 107.98C381.406 107.08 382.606 106.4 384.506 106.4ZM380.206 117.86H394.686V112.12H380.206V117.86ZM382.166 113.7H392.726V116.28H382.166V113.7ZM406.425 107.16C410.545 107.16 413.925 106.32 413.925 104.04C413.925 101.78 410.545 100.94 406.425 100.94C402.305 100.94 398.925 101.78 398.925 104.04C398.925 106.32 402.305 107.16 406.425 107.16ZM406.425 105.64C403.445 105.64 400.965 105.18 400.965 104.04C400.965 102.92 403.445 102.44 406.425 102.44C409.405 102.44 411.885 102.92 411.885 104.04C411.885 105.18 409.405 105.64 406.425 105.64ZM397.905 109.76H414.965V108.22H397.905V109.76ZM399.085 117.88H414.085V116.4H401.025V115.2H413.785V111.12H399.045V112.6H411.845V113.8H399.085V117.88ZM433.968 107.58L433.848 109.34H436.868V113.7H438.828V101H436.868V102.98H433.848L433.968 104.74H436.868V107.58H433.968ZM433.428 106.14C433.428 103.28 431.428 101.18 428.148 101.18C424.848 101.18 422.848 103.28 422.848 106.14C422.848 109 424.848 111.1 428.148 111.1C431.428 111.1 433.428 109 433.428 106.14ZM424.828 106.14C424.828 104.12 426.128 102.84 428.148 102.84C430.148 102.84 431.448 104.12 431.448 106.14C431.448 108.16 430.148 109.42 428.148 109.42C426.128 109.42 424.828 108.16 424.828 106.14ZM426.488 116.08V112.28H424.488V117.86H439.188V116.08H426.488ZM456.087 109.4H458.067V101H456.087V102.68H453.107V104.3H456.087V106.06H452.367V107.68H456.087V109.4ZM452.267 103.16V101.42H442.527V103.08H450.287V103.48C450.287 106.24 447.267 107.42 442.527 107.44V109.1C448.347 109.1 452.267 107.34 452.267 103.16ZM445.567 116.3V114.82H458.067V110.3H443.567V111.86H456.107V113.34H443.607V117.86H458.487V116.3H445.567ZM472.765 102.42H467.965V100.7H465.965V102.42H461.165V103.94H472.765V102.42ZM479.085 104.58H476.685V101H474.705V110.6H476.685V106.42H479.085V104.58ZM466.965 110.82C469.785 110.82 471.965 109.7 471.965 107.82C471.965 105.96 469.785 104.82 466.965 104.82C464.125 104.82 461.945 105.96 461.945 107.82C461.945 109.7 464.125 110.82 466.965 110.82ZM466.965 106.26C468.865 106.26 470.085 106.94 470.085 107.82C470.085 108.7 468.865 109.38 466.965 109.38C465.045 109.38 463.845 108.7 463.845 107.82C463.845 106.94 465.045 106.26 466.965 106.26ZM474.765 113.06H464.325V111.52H462.405V117.86H476.685V111.52H474.765V113.06ZM464.325 116.3V114.58H474.765V116.3H464.325ZM494.423 118.1L496.403 118.08V101H494.423V118.1ZM481.443 117.06H488.423C490.063 117.06 491.803 116.74 492.843 116.22V114.4C491.803 114.9 490.043 115.24 488.423 115.24H483.463V101.52H481.443V117.06ZM517.562 107.92H515.162V101H513.182V118.08H515.162V109.82H517.562V107.92ZM502.522 115.26V103.42H510.362V101.62H500.502V117.06H507.182C508.822 117.06 510.662 116.76 511.702 116.24V114.44C510.662 114.94 508.902 115.26 507.282 115.26H502.522ZM520.42 117.92C521.22 117.92 521.82 117.3 521.82 116.5C521.82 115.7 521.22 115.08 520.42 115.08C519.62 115.08 519 115.7 519 116.5C519 117.3 519.62 117.92 520.42 117.92ZM537.962 118.02C542.642 118.02 546.242 114.7 546.242 109.98V109.26H537.622V111.08H544.002C543.762 113.98 541.322 116.14 538.042 116.14C534.302 116.14 531.662 113.42 531.662 109.64C531.662 105.88 534.302 103.18 538.002 103.18C540.742 103.18 543.002 104.68 543.662 106.7H545.942C545.102 103.64 542.042 101.26 537.962 101.26C533.062 101.26 529.562 104.8 529.562 109.64C529.562 114.48 533.062 118.02 537.962 118.02ZM566.155 107.92H563.755V101H561.775V118.08H563.755V109.82H566.155V107.92ZM549.095 117.06H558.595V101.62H549.095V117.06ZM551.075 103.46H556.615V115.22H551.075V103.46ZM583.954 101H582.074V113.16H583.954V101ZM574.814 107.22H577.754V110.54H579.614V101.1H577.754V105.4H575.154C575.174 105.18 575.174 104.94 575.174 104.7V101.42H567.874V103.1H573.294V104.72C573.294 105 573.274 105.28 573.254 105.54H567.874V107.2H572.894C572.154 109.24 570.354 110.12 567.874 110.14V111.86C571.134 111.86 573.874 110.32 574.814 107.22ZM584.494 116.34L577.314 113.32C577.694 112.72 577.974 112.04 578.174 111.3L576.154 110.86C575.314 114.06 572.094 116 568.454 116V117.86C571.434 117.86 574.354 116.76 576.254 114.72L583.794 118.06L584.494 116.34ZM277.756 147.66H280.056L273.476 131.64H271.256L264.656 147.66H266.856L268.456 143.7H276.156L277.756 147.66ZM269.196 141.84L272.316 134.1L275.416 141.84H269.196ZM282.187 131.64V147.66H289.327C292.927 147.66 295.027 145.9 295.027 143.14C295.027 141.16 293.607 139.74 291.787 139.38C293.227 139.04 294.267 137.58 294.267 136.08C294.267 133.34 292.267 131.64 288.727 131.64H282.187ZM288.667 138.7H284.287V133.46H288.667C290.887 133.46 292.147 134.38 292.147 136.08C292.147 137.78 290.887 138.7 288.667 138.7ZM289.267 145.84H284.287V140.44H289.267C291.507 140.44 292.907 141.38 292.907 143.14C292.907 144.9 291.507 145.84 289.267 145.84ZM305.434 148.02C309.674 148.02 312.734 145.38 313.434 142.04H311.294C310.714 144.32 308.474 146.08 305.474 146.08C301.814 146.08 299.134 143.38 299.134 139.64C299.134 135.88 301.794 133.2 305.474 133.2C308.394 133.2 310.454 134.76 311.134 137.02H313.274C312.434 133.66 309.574 131.26 305.434 131.26C300.594 131.26 297.034 134.8 297.034 139.64C297.034 144.48 300.594 148.02 305.434 148.02ZM316.113 131.64V147.66H321.793C327.313 147.66 330.513 144.44 330.513 139.66C330.513 134.88 327.313 131.64 321.793 131.64H316.113ZM321.853 145.76H318.213V133.52H321.853C325.913 133.52 328.393 135.76 328.393 139.66C328.393 143.56 325.913 145.76 321.853 145.76ZM333.281 131.64V147.66H344.841V145.8H335.381V140.4H343.961V138.54H335.381V133.5H344.661V131.64H333.281ZM347.538 131.64V147.66H349.638V140.84H357.858V138.96L349.638 138.98V133.52H358.738V131.64H347.538ZM368.636 148.02C373.316 148.02 376.916 144.7 376.916 139.98V139.26H368.296V141.08H374.676C374.436 143.98 371.996 146.14 368.716 146.14C364.976 146.14 362.336 143.42 362.336 139.64C362.336 135.88 364.976 133.18 368.676 133.18C371.416 133.18 373.676 134.68 374.336 136.7H376.616C375.776 133.64 372.716 131.26 368.636 131.26C363.736 131.26 360.236 134.8 360.236 139.64C360.236 144.48 363.736 148.02 368.636 148.02ZM390.989 131.64V138.5H381.689V131.64H379.589V147.66H381.689V140.42H390.989V147.66H393.089V131.64H390.989ZM398.623 131.64H396.523V147.66H398.623V131.64ZM402.97 142.54H400.87C400.93 145.64 403.29 148.02 406.95 148.02C410.61 148.02 413.09 145.66 413.09 142.04V131.64H410.97V142.04C410.97 144.48 409.47 146.1 406.95 146.1C404.43 146.1 403.03 144.46 402.97 142.54ZM426.989 147.66H429.669L422.609 139L429.209 131.64H426.589L418.369 140.88V131.64H416.269V147.66H418.369V143.72L421.249 140.52L426.989 147.66ZM433.916 131.64H431.816V147.66H442.716V145.76H433.916V131.64ZM445.077 131.64V147.66H447.177V135.84L452.337 144.96H453.857L459.017 135.84V147.66H461.117V131.64H459.277L453.097 142.52L446.917 131.64H445.077ZM464.531 131.64V147.66H466.631V135.08L476.331 147.56H478.311V131.54H476.191V144.12L466.491 131.64H464.531ZM489.498 148.02C494.358 148.02 497.938 144.48 497.938 139.64C497.938 134.8 494.338 131.26 489.478 131.26C484.618 131.26 481.038 134.8 481.038 139.64C481.038 144.48 484.638 148.02 489.498 148.02ZM489.498 146.1C485.838 146.1 483.138 143.4 483.138 139.64C483.138 135.86 485.818 133.18 489.478 133.18C493.138 133.18 495.838 135.86 495.838 139.64C495.838 143.4 493.138 146.1 489.498 146.1ZM500.702 131.64V147.66H502.802V142.76H506.382C510.542 142.76 512.982 140.54 512.982 137.2C512.982 133.86 510.542 131.64 506.382 131.64H500.702ZM506.222 140.86H502.802V133.54H506.222C509.122 133.54 510.882 134.82 510.882 137.2C510.882 139.58 509.122 140.86 506.222 140.86ZM531.512 139.64C531.512 134.8 527.912 131.26 523.052 131.26C518.192 131.26 514.612 134.8 514.612 139.64C514.612 144.48 518.212 148.02 523.072 148.02C524.592 148.02 525.992 147.68 527.192 147.04L529.492 149.94L531.132 148.7L528.892 145.86C530.532 144.36 531.512 142.18 531.512 139.64ZM523.072 146.1C519.412 146.1 516.712 143.4 516.712 139.64C516.712 135.86 519.392 133.18 523.052 133.18C526.712 133.18 529.412 135.86 529.412 139.64C529.412 141.5 528.752 143.12 527.632 144.26L524.672 140.52L523.032 141.78L525.952 145.46C525.092 145.88 524.132 146.1 523.072 146.1ZM547.297 147.66L543.277 141.54C545.477 140.76 546.697 139.08 546.697 136.82C546.697 133.66 544.317 131.64 540.277 131.64H534.277V147.66H536.377V142H540.277C540.577 142 540.877 141.98 541.177 141.96L544.817 147.66H547.297ZM540.117 140.12H536.377V133.52H540.117C542.897 133.52 544.597 134.66 544.597 136.82C544.597 138.98 542.897 140.12 540.117 140.12ZM555.274 131.26C551.734 131.26 549.114 132.88 549.114 135.54C549.114 138.2 550.954 139.5 554.574 140.26C558.054 141 559.514 141.72 559.514 143.5C559.514 145.1 557.814 146.2 555.414 146.2C552.734 146.2 550.994 144.82 550.774 142.88H548.614C548.834 145.98 551.534 148.02 555.274 148.02C558.834 148.02 561.654 146.26 561.654 143.38C561.654 141 560.074 139.48 556.134 138.64C552.714 137.92 551.234 137.2 551.234 135.54C551.234 134.1 552.654 133.06 555.174 133.06C557.674 133.06 559.214 134.36 559.434 136.06H561.594C561.394 133.26 558.794 131.26 555.274 131.26ZM576.741 133.52V131.64H563.141V133.52H568.901V147.66H571.001V133.52H576.741ZM578.998 131.64V140.76C578.998 145.16 581.738 148.04 585.998 148.04C590.238 148.04 592.978 145.16 592.978 140.76V131.64H590.878V140.76C590.878 143.98 589.038 146.12 585.998 146.12C582.958 146.12 581.098 143.98 581.098 140.76V131.64H578.998ZM608.551 131.64L602.891 145.18L597.231 131.64H594.931L601.711 147.66H603.991L610.771 131.64H608.551ZM631.524 131.64L627.724 144.52L623.924 131.64H621.684L617.904 144.48L614.104 131.64H611.924L616.784 147.66H618.904L622.784 134.88L626.644 147.66H628.764L633.644 131.64H631.524ZM640.554 139.56L634.774 147.66H637.234L641.894 141.1L646.534 147.66H649.034L643.234 139.5L648.834 131.64H646.394L641.934 137.96L637.514 131.64H634.974L640.554 139.56ZM664.871 131.64H662.611L657.411 140.34L652.371 131.64H649.991L656.271 142.3V147.66H658.391V142.3L664.871 131.64ZM666.369 146.2V147.66H679.089V145.8H669.229L678.729 133.1V131.66H666.769V133.52H675.869L666.369 146.2ZM317.537 175.94C319.617 175.94 321.017 174.94 321.597 173.96V175.66H323.657V164.22H321.597V165.92C321.017 164.94 319.617 163.94 317.537 163.94C314.297 163.94 311.877 166.52 311.877 169.94C311.877 173.36 314.297 175.94 317.537 175.94ZM317.717 174.12C315.417 174.12 313.897 172.32 313.897 169.94C313.897 167.56 315.417 165.76 317.717 165.76C320.037 165.76 321.637 167.56 321.637 169.94C321.637 172.32 320.037 174.12 317.717 174.12ZM333.011 175.94C336.251 175.94 338.671 173.36 338.671 169.94C338.671 166.52 336.251 163.94 333.011 163.94C330.931 163.94 329.531 164.94 328.951 165.92V159.14H326.891V175.66H328.951V173.96C329.531 174.94 330.931 175.94 333.011 175.94ZM332.831 174.12C330.511 174.12 328.911 172.32 328.911 169.94C328.911 167.56 330.511 165.76 332.831 165.76C335.131 165.76 336.651 167.56 336.651 169.94C336.651 172.32 335.131 174.12 332.831 174.12ZM351.966 171.78H349.866C349.406 173.16 348.166 174.12 346.546 174.12C344.266 174.12 342.726 172.32 342.726 169.94C342.726 167.56 344.266 165.76 346.546 165.76C348.166 165.76 349.366 166.7 349.826 168.06H351.926C351.366 165.68 349.246 163.94 346.546 163.94C343.166 163.94 340.706 166.5 340.706 169.94C340.706 173.38 343.186 175.94 346.586 175.94C349.246 175.94 351.346 174.26 351.966 171.78ZM359.549 175.94C361.629 175.94 363.029 174.94 363.609 173.96V175.66H365.669V159.14H363.609V165.92C363.029 164.94 361.629 163.94 359.549 163.94C356.309 163.94 353.889 166.52 353.889 169.94C353.889 173.36 356.309 175.94 359.549 175.94ZM359.729 174.12C357.429 174.12 355.909 172.32 355.909 169.94C355.909 167.56 357.429 165.76 359.729 165.76C362.049 165.76 363.649 167.56 363.649 169.94C363.649 172.32 362.049 174.12 359.729 174.12ZM374.043 175.94C376.663 175.94 378.723 174.52 379.343 172.54H377.243C376.823 173.48 375.603 174.2 374.043 174.2C372.003 174.2 370.583 172.74 370.363 170.78H379.723C379.763 170.5 379.763 170.2 379.763 169.94C379.763 166.5 377.383 163.94 374.043 163.94C370.703 163.94 368.303 166.5 368.303 169.94C368.303 173.38 370.703 175.94 374.043 175.94ZM377.743 169.1H370.363C370.583 167.12 371.983 165.68 374.043 165.68C376.103 165.68 377.503 167.1 377.743 169.1ZM387.769 164.22H385.229V162.34C385.229 161.4 385.749 160.86 386.589 160.86C386.889 160.86 387.289 160.86 387.569 160.92V159.18C387.209 159.1 386.729 159.06 386.229 159.06C384.269 159.06 383.169 160.38 383.169 162.28V164.22H380.909V166.04H383.169V175.66H385.229V166.04H387.769V164.22ZM394.991 180.8C398.271 180.8 400.571 178.56 400.571 175.4V164.22H398.511V165.92C397.931 164.94 396.531 163.94 394.451 163.94C391.211 163.94 388.791 166.5 388.791 169.88C388.791 173.24 391.211 175.78 394.451 175.78C396.531 175.78 397.931 174.78 398.511 173.8V175.38C398.511 177.62 397.071 179.02 394.991 179.02C392.931 179.02 391.911 177.96 391.671 176.74H389.571C389.971 178.9 391.711 180.8 394.991 180.8ZM394.631 174C392.331 174 390.811 172.22 390.811 169.88C390.811 167.54 392.331 165.76 394.631 165.76C396.951 165.76 398.551 167.54 398.551 169.88C398.551 172.22 396.951 174 394.631 174ZM403.806 159.14V175.66H405.866V169.74C405.866 167.62 407.306 165.74 409.306 165.74C411.166 165.74 412.286 167 412.286 169.32V175.66H414.346V168.96C414.346 165.88 412.446 163.94 409.746 163.94C407.646 163.94 406.346 165.12 405.866 165.96V159.14H403.806ZM418.341 158.94C417.561 158.94 416.981 159.52 416.981 160.3C416.981 161.08 417.561 161.66 418.341 161.66C419.141 161.66 419.721 161.08 419.721 160.3C419.721 159.52 419.141 158.94 418.341 158.94ZM419.381 175.68V164.22H417.321V175.68H419.381ZM423.634 161.66C424.434 161.66 425.014 161.08 425.014 160.3C425.014 159.52 424.434 158.94 423.634 158.94C422.854 158.94 422.274 159.52 422.274 160.3C422.274 161.08 422.854 161.66 423.634 161.66ZM421.734 180.64C423.574 180.64 424.674 179.4 424.674 177.54V164.22H422.614V177.44C422.614 178.34 422.154 178.84 421.374 178.84C420.994 178.84 420.614 178.8 420.254 178.7V180.48C420.694 180.58 421.194 180.64 421.734 180.64ZM436.007 175.66H438.447L433.407 169.04L437.967 164.22H435.547L429.847 170.34V159.14H427.787V175.66H429.847V172.8L432.107 170.42L436.007 175.66ZM442.272 175.66V159.14H440.212V175.66H442.272ZM445.505 164.22V175.66H447.565V169.48C447.565 167.42 448.825 165.74 450.525 165.74C452.125 165.74 453.145 166.98 453.145 169.12V175.66H455.205V169.5C455.205 167.42 456.445 165.74 458.165 165.74C459.785 165.74 460.785 166.98 460.785 169.04V175.66H462.845V168.7C462.845 165.8 461.085 163.94 458.645 163.94C456.705 163.94 455.265 164.9 454.585 166.34C454.025 164.88 452.725 163.94 451.025 163.94C449.105 163.94 448.085 165 447.565 165.84V164.22H445.505ZM465.778 164.22V175.66H467.838V169.74C467.838 167.62 469.278 165.74 471.278 165.74C473.138 165.74 474.258 167 474.258 169.32V175.66H476.318V168.96C476.318 165.88 474.418 163.94 471.718 163.94C469.618 163.94 468.318 165.12 467.838 165.96V164.22H465.778ZM484.495 163.94C481.095 163.94 478.635 166.5 478.635 169.94C478.635 173.38 481.095 175.94 484.495 175.94C487.875 175.94 490.335 173.38 490.335 169.94C490.335 166.5 487.875 163.94 484.495 163.94ZM484.495 165.76C486.755 165.76 488.315 167.56 488.315 169.94C488.315 172.32 486.755 174.12 484.495 174.12C482.215 174.12 480.655 172.32 480.655 169.94C480.655 167.56 482.215 165.76 484.495 165.76ZM499.086 175.94C502.326 175.94 504.746 173.36 504.746 169.94C504.746 166.52 502.326 163.94 499.086 163.94C497.006 163.94 495.606 164.94 495.026 165.92V164.22H492.966V180.52H495.026V173.96C495.606 174.94 497.006 175.94 499.086 175.94ZM498.906 174.12C496.586 174.12 494.986 172.32 494.986 169.94C494.986 167.56 496.586 165.76 498.906 165.76C501.206 165.76 502.726 167.56 502.726 169.94C502.726 172.32 501.206 174.12 498.906 174.12ZM512.44 175.94C514.52 175.94 515.92 174.94 516.5 173.96V180.52H518.56V164.22H516.5V165.92C515.92 164.94 514.52 163.94 512.44 163.94C509.2 163.94 506.78 166.52 506.78 169.94C506.78 173.36 509.2 175.94 512.44 175.94ZM512.62 174.12C510.32 174.12 508.8 172.32 508.8 169.94C508.8 167.56 510.32 165.76 512.62 165.76C514.94 165.76 516.54 167.56 516.54 169.94C516.54 172.32 514.94 174.12 512.62 174.12ZM521.794 164.22V175.66H523.854V169.74C523.854 167.66 525.494 165.78 527.834 165.78C528.534 165.78 529.094 165.9 529.534 166.1V164.14C529.134 164 528.674 163.94 527.974 163.94C525.734 163.94 524.354 165.12 523.854 165.98V164.22H521.794ZM536.079 163.94C533.279 163.94 531.139 165.24 531.139 167.26C531.139 169.26 532.579 170.26 535.699 170.68C538.439 171.04 539.319 171.58 539.319 172.52C539.319 173.54 537.979 174.26 536.219 174.26C534.179 174.26 533.139 173.36 533.019 172.46H530.999C531.139 174.46 533.099 175.94 536.159 175.94C538.999 175.94 541.339 174.62 541.339 172.4C541.339 170.62 540.119 169.5 536.679 169.04C533.879 168.66 533.159 168.08 533.159 167.14C533.159 166.28 534.359 165.62 536.019 165.62C537.679 165.62 538.979 166.3 539.059 167.26H541.079C540.979 165.32 538.879 163.94 536.079 163.94ZM549.825 164.22H547.285V160.74H545.225V164.22H542.685V166.04H545.225V175.66H547.285V166.04H549.825V164.22ZM562.23 175.66V164.22H560.17V170.14C560.17 172.26 558.73 174.14 556.73 174.14C554.87 174.14 553.75 172.88 553.75 170.56V164.22H551.69V170.92C551.69 174 553.59 175.94 556.29 175.94C558.39 175.94 559.69 174.76 560.17 173.92V175.66H562.23ZM574.046 164.22L570.306 173.32L566.566 164.22H564.326L569.146 175.66H571.326L576.166 164.22H574.046ZM593.594 164.22L590.574 173.16L587.574 164.22H585.494L582.514 173.1L579.514 164.22H577.374L581.414 175.66H583.494L586.494 166.9L589.514 175.66H591.594L595.634 164.22H593.594ZM601.15 169.86L596.53 175.66H598.91L602.41 171.24L605.91 175.66H608.43L603.75 169.82L608.19 164.22H605.81L602.49 168.44L599.21 164.22H596.69L601.15 169.86ZM618.947 164.22L615.167 173.22L611.487 164.22H609.227L614.127 175.42L611.867 180.52H613.947L621.087 164.22H618.947ZM625.141 173.86L632.321 165.66V164.22H622.641V166.02H629.561L622.381 174.22V175.66H632.681V173.86H625.141ZM268.476 206.66H270.576V190.64H265.156V192.48H268.476V206.66ZM274.279 206.66H285.419V204.84H277.299L281.499 200.72C283.899 198.26 284.879 196.8 284.879 195.08C284.879 192.2 282.759 190.26 279.539 190.26C276.199 190.26 274.099 192.64 274.099 195.54H276.199C276.199 193.76 277.359 192.12 279.519 192.12C281.519 192.12 282.799 193.22 282.799 195.1C282.799 196.24 281.999 197.54 279.959 199.6L274.279 205.3V206.66ZM292.964 207.02C296.324 207.02 298.604 204.98 298.604 202.3C298.604 200.08 296.944 198.82 295.324 198.52C296.804 198.16 298.184 196.8 298.184 194.84C298.184 192.32 296.044 190.26 292.744 190.26C289.464 190.26 287.304 192.46 287.304 195.28H289.404C289.404 193.58 290.584 192.06 292.744 192.06C294.864 192.06 296.104 193.34 296.104 194.9C296.104 196.56 294.724 197.72 292.684 197.72H290.924V199.46H292.684C295.104 199.46 296.544 200.52 296.544 202.32C296.544 203.92 295.204 205.2 292.964 205.2C290.704 205.2 289.424 203.86 289.364 202.14H287.284C287.404 204.94 289.524 207.02 292.964 207.02ZM308.188 206.66H310.188V203.04H312.808V201.26H310.188V190.64H307.708L300.108 201.26V203.04H308.188V206.66ZM302.268 201.26L308.188 192.94V201.26H302.268ZM319.721 207.02C323.081 207.02 325.381 204.72 325.381 201.54C325.381 198.34 323.141 196.16 320.101 196.16C318.261 196.16 317.081 196.96 316.481 197.7L316.761 192.46H324.561V190.64H314.841L314.381 199.86H316.441C316.981 198.86 318.001 197.96 319.761 197.96C321.881 197.96 323.321 199.48 323.321 201.54C323.321 203.64 321.941 205.2 319.721 205.2C317.461 205.2 316.201 203.86 316.141 202.14H314.061C314.181 204.92 316.261 207.02 319.721 207.02ZM331.485 196.52L335.525 190.64H333.125L328.785 197.14C327.785 198.62 327.225 199.9 327.225 201.54C327.225 204.88 329.805 207.02 333.045 207.02C336.265 207.02 338.845 204.88 338.845 201.54C338.845 198.28 336.325 196.14 333.205 196.14C332.505 196.14 331.865 196.34 331.485 196.52ZM333.045 205.2C330.725 205.2 329.285 203.6 329.285 201.56C329.285 199.52 330.725 197.9 333.045 197.9C335.345 197.9 336.785 199.5 336.785 201.56C336.785 203.6 335.345 205.2 333.045 205.2ZM341.468 206.66H343.688L350.408 192.04V190.64H339.428V192.48H347.988L341.468 206.66ZM357.652 207.02C360.992 207.02 363.312 205.14 363.312 202.46C363.312 200.04 361.412 198.7 359.952 198.36C361.192 197.98 362.752 196.68 362.752 194.64C362.752 192.26 360.692 190.26 357.652 190.26C354.592 190.26 352.532 192.24 352.532 194.64C352.532 196.68 354.092 197.98 355.332 198.36C353.892 198.7 351.972 200.04 351.972 202.46C351.972 205.14 354.292 207.02 357.652 207.02ZM357.652 197.42C355.832 197.42 354.552 196.2 354.552 194.66C354.552 193.18 355.772 192.02 357.652 192.02C359.532 192.02 360.752 193.22 360.752 194.7C360.752 196.22 359.472 197.42 357.652 197.42ZM357.652 205.26C355.432 205.26 354.012 204 354.012 202.34C354.012 200.66 355.552 199.36 357.652 199.36C359.732 199.36 361.272 200.66 361.272 202.34C361.272 204 359.852 205.26 357.652 205.26ZM372.177 200.76L368.137 206.64H370.537L374.877 200.14C375.857 198.68 376.437 197.38 376.437 195.74C376.437 192.4 373.857 190.26 370.617 190.26C367.397 190.26 364.817 192.4 364.817 195.74C364.817 199 367.337 201.14 370.457 201.14C371.157 201.14 371.797 200.94 372.177 200.76ZM370.617 192.08C372.937 192.08 374.377 193.68 374.377 195.72C374.377 197.76 372.937 199.38 370.617 199.38C368.317 199.38 366.877 197.78 366.877 195.72C366.877 193.68 368.317 192.08 370.617 192.08ZM384.243 207.02C387.603 207.02 390.143 204.24 390.143 198.64C390.143 193.04 387.603 190.26 384.243 190.26C380.863 190.26 378.323 193.04 378.323 198.64C378.323 204.24 380.863 207.02 384.243 207.02ZM384.243 205.16C382.063 205.16 380.343 203 380.343 198.64C380.343 194.3 382.063 192.12 384.243 192.12C386.403 192.12 388.123 194.3 388.123 198.64C388.123 203 386.403 205.16 384.243 205.16ZM397.995 197.86V199.86C398.615 199.2 399.255 198.82 400.195 198.82C401.695 198.82 402.935 200.26 404.655 200.26C405.715 200.26 406.495 199.84 407.075 199.14V197.12C406.435 197.9 405.815 198.42 404.855 198.42C403.375 198.42 402.135 196.98 400.415 196.98C399.395 196.98 398.575 197.3 397.995 197.86ZM410.139 202.22H411.659L412.179 190.64H409.639L410.139 202.22ZM410.899 206.98C411.739 206.98 412.379 206.34 412.379 205.5C412.379 204.68 411.739 204.04 410.899 204.04C410.059 204.04 409.419 204.68 409.419 205.5C409.419 206.34 410.059 206.98 410.899 206.98ZM423.434 208.72C425.674 208.72 427.714 208.16 428.934 207.04V205.42C427.614 206.5 425.854 207.02 423.434 207.02C419.074 207.02 416.134 203.8 416.134 199.5C416.134 195.26 419.114 192.02 423.494 192.02C427.954 192.02 430.614 194.92 430.614 198.84C430.614 201.3 429.894 202.82 428.774 202.82C428.014 202.82 427.674 202.22 427.674 201.18V195.28H425.694V196.48C425.314 195.78 424.334 195.02 422.874 195.02C420.354 195.02 418.554 196.98 418.554 199.58C418.554 202.14 420.354 204.04 422.874 204.04C424.494 204.04 425.574 203.16 426.014 202.38L426.054 202.54C426.314 203.62 427.214 204.5 428.474 204.5C430.894 204.5 432.594 202.2 432.594 198.8C432.594 194.18 429.254 190.32 423.494 190.32C417.814 190.32 414.154 194.54 414.154 199.5C414.154 204.66 417.814 208.72 423.434 208.72ZM423.074 202.36C421.594 202.36 420.534 201.16 420.534 199.56C420.534 197.94 421.594 196.72 423.074 196.72C424.594 196.72 425.714 197.94 425.714 199.56C425.714 201.16 424.594 202.36 423.074 202.36ZM446.64 196.6V195H444.32L445.12 190.64H443.34L442.54 195H439.52L440.32 190.64H438.54L437.74 195H435.16V196.6H437.44L436.7 200.7H434.08V202.3H436.4L435.6 206.66H437.38L438.18 202.3H441.2L440.4 206.66H442.18L442.98 202.3H445.56V200.7H443.28L444.02 196.6H446.64ZM441.5 200.7H438.48L439.22 196.6H442.24L441.5 200.7ZM460.499 202.14C460.499 199.94 458.979 198.52 455.359 197.7L455.279 197.68V192.54C457.159 192.78 458.299 193.9 458.459 195.3H460.439C460.279 192.88 458.179 191.12 455.279 190.86V189.22H453.659V190.88C450.759 191.14 448.819 192.6 448.819 194.82C448.819 197.18 450.479 198.46 453.659 199.2V204.72C451.739 204.42 450.519 203.24 450.339 201.66H448.379C448.539 204.28 450.639 206.1 453.659 206.4V208.08H455.279V206.42C458.239 206.2 460.499 204.62 460.499 202.14ZM450.779 194.8C450.779 193.58 451.819 192.72 453.659 192.52V197.26C451.659 196.68 450.779 196.04 450.779 194.8ZM455.279 204.78V199.58C457.559 200.18 458.519 200.86 458.519 202.26C458.519 203.62 457.199 204.62 455.279 204.78ZM466.324 197.86C468.624 197.86 470.284 196.22 470.284 194.04C470.284 191.86 468.624 190.22 466.324 190.22C464.024 190.22 462.364 191.86 462.364 194.04C462.364 196.22 464.024 197.86 466.324 197.86ZM464.904 206.66H466.864L477.444 190.64H475.484L464.904 206.66ZM466.324 196.18C465.044 196.18 464.144 195.28 464.144 194.04C464.144 192.8 465.044 191.92 466.324 191.92C467.604 191.92 468.484 192.8 468.484 194.04C468.484 195.28 467.604 196.18 466.324 196.18ZM476.024 207.06C478.304 207.06 479.984 205.42 479.984 203.24C479.984 201.06 478.304 199.42 476.024 199.42C473.724 199.42 472.064 201.06 472.064 203.24C472.064 205.42 473.724 207.06 476.024 207.06ZM476.024 205.38C474.744 205.38 473.844 204.48 473.844 203.24C473.844 202 474.744 201.1 476.024 201.1C477.284 201.1 478.184 202 478.184 203.24C478.184 204.48 477.284 205.38 476.024 205.38ZM484.896 190.82L481.636 195.84H483.576L485.876 192.42L488.136 195.84H490.036L486.776 190.82H484.896ZM506.18 206.68L503.64 203.96C504.64 202.66 505.3 201.02 505.48 199.2H503.56C503.42 200.4 503.02 201.58 502.36 202.58L498.74 198.68C501.08 197.58 503.04 196.36 503.04 193.96C503.04 191.82 501.18 190.24 498.4 190.24C495.68 190.24 493.62 191.88 493.62 194.28C493.62 195.78 494.52 196.98 495.62 198.2C493.52 199.24 491.74 200.56 491.74 202.78C491.74 205.3 493.96 207.02 497.54 207.02C499.34 207.02 500.98 206.4 502.28 205.36L503.5 206.68H506.18ZM498.42 191.82C499.94 191.82 501.02 192.72 501.02 194.06C501.02 195.62 499.48 196.46 497.5 197.36C496.38 196.18 495.68 195.34 495.68 194.18C495.68 192.8 496.88 191.82 498.42 191.82ZM497.66 205.28C495.28 205.28 493.82 204.24 493.82 202.68C493.82 201.32 495.02 200.5 496.88 199.56L501.04 204.04C500.12 204.8 498.96 205.28 497.66 205.28ZM514.474 192.88L513.694 191.52L511.534 193.06L511.794 190.4H510.194L510.454 193.06L508.314 191.5L507.514 192.88L509.934 193.98L507.514 195.06L508.294 196.44L510.454 194.9L510.194 197.54H511.794L511.534 194.88L513.674 196.44L514.474 195.06L512.054 193.98L514.474 192.88ZM523.255 198.08H516.255V199.88H523.255V198.08ZM533.293 207.88H525.293V209.6H533.293V207.88ZM544.677 194.98H535.877V196.74H544.677V194.98ZM544.677 200.58H535.877V202.34H544.677V200.58ZM556.966 197.78H553.246V193.96H551.286V197.78H547.566V199.54H551.286V203.36H553.246V199.54H556.966V197.78ZM562.682 207.44H564.902C562.602 205.1 561.002 202.06 561.002 198.52C561.002 194.98 562.602 191.94 564.902 189.6H562.682C560.462 192 558.962 194.88 558.962 198.52C558.962 202.16 560.462 205.04 562.682 207.44ZM565.81 207.44H568.01C570.25 205.04 571.73 202.16 571.73 198.52C571.73 194.88 570.25 192 568.01 189.6H565.81C568.11 191.94 569.69 194.98 569.69 198.52C569.69 202.06 568.11 205.1 565.81 207.44ZM573.638 189.6V207.44H579.118V205.7H575.618V191.34H579.118V189.6H573.638ZM580.206 207.44H585.686V189.6H580.206V191.34H583.706V205.7H580.206V207.44ZM594.054 207.44V205.7C592.334 205.7 591.374 204.96 591.374 203.4V201.26C591.374 199.9 590.894 198.86 589.414 198.52C590.894 198.18 591.374 197.14 591.374 195.78V193.64C591.374 192.08 592.334 191.34 594.054 191.34V189.6C590.914 189.6 589.354 191.12 589.354 193.28V195.6C589.354 196.96 588.794 197.62 587.434 197.62V199.42C588.794 199.42 589.354 200.08 589.354 201.44V203.74C589.354 205.92 590.914 207.44 594.054 207.44ZM595.444 205.7V207.44C598.584 207.44 600.144 205.92 600.144 203.74V201.44C600.144 200.08 600.724 199.42 602.084 199.42V197.62C600.724 197.62 600.144 196.96 600.144 195.6V193.28C600.144 191.12 598.584 189.6 595.444 189.6V191.34C597.164 191.34 598.144 192.08 598.144 193.64V195.78C598.144 197.14 598.604 198.18 600.084 198.52C598.604 198.86 598.144 199.9 598.144 201.26V203.4C598.144 204.96 597.164 205.7 595.444 205.7ZM605.293 193.28C604.493 193.28 603.893 193.9 603.893 194.68C603.893 195.46 604.493 196.08 605.293 196.08C606.073 196.08 606.673 195.46 606.673 194.68C606.673 193.9 606.073 193.28 605.293 193.28ZM605.453 205.84L606.433 201.38H604.413L603.813 205.84H605.453ZM610.43 193.28C609.63 193.28 609.03 193.9 609.03 194.68C609.03 195.46 609.63 196.08 610.43 196.08C611.21 196.08 611.81 195.46 611.81 194.68C611.81 193.9 611.21 193.28 610.43 193.28ZM610.43 201.24C609.63 201.24 609.03 201.84 609.03 202.64C609.03 203.42 609.63 204.02 610.43 204.02C611.21 204.02 611.81 203.42 611.81 202.64C611.81 201.84 611.21 201.24 610.43 201.24ZM616.046 192.2V190H613.766V192.32H614.906C614.906 193.34 614.446 194 613.566 194.24V195.36C615.106 195.06 616.046 193.78 616.046 192.2ZM619.894 192.2V190H617.614V192.32H618.754C618.754 193.34 618.294 194 617.414 194.24V195.36C618.954 195.06 619.894 193.78 619.894 192.2ZM622.974 192.2V190H620.694V192.32H621.834C621.834 193.34 621.374 194 620.494 194.24V195.36C622.034 195.06 622.974 193.78 622.974 192.2ZM627.488 204.16H625.488L624.848 208.68H626.488L627.488 204.16ZM631.172 206.92C631.972 206.92 632.572 206.3 632.572 205.5C632.572 204.7 631.972 204.08 631.172 204.08C630.372 204.08 629.752 204.7 629.752 205.5C629.752 206.3 630.372 206.92 631.172 206.92ZM634.769 197.48V199.5L643.809 205.14V203L636.569 198.48L643.809 193.94V191.82L634.769 197.48ZM646.415 205.14L655.455 199.5V197.48L646.415 191.82V193.94L653.655 198.48L646.415 203V205.14ZM659.202 208L666.522 189.3H664.442L657.122 208H659.202ZM672.366 202.22H674.326C674.326 200.62 674.586 199.5 676.366 198.28C677.826 197.24 678.586 196.06 678.586 194.62C678.586 192.12 676.746 190.24 673.506 190.24C670.446 190.24 668.366 192.38 668.306 194.94H670.346C670.406 193.56 671.446 192.06 673.526 192.06C675.446 192.06 676.566 193.08 676.566 194.62C676.566 195.72 675.906 196.46 674.566 197.42C672.846 198.6 672.366 199.9 672.366 202.22ZM673.386 206.98C674.226 206.98 674.866 206.34 674.866 205.5C674.866 204.68 674.226 204.04 673.386 204.04C672.566 204.04 671.926 204.68 671.926 205.5C671.926 206.34 672.566 206.98 673.386 206.98Z" fill="#222222"/>
</svg>
