<svg width="944" height="264" viewBox="0 0 944 264" fill="none" xmlns="http://www.w3.org/2000/svg">
<g clip-path="url(#clip0)">
<path d="M323.387 52.62C315.857 52.62 310.307 58.05 310.307 65.46C310.307 72.87 315.857 78.3 323.387 78.3C330.797 78.3 336.347 72.87 336.347 65.46V64.02H323.057V68.64H330.527C329.957 71.04 327.317 73.38 323.507 73.38C319.067 73.38 315.767 70.05 315.767 65.46C315.767 60.9 319.067 57.63 323.507 57.63C326.477 57.63 328.787 59.01 329.807 60.81H335.807C334.397 56.22 329.777 52.62 323.387 52.62ZM339.449 77.7H344.789V68.16C344.879 65.67 345.809 64.29 347.549 64.29C349.499 64.29 350.519 65.76 350.519 68.43V77.7H355.859V68.16C355.949 65.67 356.879 64.29 358.619 64.29C360.569 64.29 361.589 65.76 361.589 68.43V77.7H366.929V67.53C366.929 62.64 364.229 59.7 360.179 59.7C357.509 59.7 355.649 60.54 354.329 62.22C353.159 60.6 351.329 59.7 349.109 59.7C347.159 59.7 345.839 60.39 344.789 61.8V60.12H339.449V77.7ZM378.183 78.12C380.493 78.12 382.173 77.31 383.223 75.9V77.7H388.563V60.12H383.223V61.92C382.173 60.51 380.493 59.7 378.183 59.7C373.143 59.7 369.633 63.57 369.633 68.91C369.633 74.25 373.143 78.12 378.183 78.12ZM379.023 73.56C376.473 73.56 374.853 71.61 374.853 68.91C374.853 66.21 376.473 64.26 379.023 64.26C381.633 64.26 383.313 66.21 383.313 68.91C383.313 71.61 381.633 73.56 379.023 73.56ZM392.594 77.7H397.934V68.7C397.934 66.03 399.644 64.41 402.494 64.41C403.544 64.41 404.474 64.62 405.224 65.01L405.164 60C404.474 59.76 403.844 59.7 402.854 59.7C400.604 59.7 398.984 60.51 397.934 61.92V60.12H392.594V77.7ZM419.53 77.7H425.62L418.51 67.62L425.26 60.12H419.32L413.11 67.29V52.5H407.77V77.7H413.11V73.65L415.24 71.25L419.53 77.7ZM434.77 78.12C439.03 78.12 442.48 75.81 443.38 72.45H438.01C437.56 73.29 436.3 73.83 434.77 73.83C432.76 73.83 431.35 72.66 430.93 70.62H443.8C443.89 69.99 443.92 69.42 443.92 68.91C443.92 63.54 440.14 59.7 434.77 59.7C429.4 59.7 425.62 63.57 425.62 68.91C425.62 74.28 429.4 78.12 434.77 78.12ZM430.9 67.17C431.35 65.07 432.67 63.93 434.77 63.93C436.87 63.93 438.25 65.07 438.7 67.17H430.9ZM457.446 60.12H453.966V54.9H448.626V60.12H445.146V64.71H448.626V77.7H453.966V64.71H457.446V60.12ZM478.016 52.65C472.496 52.65 468.116 55.29 468.116 59.7C468.116 64.29 470.996 66.48 476.306 67.47C480.656 68.28 482.306 69.06 482.306 71.01C482.306 72.6 480.656 73.71 478.436 73.71C475.316 73.71 473.276 72.15 472.976 69.81H467.366C467.606 75.03 472.016 78.3 478.046 78.3C483.506 78.3 487.916 75.45 487.916 70.77C487.916 67.11 485.996 64.32 480.356 63.15C475.586 62.16 473.696 61.53 473.696 59.7C473.696 58.23 475.106 57.21 477.656 57.21C480.266 57.21 481.856 58.5 482.186 60.63H487.826C487.556 55.98 483.476 52.65 478.016 52.65ZM498.623 78.12C500.933 78.12 502.613 77.31 503.663 75.9V77.7H509.003V60.12H503.663V61.92C502.613 60.51 500.933 59.7 498.623 59.7C493.583 59.7 490.073 63.57 490.073 68.91C490.073 74.25 493.583 78.12 498.623 78.12ZM499.463 73.56C496.913 73.56 495.293 71.61 495.293 68.91C495.293 66.21 496.913 64.26 499.463 64.26C502.073 64.26 503.753 66.21 503.753 68.91C503.753 71.61 502.073 73.56 499.463 73.56ZM513.033 77.7H518.373V68.67C518.373 65.94 519.633 64.29 521.733 64.29C523.743 64.29 524.823 65.76 524.823 68.43V77.7H530.163V67.53C530.163 62.67 527.373 59.7 523.293 59.7C521.043 59.7 519.423 60.51 518.373 61.92V60.12H513.033V77.7ZM541.126 59.7C536.656 59.7 533.086 61.86 533.086 65.28C533.086 68.85 535.846 70.14 540.046 70.77C543.076 71.22 544.276 71.76 544.276 72.6C544.276 73.41 543.016 74.04 541.306 74.04C539.626 74.04 538.306 73.29 538.126 72.15H532.966C533.146 75.84 536.626 78.12 541.216 78.12C545.686 78.12 549.466 75.9 549.466 72.3C549.466 69.27 547.606 67.56 542.416 66.78C539.416 66.3 538.246 65.88 538.246 65.01C538.246 64.23 539.416 63.66 541.036 63.66C542.596 63.66 543.826 64.32 544.006 65.4H549.166C548.956 61.92 545.506 59.7 541.126 59.7ZM561.172 77.7H572.692C578.182 77.7 581.422 74.82 581.422 70.29C581.422 67.92 579.772 65.64 577.432 64.89C579.112 64.26 580.282 62.28 580.282 60.54C580.282 56.07 577.222 53.25 571.792 53.25H561.172V77.7ZM566.632 63.15V57.9H571.552C573.622 57.9 574.822 58.83 574.822 60.54C574.822 62.25 573.622 63.15 571.552 63.15H566.632ZM566.632 73.05V67.53H572.452C574.612 67.53 575.962 68.49 575.962 70.29C575.962 72.09 574.612 73.05 572.452 73.05H566.632ZM592.919 59.7C587.489 59.7 583.589 63.57 583.589 68.91C583.589 74.25 587.489 78.12 592.919 78.12C598.349 78.12 602.249 74.25 602.249 68.91C602.249 63.57 598.349 59.7 592.919 59.7ZM592.919 64.26C595.439 64.26 597.089 66.21 597.089 68.91C597.089 71.61 595.439 73.56 592.919 73.56C590.399 73.56 588.749 71.61 588.749 68.91C588.749 66.21 590.399 64.26 592.919 64.26ZM610.717 52.5H605.377V77.7H610.717V52.5ZM622.373 78.12C624.683 78.12 626.363 77.31 627.413 75.9V77.7H632.753V52.5H627.413V61.92C626.363 60.51 624.683 59.7 622.373 59.7C617.333 59.7 613.823 63.57 613.823 68.91C613.823 74.25 617.333 78.12 622.373 78.12ZM623.213 73.56C620.663 73.56 619.043 71.61 619.043 68.91C619.043 66.21 620.663 64.26 623.213 64.26C625.823 64.26 627.503 66.21 627.503 68.91C627.503 71.61 625.823 73.56 623.213 73.56Z" fill="#222222"/>
<path d="M372.109 109.4H375.449V100H372.109V101.34H370.129V104.22H372.109V105.34H369.469V108.22H372.109V109.4ZM369.329 102.52V100.2H359.249V103H365.889V103.26C365.889 105.08 363.249 106.26 359.249 106.3V109.16C365.069 109.16 369.329 107.22 369.329 102.52ZM367.809 109.64C363.449 109.64 360.009 110.62 360.009 113.46C360.009 116.3 363.449 117.28 367.809 117.28C372.169 117.28 375.609 116.3 375.609 113.46C375.609 110.62 372.169 109.64 367.809 109.64ZM367.809 114.58C365.509 114.58 363.649 114.28 363.649 113.46C363.649 112.66 365.509 112.34 367.809 112.34C370.109 112.34 371.969 112.66 371.969 113.46C371.969 114.28 370.109 114.58 367.809 114.58ZM389.707 101H385.587V99.7H382.147V101H378.027V103.48H389.707V101ZM391.307 100V104.56H389.507V107.54H391.307V110.12H394.687V100H391.307ZM383.867 110.18C386.687 110.18 389.027 109.08 389.027 107.04C389.027 105 386.687 103.9 383.867 103.9C381.047 103.9 378.707 105 378.707 107.04C378.707 109.08 381.047 110.18 383.867 110.18ZM383.867 106.24C385.087 106.24 385.867 106.56 385.867 107.04C385.867 107.52 385.087 107.84 383.867 107.84C382.647 107.84 381.867 107.52 381.867 107.04C381.867 106.56 382.647 106.24 383.867 106.24ZM379.407 117.08H394.687V110.72H379.407V117.08ZM382.747 113.3H391.347V114.5H382.747V113.3ZM405.966 99.72C401.486 99.72 398.206 100.56 398.206 102.94C398.206 105.32 401.486 106.16 405.966 106.16C410.446 106.16 413.726 105.32 413.726 102.94C413.726 100.56 410.446 99.72 405.966 99.72ZM405.966 102.14C408.506 102.14 410.146 102.38 410.146 102.94C410.146 103.52 408.506 103.74 405.966 103.74C403.426 103.74 401.786 103.52 401.786 102.94C401.786 102.38 403.426 102.14 405.966 102.14ZM414.606 106.72H397.326V109.18H414.606V106.72ZM413.606 109.84H398.306V111.96H410.306V112.54H398.346V117.08H413.786V114.88H401.646V114.3H413.606V109.84ZM433.569 105.92L433.369 108.9H435.449V112.66H438.769V100H435.449V101.32H433.369L433.569 104.3H435.449V105.92H433.569ZM433.049 105.14C433.049 102.06 430.829 100.02 427.549 100.02C424.269 100.02 422.049 102.06 422.049 105.14C422.049 108.24 424.269 110.26 427.549 110.26C430.829 110.26 433.049 108.24 433.049 105.14ZM425.389 105.14C425.389 103.66 426.269 102.84 427.549 102.84C428.829 102.84 429.709 103.66 429.709 105.14C429.709 106.62 428.829 107.44 427.549 107.44C426.269 107.44 425.389 106.62 425.389 105.14ZM427.129 114.06V111.1H423.689V117.08H439.009V114.06H427.129ZM454.688 108.36H458.008V100H454.688V101.12H452.688V103.86H454.688V104.84H452.028V107.58H454.688V108.36ZM451.888 102.42V100.2H441.808V102.92H448.488V103.1C448.488 104.6 445.788 105.58 441.808 105.62V108.36C447.508 108.36 451.888 106.86 451.888 102.42ZM446.088 114.74V114.06H458.008V108.96H442.708V111.3H454.668V111.98H442.748V117.08H458.188V114.74H446.088ZM472.166 101H468.046V99.7H464.606V101H460.486V103.44H472.166V101ZM478.686 102.9H476.686V100H473.306V109.66H476.686V106.06H478.686V102.9ZM466.326 109.94C469.146 109.94 471.506 108.9 471.506 106.9C471.506 104.9 469.146 103.86 466.326 103.86C463.506 103.86 461.126 104.9 461.126 106.9C461.126 108.9 463.506 109.94 466.326 109.94ZM466.326 106.16C467.546 106.16 468.346 106.42 468.346 106.9C468.346 107.38 467.546 107.64 466.326 107.64C465.106 107.64 464.306 107.38 464.306 106.9C464.306 106.42 465.106 106.16 466.326 106.16ZM473.406 111.22H464.886V110.26H461.606V117.08H476.686V110.26H473.406V111.22ZM464.886 114.56V113.6H473.406V114.56H464.886ZM496.404 100H493.024V117.08H496.404V100ZM484.124 100.3H480.644V116.28H487.704C489.344 116.28 491.084 115.98 492.124 115.46V112.38C491.084 112.88 489.324 113.2 487.704 113.2H484.124V100.3ZM517.163 106.24H515.163V100H511.783V117.08H515.163V109.52H517.163V106.24ZM503.143 113.22V103.46H509.643V100.4H499.703V116.28H506.323C507.963 116.28 509.943 116 510.983 115.48V112.46C509.943 112.94 508.183 113.22 506.563 113.22H503.143ZM520.321 112.96C519.161 112.96 518.321 113.82 518.321 114.96C518.321 116.1 519.161 116.96 520.321 116.96C521.461 116.96 522.301 116.1 522.301 114.96C522.301 113.82 521.461 112.96 520.321 112.96ZM538.286 100.08C533.266 100.08 529.566 103.7 529.566 108.64C529.566 113.58 533.266 117.2 538.286 117.2C543.226 117.2 546.926 113.58 546.926 108.64V107.68H538.066V110.76H543.046C542.666 112.36 540.906 113.92 538.366 113.92C535.406 113.92 533.206 111.7 533.206 108.64C533.206 105.6 535.406 103.42 538.366 103.42C540.346 103.42 541.886 104.34 542.566 105.54H546.566C545.626 102.48 542.546 100.08 538.286 100.08ZM566.674 106.24H564.674V100H561.294V117.08H564.674V109.52H566.674V106.24ZM549.214 116.28H559.154V100.4H549.214V116.28ZM552.594 103.54H555.774V113.14H552.594V103.54ZM584.873 100H581.713V112.06H584.873V100ZM575.393 106.96H577.413V109.54H580.533V100.08H577.413V103.88H575.933V103.86V100.2H568.073V103H572.813V103.88V104.16H568.073V106.9H572.093C571.393 107.92 570.113 108.38 568.073 108.4V111.24C571.553 111.24 574.273 109.78 575.393 106.96ZM585.653 114.3L578.753 112.1C579.013 111.62 579.213 111.12 579.353 110.58L575.973 109.92C575.273 112.44 572.393 113.92 568.993 113.92V117.08C571.973 117.08 574.833 116.22 576.853 114.48L584.553 117.28L585.653 114.3ZM271.826 146.8H275.886L269.566 130.5H265.786L259.466 146.8H263.226L264.366 143.64H270.686L271.826 146.8ZM265.486 140.48L267.526 134.8L269.566 140.48H265.486ZM277.522 146.8H285.202C288.862 146.8 291.022 144.88 291.022 141.86C291.022 140.28 289.922 138.76 288.362 138.26C289.482 137.84 290.262 136.52 290.262 135.36C290.262 132.38 288.222 130.5 284.602 130.5H277.522V146.8ZM281.162 137.1V133.6H284.442C285.822 133.6 286.622 134.22 286.622 135.36C286.622 136.5 285.822 137.1 284.442 137.1H281.162ZM281.162 143.7V140.02H285.042C286.482 140.02 287.382 140.66 287.382 141.86C287.382 143.06 286.482 143.7 285.042 143.7H281.162ZM301.167 147.2C305.687 147.2 308.967 144.12 309.467 140.84H305.787C305.507 142.32 303.587 143.86 301.247 143.86C298.287 143.86 296.087 141.66 296.087 138.64C296.087 135.6 298.287 133.42 301.247 133.42C303.587 133.42 305.247 134.66 305.627 136.22H309.307C308.647 132.78 305.647 130.08 301.167 130.08C296.147 130.08 292.447 133.7 292.447 138.64C292.447 143.58 296.147 147.2 301.167 147.2ZM311.565 146.8H317.885C323.285 146.8 326.625 143.48 326.625 138.66C326.625 133.84 323.285 130.5 317.885 130.5H311.565V146.8ZM315.205 143.58V133.72H317.945C321.065 133.72 322.985 135.52 322.985 138.66C322.985 141.8 321.065 143.58 317.945 143.58H315.205ZM328.811 146.8H341.111V143.64H332.451V140.14H340.231V136.98H332.451V133.66H340.931V130.5H328.811V146.8ZM343.557 146.8H347.197V140.56H354.597V137.4H347.197V133.7H355.517V130.5H343.557V146.8ZM365.522 130.08C360.502 130.08 356.802 133.7 356.802 138.64C356.802 143.58 360.502 147.2 365.522 147.2C370.462 147.2 374.162 143.58 374.162 138.64V137.68H365.302V140.76H370.282C369.902 142.36 368.142 143.92 365.602 143.92C362.642 143.92 360.442 141.7 360.442 138.64C360.442 135.6 362.642 133.42 365.602 133.42C367.582 133.42 369.122 134.34 369.802 135.54H373.802C372.862 132.48 369.782 130.08 365.522 130.08ZM387.171 130.5V136.96H379.971V130.5H376.331V146.8H379.971V140.18H387.171V146.8H390.811V130.5H387.171ZM393.694 130.5V146.8H397.334V130.5H393.694ZM399.017 141.38C399.057 144.62 401.497 147.2 405.417 147.2C409.337 147.2 411.937 144.68 411.937 140.78V130.5H408.297V140.78C408.297 142.66 407.217 143.92 405.417 143.92C403.617 143.92 402.657 142.58 402.657 141.38H399.017ZM424.993 146.8H429.533L422.793 137.88L429.193 130.5H424.733L418.213 138.18V130.5H414.573V146.8H418.213V143.14L420.433 140.58L424.993 146.8ZM431.096 130.5V146.8H442.876V143.58H434.736V130.5H431.096ZM444.71 146.8H448.35V137.86L452.13 144.12H454.33L458.11 137.86V146.8H461.75V130.5H458.85L453.23 139.62L447.61 130.5H444.71V146.8ZM464.631 146.8H468.271V136.8L476.411 146.6H479.451V130.3H475.811V140.3L467.671 130.5H464.631V146.8ZM490.407 147.2C495.467 147.2 499.207 143.58 499.207 138.64C499.207 133.7 495.467 130.08 490.407 130.08C485.347 130.08 481.607 133.7 481.607 138.64C481.607 143.58 485.347 147.2 490.407 147.2ZM490.407 143.92C487.447 143.92 485.247 141.7 485.247 138.64C485.247 135.56 487.447 133.36 490.407 133.36C493.367 133.36 495.567 135.56 495.567 138.64C495.567 141.7 493.367 143.92 490.407 143.92ZM501.37 146.8H505.01V142.46H507.63C511.87 142.46 514.35 140.1 514.35 136.46C514.35 132.86 511.87 130.5 507.63 130.5H501.37V146.8ZM505.01 139.24V133.72H507.47C509.49 133.72 510.71 134.66 510.71 136.46C510.71 138.28 509.49 139.24 507.47 139.24H505.01ZM533.191 138.64C533.191 133.7 529.451 130.08 524.391 130.08C519.331 130.08 515.591 133.7 515.591 138.64C515.591 143.58 519.331 147.2 524.391 147.2C525.651 147.2 526.831 146.98 527.871 146.56L530.231 149.52L533.131 147.3L530.931 144.52C532.351 143.02 533.191 140.98 533.191 138.64ZM524.391 143.92C521.431 143.92 519.231 141.7 519.231 138.64C519.231 135.56 521.431 133.36 524.391 133.36C527.351 133.36 529.551 135.56 529.551 138.64C529.551 139.8 529.231 140.84 528.691 141.68L526.451 138.86L523.531 141.1L525.651 143.78C525.251 143.88 524.831 143.92 524.391 143.92ZM549.274 146.8L545.494 140.94C547.414 140.04 548.474 138.32 548.474 136.08C548.474 132.7 546.054 130.5 541.914 130.5H535.354V146.8H538.994V141.66H541.894L545.054 146.8H549.274ZM538.994 133.72H541.754C543.674 133.72 544.834 134.54 544.834 136.08C544.834 137.62 543.674 138.44 541.754 138.44H538.994V133.72ZM557.143 130.1C553.463 130.1 550.543 131.86 550.543 134.8C550.543 137.86 552.463 139.32 556.003 139.98C558.903 140.52 560.003 141.04 560.003 142.34C560.003 143.4 558.903 144.14 557.423 144.14C555.343 144.14 553.983 143.1 553.783 141.54H550.043C550.203 145.02 553.143 147.2 557.163 147.2C560.803 147.2 563.743 145.3 563.743 142.18C563.743 139.74 562.463 137.88 558.703 137.1C555.523 136.44 554.263 136.02 554.263 134.8C554.263 133.82 555.203 133.14 556.903 133.14C558.643 133.14 559.703 134 559.923 135.42H563.683C563.503 132.32 560.783 130.1 557.143 130.1ZM578.987 130.5H564.747V133.72H570.047V146.8H573.687V133.72H578.987V130.5ZM580.74 139.58C580.74 144.2 583.72 147.2 588.2 147.2C592.68 147.2 595.66 144.2 595.66 139.58V130.5H592.02V139.58C592.02 142.18 590.58 143.92 588.2 143.92C585.82 143.92 584.38 142.18 584.38 139.58V130.5H580.74V139.58ZM610.082 130.5L605.662 142.5L601.222 130.5H597.102L603.542 146.8H607.462L613.902 130.5H610.082ZM633.465 130.5L630.645 141.12L627.865 130.5H624.085L621.285 141.16L618.485 130.5H614.585L619.285 146.8H622.965L625.885 136.58L628.805 146.8H632.485L637.185 130.5H633.465ZM637.844 146.8H641.984L645.564 141.18L649.064 146.8H653.324L647.904 138.46L653.144 130.5H649.004L645.624 135.82L642.344 130.5H638.024L643.244 138.58L637.844 146.8ZM669.799 130.5H665.939L662.039 138.2L658.119 130.5H653.959L660.059 141.68V146.8H663.699V141.68L669.799 130.5ZM670.846 146.8H684.286V143.64H675.786L683.886 132.92V130.52H671.246V133.68H678.946L670.846 144.4V146.8ZM311.126 175.08C312.666 175.08 313.786 174.54 314.486 173.6V174.8H318.046V163.08H314.486V164.28C313.786 163.34 312.666 162.8 311.126 162.8C307.766 162.8 305.426 165.38 305.426 168.94C305.426 172.5 307.766 175.08 311.126 175.08ZM311.686 172.04C309.986 172.04 308.906 170.74 308.906 168.94C308.906 167.14 309.986 165.84 311.686 165.84C313.426 165.84 314.546 167.14 314.546 168.94C314.546 170.74 313.426 172.04 311.686 172.04ZM327.653 175.08C331.013 175.08 333.353 172.5 333.353 168.94C333.353 165.38 331.013 162.8 327.653 162.8C326.113 162.8 324.993 163.34 324.293 164.28V158H320.733V174.8H324.293V173.6C324.993 174.54 326.113 175.08 327.653 175.08ZM327.093 172.04C325.353 172.04 324.233 170.74 324.233 168.94C324.233 167.14 325.353 165.84 327.093 165.84C328.793 165.84 329.873 167.14 329.873 168.94C329.873 170.74 328.793 172.04 327.093 172.04ZM346.9 170.58H343.3C342.98 171.42 342.16 171.98 341.06 171.98C339.4 171.98 338.32 170.7 338.32 168.94C338.32 167.18 339.4 165.9 341.06 165.9C342.18 165.9 342.96 166.46 343.24 167.26H346.84C346.42 164.76 344.12 162.8 341.06 162.8C337.44 162.8 334.84 165.38 334.84 168.94C334.84 172.5 337.44 175.08 341.06 175.08C344.02 175.08 346.3 173.3 346.9 170.58ZM353.919 175.08C355.459 175.08 356.579 174.54 357.279 173.6V174.8H360.839V158H357.279V164.28C356.579 163.34 355.459 162.8 353.919 162.8C350.559 162.8 348.219 165.38 348.219 168.94C348.219 172.5 350.559 175.08 353.919 175.08ZM354.479 172.04C352.779 172.04 351.699 170.74 351.699 168.94C351.699 167.14 352.779 165.84 354.479 165.84C356.219 165.84 357.339 167.14 357.339 168.94C357.339 170.74 356.219 172.04 354.479 172.04ZM369.026 175.08C371.866 175.08 374.166 173.54 374.766 171.3H371.186C370.886 171.86 370.046 172.22 369.026 172.22C367.686 172.22 366.746 171.44 366.466 170.08H375.046C375.106 169.66 375.126 169.28 375.126 168.94C375.126 165.36 372.606 162.8 369.026 162.8C365.446 162.8 362.926 165.38 362.926 168.94C362.926 172.52 365.446 175.08 369.026 175.08ZM366.446 167.78C366.746 166.38 367.626 165.62 369.026 165.62C370.426 165.62 371.346 166.38 371.646 167.78H366.446ZM383.861 163.08H381.621V162.12C381.621 161.42 382.041 160.98 382.741 160.98C383.001 160.98 383.401 160.98 383.661 161.02V158.04C383.221 157.96 382.641 157.92 382.041 157.92C379.501 157.92 378.061 159.62 378.061 161.92V163.08H376.101V166.14H378.061V174.8H381.621V166.14H383.861V163.08ZM391.283 179.96C394.783 179.96 397.323 177.76 397.323 174.58V163.08H393.763V164.28C393.063 163.34 391.943 162.8 390.403 162.8C387.043 162.8 384.703 165.34 384.703 168.84C384.703 172.28 387.043 174.78 390.403 174.78C391.943 174.78 393.063 174.24 393.763 173.3V174.54C393.763 176 392.763 176.96 391.283 176.96C389.963 176.96 389.283 176.48 389.103 175.72H385.503C385.883 177.98 387.803 179.96 391.283 179.96ZM390.963 171.84C389.263 171.84 388.183 170.58 388.183 168.84C388.183 167.1 389.263 165.84 390.963 165.84C392.703 165.84 393.823 167.1 393.823 168.84C393.823 170.58 392.703 171.84 390.963 171.84ZM400.01 174.8H403.57V168.78C403.57 166.96 404.41 165.86 405.81 165.86C407.15 165.86 407.87 166.84 407.87 168.62V174.8H411.43V168.02C411.43 164.78 409.57 162.8 406.85 162.8C405.35 162.8 404.27 163.34 403.57 164.28V158H400.01V174.8ZM415.618 157.42C414.358 157.42 413.438 158.34 413.438 159.6C413.438 160.86 414.358 161.78 415.618 161.78C416.878 161.78 417.798 160.86 417.798 159.6C417.798 158.34 416.878 157.42 415.618 157.42ZM417.398 163.08H413.838V174.84H417.398V163.08ZM421.849 161.78C423.109 161.78 424.029 160.86 424.029 159.6C424.029 158.34 423.109 157.42 421.849 157.42C420.589 157.42 419.669 158.34 419.669 159.6C419.669 160.86 420.589 161.78 421.849 161.78ZM419.809 179.78C422.249 179.78 423.629 178.14 423.629 175.92V163.08H420.069V175.62C420.069 176.3 419.669 176.72 418.989 176.72C418.669 176.72 418.349 176.72 418.029 176.68V179.66C418.509 179.74 419.089 179.78 419.809 179.78ZM434.139 174.8H438.199L433.459 168.08L437.959 163.08H433.999L429.859 167.86V158H426.299V174.8H429.859V172.1L431.279 170.5L434.139 174.8ZM443.199 158H439.639V174.8H443.199V158ZM445.869 174.8H449.429V168.44C449.489 166.78 450.109 165.86 451.269 165.86C452.569 165.86 453.249 166.84 453.249 168.62V174.8H456.809V168.44C456.869 166.78 457.489 165.86 458.649 165.86C459.949 165.86 460.629 166.84 460.629 168.62V174.8H464.189V168.02C464.189 164.76 462.389 162.8 459.689 162.8C457.909 162.8 456.669 163.36 455.789 164.48C455.009 163.4 453.789 162.8 452.309 162.8C451.009 162.8 450.129 163.26 449.429 164.2V163.08H445.869V174.8ZM466.592 174.8H470.152V168.78C470.152 166.96 470.992 165.86 472.392 165.86C473.732 165.86 474.452 166.84 474.452 168.62V174.8H478.012V168.02C478.012 164.78 476.152 162.8 473.432 162.8C471.932 162.8 470.852 163.34 470.152 164.28V163.08H466.592V174.8ZM486.04 162.8C482.42 162.8 479.82 165.38 479.82 168.94C479.82 172.5 482.42 175.08 486.04 175.08C489.66 175.08 492.26 172.5 492.26 168.94C492.26 165.38 489.66 162.8 486.04 162.8ZM486.04 165.84C487.72 165.84 488.82 167.14 488.82 168.94C488.82 170.74 487.72 172.04 486.04 172.04C484.36 172.04 483.26 170.74 483.26 168.94C483.26 167.14 484.36 165.84 486.04 165.84ZM494.346 179.68H497.906V173.6C498.606 174.54 499.726 175.08 501.266 175.08C504.626 175.08 506.966 172.5 506.966 168.94C506.966 165.38 504.626 162.8 501.266 162.8C499.726 162.8 498.606 163.34 497.906 164.28V163.08H494.346V179.68ZM500.706 172.04C498.966 172.04 497.846 170.74 497.846 168.94C497.846 167.14 498.966 165.84 500.706 165.84C502.406 165.84 503.486 167.14 503.486 168.94C503.486 170.74 502.406 172.04 500.706 172.04ZM517.513 179.68H521.073V163.08H517.513V164.28C516.813 163.34 515.693 162.8 514.153 162.8C510.793 162.8 508.453 165.38 508.453 168.94C508.453 172.5 510.793 175.08 514.153 175.08C515.693 175.08 516.813 174.54 517.513 173.6V179.68ZM514.713 172.04C513.013 172.04 511.933 170.74 511.933 168.94C511.933 167.14 513.013 165.84 514.713 165.84C516.453 165.84 517.573 167.14 517.573 168.94C517.573 170.74 516.453 172.04 514.713 172.04ZM523.76 174.8H527.32V168.8C527.32 167.02 528.46 165.94 530.36 165.94C531.06 165.94 531.68 166.08 532.18 166.34L532.14 163C531.68 162.84 531.26 162.8 530.6 162.8C529.1 162.8 528.02 163.34 527.32 164.28V163.08H523.76V174.8ZM538.777 162.8C535.797 162.8 533.417 164.24 533.417 166.52C533.417 168.9 535.257 169.76 538.057 170.18C540.077 170.48 540.877 170.84 540.877 171.4C540.877 171.94 540.037 172.36 538.897 172.36C537.777 172.36 536.897 171.86 536.777 171.1H533.337C533.457 173.56 535.777 175.08 538.837 175.08C541.817 175.08 544.337 173.6 544.337 171.2C544.337 169.18 543.097 168.04 539.637 167.52C537.637 167.2 536.857 166.92 536.857 166.34C536.857 165.82 537.637 165.44 538.717 165.44C539.757 165.44 540.577 165.88 540.697 166.6H544.137C543.997 164.28 541.697 162.8 538.777 162.8ZM553.499 163.08H551.179V159.6H547.619V163.08H545.299V166.14H547.619V174.8H551.179V166.14H553.499V163.08ZM559.566 175.08C561.066 175.08 562.146 174.54 562.846 173.6V174.8H566.406V163.08H562.846V169.1C562.846 170.92 562.006 172.02 560.606 172.02C559.266 172.02 558.546 171.04 558.546 169.26V163.08H554.986V169.86C554.986 173.1 556.846 175.08 559.566 175.08ZM577.052 163.08L574.432 170.72L571.812 163.08H567.952L572.452 174.8H576.152L580.652 163.08H577.052ZM596.993 163.08L594.913 170.66L592.853 163.08H589.213L587.173 170.62L585.093 163.08H581.333L585.253 174.8H588.813L590.913 168.1L593.033 174.8H596.613L600.533 163.08H596.993ZM600.998 174.8H605.038L607.438 171.28L609.858 174.8H614.138L609.718 168.8L613.898 163.08H609.858L607.618 166.44L605.338 163.08H601.058L605.338 168.88L600.998 174.8ZM623.514 163.08L620.954 170.32L618.414 163.08H614.474L619.094 174.48L616.974 179.68H620.474L627.214 163.08H623.514ZM632.841 171.78L638.641 165.46V163.08H628.281V166.1H633.821L628.021 172.42V174.8H639.021V171.78H632.841ZM261.317 189.5H254.817V192.66H257.697V205.8H261.317V189.5ZM270.149 189.06C266.709 189.06 264.289 191.46 264.289 194.66H267.869C267.869 193.42 268.669 192.22 270.149 192.22C271.729 192.22 272.389 193.02 272.389 194.22C272.389 195.14 271.929 196.2 269.969 198.22L264.629 203.72V205.8H276.289V202.72H269.949L272.289 200.3C275.149 197.34 275.969 195.88 275.969 194.18C275.969 191.22 273.809 189.06 270.149 189.06ZM283.569 189.06C280.229 189.06 277.889 191.3 277.889 194.4H281.469C281.469 193.24 282.129 192.1 283.549 192.1C284.909 192.1 285.709 192.84 285.709 194.04C285.709 195.28 284.829 196.08 283.349 196.08H281.729V199.04H283.349C285.049 199.04 286.189 199.76 286.189 201.12C286.189 202.32 285.189 203.14 283.689 203.14C282.169 203.14 281.349 202.36 281.209 201.06H277.629C277.889 204.2 280.109 206.2 283.689 206.2C287.069 206.2 289.729 204.24 289.729 201.1C289.729 199 288.049 197.7 286.549 197.46C287.909 197.22 289.289 195.84 289.289 193.96C289.289 191.04 286.949 189.06 283.569 189.06ZM298.306 205.8H301.746V202.52H303.886V199.52H301.746V189.5H297.286L290.986 199.52V202.52H298.306V205.8ZM294.466 199.52L298.306 193.24V199.52H294.466ZM310.895 206.18C314.255 206.18 316.815 203.94 316.815 200.5C316.815 197.04 314.655 194.98 311.455 194.98C310.415 194.98 309.535 195.24 308.835 195.66L309.015 192.6H316.015V189.5H305.715L305.235 199.02H308.535C308.975 198.42 309.695 197.92 310.835 197.92C312.395 197.92 313.275 198.98 313.275 200.5C313.275 202 312.375 203.1 310.895 203.1C309.395 203.1 308.655 202.34 308.515 201.04H304.935C305.195 204.18 307.355 206.18 310.895 206.18ZM324.474 206.18C327.894 206.18 330.654 203.8 330.654 200.46C330.654 197.16 328.034 194.94 324.854 194.94C324.674 194.94 324.494 194.98 324.394 195.02L328.094 189.5H323.974L319.774 196.16C318.814 197.68 318.294 198.9 318.294 200.48C318.294 203.96 321.074 206.18 324.474 206.18ZM324.474 203.1C322.854 203.1 321.834 201.96 321.834 200.5C321.834 199.04 322.854 197.9 324.474 197.9C326.094 197.9 327.114 199.04 327.114 200.5C327.114 201.96 326.094 203.1 324.474 203.1ZM342.367 189.5H331.167V192.66H338.127L332.507 205.8H336.307L342.367 191.66V189.5ZM355.967 201.36C355.967 199.1 354.127 197.66 352.667 197.36C353.907 196.98 355.367 195.58 355.367 193.72C355.367 191.2 353.107 189.06 349.767 189.06C346.447 189.06 344.127 191.16 344.127 193.72C344.127 195.58 345.607 196.98 346.867 197.36C345.427 197.66 343.567 199.1 343.567 201.36C343.567 204.32 346.307 206.2 349.767 206.2C353.227 206.2 355.967 204.32 355.967 201.36ZM351.967 193.86C351.967 194.96 351.027 195.72 349.767 195.72C348.547 195.72 347.567 194.92 347.567 193.78C347.567 192.74 348.507 192.02 349.767 192.02C351.067 192.02 351.967 192.82 351.967 193.86ZM352.467 201.14C352.467 202.32 351.367 203.2 349.767 203.2C348.167 203.2 347.067 202.32 347.067 201.14C347.067 199.92 348.207 199.02 349.767 199.02C351.327 199.02 352.467 199.92 352.467 201.14ZM359.501 205.8H363.621L367.821 199.14C368.781 197.62 369.301 196.4 369.301 194.82C369.301 191.34 366.521 189.12 363.121 189.12C359.721 189.12 356.941 191.36 356.941 194.84C356.941 198.14 359.561 200.36 362.741 200.36C362.921 200.36 363.101 200.32 363.201 200.28L359.501 205.8ZM363.121 197.4C361.501 197.4 360.481 196.26 360.481 194.8C360.481 193.34 361.501 192.2 363.121 192.2C364.741 192.2 365.761 193.34 365.761 194.8C365.761 196.26 364.741 197.4 363.121 197.4ZM376.979 189.06C373.419 189.06 370.739 191.92 370.739 197.64C370.739 203.34 373.419 206.2 376.979 206.2C380.539 206.2 383.219 203.34 383.219 197.64C383.219 191.92 380.539 189.06 376.979 189.06ZM376.979 192.24C378.579 192.24 379.779 193.92 379.779 197.64C379.779 201.34 378.579 203.02 376.979 203.02C375.379 203.02 374.179 201.34 374.179 197.64C374.179 193.92 375.379 192.24 376.979 192.24ZM390.627 196.32V199.46C391.307 198.82 391.967 198.52 392.987 198.52C394.587 198.52 395.927 199.84 397.687 199.84C398.727 199.84 399.647 199.48 400.367 198.76V195.62C399.687 196.36 399.027 196.72 398.007 196.72C396.407 196.72 395.087 195.4 393.307 195.4C392.267 195.4 391.347 195.7 390.627 196.32ZM406.685 189.5H402.365L403.285 200.4H405.765L406.685 189.5ZM404.525 201.86C403.305 201.86 402.405 202.76 402.405 203.98C402.405 205.2 403.305 206.08 404.525 206.08C405.745 206.08 406.645 205.2 406.645 203.98C406.645 202.76 405.745 201.86 404.525 201.86ZM417.733 207.9C419.913 207.9 421.893 207.36 423.133 206.4V204.38C421.833 205.2 420.113 205.58 417.733 205.58C413.633 205.58 410.833 202.56 410.833 198.5C410.833 194.48 413.653 191.42 417.793 191.42C422.013 191.42 424.533 194.14 424.533 197.84C424.533 199.88 423.913 201.12 422.973 201.12C422.373 201.12 422.113 200.62 422.113 199.94V194.2H419.373V195.1C418.853 194.38 418.053 193.96 416.953 193.96C414.393 193.96 412.653 195.88 412.653 198.6C412.653 201.26 414.393 203.16 416.953 203.16C418.113 203.16 418.953 202.72 419.513 201.9L419.613 202.08C420.113 202.96 421.113 203.58 422.313 203.58C425.153 203.58 427.233 201.04 427.233 197.8C427.233 193.12 423.773 189.14 417.793 189.14C411.933 189.14 408.133 193.46 408.133 198.5C408.133 203.74 411.953 207.9 417.733 207.9ZM417.353 200.8C416.213 200.8 415.453 199.86 415.453 198.6C415.453 197.26 416.213 196.36 417.353 196.36C418.553 196.36 419.333 197.26 419.333 198.6C419.333 199.86 418.553 200.8 417.353 200.8ZM441.854 196.1V193.5H439.914L440.634 189.5H437.734L437.014 193.5H434.714L435.434 189.5H432.534L431.814 193.5H429.454V196.1H431.334L430.794 199.2H428.374V201.8H430.314L429.594 205.8H432.494L433.214 201.8H435.514L434.794 205.8H437.694L438.414 201.8H440.774V199.2H438.894L439.434 196.1H441.854ZM435.994 199.2H433.694L434.234 196.1H436.534L435.994 199.2ZM455.997 200.98C455.997 198.78 454.677 197.04 451.317 196.24L451.057 196.18V192.64C451.917 192.98 452.437 193.68 452.577 194.64H455.937C455.797 192.12 453.817 190.22 451.057 189.8V188.08H448.457V189.8C445.597 190.18 443.717 191.78 443.717 194.04C443.717 196.6 445.437 198.12 448.457 198.8V202.62C447.397 202.22 446.737 201.4 446.597 200.34H443.257C443.377 203.16 445.457 205.04 448.457 205.5V207.22H451.057V205.52C453.877 205.18 455.997 203.54 455.997 200.98ZM447.037 193.98C447.037 193.24 447.537 192.72 448.457 192.5V195.46C447.457 195.1 447.037 194.7 447.037 193.98ZM451.057 202.8V199.44C452.197 199.82 452.657 200.3 452.657 201.12C452.657 201.96 452.017 202.56 451.057 202.8ZM461.497 189.2C459.137 189.2 457.497 190.82 457.497 193.06C457.497 195.28 459.137 196.9 461.497 196.9C463.877 196.9 465.517 195.28 465.517 193.06C465.517 190.82 463.877 189.2 461.497 189.2ZM473.117 189.5H470.377L459.577 205.8H462.317L473.117 189.5ZM461.497 191.52C462.397 191.52 463.037 192.18 463.037 193.06C463.037 193.94 462.397 194.6 461.497 194.6C460.597 194.6 459.957 193.94 459.957 193.06C459.957 192.18 460.597 191.52 461.497 191.52ZM471.177 198.38C468.817 198.38 467.177 200 467.177 202.24C467.177 204.46 468.817 206.08 471.177 206.08C473.557 206.08 475.197 204.46 475.197 202.24C475.197 200 473.557 198.38 471.177 198.38ZM471.177 200.7C472.077 200.7 472.717 201.36 472.717 202.24C472.717 203.12 472.077 203.78 471.177 203.78C470.277 203.78 469.637 203.12 469.637 202.24C469.637 201.36 470.277 200.7 471.177 200.7ZM476.494 194.98H479.594L481.054 192.36L482.514 194.98H485.554L482.534 189.68H479.514L476.494 194.98ZM502.113 205.84L499.473 202.7C500.433 201.36 501.073 199.7 501.253 197.86H498.053C497.933 198.66 497.693 199.46 497.353 200.18L495.253 197.7C497.253 196.66 498.813 195.3 498.813 193.08C498.813 190.72 496.793 189.06 493.833 189.06C490.913 189.06 488.693 190.8 488.693 193.32C488.693 194.62 489.273 195.72 490.113 196.82C488.213 197.82 486.813 199.24 486.813 201.46C486.813 204.24 489.093 206.2 492.893 206.2C494.373 206.2 495.773 205.78 496.973 205.06L497.633 205.84H502.113ZM493.853 191.6C494.733 191.6 495.373 192.28 495.373 193.24C495.373 194.26 494.533 194.92 493.353 195.46C492.693 194.66 492.213 194.02 492.213 193.22C492.213 192.28 492.933 191.6 493.853 191.6ZM493.133 203.32C491.433 203.32 490.393 202.46 490.393 201.28C490.393 200.34 491.013 199.74 492.053 199.18L495.093 202.8C494.513 203.12 493.853 203.32 493.133 203.32ZM510.816 192.22L509.596 190.14L507.816 191.54L508.156 189.3H505.736L506.076 191.54L504.296 190.12L503.096 192.22L505.196 193.06L503.076 193.88L504.296 195.96L506.076 194.56L505.736 196.8H508.156L507.816 194.56L509.596 195.98L510.796 193.88L508.696 193.06L510.816 192.22ZM512.187 196.48V199.48H519.847V196.48H512.187ZM521.44 206.32V209.16H530.1V206.32H521.44ZM532.239 193.4V196.32H541.699V193.4H532.239ZM532.239 199V201.92H541.699V199H532.239ZM554.203 196.2H550.843V192.72H547.503V196.2H544.143V199.12H547.503V202.6H550.843V199.12H554.203V196.2ZM559.513 206.58H563.093C560.813 204.2 559.233 201.12 559.233 197.52C559.233 193.92 560.813 190.84 563.093 188.46H559.513C557.233 190.9 555.753 193.82 555.753 197.52C555.753 201.22 557.233 204.14 559.513 206.58ZM567.237 206.58C569.517 204.14 570.997 201.22 570.997 197.52C570.997 193.82 569.517 190.9 567.237 188.46H563.657C565.937 190.84 567.517 193.92 567.517 197.52C567.517 201.12 565.937 204.2 563.657 206.58H567.237ZM572.461 206.58H578.641V203.64H575.841V191.4H578.641V188.46H572.461V206.58ZM585.819 206.58V188.46H579.639V191.4H582.439V203.64H579.639V206.58H585.819ZM594.457 206.58V203.68C593.137 203.68 592.337 203.26 592.337 201.94V200.64C592.337 199.06 591.697 197.92 589.917 197.52C591.697 197.12 592.337 195.98 592.337 194.4V193.1C592.337 191.78 593.137 191.36 594.457 191.36V188.46C590.537 188.46 588.917 190.12 588.917 192.4V193.92C588.917 195.34 588.257 196.02 587.117 196.02V199.02C588.257 199.02 588.917 199.7 588.917 201.12V202.64C588.917 204.92 590.537 206.58 594.457 206.58ZM595.933 206.58C599.853 206.58 601.473 204.92 601.473 202.64V201.12C601.473 199.7 602.133 199.02 603.273 199.02V196.02C602.133 196.02 601.473 195.34 601.473 193.92V192.4C601.473 190.12 599.853 188.46 595.933 188.46V191.36C597.253 191.36 598.053 191.78 598.053 193.1V194.4C598.053 195.98 598.693 197.12 600.473 197.52C598.693 197.92 598.053 199.06 598.053 200.64V201.94C598.053 203.26 597.253 203.68 595.933 203.68V206.58ZM606.61 191.68C605.45 191.68 604.61 192.54 604.61 193.68C604.61 194.82 605.45 195.68 606.61 195.68C607.75 195.68 608.59 194.82 608.59 193.68C608.59 192.54 607.75 191.68 606.61 191.68ZM608.41 199.88H605.23L604.51 205.06H607.17L608.41 199.88ZM612.469 191.68C611.309 191.68 610.469 192.54 610.469 193.68C610.469 194.82 611.309 195.68 612.469 195.68C613.609 195.68 614.449 194.82 614.449 193.68C614.449 192.54 613.609 191.68 612.469 191.68ZM612.469 199.62C611.309 199.62 610.469 200.48 610.469 201.62C610.469 202.76 611.309 203.62 612.469 203.62C613.609 203.62 614.449 202.76 614.449 201.62C614.449 200.48 613.609 199.62 612.469 199.62ZM619.669 191.56V188.98H616.509V192.08H617.949C617.949 193.1 617.329 193.84 616.269 193.94V195.52C618.449 195.34 619.669 193.7 619.669 191.56ZM625.02 190.54V187.96H621.86V191.06H623.3C623.3 192.08 622.68 192.82 621.62 192.92V194.5C623.8 194.32 625.02 192.68 625.02 190.54ZM629.22 190.54V187.96H626.06V191.06H627.5C627.5 192.08 626.88 192.82 625.82 192.92V194.5C628 194.32 629.22 192.68 629.22 190.54ZM635.191 202.22H632.011L631.291 207.4H633.951L635.191 202.22ZM639.09 201.96C637.93 201.96 637.09 202.82 637.09 203.96C637.09 205.1 637.93 205.96 639.09 205.96C640.23 205.96 641.07 205.1 641.07 203.96C641.07 202.82 640.23 201.96 639.09 201.96ZM642.87 199.1L652.57 204.62V201.1L646.01 197.46L652.57 193.82V190.36L642.87 195.88V199.1ZM664.509 199.1V195.88L654.809 190.36V193.82L661.369 197.46L654.809 201.1V204.62L664.509 199.1ZM676.589 188.3H673.089L665.769 207H669.269L676.589 188.3ZM681.63 200.4H684.93C684.93 199.28 685.39 198.56 686.85 197.42C688.15 196.42 688.87 195.24 688.87 193.76C688.87 191.04 686.91 189.06 683.45 189.06C680.21 189.06 677.93 191.22 677.93 194.1H681.41C681.41 193.08 682.13 192.14 683.47 192.14C684.73 192.14 685.45 192.76 685.45 193.76C685.45 194.72 684.81 195.32 683.63 196.22C682.17 197.32 681.63 198.42 681.63 200.4ZM683.39 206.08C684.61 206.08 685.51 205.2 685.51 203.98C685.51 202.76 684.61 201.86 683.39 201.86C682.17 201.86 681.27 202.76 681.27 203.98C681.27 205.2 682.17 206.08 683.39 206.08Z" fill="#222222"/>
</g>
<defs>
</defs>
</svg>
