<svg width="944" height="265" viewBox="0 0 944 265" fill="none" xmlns="http://www.w3.org/2000/svg">
<g clip-path="url(#clip0)">
<path d="M328.207 53.1C321.037 53.1 315.997 58.32 315.997 65.46C315.997 72.6 321.037 77.82 328.207 77.82C334.927 77.82 340.177 73.2 340.177 66.39V65.61H327.547V66.78H338.857C338.677 72.72 334.177 76.68 328.327 76.68C321.757 76.68 317.287 72 317.287 65.46C317.287 58.95 321.787 54.24 328.237 54.24C333.277 54.24 337.537 57.21 338.527 61.26H339.817C338.707 56.64 334.147 53.1 328.207 53.1ZM344.845 77.31H346.105V68.28C346.105 64.71 348.685 61.26 351.925 61.26C354.715 61.26 356.635 63.42 356.635 67.08V77.31H357.895V68.34C357.895 64.68 360.445 61.26 363.715 61.26C366.535 61.26 368.425 63.42 368.425 66.87V77.31H369.685V66.66C369.685 62.76 367.195 60.09 363.985 60.09C360.865 60.09 358.465 62.01 357.565 64.86C356.965 61.95 355.015 60.09 352.165 60.09C348.445 60.09 346.645 62.76 346.105 64.2V60.51H344.845V77.31ZM381.988 77.73C385.978 77.73 388.558 75.18 389.218 73.29V77.31H390.478V60.51H389.218V64.53C388.558 62.64 385.978 60.09 381.988 60.09C377.278 60.09 373.828 63.93 373.828 68.91C373.828 73.89 377.278 77.73 381.988 77.73ZM382.078 76.56C377.878 76.56 375.088 73.23 375.088 68.91C375.088 64.59 377.878 61.26 382.078 61.26C386.278 61.26 389.248 64.59 389.248 68.91C389.248 73.23 386.278 76.56 382.078 76.56ZM395.997 77.31H397.257V68.55C397.257 65.04 400.317 61.26 404.397 61.26C405.417 61.26 406.197 61.38 406.767 61.62V60.39C406.257 60.21 405.567 60.09 404.457 60.09C400.227 60.09 397.767 63.06 397.257 64.68V60.51H395.997V77.31ZM422.776 77.31H424.366L416.446 67.59L423.466 60.51H421.786L411.166 71.25V52.89H409.906V77.31H411.166V72.93L415.576 68.46L422.776 77.31ZM433.755 77.73C437.415 77.73 440.235 75.75 441.165 73.08H439.785C439.035 75.06 436.755 76.56 433.755 76.56C429.855 76.56 427.125 73.53 426.885 69.48H441.885C441.915 69.33 441.915 69.09 441.915 68.91C441.915 63.9 438.465 60.09 433.755 60.09C429.045 60.09 425.595 63.9 425.595 68.91C425.595 73.92 429.045 77.73 433.755 77.73ZM426.885 68.31C427.125 64.26 429.855 61.26 433.755 61.26C437.655 61.26 440.385 64.26 440.625 68.31H426.885ZM453.158 60.51H449.078V55.29H447.818V60.51H443.738V61.68H447.818V77.31H449.078V61.68H453.158V60.51ZM473.745 53.07C468.585 53.07 465.015 55.35 465.015 59.01C465.015 62.55 467.715 64.29 473.235 65.58C479.115 66.96 481.725 68.25 481.725 71.46C481.725 74.49 478.425 76.62 473.745 76.62C469.005 76.62 465.915 74.13 465.585 70.74H464.295C464.655 74.94 468.435 77.82 473.715 77.82C478.935 77.82 483.015 75.33 483.015 71.34C483.015 67.8 480.285 65.94 474.135 64.56C468.765 63.36 466.305 61.95 466.305 59.01C466.305 56.28 469.035 54.27 473.745 54.27C478.425 54.27 481.335 56.76 481.635 59.67H482.925C482.625 55.83 478.875 53.07 473.745 53.07ZM494.781 77.73C498.771 77.73 501.351 75.18 502.011 73.29V77.31H503.271V60.51H502.011V64.53C501.351 62.64 498.771 60.09 494.781 60.09C490.071 60.09 486.621 63.93 486.621 68.91C486.621 73.89 490.071 77.73 494.781 77.73ZM494.871 76.56C490.671 76.56 487.881 73.23 487.881 68.91C487.881 64.59 490.671 61.26 494.871 61.26C499.071 61.26 502.041 64.59 502.041 68.91C502.041 73.23 499.071 76.56 494.871 76.56ZM508.79 77.31H510.05V68.55C510.05 65.04 512.96 61.26 516.68 61.26C520.1 61.26 522.26 63.48 522.26 67.59V77.31H523.52V67.38C523.52 62.97 520.76 60.09 516.95 60.09C512.87 60.09 510.53 63.09 510.05 64.68V60.51H508.79V77.31ZM534.836 60.09C530.846 60.09 527.966 61.86 527.966 64.59C527.966 67.05 529.616 68.7 534.686 69.33C539.696 69.96 541.076 71.01 541.076 72.93C541.076 75.09 538.496 76.59 535.076 76.59C530.876 76.59 529.106 74.7 528.926 73.11H527.636C527.906 75.54 530.366 77.73 534.986 77.73C539.096 77.73 542.336 75.93 542.336 72.87C542.336 70.5 540.566 68.85 535.406 68.25C530.246 67.65 529.226 66.33 529.226 64.47C529.226 62.64 531.566 61.23 534.746 61.23C538.016 61.23 540.536 62.64 540.626 64.47H541.886C541.796 62.04 538.886 60.09 534.836 60.09ZM555.405 53.61V77.31H570.675V76.11H556.695V53.61H555.405ZM575.368 53.04C574.768 53.04 574.318 53.49 574.318 54.09C574.318 54.69 574.768 55.14 575.368 55.14C575.968 55.14 576.418 54.69 576.418 54.09C576.418 53.49 575.968 53.04 575.368 53.04ZM575.998 60.51H574.738V77.31H575.998V60.51ZM589.455 84.99C594.165 84.99 597.255 81.78 597.255 76.86V60.51H595.995V64.53C595.335 62.64 592.755 60.09 588.765 60.09C584.055 60.09 580.605 63.93 580.605 68.91C580.605 73.89 584.055 77.73 588.765 77.73C592.755 77.73 595.335 75.18 595.995 73.29V76.86C595.995 81.33 593.295 83.82 589.455 83.82C585.465 83.82 583.515 81.6 583.065 79.14H581.745C582.375 82.35 584.775 84.99 589.455 84.99ZM588.855 76.56C584.655 76.56 581.865 73.23 581.865 68.91C581.865 64.59 584.655 61.26 588.855 61.26C593.055 61.26 596.025 64.59 596.025 68.91C596.025 73.23 593.055 76.56 588.855 76.56ZM602.775 77.31H604.035V68.55C604.035 65.04 606.975 61.26 610.725 61.26C614.175 61.26 616.365 63.48 616.365 67.59V77.31H617.625V67.38C617.625 62.97 614.865 60.09 610.995 60.09C606.855 60.09 604.515 63.09 604.035 64.68V52.89H602.775V77.31ZM629.994 60.51H625.914V55.29H624.654V60.51H620.574V61.68H624.654V77.31H625.914V61.68H629.994V60.51Z" fill="#222222"/>
<path d="M375.229 109.48H376.069V100H375.229V102.26H371.409V103.04H375.229V106.26H370.749V107.04H375.229V109.48ZM370.549 102.1V100.6H361.089V101.38H369.709V102.1C369.709 106.16 366.509 107.9 361.089 107.9V108.7C367.049 108.7 370.549 106.66 370.549 102.1ZM369.249 110.28C365.389 110.28 362.109 111.22 362.109 113.6C362.109 115.98 365.389 116.92 369.249 116.92C373.109 116.92 376.389 115.98 376.389 113.6C376.389 111.22 373.109 110.28 369.249 110.28ZM369.249 116.14C365.869 116.14 362.949 115.36 362.949 113.6C362.949 111.84 365.869 111.06 369.249 111.06C372.629 111.06 375.549 111.84 375.549 113.6C375.549 115.36 372.629 116.14 369.249 116.14ZM391.327 101.8H385.967V99.7H385.127V101.8H379.787V102.58H391.327V101.8ZM394.467 100V105.68H391.067V106.44H394.467V110.2H395.307V100H394.467ZM385.547 109.94C388.287 109.94 390.367 108.8 390.367 106.9C390.367 105 388.287 103.86 385.547 103.86C382.807 103.86 380.727 105 380.727 106.9C380.727 108.8 382.807 109.94 385.547 109.94ZM385.547 104.62C388.007 104.62 389.527 105.64 389.527 106.9C389.527 108.16 388.007 109.18 385.547 109.18C383.087 109.18 381.567 108.16 381.567 106.9C381.567 105.64 383.087 104.62 385.547 104.62ZM381.367 116.68H395.227V111.44H381.367V116.68ZM382.207 112.2H394.387V115.92H382.207V112.2ZM407.325 100.12C403.485 100.12 400.025 100.92 400.025 103.1C400.025 105.28 403.485 106.08 407.325 106.08C411.165 106.08 414.625 105.28 414.625 103.1C414.625 100.92 411.165 100.12 407.325 100.12ZM407.325 100.88C410.645 100.88 413.765 101.48 413.765 103.1C413.765 104.72 410.645 105.32 407.325 105.32C404.005 105.32 400.885 104.72 400.885 103.1C400.885 101.48 404.005 100.88 407.325 100.88ZM415.765 107.62H398.885V108.38H415.765V107.62ZM414.465 110.42H400.165V111.18H413.625V113.16H400.205V116.7H414.845V115.94H401.045V113.9H414.465V110.42ZM434.809 107.12L434.749 107.9H438.549V112.74H439.389V100H438.549V102.52H434.769L434.829 103.3H438.549V107.12H434.809ZM434.269 105.14C434.269 102.46 432.449 100.3 429.149 100.3C425.849 100.3 424.029 102.46 424.029 105.14C424.029 107.82 425.849 109.98 429.149 109.98C432.449 109.98 434.269 107.82 434.269 105.14ZM424.889 105.14C424.889 102.68 426.549 101.04 429.149 101.04C431.749 101.04 433.409 102.68 433.409 105.14C433.409 107.6 431.749 109.24 429.149 109.24C426.549 109.24 424.889 107.6 424.889 105.14ZM426.509 115.9V111.42H425.669V116.68H439.869V115.9H426.509ZM457.787 108.44H458.627V100H457.787V102.16H453.967V102.94H457.787V105.8H453.307V106.58H457.787V108.44ZM453.107 101.96V100.6H443.647V101.38H452.267V101.96C452.267 105.72 449.067 107.12 443.647 107.12V107.9C449.607 107.9 453.107 106.2 453.107 101.96ZM445.667 115.9V113.54H458.627V109.64H444.747V110.42H457.767V112.78H444.787V116.68H459.227V115.9H445.667ZM473.785 101.76H468.425V99.7H467.585V101.76H462.245V102.54H473.785V101.76ZM479.925 104.12H477.225V100H476.385V109.78H477.225V104.9H479.925V104.12ZM468.005 109.74C470.845 109.74 472.865 108.52 472.865 106.76C472.865 105 470.845 103.78 468.005 103.78C465.165 103.78 463.145 105 463.145 106.76C463.145 108.52 465.165 109.74 468.005 109.74ZM468.005 104.54C470.485 104.54 472.025 105.54 472.025 106.76C472.025 107.98 470.485 108.98 468.005 108.98C465.525 108.98 463.985 107.98 463.985 106.76C463.985 105.54 465.525 104.54 468.005 104.54ZM476.385 112.74H464.405V110.6H463.565V116.68H477.225V110.6H476.385V112.74ZM464.405 115.92V113.48H476.385V115.92H464.405ZM496.944 100H496.084V117.1L496.944 117.08V100ZM483.464 100.7H482.624V115.88H489.544C491.184 115.88 492.924 115.56 493.964 115.04V114.24C492.924 114.74 491.164 115.08 489.544 115.08H483.464V100.7ZM518.402 107.48H515.702V100H514.862V117.08H515.702V108.26H518.402V107.48ZM502.522 115.1V101.58H511.482V100.8H501.682V115.88H508.402C510.042 115.88 511.782 115.56 512.822 115.06V114.24C511.782 114.74 510.022 115.1 508.402 115.1H502.522ZM520.88 115C520.36 115 519.94 115.42 519.94 115.94C519.94 116.46 520.36 116.88 520.88 116.88C521.4 116.88 521.82 116.46 521.82 115.94C521.82 115.42 521.4 115 520.88 115ZM538.043 100.4C533.263 100.4 529.903 103.88 529.903 108.64C529.903 113.4 533.263 116.88 538.043 116.88C542.523 116.88 546.023 113.8 546.023 109.26V108.74H537.603V109.52H545.143C545.023 113.48 542.023 116.12 538.123 116.12C533.743 116.12 530.763 113 530.763 108.64C530.763 104.3 533.763 101.16 538.063 101.16C541.423 101.16 544.263 103.14 544.923 105.84H545.783C545.043 102.76 542.003 100.4 538.043 100.4ZM566.195 107.48H563.495V100H562.655V117.08H563.495V108.26H566.195V107.48ZM549.475 115.88H558.615V100.8H549.475V115.88ZM550.315 101.58H557.775V115.1H550.315V101.58ZM583.693 100H582.833V112.26H583.693V100ZM574.793 105.62H578.493V109.54H579.353V100.12H578.493V104.84H574.933C574.993 104.44 575.013 104.02 575.013 103.58V100.6H568.193V101.38H574.153V103.58C574.153 104.02 574.133 104.44 574.073 104.84H568.193V105.62H573.913C573.173 108.48 570.813 109.76 568.193 109.76V110.56C571.233 110.56 573.993 108.96 574.793 105.62ZM584.453 116.14L576.713 112.36C577.113 111.68 577.413 110.92 577.553 110.1L576.713 109.94C575.973 113.68 572.373 115.82 569.133 115.88V116.68C571.833 116.66 574.673 115.28 576.293 113.02L584.033 116.88L584.453 116.14ZM282.453 146.54H283.373L276.593 130.74H275.573L268.793 146.54H269.733L271.693 141.94H280.493L282.453 146.54ZM272.053 141.14L276.093 131.68L280.133 141.14H272.053ZM285.915 146.54H292.635C296.155 146.54 298.215 144.9 298.215 142.36C298.215 140.08 296.555 138.74 294.515 138.48C296.215 138.2 297.455 136.62 297.455 134.84C297.455 132.32 295.495 130.74 292.035 130.74H285.915V146.54ZM286.775 138.18V131.52H292.055C294.935 131.52 296.595 132.68 296.595 134.84C296.595 137.02 294.935 138.18 292.055 138.18H286.775ZM286.775 145.76V138.96H292.655C295.555 138.96 297.355 140.14 297.355 142.36C297.355 144.58 295.555 145.76 292.655 145.76H286.775ZM308.844 146.88C312.844 146.88 315.724 144.6 316.584 141.22H315.684C314.864 144.14 312.364 146.08 308.844 146.08C304.644 146.08 301.564 142.96 301.564 138.64C301.564 134.3 304.604 131.2 308.824 131.2C312.244 131.2 314.604 133.02 315.524 135.84H316.424C315.444 132.58 312.704 130.4 308.824 130.4C304.124 130.4 300.704 133.88 300.704 138.64C300.704 143.4 304.144 146.88 308.844 146.88ZM319.743 146.54H324.923C330.543 146.54 333.603 143.4 333.603 138.66C333.603 133.92 330.543 130.74 324.923 130.74H319.743V146.54ZM320.603 145.74V131.54H324.983C329.803 131.54 332.743 134.14 332.743 138.66C332.743 143.18 329.803 145.74 324.983 145.74H320.603ZM336.813 146.54H347.773V145.74H337.673V138.88H346.893V138.08H337.673V131.54H347.593V130.74H336.813V146.54ZM350.856 146.54H351.716V139.18H360.596V138.38H351.716V131.54H361.436V130.74H350.856V146.54ZM371.52 130.4C366.74 130.4 363.38 133.88 363.38 138.64C363.38 143.4 366.74 146.88 371.52 146.88C376 146.88 379.5 143.8 379.5 139.26V138.74H371.08V139.52H378.62C378.5 143.48 375.5 146.12 371.6 146.12C367.22 146.12 364.24 143 364.24 138.64C364.24 134.3 367.24 131.16 371.54 131.16C374.9 131.16 377.74 133.14 378.4 135.84H379.26C378.52 132.76 375.48 130.4 371.52 130.4ZM394.731 130.74V138.08H383.571V130.74H382.711V146.54H383.571V138.86H394.731V146.54H395.591V130.74H394.731ZM399.469 130.74V146.54H400.329V130.74H399.469ZM403.015 141.66C403.095 144.64 405.255 146.88 408.835 146.88C412.415 146.88 414.655 144.64 414.655 141.24V130.74H413.795V141.24C413.795 144.14 411.935 146.08 408.835 146.08C405.735 146.08 403.955 144.18 403.875 141.66H403.015ZM429.277 146.54H430.417L423.037 138.06L429.917 130.74H428.757L419.157 140.98V130.74H418.297V146.54H419.157V142.18L422.457 138.66L429.277 146.54ZM433.044 130.74V146.54H443.224V145.74H433.904V130.74H433.044ZM446.032 146.54H446.892V132.28L453.152 143.82H454.132L460.392 132.28V146.54H461.252V130.74H460.292L453.652 142.98L447.012 130.74H446.032V146.54ZM465.133 146.54H465.993V131.86L476.973 146.54H478.053V130.74H477.193V145.42L466.213 130.74H465.133V146.54ZM489.43 146.88C494.13 146.88 497.59 143.4 497.59 138.64C497.59 133.88 494.11 130.4 489.41 130.4C484.71 130.4 481.27 133.88 481.27 138.64C481.27 143.4 484.73 146.88 489.43 146.88ZM489.43 146.08C485.23 146.08 482.13 142.96 482.13 138.64C482.13 134.3 485.19 131.2 489.41 131.2C493.63 131.2 496.73 134.3 496.73 138.64C496.73 142.96 493.63 146.08 489.43 146.08ZM500.817 146.54H501.677V141.14H506.037C510.137 141.14 512.537 139.1 512.537 135.94C512.537 132.78 510.137 130.74 506.037 130.74H500.817V146.54ZM501.677 140.34V131.54H505.877C509.477 131.54 511.677 133.06 511.677 135.94C511.677 138.82 509.477 140.34 505.877 140.34H501.677ZM530.95 138.64C530.95 133.88 527.47 130.4 522.77 130.4C518.07 130.4 514.63 133.88 514.63 138.64C514.63 143.4 518.09 146.88 522.79 146.88C524.51 146.88 526.09 146.4 527.37 145.58L529.67 148.5L530.33 147.98L528.05 145.08C529.85 143.6 530.95 141.32 530.95 138.64ZM522.79 146.08C518.59 146.08 515.49 142.96 515.49 138.64C515.49 134.3 518.55 131.2 522.77 131.2C526.99 131.2 530.09 134.3 530.09 138.64C530.09 141.06 529.11 143.1 527.53 144.42L524.05 140.02L523.39 140.54L526.85 144.92C525.71 145.66 524.33 146.08 522.79 146.08ZM546.456 146.54L542.216 140.16C544.656 139.52 546.036 137.88 546.036 135.6C546.036 132.64 543.696 130.74 539.716 130.74H534.176V146.54H535.036V140.46H539.716C540.296 140.46 540.836 140.42 541.336 140.34L545.436 146.54H546.456ZM539.556 139.66H535.036V131.54H539.556C543.036 131.54 545.176 132.94 545.176 135.6C545.176 138.26 543.036 139.66 539.556 139.66ZM554.561 130.38C551.121 130.38 548.741 131.9 548.741 134.34C548.741 136.7 550.541 137.86 554.221 138.72C558.141 139.64 559.881 140.5 559.881 142.64C559.881 144.66 557.681 146.08 554.561 146.08C551.401 146.08 549.341 144.42 549.121 142.16H548.261C548.501 144.96 551.021 146.88 554.541 146.88C558.021 146.88 560.741 145.22 560.741 142.56C560.741 140.2 558.921 138.96 554.821 138.04C551.241 137.24 549.601 136.3 549.601 134.34C549.601 132.52 551.421 131.18 554.561 131.18C557.681 131.18 559.621 132.84 559.821 134.78H560.681C560.481 132.22 557.981 130.38 554.561 130.38ZM575.729 130.74H562.649V131.54H568.769V146.54H569.629V131.54H575.729V130.74ZM578.389 139.9C578.389 144.14 580.949 146.9 585.009 146.9C589.069 146.9 591.629 144.14 591.629 139.9V130.74H590.769V139.9C590.769 143.62 588.589 146.1 585.009 146.1C581.429 146.1 579.249 143.62 579.249 139.9V130.74H578.389V139.9ZM608.13 130.74L601.53 145.56L594.93 130.74H593.99L601.05 146.54H601.99L609.05 130.74H608.13ZM630.792 130.74L626.192 145.34L621.572 130.74H620.672L616.052 145.34L611.452 130.74H610.612L615.612 146.54H616.472L621.112 131.88L625.752 146.54H626.612L631.612 130.74H630.792ZM633.17 146.54H634.23L639.79 139.2L645.35 146.54H646.43L640.33 138.54L646.21 130.74H645.15L639.81 137.88L634.45 130.74H633.37L639.27 138.54L633.17 146.54ZM661.92 130.74H660.94L654.7 140.16L648.8 130.74H647.8L654.24 140.94V146.54H655.1V141L661.92 130.74ZM663.806 146.54H675.946V145.74H664.946L675.586 131.44V130.76H664.206V131.56H674.446L663.806 145.86V146.54ZM323.125 174.82C325.785 174.82 327.505 173.12 327.945 171.86V174.54H328.785V163.34H327.945V166.02C327.505 164.76 325.785 163.06 323.125 163.06C319.985 163.06 317.685 165.62 317.685 168.94C317.685 172.26 319.985 174.82 323.125 174.82ZM323.185 174.04C320.385 174.04 318.525 171.82 318.525 168.94C318.525 166.06 320.385 163.84 323.185 163.84C325.985 163.84 327.965 166.06 327.965 168.94C327.965 171.82 325.985 174.04 323.185 174.04ZM338.125 174.82C341.265 174.82 343.565 172.26 343.565 168.94C343.565 165.62 341.265 163.06 338.125 163.06C335.465 163.06 333.745 164.76 333.305 166.02V158.26H332.465V174.54H333.305V171.86C333.745 173.12 335.465 174.82 338.125 174.82ZM338.065 174.04C335.265 174.04 333.285 171.82 333.285 168.94C333.285 166.06 335.265 163.84 338.065 163.84C340.865 163.84 342.725 166.06 342.725 168.94C342.725 171.82 340.865 174.04 338.065 174.04ZM356.645 170.94H355.785C355.225 172.76 353.625 174.04 351.585 174.04C348.805 174.04 346.885 171.84 346.885 168.94C346.885 166.04 348.805 163.84 351.585 163.84C353.605 163.84 355.165 165.08 355.765 166.9H356.625C355.965 164.62 354.005 163.06 351.585 163.06C348.405 163.06 346.045 165.6 346.045 168.94C346.045 172.28 348.425 174.82 351.645 174.82C354.065 174.82 356.025 173.24 356.645 170.94ZM364.012 174.82C366.672 174.82 368.392 173.12 368.832 171.86V174.54H369.672V158.26H368.832V166.02C368.392 164.76 366.672 163.06 364.012 163.06C360.872 163.06 358.572 165.62 358.572 168.94C358.572 172.26 360.872 174.82 364.012 174.82ZM364.072 174.04C361.272 174.04 359.412 171.82 359.412 168.94C359.412 166.06 361.272 163.84 364.072 163.84C366.872 163.84 368.852 166.06 368.852 168.94C368.852 171.82 366.872 174.04 364.072 174.04ZM378.692 174.82C381.132 174.82 383.012 173.5 383.632 171.72H382.712C382.212 173.04 380.692 174.04 378.692 174.04C376.092 174.04 374.272 172.02 374.112 169.32H384.112C384.132 169.22 384.132 169.06 384.132 168.94C384.132 165.6 381.832 163.06 378.692 163.06C375.552 163.06 373.252 165.6 373.252 168.94C373.252 172.28 375.552 174.82 378.692 174.82ZM374.112 168.54C374.272 165.84 376.092 163.84 378.692 163.84C381.292 163.84 383.112 165.84 383.272 168.54H374.112ZM391.467 163.34H388.687V160.72C388.687 159.58 389.267 158.94 390.247 158.94C390.567 158.94 390.987 158.96 391.267 159.02V158.28C390.987 158.2 390.567 158.16 390.167 158.16C388.687 158.16 387.847 159.2 387.847 160.76V163.34H385.347V164.12H387.847V174.54H388.687V164.12H391.467V163.34ZM398.507 179.66C401.647 179.66 403.707 177.52 403.707 174.24V163.34H402.867V166.02C402.427 164.76 400.707 163.06 398.047 163.06C394.907 163.06 392.607 165.62 392.607 168.94C392.607 172.26 394.907 174.82 398.047 174.82C400.707 174.82 402.427 173.12 402.867 171.86V174.24C402.867 177.22 401.067 178.88 398.507 178.88C395.847 178.88 394.547 177.4 394.247 175.76H393.367C393.787 177.9 395.387 179.66 398.507 179.66ZM398.107 174.04C395.307 174.04 393.447 171.82 393.447 168.94C393.447 166.06 395.307 163.84 398.107 163.84C400.907 163.84 402.887 166.06 402.887 168.94C402.887 171.82 400.907 174.04 398.107 174.04ZM407.387 174.54H408.227V168.7C408.227 166.36 410.187 163.84 412.687 163.84C414.987 163.84 416.447 165.32 416.447 168.06V174.54H417.287V167.92C417.287 164.98 415.447 163.06 412.867 163.06C410.107 163.06 408.547 165.06 408.227 166.12V158.26H407.387V174.54ZM421.069 158.36C420.669 158.36 420.369 158.66 420.369 159.06C420.369 159.46 420.669 159.76 421.069 159.76C421.469 159.76 421.769 159.46 421.769 159.06C421.769 158.66 421.469 158.36 421.069 158.36ZM421.489 163.34H420.649V174.54H421.489V163.34ZM425.58 159.76C425.98 159.76 426.28 159.46 426.28 159.06C426.28 158.66 425.98 158.36 425.58 158.36C425.18 158.36 424.88 158.66 424.88 159.06C424.88 159.46 425.18 159.76 425.58 159.76ZM423.78 179.52C425.14 179.52 426 178.6 426 177.06V163.34H425.16V177.1C425.16 178.18 424.66 178.74 423.78 178.74C423.38 178.74 422.94 178.68 422.56 178.54V179.34C422.94 179.46 423.38 179.52 423.78 179.52ZM438.052 174.54H439.112L433.832 168.06L438.512 163.34H437.392L430.312 170.5V158.26H429.472V174.54H430.312V171.62L433.252 168.64L438.052 174.54ZM441.957 158.26H441.117V174.54H441.957V158.26ZM445.629 174.54H446.469V168.52C446.469 166.14 448.189 163.84 450.349 163.84C452.209 163.84 453.489 165.28 453.489 167.72V174.54H454.329V168.56C454.329 166.12 456.029 163.84 458.209 163.84C460.089 163.84 461.349 165.28 461.349 167.58V174.54H462.189V167.44C462.189 164.84 460.529 163.06 458.389 163.06C456.309 163.06 454.709 164.34 454.109 166.24C453.709 164.3 452.409 163.06 450.509 163.06C448.029 163.06 446.829 164.84 446.469 165.8V163.34H445.629V174.54ZM465.551 174.54H466.391V168.7C466.391 166.36 468.331 163.84 470.811 163.84C473.091 163.84 474.531 165.32 474.531 168.06V174.54H475.371V167.92C475.371 164.98 473.531 163.06 470.991 163.06C468.271 163.06 466.711 165.06 466.391 166.12V163.34H465.551V174.54ZM483.695 163.06C480.495 163.06 478.135 165.6 478.135 168.94C478.135 172.28 480.495 174.82 483.695 174.82C486.895 174.82 489.255 172.28 489.255 168.94C489.255 165.6 486.895 163.06 483.695 163.06ZM483.695 163.84C486.495 163.84 488.415 166.04 488.415 168.94C488.415 171.84 486.495 174.04 483.695 174.04C480.895 174.04 478.975 171.84 478.975 168.94C478.975 166.04 480.895 163.84 483.695 163.84ZM492.328 179.38H493.168V171.86C493.608 173.12 495.328 174.82 497.988 174.82C501.128 174.82 503.428 172.26 503.428 168.94C503.428 165.62 501.128 163.06 497.988 163.06C495.328 163.06 493.608 164.76 493.168 166.02V163.34H492.328V179.38ZM497.928 174.04C495.128 174.04 493.148 171.82 493.148 168.94C493.148 166.06 495.128 163.84 497.928 163.84C500.728 163.84 502.588 166.06 502.588 168.94C502.588 171.82 500.728 174.04 497.928 174.04ZM516.168 179.38H517.008V163.34H516.168V166.02C515.728 164.76 514.008 163.06 511.348 163.06C508.208 163.06 505.908 165.62 505.908 168.94C505.908 172.26 508.208 174.82 511.348 174.82C514.008 174.82 515.728 173.12 516.168 171.86V179.38ZM511.408 174.04C508.608 174.04 506.748 171.82 506.748 168.94C506.748 166.06 508.608 163.84 511.408 163.84C514.208 163.84 516.188 166.06 516.188 168.94C516.188 171.82 514.208 174.04 511.408 174.04ZM520.688 174.54H521.528V168.7C521.528 166.36 523.568 163.84 526.288 163.84C526.968 163.84 527.488 163.92 527.868 164.08V163.26C527.528 163.14 527.068 163.06 526.328 163.06C523.508 163.06 521.868 165.04 521.528 166.12V163.34H520.688V174.54ZM534.34 163.06C531.68 163.06 529.76 164.24 529.76 166.06C529.76 167.7 530.86 168.8 534.24 169.22C537.58 169.64 538.5 170.34 538.5 171.62C538.5 173.06 536.78 174.06 534.5 174.06C531.7 174.06 530.52 172.8 530.4 171.74H529.54C529.72 173.36 531.36 174.82 534.44 174.82C537.18 174.82 539.34 173.62 539.34 171.58C539.34 170 538.16 168.9 534.72 168.5C531.28 168.1 530.6 167.22 530.6 165.98C530.6 164.76 532.16 163.82 534.28 163.82C536.46 163.82 538.14 164.76 538.2 165.98H539.04C538.98 164.36 537.04 163.06 534.34 163.06ZM547.291 163.34H544.571V159.86H543.731V163.34H541.011V164.12H543.731V174.54H544.571V164.12H547.291V163.34ZM553.81 174.82C556.59 174.82 558.17 172.76 558.41 171.76V174.54H559.25V163.34H558.41V169.18C558.41 171.52 556.47 174.04 553.99 174.04C551.71 174.04 550.27 172.56 550.27 169.82V163.34H549.43V169.96C549.43 172.9 551.25 174.82 553.81 174.82ZM572.034 163.34L567.374 173.66L562.714 163.34H561.794L566.894 174.54H567.834L572.934 163.34H572.034ZM591.208 163.34L587.508 173.52L583.808 163.34H582.868L579.168 173.52L575.468 163.34H574.588L578.708 174.54H579.588L583.328 164.38L587.068 174.54H587.948L592.068 163.34H591.208ZM593.332 174.54H594.372L598.752 169.36L603.152 174.54H604.232L599.332 168.8L603.992 163.34H602.952L598.772 168.24L594.652 163.34H593.572L598.192 168.8L593.332 174.54ZM615.647 163.34L610.967 173.42L606.307 163.34H605.387L610.507 174.38L608.167 179.38H609.067L616.547 163.34H615.647ZM619.407 173.76L627.647 164.02V163.34H618.507V164.12H626.487L618.247 173.86V174.54H628.007V173.76H619.407ZM277.946 189.74H273.426V190.52H277.086V205.54H277.946V189.74ZM287.078 189.4C283.778 189.4 281.918 191.76 281.918 194.42H282.778C282.778 192.18 284.318 190.18 287.078 190.18C289.578 190.18 291.298 191.56 291.298 194C291.298 195.32 290.218 196.86 288.078 198.92L281.978 204.76V205.54H292.858V204.76H283.238L288.918 199.32C290.998 197.32 292.158 195.76 292.158 194C292.158 191.18 290.178 189.4 287.078 189.4ZM300.147 189.4C296.927 189.4 294.947 191.58 294.947 194.18H295.807C295.807 192.04 297.407 190.18 300.147 190.18C302.887 190.18 304.507 191.92 304.507 193.76C304.507 195.74 302.687 197.2 300.147 197.2H298.287V197.94H300.147C303.187 197.94 304.927 199.32 304.927 201.48C304.927 203.38 303.207 205.1 300.347 205.1C297.487 205.1 295.767 203.28 295.767 201.22H294.907C294.907 203.72 296.987 205.88 300.347 205.88C303.727 205.88 305.787 203.76 305.787 201.44C305.787 199.14 304.067 197.88 302.347 197.52C303.907 197.08 305.367 195.72 305.367 193.72C305.367 191.5 303.387 189.4 300.147 189.4ZM316.055 205.54H316.895V201.64H319.915V200.88H316.895V189.74H316.035L307.435 200.88V201.64H316.055V205.54ZM308.435 200.88L316.055 190.96V200.88H308.435ZM326.733 205.88C330.113 205.88 332.213 203.54 332.213 200.58C332.213 197.6 329.893 195.4 326.993 195.4C324.493 195.4 323.133 196.58 322.553 197.52L322.913 190.52H331.373V189.74H322.113L321.673 198.74H322.553C323.193 197.4 324.553 196.16 326.813 196.16C329.473 196.16 331.353 198.06 331.353 200.58C331.353 203.18 329.593 205.1 326.733 205.1C323.873 205.1 322.193 203.28 322.193 201.22H321.333C321.333 203.72 323.373 205.88 326.733 205.88ZM339.821 205.88C342.881 205.88 345.301 203.8 345.301 200.58C345.301 197.38 342.881 195.36 339.821 195.36C338.601 195.36 337.561 195.7 336.941 196.14L341.421 189.74H340.421L335.901 196.26C334.941 197.64 334.341 198.98 334.341 200.6C334.341 203.82 336.761 205.88 339.821 205.88ZM339.821 205.1C336.981 205.1 335.181 203.14 335.181 200.62C335.181 198.12 336.981 196.14 339.821 196.14C342.661 196.14 344.461 198.1 344.461 200.62C344.461 203.14 342.661 205.1 339.821 205.1ZM356.576 189.74H345.856V190.52H355.636L348.416 205.54H349.356L356.576 190.52V189.74ZM363.765 189.4C360.805 189.4 358.925 191.26 358.925 193.56C358.925 195.76 360.665 196.98 361.945 197.36C360.405 197.72 358.365 198.98 358.365 201.54C358.365 203.96 360.405 205.88 363.765 205.88C367.125 205.88 369.165 203.96 369.165 201.54C369.165 198.98 367.125 197.72 365.585 197.36C366.865 196.98 368.605 195.76 368.605 193.56C368.605 191.26 366.705 189.4 363.765 189.4ZM363.765 190.16C366.225 190.16 367.765 191.7 367.765 193.54C367.765 195.42 366.125 196.96 363.765 196.96C361.405 196.96 359.765 195.42 359.765 193.54C359.765 191.7 361.325 190.16 363.765 190.16ZM363.765 197.8C366.405 197.8 368.305 199.42 368.305 201.48C368.305 203.54 366.585 205.12 363.765 205.12C360.945 205.12 359.225 203.54 359.225 201.48C359.225 199.42 361.125 197.8 363.765 197.8ZM374.974 205.5H375.974L380.494 198.98C381.454 197.6 382.054 196.26 382.054 194.64C382.054 191.42 379.634 189.36 376.574 189.36C373.514 189.36 371.094 191.44 371.094 194.66C371.094 197.86 373.514 199.88 376.574 199.88C377.794 199.88 378.834 199.54 379.454 199.1L374.974 205.5ZM376.574 199.1C373.734 199.1 371.934 197.14 371.934 194.62C371.934 192.1 373.734 190.14 376.574 190.14C379.414 190.14 381.214 192.1 381.214 194.62C381.214 197.12 379.414 199.1 376.574 199.1ZM389.926 189.4C386.726 189.4 384.286 192.14 384.286 197.64C384.286 203.14 386.726 205.88 389.926 205.88C393.126 205.88 395.566 203.14 395.566 197.64C395.566 192.14 393.126 189.4 389.926 189.4ZM389.926 190.18C392.566 190.18 394.706 192.76 394.706 197.64C394.706 202.52 392.566 205.1 389.926 205.1C387.286 205.1 385.146 202.52 385.146 197.64C385.146 192.76 387.286 190.18 389.926 190.18ZM403.763 197.32V198.38C404.343 197.68 404.943 197.24 405.843 197.24C407.243 197.24 408.423 198.78 410.103 198.78C411.163 198.78 411.843 198.3 412.303 197.64V196.54C411.703 197.34 411.123 197.98 410.203 197.98C408.823 197.98 407.643 196.44 405.963 196.44C404.963 196.44 404.223 196.8 403.763 197.32ZM416.411 189.74H415.311L415.491 201.88H416.231L416.411 189.74ZM415.851 204C415.331 204 414.911 204.42 414.911 204.94C414.911 205.46 415.331 205.88 415.851 205.88C416.371 205.88 416.791 205.46 416.791 204.94C416.791 204.42 416.371 204 415.851 204ZM427.828 207.58C430.148 207.58 432.228 206.98 433.428 205.74V204.82C432.108 206.16 430.288 206.78 427.828 206.78C422.948 206.78 419.688 203.22 419.688 198.5C419.688 193.84 423.008 190.26 427.888 190.26C432.888 190.26 435.868 193.5 435.868 197.84C435.868 200.72 434.868 202.52 433.248 202.52C432.348 202.52 431.888 201.82 431.888 200.48V194.38H431.028V196.12C430.668 195.3 429.428 194.16 427.468 194.16C424.968 194.16 423.188 196.1 423.188 198.56C423.188 201.02 424.968 202.88 427.468 202.88C429.428 202.88 430.688 201.72 431.048 200.92L431.068 201.1C431.188 202.24 431.868 203.32 433.168 203.32C435.268 203.32 436.728 201.14 436.728 197.8C436.728 193.22 433.488 189.46 427.888 189.46C422.388 189.46 418.828 193.6 418.828 198.5C418.828 203.6 422.368 207.58 427.828 207.58ZM427.508 202.08C425.408 202.08 424.048 200.54 424.048 198.52C424.048 196.52 425.408 194.96 427.508 194.96C429.568 194.96 431.048 196.52 431.048 198.52C431.048 200.54 429.568 202.08 427.508 202.08ZM450.299 195.2V194.4H447.659L448.519 189.74H447.659L446.799 194.4H443.179L444.039 189.74H443.179L442.319 194.4H439.539V195.2H442.159L441.259 200.1H438.459V200.9H441.099L440.239 205.54H441.099L441.959 200.9H445.579L444.719 205.54H445.579L446.439 200.9H449.219V200.1H446.599L447.499 195.2H450.299ZM445.739 200.1H442.119L443.019 195.2H446.639L445.739 200.1ZM463.891 201.28C463.891 199.1 462.231 197.94 458.471 197.08V190.74C461.171 190.86 462.811 192.32 462.991 194.04H463.831C463.651 191.74 461.491 190.08 458.471 189.96V188.32H457.631V189.98C454.711 190.12 452.731 191.48 452.731 193.64C452.731 195.82 454.351 196.88 457.631 197.7V204.5C455.011 204.34 453.311 202.88 453.131 200.92H452.291C452.491 203.38 454.611 205.12 457.631 205.28V206.96H458.471V205.3C461.551 205.2 463.891 203.68 463.891 201.28ZM453.571 193.64C453.571 192.06 455.051 190.9 457.631 190.76V196.88C454.851 196.18 453.571 195.32 453.571 193.64ZM458.471 204.52V197.9C461.631 198.68 463.051 199.5 463.051 201.36C463.051 203.16 461.171 204.42 458.471 204.52ZM469.98 189.4C467.82 189.4 466.2 190.98 466.2 193.04C466.2 195.1 467.82 196.68 469.98 196.68C472.14 196.68 473.76 195.1 473.76 193.04C473.76 190.98 472.14 189.4 469.98 189.4ZM480.52 189.74H479.56L469.16 205.54H470.12L480.52 189.74ZM469.98 190.16C471.7 190.16 472.92 191.36 472.92 193.04C472.92 194.72 471.7 195.92 469.98 195.92C468.26 195.92 467.04 194.72 467.04 193.04C467.04 191.36 468.26 190.16 469.98 190.16ZM479.68 198.6C477.52 198.6 475.9 200.18 475.9 202.24C475.9 204.3 477.52 205.88 479.68 205.88C481.84 205.88 483.46 204.3 483.46 202.24C483.46 200.18 481.84 198.6 479.68 198.6ZM479.68 199.36C481.4 199.36 482.62 200.56 482.62 202.24C482.62 203.92 481.4 205.12 479.68 205.12C477.96 205.12 476.74 203.92 476.74 202.24C476.74 200.56 477.96 199.36 479.68 199.36ZM485.568 194.74H486.548L489.528 190.64L492.448 194.74H493.428L489.988 189.92H489.008L485.568 194.74ZM509.216 205.54L506.796 203.14C507.816 201.88 508.476 200.26 508.656 198.48H507.796C507.676 199.96 507.096 201.4 506.176 202.56L501.296 197.72C501.456 197.64 501.636 197.54 501.816 197.46C504.196 196.28 506.216 195.22 506.216 192.86C506.216 190.9 504.476 189.38 501.876 189.38C499.316 189.38 497.376 190.94 497.376 193.26C497.376 194.88 498.516 196.12 499.776 197.38L499.896 197.5C497.676 198.6 495.496 199.82 495.496 202.06C495.496 204.36 497.676 205.88 501.056 205.88C503.136 205.88 504.916 205.08 506.236 203.76L508.036 205.54H509.216ZM500.336 196.78C498.976 195.44 498.236 194.48 498.236 193.16C498.236 191.42 499.836 190.18 501.896 190.18C503.916 190.18 505.356 191.28 505.356 192.92C505.356 194.86 503.376 195.8 500.856 197.04C500.796 197.06 500.736 197.1 500.676 197.12L500.336 196.78ZM501.076 205.08C498.156 205.08 496.356 203.88 496.356 202.02C496.356 200.34 498.016 199.36 500.516 198.1L505.636 203.16C504.476 204.34 502.916 205.08 501.076 205.08ZM517.218 191.6L516.778 190.82L514.338 192.4L514.498 189.5H513.598L513.758 192.4L511.338 190.82L510.878 191.6L513.438 192.92L510.878 194.22L511.318 195L513.758 193.42L513.598 196.32H514.498L514.338 193.44L516.758 195L517.218 194.22L514.638 192.9L517.218 191.6ZM519.327 197.58V198.38H525.787V197.58H519.327ZM528.19 207.34V208.14H535.65V207.34H528.19ZM538.598 194.44V195.24H546.858V194.44H538.598ZM538.598 200.08V200.88H546.858V200.08H538.598ZM558.951 197.26H554.951V193.16H554.091V197.26H550.091V198.06H554.091V202.16H554.951V198.06H558.951V197.26ZM565.012 206.34H566.092C563.772 204.02 562.172 201.02 562.172 197.52C562.172 194.02 563.772 191.02 566.092 188.7H565.012C562.812 191.08 561.312 193.92 561.312 197.52C561.312 201.12 562.812 203.96 565.012 206.34ZM568.379 206.34C570.579 203.96 572.079 201.12 572.079 197.52C572.079 193.92 570.579 191.08 568.379 188.7H567.299C569.619 191.02 571.219 194.02 571.219 197.52C571.219 201.02 569.619 204.02 567.299 206.34H568.379ZM574.347 206.34H579.267V205.56H575.187V189.48H579.267V188.7H574.347V206.34ZM585.304 206.34V188.7H580.384V189.48H584.464V205.56H580.384V206.34H585.304ZM593.442 206.34V205.54C591.402 205.54 590.282 204.52 590.282 202.76V199.96C590.282 198.76 589.962 197.82 588.722 197.52C589.962 197.22 590.282 196.28 590.282 195.08V192.28C590.282 190.52 591.402 189.5 593.442 189.5V188.7C590.942 188.7 589.422 190.12 589.422 192.2V195.14C589.422 196.46 588.942 197.1 587.402 197.1V197.94C588.942 197.94 589.422 198.58 589.422 199.9V202.84C589.422 204.92 590.942 206.34 593.442 206.34ZM594.722 206.34C597.222 206.34 598.742 204.92 598.742 202.84V199.9C598.742 198.58 599.222 197.94 600.762 197.94V197.1C599.222 197.1 598.742 196.46 598.742 195.14V192.2C598.742 190.12 597.222 188.7 594.722 188.7V189.5C596.762 189.5 597.882 190.52 597.882 192.28V195.08C597.882 196.28 598.202 197.22 599.442 197.52C598.202 197.82 597.882 198.76 597.882 199.96V202.76C597.882 204.52 596.762 205.54 594.722 205.54V206.34ZM603.843 192.78C603.343 192.78 602.943 193.18 602.943 193.68C602.943 194.18 603.343 194.58 603.843 194.58C604.343 194.58 604.743 194.18 604.743 193.68C604.743 193.18 604.343 192.78 603.843 192.78ZM604.463 200.78H603.383L602.863 204.66H603.683L604.463 200.78ZM608.393 192.78C607.893 192.78 607.493 193.18 607.493 193.68C607.493 194.18 607.893 194.58 608.393 194.58C608.893 194.58 609.293 194.18 609.293 193.68C609.293 193.18 608.893 192.78 608.393 192.78ZM608.393 200.74C607.893 200.74 607.493 201.14 607.493 201.64C607.493 202.14 607.893 202.54 608.393 202.54C608.893 202.54 609.293 202.14 609.293 201.64C609.293 201.14 608.893 200.74 608.393 200.74ZM613.424 189H611.864V190.56H612.684C612.624 191.48 612.044 192.2 611.124 192.38V193.08C612.484 192.9 613.424 191.8 613.424 190.42V189ZM616.842 189H615.282V190.56H616.102C616.042 191.5 615.462 192.2 614.562 192.38V193.08C615.902 192.9 616.842 191.8 616.842 190.42V189ZM619.362 189H617.802V190.56H618.622C618.562 191.5 618.002 192.2 617.102 192.38V193.08C618.442 192.9 619.362 191.8 619.362 190.42V189ZM622.779 204.08H621.859L621.299 207.96H622.039L622.779 204.08ZM626.124 204C625.604 204 625.184 204.42 625.184 204.94C625.184 205.46 625.604 205.88 626.124 205.88C626.644 205.88 627.064 205.46 627.064 204.94C627.064 204.42 626.644 204 626.124 204ZM629.442 198L637.942 203.76V202.74L630.142 197.48L637.942 192.22V191.2L629.442 196.96V198ZM649.315 198V196.96L640.815 191.2V192.22L648.615 197.48L640.815 202.74V203.76L649.315 198ZM659.528 188.3H658.608L651.288 207H652.208L659.528 188.3ZM666.012 201.88H666.872C666.872 199.9 666.992 198.44 669.012 197.16C670.632 196.14 671.412 194.92 671.412 193.52C671.412 191.2 669.652 189.38 666.592 189.38C663.712 189.38 661.772 191.5 661.672 193.8H662.532C662.632 192.14 663.952 190.18 666.612 190.18C669.092 190.18 670.552 191.54 670.552 193.52C670.552 194.72 669.872 195.56 668.392 196.58C666.492 197.88 666.012 199.28 666.012 201.88ZM666.452 205.88C666.972 205.88 667.392 205.46 667.392 204.94C667.392 204.42 666.972 204 666.452 204C665.932 204 665.512 204.42 665.512 204.94C665.512 205.46 665.932 205.88 666.452 205.88Z" fill="#222222"/>
</g>
</svg>
