<svg xmlns="http://www.w3.org/2000/svg" xmlns:xlink="http://www.w3.org/1999/xlink" viewBox="0 0 518 384">
    <g id="Export/pretendard_weights-2-norm" stroke="none" stroke-width="1" fill="none" fill-rule="evenodd">
        <path d="M6.144,378 L6.144,372.072 C6.144,369.912 5.784,367.464 5.592,365.472 L5.712,365.472 L7.464,369.384 L11.88,378 L16.248,378 L16.248,360.144 L12.168,360.144 L12.168,366.048 C12.168,368.184 12.504,370.752 12.744,372.648 L12.624,372.648 L10.872,368.688 L6.432,360.144 L2.064,360.144 L2.064,378 L6.144,378 Z M25.992,378.336 C29.448,378.336 32.664,375.696 32.664,371.184 C32.664,366.648 29.448,364.008 25.992,364.008 C22.512,364.008 19.296,366.648 19.296,371.184 C19.296,375.696 22.512,378.336 25.992,378.336 Z M25.992,374.88 C24.384,374.88 23.664,373.44 23.664,371.184 C23.664,368.904 24.384,367.464 25.992,367.464 C27.576,367.464 28.296,368.904 28.296,371.184 C28.296,373.44 27.576,374.88 25.992,374.88 Z M39.96,378.336 C41.352,378.336 42.336,378.048 43.056,377.832 L42.384,374.76 C42.048,374.856 41.568,375 41.136,375 C40.128,375 39.408,374.4 39.408,372.888 L39.408,367.68 L42.624,367.68 L42.624,364.344 L39.408,364.344 L39.408,360.744 L35.856,360.744 L35.376,364.344 L33.288,364.512 L33.288,367.68 L35.136,367.68 L35.136,372.936 C35.136,376.176 36.528,378.336 39.96,378.336 Z M50.664,378.336 C54.12,378.336 57.336,375.696 57.336,371.184 C57.336,366.648 54.12,364.008 50.664,364.008 C47.184,364.008 43.968,366.648 43.968,371.184 C43.968,375.696 47.184,378.336 50.664,378.336 Z M50.664,374.88 C49.056,374.88 48.336,373.44 48.336,371.184 C48.336,368.904 49.056,367.464 50.664,367.464 C52.248,367.464 52.968,368.904 52.968,371.184 C52.968,373.44 52.248,374.88 50.664,374.88 Z M71.4,378.336 C75.72,378.336 78.216,375.72 78.216,372.744 C78.216,370.224 76.896,368.736 74.688,367.848 L72.456,366.96 C70.872,366.336 69.744,365.952 69.744,364.968 C69.744,364.008 70.56,363.48 71.88,363.48 C73.272,363.48 74.376,363.96 75.552,364.848 L77.688,362.16 C76.128,360.6 73.944,359.808 71.88,359.808 C68.088,359.808 65.4,362.208 65.4,365.208 C65.4,367.8 67.152,369.36 69.024,370.104 L71.304,371.064 C72.84,371.712 73.824,372.048 73.824,373.08 C73.824,374.04 73.08,374.64 71.496,374.64 C70.08,374.64 68.424,373.896 67.152,372.816 L64.728,375.768 C66.576,377.472 69.072,378.336 71.4,378.336 Z M84.312,378.336 C85.824,378.336 87.096,377.64 88.224,376.632 L88.32,376.632 L88.632,378 L92.112,378 L92.112,370.248 C92.112,365.976 90.12,364.008 86.592,364.008 C84.456,364.008 82.512,364.728 80.712,365.808 L82.2,368.616 C83.568,367.848 84.696,367.416 85.776,367.416 C87.168,367.416 87.744,368.064 87.84,369.168 C82.512,369.744 80.256,371.304 80.256,374.184 C80.256,376.464 81.792,378.336 84.312,378.336 Z M85.776,375.024 C84.888,375.024 84.312,374.64 84.312,373.848 C84.312,372.888 85.176,372.12 87.84,371.76 L87.84,373.944 C87.216,374.616 86.64,375.024 85.776,375.024 Z M99.648,378 L99.648,368.88 C100.488,368.088 101.064,367.656 102.024,367.656 C103.104,367.656 103.608,368.208 103.608,370.08 L103.608,378 L107.88,378 L107.88,369.552 C107.88,366.144 106.608,364.008 103.632,364.008 C101.784,364.008 100.392,364.944 99.264,366.048 L99.168,366.048 L98.88,364.344 L95.4,364.344 L95.4,378 L99.648,378 Z M115.272,378.336 C118.992,378.336 120.96,376.392 120.96,373.872 C120.96,371.4 119.064,370.416 117.36,369.768 C115.944,369.264 114.696,368.952 114.696,368.136 C114.696,367.488 115.176,367.152 116.136,367.152 C117.048,367.152 118.008,367.632 118.968,368.304 L120.888,365.76 C119.688,364.872 118.152,364.008 115.992,364.008 C112.824,364.008 110.712,365.76 110.712,368.352 C110.712,370.608 112.632,371.712 114.264,372.36 C115.656,372.912 116.976,373.296 116.976,374.112 C116.976,374.784 116.496,375.192 115.368,375.192 C114.288,375.192 113.16,374.712 111.912,373.752 L110.016,376.416 C111.384,377.568 113.496,378.336 115.272,378.336 Z M136.824,378.336 C139.152,378.336 141.144,377.448 142.656,375.696 L140.4,373.008 C139.56,373.92 138.408,374.64 136.992,374.64 C134.472,374.64 132.84,372.576 132.84,369.024 C132.84,365.544 134.736,363.48 137.04,363.48 C138.312,363.48 139.248,364.056 140.136,364.872 L142.392,362.136 C141.168,360.888 139.296,359.808 136.968,359.808 C132.432,359.808 128.448,363.216 128.448,369.168 C128.448,375.216 132.288,378.336 136.824,378.336 Z M149.184,378.336 C153.192,378.336 155.04,375.456 155.04,371.952 L155.04,360.144 L150.744,360.144 L150.744,371.616 C150.744,373.944 150,374.64 148.608,374.64 C147.744,374.64 146.832,374.088 146.208,372.864 L143.28,375.048 C144.576,377.256 146.4,378.336 149.184,378.336 Z M163.344,378 L163.344,373.32 L165.288,370.68 L169.488,378 L174.192,378 L167.784,367.296 L173.184,360.144 L168.48,360.144 L163.416,367.2 L163.344,367.2 L163.344,360.144 L159.048,360.144 L159.048,378 L163.344,378 Z M185.832,378 L185.832,373.32 L187.776,370.68 L191.976,378 L196.68,378 L190.272,367.296 L195.672,360.144 L190.968,360.144 L185.904,367.2 L185.832,367.2 L185.832,360.144 L181.536,360.144 L181.536,378 L185.832,378 Z M202.824,378 L202.824,371.712 L204.888,371.712 L208.176,378 L212.976,378 L208.992,370.92 C210.84,370.056 212.064,368.376 212.064,365.76 C212.064,361.44 208.896,360.144 205.08,360.144 L198.528,360.144 L198.528,378 L202.824,378 Z M204.744,368.328 L202.824,368.328 L202.824,363.528 L204.744,363.528 C206.784,363.528 207.864,364.08 207.864,365.76 C207.864,367.44 206.784,368.328 204.744,368.328 Z M227.76,378 C231.648,378 234.744,376.368 234.744,372.72 C234.744,370.344 233.376,369 231.576,368.52 L231.576,368.424 C233.016,367.872 233.904,366.144 233.904,364.56 C233.904,361.128 230.952,360.144 227.256,360.144 L221.016,360.144 L221.016,378 L227.76,378 Z M227.088,367.224 L225.312,367.224 L225.312,363.408 L227.088,363.408 C228.888,363.408 229.728,363.936 229.728,365.208 C229.728,366.432 228.912,367.224 227.088,367.224 Z M227.448,374.712 L225.312,374.712 L225.312,370.392 L227.448,370.392 C229.536,370.392 230.568,370.968 230.568,372.432 C230.568,373.968 229.512,374.712 227.448,374.712 Z M241.248,378.336 C242.184,378.336 242.904,378.168 243.36,377.976 L242.856,374.832 C242.616,374.88 242.52,374.88 242.376,374.88 C242.04,374.88 241.608,374.616 241.608,373.728 L241.608,358.824 L237.36,358.824 L237.36,373.56 C237.36,376.416 238.32,378.336 241.248,378.336 Z M248.784,378.336 C250.296,378.336 251.568,377.64 252.696,376.632 L252.792,376.632 L253.104,378 L256.584,378 L256.584,370.248 C256.584,365.976 254.592,364.008 251.064,364.008 C248.928,364.008 246.984,364.728 245.184,365.808 L246.672,368.616 C248.04,367.848 249.168,367.416 250.248,367.416 C251.64,367.416 252.216,368.064 252.312,369.168 C246.984,369.744 244.728,371.304 244.728,374.184 C244.728,376.464 246.264,378.336 248.784,378.336 Z M250.248,375.024 C249.36,375.024 248.784,374.64 248.784,373.848 C248.784,372.888 249.648,372.12 252.312,371.76 L252.312,373.944 C251.688,374.616 251.112,375.024 250.248,375.024 Z M265.896,378.336 C267.336,378.336 269.064,377.904 270.384,376.728 L268.752,373.92 C268.056,374.472 267.24,374.88 266.376,374.88 C264.696,374.88 263.472,373.44 263.472,371.184 C263.472,368.904 264.648,367.464 266.52,367.464 C267.12,367.464 267.648,367.68 268.272,368.208 L270.264,365.472 C269.232,364.584 267.936,364.008 266.28,364.008 C262.464,364.008 259.104,366.648 259.104,371.184 C259.104,375.696 262.056,378.336 265.896,378.336 Z M276.912,378 L276.912,374.664 L278.544,372.816 L281.496,378 L286.128,378 L280.968,369.984 L285.792,364.344 L281.16,364.344 L277.008,369.528 L276.912,369.528 L276.912,358.824 L272.76,358.824 L272.76,378 L276.912,378 Z" id="NotoSansCJKKRBlack" fill="#000000" fill-rule="nonzero"></path>
        <path d="M5.544,290 L5.544,282.872 C5.544,280.832 5.28,278.6 5.112,276.68 L5.232,276.68 L7.032,280.496 L12.168,290 L15.768,290 L15.768,272.24 L12.408,272.24 L12.408,279.32 C12.408,281.336 12.672,283.688 12.864,285.536 L12.744,285.536 L10.968,281.696 L5.808,272.24 L2.184,272.24 L2.184,290 L5.544,290 Z M25.488,290.336 C28.848,290.336 31.944,287.744 31.944,283.304 C31.944,278.816 28.848,276.224 25.488,276.224 C22.128,276.224 19.032,278.816 19.032,283.304 C19.032,287.744 22.128,290.336 25.488,290.336 Z M25.488,287.456 C23.664,287.456 22.632,285.824 22.632,283.304 C22.632,280.76 23.664,279.104 25.488,279.104 C27.312,279.104 28.344,280.76 28.344,283.304 C28.344,285.824 27.312,287.456 25.488,287.456 Z M39.144,290.336 C40.32,290.336 41.256,290.072 41.976,289.832 L41.4,287.264 C41.04,287.408 40.512,287.552 40.08,287.552 C38.88,287.552 38.256,286.832 38.256,285.296 L38.256,279.344 L41.568,279.344 L41.568,276.56 L38.256,276.56 L38.256,272.96 L35.304,272.96 L34.896,276.56 L32.832,276.728 L32.832,279.344 L34.728,279.344 L34.728,285.296 C34.728,288.32 35.952,290.336 39.144,290.336 Z M49.464,290.336 C52.824,290.336 55.92,287.744 55.92,283.304 C55.92,278.816 52.824,276.224 49.464,276.224 C46.104,276.224 43.008,278.816 43.008,283.304 C43.008,287.744 46.104,290.336 49.464,290.336 Z M49.464,287.456 C47.64,287.456 46.608,285.824 46.608,283.304 C46.608,280.76 47.64,279.104 49.464,279.104 C51.288,279.104 52.32,280.76 52.32,283.304 C52.32,285.824 51.288,287.456 49.464,287.456 Z M69.912,290.336 C74.016,290.336 76.44,287.864 76.44,284.96 C76.44,282.392 75.024,281.024 72.864,280.136 L70.536,279.152 C69.024,278.552 67.752,278.096 67.752,276.824 C67.752,275.648 68.76,274.952 70.32,274.952 C71.784,274.952 72.96,275.48 74.088,276.416 L75.888,274.184 C74.448,272.72 72.384,271.904 70.32,271.904 C66.72,271.904 64.176,274.136 64.176,277.04 C64.176,279.632 65.976,281.072 67.776,281.816 L70.152,282.824 C71.736,283.496 72.816,283.904 72.816,285.224 C72.816,286.472 71.832,287.264 69.984,287.264 C68.424,287.264 66.744,286.472 65.472,285.296 L63.432,287.744 C65.16,289.4 67.536,290.336 69.912,290.336 Z M82.608,290.336 C84.144,290.336 85.488,289.568 86.664,288.56 L86.736,288.56 L87,290 L89.88,290 L89.88,282.152 C89.88,278.264 88.128,276.224 84.72,276.224 C82.608,276.224 80.688,277.016 79.104,278 L80.376,280.328 C81.624,279.608 82.824,279.056 84.072,279.056 C85.728,279.056 86.304,280.064 86.352,281.384 C80.952,281.96 78.624,283.472 78.624,286.352 C78.624,288.632 80.208,290.336 82.608,290.336 Z M83.76,287.576 C82.728,287.576 81.984,287.12 81.984,286.064 C81.984,284.864 83.088,283.976 86.352,283.544 L86.352,286.256 C85.512,287.096 84.768,287.576 83.76,287.576 Z M96.984,290 L96.984,280.76 C97.992,279.776 98.688,279.248 99.792,279.248 C101.112,279.248 101.688,279.992 101.688,282.056 L101.688,290 L105.216,290 L105.216,281.624 C105.216,278.24 103.968,276.224 101.064,276.224 C99.24,276.224 97.872,277.184 96.696,278.336 L96.6,278.336 L96.36,276.56 L93.48,276.56 L93.48,290 L96.984,290 Z M112.704,290.336 C116.208,290.336 118.056,288.44 118.056,286.088 C118.056,283.592 116.088,282.704 114.312,282.032 C112.896,281.504 111.576,281.144 111.576,280.16 C111.576,279.392 112.152,278.864 113.352,278.864 C114.36,278.864 115.296,279.344 116.256,280.016 L117.84,277.88 C116.712,277.04 115.224,276.224 113.256,276.224 C110.232,276.224 108.264,277.928 108.264,280.352 C108.264,282.584 110.232,283.616 111.936,284.264 C113.352,284.816 114.744,285.272 114.744,286.28 C114.744,287.12 114.144,287.696 112.8,287.696 C111.552,287.696 110.4,287.168 109.2,286.232 L107.592,288.44 C108.912,289.544 110.904,290.336 112.704,290.336 Z M133.728,290.336 C136.032,290.336 137.928,289.424 139.392,287.72 L137.52,285.512 C136.56,286.544 135.36,287.264 133.848,287.264 C131.04,287.264 129.216,284.936 129.216,281.072 C129.216,277.256 131.232,274.952 133.92,274.952 C135.264,274.952 136.296,275.576 137.184,276.44 L139.056,274.184 C137.904,272.984 136.104,271.904 133.848,271.904 C129.36,271.904 125.592,275.336 125.592,281.192 C125.592,287.12 129.24,290.336 133.728,290.336 Z M145.824,290.336 C149.64,290.336 151.32,287.6 151.32,284.264 L151.32,272.24 L147.768,272.24 L147.768,283.976 C147.768,286.424 146.952,287.264 145.392,287.264 C144.384,287.264 143.448,286.712 142.752,285.416 L140.304,287.216 C141.504,289.28 143.232,290.336 145.824,290.336 Z M159.144,290 L159.144,285.008 L161.472,282.032 L166.056,290 L169.968,290 L163.584,279.224 L169.008,272.24 L165.096,272.24 L159.216,279.944 L159.144,279.944 L159.144,272.24 L155.592,272.24 L155.592,290 L159.144,290 Z M181.056,290 L181.056,285.008 L183.384,282.032 L187.968,290 L191.88,290 L185.496,279.224 L190.92,272.24 L187.008,272.24 L181.128,279.944 L181.056,279.944 L181.056,272.24 L177.504,272.24 L177.504,290 L181.056,290 Z M197.52,290 L197.52,283.28 L199.992,283.28 L203.64,290 L207.6,290 L203.448,282.728 C205.488,281.936 206.832,280.28 206.832,277.616 C206.832,273.536 203.88,272.24 200.16,272.24 L193.968,272.24 L193.968,290 L197.52,290 Z M199.824,280.472 L197.52,280.472 L197.52,275.048 L199.824,275.048 C202.104,275.048 203.352,275.696 203.352,277.616 C203.352,279.512 202.104,280.472 199.824,280.472 Z M222.12,290 C226.032,290 229.008,288.344 229.008,284.768 C229.008,282.368 227.592,281.024 225.672,280.568 L225.672,280.448 C227.184,279.92 228.096,278.24 228.096,276.608 C228.096,273.296 225.312,272.24 221.664,272.24 L215.784,272.24 L215.784,290 L222.12,290 Z M221.4,279.464 L219.336,279.464 L219.336,274.952 L221.448,274.952 C223.584,274.952 224.64,275.576 224.64,277.136 C224.64,278.552 223.656,279.464 221.4,279.464 Z M221.808,287.264 L219.336,287.264 L219.336,282.104 L221.808,282.104 C224.256,282.104 225.552,282.824 225.552,284.552 C225.552,286.4 224.232,287.264 221.808,287.264 Z M237.456,290.336 C240.816,290.336 243.912,287.744 243.912,283.304 C243.912,278.816 240.816,276.224 237.456,276.224 C234.096,276.224 231,278.816 231,283.304 C231,287.744 234.096,290.336 237.456,290.336 Z M237.456,287.456 C235.632,287.456 234.6,285.824 234.6,283.304 C234.6,280.76 235.632,279.104 237.456,279.104 C239.28,279.104 240.312,280.76 240.312,283.304 C240.312,285.824 239.28,287.456 237.456,287.456 Z M250.176,290.336 C250.992,290.336 251.592,290.192 252,290.024 L251.568,287.408 C251.328,287.456 251.232,287.456 251.088,287.456 C250.752,287.456 250.368,287.192 250.368,286.4 L250.368,270.848 L246.864,270.848 L246.864,286.232 C246.864,288.728 247.728,290.336 250.176,290.336 Z M259.152,290.336 C260.544,290.336 261.888,289.568 262.872,288.608 L262.944,288.608 L263.232,290 L266.088,290 L266.088,270.848 L262.56,270.848 L262.56,275.576 L262.704,277.688 C261.744,276.8 260.808,276.224 259.296,276.224 C256.392,276.224 253.656,278.912 253.656,283.304 C253.656,287.696 255.816,290.336 259.152,290.336 Z M260.064,287.432 C258.288,287.432 257.28,286.04 257.28,283.256 C257.28,280.568 258.552,279.128 260.064,279.128 C260.904,279.128 261.744,279.392 262.56,280.136 L262.56,286.04 C261.792,287.048 261,287.432 260.064,287.432 Z" id="NotoSansCJKKRBold" fill="#000000" fill-rule="nonzero"></path>
        <path d="M4.968,202 L4.968,193.672 C4.968,191.752 4.752,189.712 4.608,187.888 L4.728,187.888 L6.576,191.584 L12.432,202 L15.288,202 L15.288,184.336 L12.648,184.336 L12.648,192.568 C12.648,194.488 12.864,196.624 13.008,198.448 L12.888,198.448 L11.04,194.704 L5.184,184.336 L2.328,184.336 L2.328,202 L4.968,202 Z M24.984,202.312 C28.248,202.312 31.2,199.792 31.2,195.424 C31.2,191.008 28.248,188.464 24.984,188.464 C21.72,188.464 18.768,191.008 18.768,195.424 C18.768,199.792 21.72,202.312 24.984,202.312 Z M24.984,200.056 C22.92,200.056 21.624,198.208 21.624,195.424 C21.624,192.616 22.92,190.744 24.984,190.744 C27.072,190.744 28.368,192.616 28.368,195.424 C28.368,198.208 27.072,200.056 24.984,200.056 Z M38.328,202.312 C39.288,202.312 40.176,202.072 40.92,201.832 L40.416,199.792 C40.032,199.96 39.456,200.104 39,200.104 C37.632,200.104 37.08,199.288 37.08,197.704 L37.08,191.008 L40.512,191.008 L40.512,188.8 L37.08,188.8 L37.08,185.152 L34.752,185.152 L34.44,188.8 L32.4,188.944 L32.4,191.008 L34.32,191.008 L34.32,197.68 C34.32,200.464 35.352,202.312 38.328,202.312 Z M48.264,202.312 C51.528,202.312 54.48,199.792 54.48,195.424 C54.48,191.008 51.528,188.464 48.264,188.464 C45,188.464 42.048,191.008 42.048,195.424 C42.048,199.792 45,202.312 48.264,202.312 Z M48.264,200.056 C46.2,200.056 44.904,198.208 44.904,195.424 C44.904,192.616 46.2,190.744 48.264,190.744 C50.352,190.744 51.648,192.616 51.648,195.424 C51.648,198.208 50.352,200.056 48.264,200.056 Z M68.4,202.312 C72.264,202.312 74.616,200.008 74.616,197.176 C74.616,194.584 73.104,193.288 71.016,192.4 L68.592,191.368 C67.152,190.792 65.736,190.216 65.736,188.704 C65.736,187.288 66.912,186.424 68.712,186.424 C70.272,186.424 71.496,187.024 72.6,188.008 L74.064,186.232 C72.72,184.864 70.776,184 68.712,184 C65.352,184 62.904,186.088 62.904,188.872 C62.904,191.44 64.8,192.784 66.504,193.504 L68.952,194.56 C70.584,195.28 71.784,195.784 71.784,197.392 C71.784,198.88 70.584,199.888 68.448,199.888 C66.744,199.888 65.016,199.072 63.744,197.8 L62.112,199.72 C63.72,201.352 65.976,202.312 68.4,202.312 Z M80.832,202.312 C82.416,202.312 83.832,201.52 85.032,200.488 L85.104,200.488 L85.344,202 L87.6,202 L87.6,194.056 C87.6,190.552 86.088,188.464 82.8,188.464 C80.688,188.464 78.84,189.328 77.472,190.192 L78.504,192.064 C79.632,191.344 80.928,190.72 82.32,190.72 C84.264,190.72 84.816,192.064 84.84,193.6 C79.344,194.2 76.944,195.664 76.944,198.496 C76.944,200.824 78.552,202.312 80.832,202.312 Z M81.672,200.128 C80.496,200.128 79.608,199.6 79.608,198.304 C79.608,196.816 80.928,195.832 84.84,195.352 L84.84,198.592 C83.76,199.576 82.824,200.128 81.672,200.128 Z M94.248,202 L94.248,192.64 C95.424,191.464 96.264,190.84 97.488,190.84 C99.048,190.84 99.72,191.752 99.72,194.032 L99.72,202 L102.48,202 L102.48,193.696 C102.48,190.336 101.232,188.464 98.424,188.464 C96.624,188.464 95.28,189.448 94.056,190.624 L93.984,190.624 L93.768,188.8 L91.512,188.8 L91.512,202 L94.248,202 Z M110.064,202.312 C113.328,202.312 115.08,200.512 115.08,198.304 C115.08,195.808 113.04,194.992 111.192,194.296 C109.752,193.768 108.384,193.336 108.384,192.208 C108.384,191.296 109.056,190.576 110.496,190.576 C111.6,190.576 112.536,191.056 113.448,191.728 L114.744,190.024 C113.664,189.184 112.224,188.464 110.448,188.464 C107.544,188.464 105.768,190.12 105.768,192.328 C105.768,194.56 107.784,195.496 109.536,196.168 L109.896111,196.305903 C111.213667,196.812667 112.464,197.348 112.464,198.448 C112.464,199.456 111.72,200.224 110.136,200.224 C108.72,200.224 107.568,199.648 106.392,198.712 L105.096,200.488 C106.368,201.544 108.24,202.312 110.064,202.312 Z M130.536,202.312 C132.816,202.312 134.616,201.4 136.032,199.768 L134.544,198.016 C133.488,199.168 132.24,199.888 130.632,199.888 C127.512,199.888 125.544,197.32 125.544,193.12 C125.544,188.968 127.656,186.424 130.704,186.424 C132.144,186.424 133.248,187.072 134.16,188.008 L135.672,186.232 C134.592,185.056 132.864,184 130.656,184 C126.192,184 122.688,187.456 122.688,193.216 C122.688,199 126.096,202.312 130.536,202.312 Z M142.392,202.312 C145.992,202.312 147.528,199.768 147.528,196.6 L147.528,184.336 L144.744,184.336 L144.744,196.336 C144.744,198.928 143.856,199.888 142.08,199.888 C140.928,199.888 139.968,199.336 139.224,197.968 L137.28,199.384 C138.384,201.328 140.016,202.312 142.392,202.312 Z M154.872,202 L154.872,196.672 L157.584,193.36 L162.576,202 L165.672,202 L159.288,191.152 L164.76,184.336 L161.664,184.336 L154.944,192.688 L154.872,192.688 L154.872,184.336 L152.088,184.336 L152.088,202 L154.872,202 Z M176.184,202 L176.184,196.672 L178.896,193.36 L183.888,202 L186.984,202 L180.6,191.152 L186.072,184.336 L182.976,184.336 L176.256,192.688 L176.184,192.688 L176.184,184.336 L173.4,184.336 L173.4,202 L176.184,202 Z M192.096,202 L192.096,194.872 L194.952,194.872 L198.96,202 L202.104,202 L197.784,194.512 C200.016,193.816 201.48,192.184 201.48,189.448 C201.48,185.632 198.744,184.336 195.096,184.336 L189.312,184.336 L189.312,202 L192.096,202 Z M194.76,192.64 L192.096,192.64 L192.096,186.568 L194.76,186.568 C197.328,186.568 198.72,187.312 198.72,189.448 C198.72,191.584 197.328,192.64 194.76,192.64 Z M212.928,202 L212.928,193.264 C212.928,191.68 212.712,189.4 212.592,187.792 L212.688,187.792 L214.08,191.872 L217.176,200.296 L218.904,200.296 L221.976,191.872 L223.392,187.792 L223.488,187.792 C223.344,189.4 223.128,191.68 223.128,193.264 L223.128,202 L225.72,202 L225.72,184.336 L222.504,184.336 L219.312,193.264 C218.904,194.44 218.568,195.64 218.16,196.84 L218.04,196.84 C217.632,195.64 217.272,194.44 216.864,193.264 L213.624,184.336 L210.432,184.336 L210.432,202 L212.928,202 Z M235.608,202.312 C237.336,202.312 238.848,201.736 240.072,200.92 L239.112,199.168 C238.152,199.792 237.144,200.152 235.968,200.152 C233.688,200.152 232.104,198.64 231.888,196.12 L240.456,196.12 C240.528,195.808 240.576,195.256 240.576,194.728 C240.576,190.984 238.704,188.464 235.2,188.464 C232.104,188.464 229.176,191.128 229.176,195.424 C229.176,199.768 232.032,202.312 235.608,202.312 Z M238.2,194.224 L231.864,194.224 C232.128,191.896 233.592,190.624 235.248,190.624 C237.168,190.624 238.2,191.944 238.2,194.224 Z M248.232,202.312 C249.72,202.312 251.088,201.52 252.072,200.512 L252.144,200.512 L252.384,202 L254.64,202 L254.64,182.872 L251.88,182.872 L251.88,187.768 L252,189.952 C250.92,189.04 249.96,188.464 248.448,188.464 C245.496,188.464 242.784,191.128 242.784,195.424 C242.784,199.792 244.92,202.312 248.232,202.312 Z M248.88,200.032 C246.816,200.032 245.64,198.376 245.64,195.376 C245.64,192.52 247.128,190.768 248.976,190.768 C249.96,190.768 250.896,191.08 251.88,191.968 L251.88,198.424 C250.92,199.528 249.984,200.032 248.88,200.032 Z M260.16,186.328 C261.168,186.328 261.936,185.656 261.936,184.696 C261.936,183.712 261.168,183.064 260.16,183.064 C259.152,183.064 258.408,183.712 258.408,184.696 C258.408,185.656 259.152,186.328 260.16,186.328 Z M261.528,202 L261.528,188.8 L258.792,188.8 L258.792,202 L261.528,202 Z M269.544,202.312 C271.368,202.312 272.664,201.4 273.864,200.008 L273.936,200.008 L274.152,202 L276.408,202 L276.408,188.8 L273.648,188.8 L273.648,197.968 C272.544,199.36 271.704,199.936 270.48,199.936 C268.92,199.936 268.272,199.048 268.272,196.768 L268.272,188.8 L265.512,188.8 L265.512,197.104 C265.512,200.464 266.736,202.312 269.544,202.312 Z M283.296,202 L283.296,192.64 C284.4,191.44 285.384,190.84 286.272,190.84 C287.784,190.84 288.48,191.752 288.48,194.032 L288.48,202 L291.24,202 L291.24,192.64 C292.344,191.44 293.304,190.84 294.216,190.84 C295.704,190.84 296.424,191.752 296.424,194.032 L296.424,202 L299.184,202 L299.184,193.696 C299.184,190.336 297.888,188.464 295.128,188.464 C293.472,188.464 292.128,189.496 290.832,190.888 C290.256,189.376 289.152,188.464 287.184,188.464 C285.552,188.464 284.232,189.448 283.104,190.648 L283.032,190.648 L282.816,188.8 L280.56,188.8 L280.56,202 L283.296,202 Z" id="NotoSansCJKKRMedium" fill="#000000" fill-rule="nonzero"></path>
        <path d="M4.512,158 L4.512,148.76 C4.512,146.912 4.344,145.04 4.248,143.264 L4.344,143.264 L6.24,146.888 L12.648,158 L14.928,158 L14.928,140.408 L12.816,140.408 L12.816,149.552 C12.816,151.376 12.984,153.344 13.104,155.12 L12.984,155.12 L11.112,151.496 L4.704,140.408 L2.4,140.408 L2.4,158 L4.512,158 Z M24.6,158.312 C27.792,158.312 30.648,155.816 30.648,151.496 C30.648,147.152 27.792,144.632 24.6,144.632 C21.408,144.632 18.552,147.152 18.552,151.496 C18.552,155.816 21.408,158.312 24.6,158.312 Z M24.6,156.488 C22.344,156.488 20.832,154.496 20.832,151.496 C20.832,148.496 22.344,146.456 24.6,146.456 C26.856,146.456 28.392,148.496 28.392,151.496 C28.392,154.496 26.856,156.488 24.6,156.488 Z M37.728,158.312 C38.52,158.312 39.384,158.072 40.128,157.832 L39.696,156.2 C39.264,156.368 38.664,156.536 38.208,156.536 C36.696,156.536 36.192,155.624 36.192,154.016 L36.192,146.744 L39.72,146.744 L39.72,144.968 L36.192,144.968 L36.192,141.32 L34.368,141.32 L34.104,144.968 L32.064,145.088 L32.064,146.744 L34.008,146.744 L34.008,153.968 C34.008,156.584 34.944,158.312 37.728,158.312 Z M47.376,158.312 C50.568,158.312 53.424,155.816 53.424,151.496 C53.424,147.152 50.568,144.632 47.376,144.632 C44.184,144.632 41.328,147.152 41.328,151.496 C41.328,155.816 44.184,158.312 47.376,158.312 Z M47.376,156.488 C45.12,156.488 43.608,154.496 43.608,151.496 C43.608,148.496 45.12,146.456 47.376,146.456 C49.632,146.456 51.168,148.496 51.168,151.496 C51.168,154.496 49.632,156.488 47.376,156.488 Z M67.32,158.312 C70.992,158.312 73.296,156.104 73.296,153.32 C73.296,150.704 71.712,149.504 69.672,148.616 L67.152,147.536 C65.784,146.96 64.248,146.312 64.248,144.608 C64.248,143.024 65.544,142.016 67.536,142.016 C69.168,142.016 70.464,142.664 71.544,143.672 L72.72,142.256 C71.472,140.96 69.624,140.072 67.536,140.072 C64.344,140.072 61.992,142.04 61.992,144.752 C61.992,147.32 63.936,148.568 65.568,149.264 L68.112,150.368 C69.768,151.112 71.04,151.688 71.04,153.488 C71.04,155.216 69.648,156.368 67.344,156.368 C65.52,156.368 63.744,155.504 62.472,154.184 L61.152,155.696 C62.688,157.304 64.824,158.312 67.32,158.312 Z M79.56,158.312 C81.168,158.312 82.632,157.472 83.88,156.44 L83.952,156.44 L84.144,158 L85.944,158 L85.944,149.984 C85.944,146.768 84.6,144.632 81.432,144.632 C79.344,144.632 77.496,145.568 76.296,146.336 L77.16,147.848 C78.192,147.152 79.56,146.456 81.072,146.456 C83.208,146.456 83.76,148.064 83.76,149.744 C78.216,150.368 75.744,151.784 75.744,154.616 C75.744,156.968 77.376,158.312 79.56,158.312 Z M80.184,156.56 C78.888,156.56 77.88,155.96 77.88,154.472 C77.88,152.792 79.368,151.712 83.76,151.184 L83.76,154.832 C82.488,155.96 81.456,156.56 80.184,156.56 Z M92.28,158 L92.28,148.544 C93.6,147.224 94.512,146.552 95.856,146.552 C97.584,146.552 98.328,147.584 98.328,150.032 L98.328,158 L100.512,158 L100.512,149.744 C100.512,146.408 99.264,144.632 96.528,144.632 C94.752,144.632 93.408,145.616 92.16,146.84 L92.088,146.84 L91.896,144.968 L90.096,144.968 L90.096,158 L92.28,158 Z M108.168,158.312 C111.24,158.312 112.92,156.56 112.92,154.448 C112.92,151.976 110.832,151.208 108.936,150.488 C107.472,149.936 106.056,149.48 106.056,148.232 C106.056,147.224 106.8,146.36 108.432,146.36 C109.608,146.36 110.52,146.84 111.432,147.512 L112.488,146.096 C111.456,145.304 110.04,144.632 108.432,144.632 C105.6,144.632 103.944,146.264 103.944,148.328 C103.944,150.536 106.008,151.424 107.832,152.096 C109.272,152.648 110.808,153.248 110.808,154.568 C110.808,155.696 109.968,156.608 108.24,156.608 C106.68,156.608 105.504,155.984 104.376,155.072 L103.296,156.512 C104.544,157.544 106.32,158.312 108.168,158.312 Z M128.208,158.312 C130.488,158.312 132.216,157.4 133.608,155.792 L132.384,154.4 C131.256,155.624 129.984,156.368 128.304,156.368 C124.944,156.368 122.832,153.584 122.832,149.144 C122.832,144.752 125.04,142.016 128.376,142.016 C129.888,142.016 131.064,142.712 131.976,143.696 L133.176,142.256 C132.168,141.128 130.488,140.072 128.352,140.072 C123.888,140.072 120.552,143.528 120.552,149.216 C120.552,154.928 123.84,158.312 128.208,158.312 Z M139.896,158.312 C143.328,158.312 144.72,155.864 144.72,152.84 L144.72,140.408 L142.512,140.408 L142.512,152.624 C142.512,155.288 141.576,156.368 139.68,156.368 C138.408,156.368 137.424,155.792 136.632,154.4 L135.048,155.528 C136.08,157.352 137.664,158.312 139.896,158.312 Z M151.704,158 L151.704,152.432 L154.728,148.832 L159.984,158 L162.48,158 L156.12,147.104 L161.616,140.408 L159.12,140.408 L151.776,149.24 L151.704,149.24 L151.704,140.408 L149.472,140.408 L149.472,158 L151.704,158 Z M172.584,158 L172.584,152.432 L175.608,148.832 L180.864,158 L183.36,158 L177,147.104 L182.496,140.408 L180,140.408 L172.656,149.24 L172.584,149.24 L172.584,140.408 L170.352,140.408 L170.352,158 L172.584,158 Z M188.088,158 L188.088,150.536 L191.256,150.536 L195.528,158 L198.048,158 L193.536,150.296 C195.936,149.72 197.52,148.088 197.52,145.352 C197.52,141.68 194.952,140.408 191.376,140.408 L185.856,140.408 L185.856,158 L188.088,158 Z M191.04,148.736 L188.088,148.736 L188.088,142.208 L191.04,142.208 C193.8,142.208 195.312,143.024 195.312,145.352 C195.312,147.632 193.8,148.736 191.04,148.736 Z M208.704,158 L208.704,150.536 L211.872,150.536 L216.144,158 L218.664,158 L214.152,150.296 C216.552,149.72 218.136,148.088 218.136,145.352 C218.136,141.68 215.568,140.408 211.992,140.408 L206.472,140.408 L206.472,158 L208.704,158 Z M211.656,148.736 L208.704,148.736 L208.704,142.208 L211.656,142.208 C214.416,142.208 215.928,143.024 215.928,145.352 C215.928,147.632 214.416,148.736 211.656,148.736 Z M226.512,158.312 C228.288,158.312 229.68,157.712 230.832,156.968 L230.04,155.528 C229.08,156.176 228.048,156.56 226.776,156.56 C224.304,156.56 222.6,154.784 222.456,152 L231.24,152 C231.288,151.688 231.336,151.232 231.336,150.752 C231.336,147.032 229.464,144.632 226.152,144.632 C223.128,144.632 220.272,147.272 220.272,151.496 C220.272,155.792 223.056,158.312 226.512,158.312 Z M229.416,150.44 L222.432,150.44 C222.696,147.872 224.328,146.384 226.176,146.384 C228.216,146.384 229.416,147.8 229.416,150.44 Z M238.68,164 C242.712,164 245.256,161.912 245.256,159.488 C245.256,157.352 243.744,156.392 240.72,156.392 L238.176,156.392 C236.424,156.392 235.896,155.816 235.896,154.976 C235.896,154.256 236.256,153.824 236.736,153.416 C237.312,153.704 238.032,153.872 238.68,153.872 C241.32,153.872 243.432,152.12 243.432,149.336 C243.432,148.208 243,147.248 242.376,146.648 L245.04,146.648 L245.04,144.968 L240.504,144.968 C240.048,144.8 239.4,144.632 238.68,144.632 C236.04,144.632 233.784,146.432 233.784,149.288 C233.784,150.848 234.624,152.096 235.488,152.792 L235.488,152.888 C234.816,153.368 234.024,154.232 234.024,155.312 C234.024,156.344 234.528,157.04 235.224,157.448 L235.224,157.544 C234,158.336 233.28,159.392 233.28,160.496 C233.28,162.752 235.488,164 238.68,164 Z M238.68,152.384 C237.168,152.384 235.896,151.184 235.896,149.288 C235.896,147.368 237.144,146.24 238.68,146.24 C240.216,146.24 241.44,147.392 241.44,149.288 C241.44,151.184 240.168,152.384 238.68,152.384 Z M238.992,162.512 C236.616,162.512 235.2,161.6 235.2,160.208 C235.2,159.44 235.608,158.672 236.544,158 C237.12,158.144 237.744,158.216 238.224,158.216 L240.48,158.216 C242.208,158.216 243.144,158.624 243.144,159.824 C243.144,161.192 241.488,162.512 238.992,162.512 Z M251.592,158.312 C253.392,158.312 254.688,157.376 255.912,155.96 L255.984,155.96 L256.152,158 L257.976,158 L257.976,144.968 L255.792,144.968 L255.792,154.208 C254.544,155.768 253.608,156.416 252.264,156.416 C250.536,156.416 249.816,155.384 249.816,152.96 L249.816,144.968 L247.632,144.968 L247.632,153.224 C247.632,156.536 248.856,158.312 251.592,158.312 Z M264.672,158.312 C265.248,158.312 265.632,158.24 265.944,158.12 L265.632,156.44 C265.392,156.488 265.296,156.488 265.176,156.488 C264.84,156.488 264.552,156.224 264.552,155.552 L264.552,138.896 L262.368,138.896 L262.368,155.408 C262.368,157.256 263.04,158.312 264.672,158.312 Z M272.208,158.312 C273.816,158.312 275.28,157.472 276.528,156.44 L276.6,156.44 L276.792,158 L278.592,158 L278.592,149.984 C278.592,146.768 277.248,144.632 274.08,144.632 C271.992,144.632 270.144,145.568 268.944,146.336 L269.808,147.848 C270.84,147.152 272.208,146.456 273.72,146.456 C275.856,146.456 276.408,148.064 276.408,149.744 C270.864,150.368 268.392,151.784 268.392,154.616 C268.392,156.968 270.024,158.312 272.208,158.312 Z M272.832,156.56 C271.536,156.56 270.528,155.96 270.528,154.472 C270.528,152.792 272.016,151.712 276.408,151.184 L276.408,154.832 C275.136,155.96 274.104,156.56 272.832,156.56 Z M284.928,158 L284.928,149.624 C285.792,147.392 287.136,146.624 288.216,146.624 C288.744,146.624 289.056,146.672 289.488,146.84 L289.896,144.92 C289.488,144.704 289.08,144.632 288.504,144.632 C287.04,144.632 285.72,145.688 284.808,147.344 L284.736,147.344 L284.544,144.968 L282.744,144.968 L282.744,158 L284.928,158 Z" id="NotoSansCJKKRRegular" fill="#000000" fill-rule="nonzero"></path>
        <path d="M4.32,114 L4.32,104.376 C4.32,102.552 4.176,100.776 4.08,99.024 L4.2,99.024 L6.12,102.624 L12.72,114 L14.784,114 L14.784,96.432 L12.888,96.432 L12.888,105.936 C12.888,107.736 13.032,109.656 13.152,111.408 L13.032,111.408 L11.136,107.808 L4.488,96.432 L2.448,96.432 L2.448,114 L4.32,114 Z M24.456,114.312 C27.624,114.312 30.432,111.816 30.432,107.544 C30.432,103.2 27.624,100.704 24.456,100.704 C21.288,100.704 18.504,103.2 18.504,107.544 C18.504,111.816 21.288,114.312 24.456,114.312 Z M24.456,112.68 C22.128,112.68 20.52,110.616 20.52,107.544 C20.52,104.448 22.128,102.36 24.456,102.36 C26.784,102.36 28.416,104.448 28.416,107.544 C28.416,110.616 26.784,112.68 24.456,112.68 Z M37.464,114.312 C38.184,114.312 39.048,114.072 39.768,113.832 L39.384,112.368 C38.952,112.536 38.352,112.704 37.872,112.704 C36.312,112.704 35.832,111.744 35.832,110.16 L35.832,102.648 L39.408,102.648 L39.408,101.04 L35.832,101.04 L35.832,97.368 L34.176,97.368 L33.96,101.04 L31.92,101.16 L31.92,102.648 L33.888,102.648 L33.888,110.088 C33.888,112.632 34.752,114.312 37.464,114.312 Z M46.968,114.312 C50.136,114.312 52.944,111.816 52.944,107.544 C52.944,103.2 50.136,100.704 46.968,100.704 C43.8,100.704 41.016,103.2 41.016,107.544 C41.016,111.816 43.8,114.312 46.968,114.312 Z M46.968,112.68 C44.64,112.68 43.032,110.616 43.032,107.544 C43.032,104.448 44.64,102.36 46.968,102.36 C49.296,102.36 50.928,104.448 50.928,107.544 C50.928,110.616 49.296,112.68 46.968,112.68 Z M66.792,114.312 C70.416,114.312 72.696,112.152 72.696,109.392 C72.696,106.776 71.064,105.576 69.048,104.688 L66.504,103.608 C65.16,103.032 63.576,102.36 63.576,100.56 C63.576,98.904 64.944,97.872 66.984,97.872 C68.664,97.872 69.96,98.52 71.04,99.552 L72.096,98.28 C70.896,97.008 69.096,96.12 66.984,96.12 C63.864,96.12 61.56,98.04 61.56,100.704 C61.56,103.272 63.504,104.472 65.136,105.168 L67.68,106.296 C69.36,107.04 70.68,107.64 70.68,109.536 C70.68,111.336 69.216,112.56 66.816,112.56 C64.944,112.56 63.168,111.696 61.896,110.328 L60.696,111.696 C62.208,113.304 64.296,114.312 66.792,114.312 Z M78.96,114.312 C80.592,114.312 82.08,113.472 83.328,112.416 L83.4,112.416 L83.568,114 L85.176,114 L85.176,105.96 C85.176,102.84 83.928,100.704 80.784,100.704 C78.696,100.704 76.872,101.664 75.744,102.408 L76.536,103.776 C77.52,103.08 78.912,102.336 80.472,102.336 C82.704,102.336 83.256,104.064 83.232,105.816 C77.664,106.44 75.192,107.832 75.192,110.664 C75.192,113.016 76.824,114.312 78.96,114.312 Z M79.488,112.728 C78.168,112.728 77.088,112.104 77.088,110.544 C77.088,108.768 78.648,107.664 83.232,107.136 L83.232,110.928 C81.912,112.104 80.808,112.728 79.488,112.728 Z M91.392,114 L91.392,104.52 C92.736,103.128 93.72,102.408 95.088,102.408 C96.888,102.408 97.656,103.512 97.656,106.008 L97.656,114 L99.624,114 L99.624,105.768 C99.624,102.456 98.376,100.704 95.664,100.704 C93.888,100.704 92.544,101.712 91.296,102.936 L91.224,102.936 L91.032,101.04 L89.448,101.04 L89.448,114 L91.392,114 Z M107.28,114.312 C110.28,114.312 111.912,112.584 111.912,110.52 C111.912,108.048 109.8,107.304 107.904,106.56 C106.416,106.032 104.976,105.528 104.976,104.232 C104.976,103.176 105.768,102.264 107.496,102.264 C108.672,102.264 109.608,102.768 110.496,103.416 L111.432,102.144 C110.448,101.352 109.032,100.704 107.496,100.704 C104.712,100.704 103.104,102.312 103.104,104.328 C103.104,106.536 105.168,107.4 107.016,108.072 C108.48,108.6 110.04,109.224 110.04,110.616 C110.04,111.816 109.152,112.776 107.352,112.776 C105.72,112.776 104.568,112.152 103.44,111.216 L102.456,112.536 C103.68,113.544 105.432,114.312 107.28,114.312 Z M127.128,114.312 C129.408,114.312 131.112,113.4 132.48,111.792 L131.376,110.544 C130.224,111.84 128.928,112.56 127.224,112.56 C123.768,112.56 121.608,109.704 121.608,105.168 C121.608,100.656 123.864,97.872 127.296,97.872 C128.832,97.872 130.032,98.544 130.944,99.552 L132.048,98.256 C131.04,97.152 129.408,96.12 127.272,96.12 C122.832,96.12 119.568,99.576 119.568,105.216 C119.568,110.904 122.784,114.312 127.128,114.312 Z M138.72,114.312 C142.104,114.312 143.448,111.912 143.448,108.936 L143.448,96.432 L141.456,96.432 L141.456,108.744 C141.456,111.456 140.496,112.56 138.552,112.56 C137.232,112.56 136.224,112.008 135.432,110.568 L133.992,111.576 C135,113.376 136.56,114.312 138.72,114.312 Z M150.264,114 L150.264,108.336 L153.408,104.64 L158.784,114 L161.016,114 L154.68,103.08 L160.2,96.432 L157.92,96.432 L150.312,105.48 L150.264,105.48 L150.264,96.432 L148.272,96.432 L148.272,114 L150.264,114 Z M170.952,114 L170.952,108.336 L174.096,104.64 L179.472,114 L181.704,114 L175.368,103.08 L180.888,96.432 L178.608,96.432 L171,105.48 L170.952,105.48 L170.952,96.432 L168.96,96.432 L168.96,114 L170.952,114 Z M186.288,114 L186.288,106.416 L189.576,106.416 L193.968,114 L196.2,114 L191.664,106.224 C194.136,105.672 195.744,104.064 195.744,101.304 C195.744,97.704 193.248,96.432 189.672,96.432 L184.296,96.432 L184.296,114 L186.288,114 Z M189.36,104.784 L186.288,104.784 L186.288,98.04 L189.36,98.04 C192.192,98.04 193.752,98.904 193.752,101.304 C193.752,103.656 192.192,104.784 189.36,104.784 Z M214.44,114 L214.44,112.32 L206.688,112.32 L206.688,96.432 L204.696,96.432 L204.696,114 L214.44,114 Z M218.376,98.256 C219.144,98.256 219.792,97.704 219.792,96.936 C219.792,96.096 219.144,95.592 218.376,95.592 C217.56,95.592 216.96,96.096 216.96,96.936 C216.96,97.704 217.56,98.256 218.376,98.256 Z M219.336,114 L219.336,101.04 L217.392,101.04 L217.392,114 L219.336,114 Z M228.168,120.024 C232.104,120.024 234.624,117.936 234.624,115.584 C234.624,113.448 233.136,112.512 230.16,112.512 L227.568,112.512 C225.792,112.512 225.264,111.888 225.264,111.048 C225.264,110.304 225.648,109.824 226.128,109.416 C226.728,109.728 227.472,109.896 228.12,109.896 C230.736,109.896 232.8,108.12 232.8,105.36 C232.8,104.184 232.32,103.176 231.672,102.552 L234.408,102.552 L234.408,101.04 L229.92,101.04 C229.464,100.872 228.84,100.704 228.12,100.704 C225.504,100.704 223.32,102.528 223.32,105.336 C223.32,106.872 224.16,108.144 225,108.816 L225,108.912 C224.352,109.392 223.56,110.232 223.56,111.312 C223.56,112.344 224.064,113.04 224.736,113.448 L224.736,113.544 C223.536,114.336 222.816,115.416 222.816,116.52 C222.816,118.752 224.976,120.024 228.168,120.024 Z M228.12,108.552 C226.56,108.552 225.216,107.28 225.216,105.336 C225.216,103.344 226.512,102.168 228.12,102.168 C229.704,102.168 231.024,103.368 231.024,105.336 C231.024,107.28 229.68,108.552 228.12,108.552 Z M228.432,118.656 C225.984,118.656 224.544,117.72 224.544,116.28 C224.544,115.488 224.976,114.648 225.96,113.952 C226.56,114.096 227.208,114.168 227.616,114.168 L229.992,114.168 C231.768,114.168 232.704,114.6 232.704,115.872 C232.704,117.264 231.024,118.656 228.432,118.656 Z M239.16,114 L239.16,104.52 C240.504,103.128 241.488,102.408 242.856,102.408 C244.656,102.408 245.424,103.512 245.424,106.008 L245.424,114 L247.392,114 L247.392,105.768 C247.392,102.456 246.144,100.704 243.432,100.704 C241.656,100.704 240.336,101.712 239.088,102.912 L239.16,100.2 L239.16,94.896 L237.216,94.896 L237.216,114 L239.16,114 Z M255.6,114.312 C256.32,114.312 257.184,114.072 257.904,113.832 L257.52,112.368 C257.088,112.536 256.488,112.704 256.008,112.704 C254.448,112.704 253.968,111.744 253.968,110.16 L253.968,102.648 L257.544,102.648 L257.544,101.04 L253.968,101.04 L253.968,97.368 L252.312,97.368 L252.096,101.04 L250.056,101.16 L250.056,102.648 L252.024,102.648 L252.024,110.088 C252.024,112.632 252.888,114.312 255.6,114.312 Z" id="NotoSansCJKKRLight" fill="#000000" fill-rule="nonzero"></path>
        <path d="M3.912,70 L3.912,59.512 C3.912,58.636 3.882,57.79 3.843,56.953 L3.75922222,55.2847778 C3.74533333,55.0066667 3.732,54.728 3.72,54.448 L3.84,54.448 L5.808,57.952 L12.936,70 L14.424,70 L14.424,52.504 L13.056,52.504 L13.056,62.872 C13.056,64.576 13.152,66.328 13.248,68.056 L13.128,68.056 L11.184,64.528 L4.032,52.504 L2.544,52.504 L2.544,70 L3.912,70 Z M24.096,70.312 C27.192,70.312 29.88,67.864 29.88,63.616 C29.88,59.344 27.192,56.872 24.096,56.872 C21,56.872 18.312,59.344 18.312,63.616 C18.312,67.864 21,70.312 24.096,70.312 Z M24.096,69.112 C21.6,69.112 19.776,66.88 19.776,63.616 C19.776,60.352 21.6,58.096 24.096,58.096 C26.592,58.096 28.44,60.352 28.44,63.616 C28.44,66.88 26.592,69.112 24.096,69.112 Z M36.864,70.312 C37.44,70.312 38.256,70.096 39,69.832 L38.664,68.752 C38.208,68.944 37.584,69.112 37.104,69.112 C35.4,69.112 34.968,68.056 34.968,66.448 L34.968,58.384 L38.64,58.384 L38.64,57.208 L34.968,57.208 L34.968,53.512 L33.792,53.512 L33.624,57.208 L31.584,57.328 L31.584,58.384 L33.576,58.384 L33.576,66.352 C33.576,68.728 34.344,70.312 36.864,70.312 Z M46.128,70.312 C49.224,70.312 51.912,67.864 51.912,63.616 C51.912,59.344 49.224,56.872 46.128,56.872 C43.032,56.872 40.344,59.344 40.344,63.616 C40.344,67.864 43.032,70.312 46.128,70.312 Z M46.128,69.112 C43.632,69.112 41.808,66.88 41.808,63.616 C41.808,60.352 43.632,58.096 46.128,58.096 C48.624,58.096 50.472,60.352 50.472,63.616 C50.472,66.88 48.624,69.112 46.128,69.112 Z M65.76,70.312 C69.192,70.312 71.424,68.248 71.424,65.56 C71.424,62.896 69.744,61.792 67.752,60.904 L65.136,59.752 C63.864,59.2 62.16,58.456 62.16,56.464 C62.16,54.664 63.648,53.488 65.88,53.488 C67.608,53.488 68.976,54.184 70.008,55.24 L70.824,54.304 C69.72,53.104 67.992,52.192 65.88,52.192 C62.904,52.192 60.696,53.992 60.696,56.584 C60.696,59.152 62.688,60.256 64.248,60.952 L66.864,62.104 C68.592,62.872 69.96,63.544 69.96,65.656 C69.96,67.648 68.352,69.016 65.76,69.016 C63.768,69.016 61.968,68.128 60.696,66.688 L59.808,67.696 C61.2,69.256 63.216,70.312 65.76,70.312 Z M77.736,70.312 C79.368,70.312 80.904,69.424 82.2,68.368 L82.248,68.368 L82.392,70 L83.568,70 L83.568,61.888 C83.568,59.056 82.488,56.872 79.44,56.872 C77.352,56.872 75.576,57.88 74.592,58.552 L75.216,59.56 C76.104,58.888 77.568,58.096 79.248,58.096 C81.672,58.096 82.224,60.064 82.176,61.96 C76.536,62.608 74.016,63.952 74.016,66.784 C74.016,69.16 75.672,70.312 77.736,70.312 Z M78.024,69.136 C76.608,69.136 75.408,68.464 75.408,66.712 C75.408,64.744 77.136,63.568 82.176,62.992 L82.176,67.144 C80.664,68.464 79.44,69.136 78.024,69.136 Z M89.424,70 L89.424,60.424 C90.912,58.888 91.968,58.12 93.456,58.12 C95.424,58.12 96.264,59.344 96.264,62.008 L96.264,70 L97.656,70 L97.656,61.816 C97.656,58.528 96.432,56.872 93.768,56.872 C92.016,56.872 90.696,57.88 89.4,59.152 L89.352,59.152 L89.184,57.208 L88.032,57.208 L88.032,70 L89.424,70 Z M105.408,70.312 C108.24,70.312 109.8,68.632 109.8,66.664 C109.8,64.42375 108.026016,63.6421094 106.228625,62.9614873 L105.856991,62.821665 C105.795187,62.7984531 105.7335,62.77525 105.672,62.752 C104.184,62.2 102.696,61.672 102.696,60.256 C102.696,59.104 103.56,58.048 105.456,58.048 C106.704,58.048 107.64,58.552 108.504,59.2 L109.224,58.24 C108.264,57.472 106.896,56.872 105.504,56.872 C102.816,56.872 101.304,58.456 101.304,60.328 C101.304,62.536 103.416,63.328 105.312,64 C106.8,64.528 108.408,65.224 108.408,66.736 C108.408,68.056 107.424,69.16 105.48,69.16 C103.728,69.16 102.552,68.488 101.448,67.552 L100.704,68.56 C101.856,69.52 103.536,70.312 105.408,70.312 Z M124.872,70.312 C127.128,70.312 128.76,69.376 130.104,67.816 L129.288,66.904 C128.04,68.272 126.72,69.016 124.944,69.016 C121.272,69.016 118.992,65.968 118.992,61.192 C118.992,56.464 121.32,53.488 125.016,53.488 C126.624,53.488 127.872,54.184 128.808,55.24 L129.624,54.304 C128.688,53.2 127.08,52.192 125.016,52.192 C120.576,52.192 117.48,55.648 117.48,61.24 C117.48,66.832 120.552,70.312 124.872,70.312 Z M136.272,70.312 C139.512,70.312 140.736,68.032 140.736,65.152 L140.736,52.504 L139.296,52.504 L139.296,65.008 C139.296,67.816 138.288,69.016 136.224,69.016 C134.784,69.016 133.776,68.44 132.912,66.976 L131.832,67.696 C132.768,69.4 134.256,70.312 136.272,70.312 Z M147.216,70 L147.216,64.096 L150.648,60.136 L156.312,70 L157.968,70 L151.608,59.008 L157.176,52.504 L155.472,52.504 L147.264,62.008 L147.216,62.008 L147.216,52.504 L145.776,52.504 L145.776,70 L147.216,70 Z M167.496,70 L167.496,64.096 L170.928,60.136 L176.592,70 L178.248,70 L171.888,59.008 L177.456,52.504 L175.752,52.504 L167.544,62.008 L167.496,62.008 L167.496,52.504 L166.056,52.504 L166.056,70 L167.496,70 Z M182.448,70 L182.448,62.104 L186.024,62.104 L190.68,70 L192.312,70 L187.584,61.984 C190.248,61.576 191.952,59.968 191.952,57.184 C191.952,53.776 189.6,52.504 186.12,52.504 L181.008,52.504 L181.008,70 L182.448,70 Z M185.784,60.904 L182.448,60.904 L182.448,53.704 L185.784,53.704 C188.808,53.704 190.488,54.64 190.488,57.184 C190.488,59.704 188.808,60.904 185.784,60.904 Z M205.08,70 C210.432,70 213.072,66.544 213.072,61.192 C213.072,55.84 210.432,52.504 205.056,52.504 L200.928,52.504 L200.928,70 L205.08,70 Z M204.912,68.776 L202.368,68.776 L202.368,53.704 L204.912,53.704 C209.52,53.704 211.56,56.656 211.56,61.192 C211.56,65.728 209.52,68.776 204.912,68.776 Z M221.808,70.312 C223.656,70.312 224.856,69.712 225.888,69.064 L225.36,68.032 C224.4,68.704 223.32,69.136 221.952,69.136 C219.192,69.136 217.344,66.952 217.272,63.832 L226.344,63.832 C226.392,63.52 226.416,63.184 226.416,62.824 C226.416,59.08 224.568,56.872 221.472,56.872 C218.568,56.872 215.856,59.464 215.856,63.616 C215.856,67.816 218.52,70.312 221.808,70.312 Z M225.144,62.728 L217.272,62.728 C217.536,59.8 219.408,58.072 221.496,58.072 C223.728,58.072 225.144,59.632 225.144,62.728 Z M231.216,70 L231.216,60.424 C232.56,58.888 233.784,58.12 234.912,58.12 C236.808,58.12 237.672,59.344 237.672,62.008 L237.672,70 L239.064,70 L239.064,60.424 C240.432,58.888 241.608,58.12 242.76,58.12 C244.632,58.12 245.52,59.344 245.52,62.008 L245.52,70 L246.912,70 L246.912,61.816 C246.912,58.528 245.64,56.872 243.072,56.872 C241.584,56.872 240.192,57.904 238.752,59.464 C238.296,57.904 237.264,56.872 235.224,56.872 C233.784,56.872 232.344,57.88 231.192,59.152 L231.144,59.152 L230.976,57.208 L229.824,57.208 L229.824,70 L231.216,70 Z M252.24,54.208 C252.864,54.208 253.416,53.752 253.416,53.104 C253.416,52.384 252.864,51.952 252.24,51.952 C251.592,51.952 251.064,52.384 251.064,53.104 C251.064,53.752 251.592,54.208 252.24,54.208 Z M252.912,70 L252.912,57.208 L251.52,57.208 L251.52,70 L252.912,70 Z M267.24,70 L267.24,68.752 L259.272,68.752 L259.272,52.504 L257.832,52.504 L257.832,70 L267.24,70 Z M270.936,54.208 C271.56,54.208 272.112,53.752 272.112,53.104 C272.112,52.384 271.56,51.952 270.936,51.952 C270.288,51.952 269.76,52.384 269.76,53.104 C269.76,53.752 270.288,54.208 270.936,54.208 Z M271.608,70 L271.608,57.208 L270.216,57.208 L270.216,70 L271.608,70 Z M280.584,76.096 C284.328,76.096 286.728,73.984 286.728,71.752 C286.728,69.712 285.36,68.8 282.456,68.8 L279.768,68.8 C277.92,68.8 277.368,68.104 277.368,67.192 C277.368,66.376 277.824,65.848 278.376,65.416 C278.952,65.752 279.744,65.944 280.44,65.944 C282.96,65.944 284.952,64.072 284.952,61.432 C284.952,60.136 284.4,59.032 283.632,58.36 L286.512,58.36 L286.512,57.208 L282.144,57.208 C281.736,57.04 281.136,56.872 280.44,56.872 C277.92,56.872 275.856,58.744 275.856,61.408 C275.856,62.944 276.672,64.216 277.488,64.888 L277.488,64.984 C276.912,65.416 276.072,66.256 276.072,67.36 C276.072,68.368 276.576,69.04 277.224,69.424 L277.224,69.544 C276.048,70.336 275.304,71.464 275.304,72.592 C275.304,74.752 277.392,76.096 280.584,76.096 Z M280.44,64.888 C278.736,64.888 277.248,63.496 277.248,61.408 C277.248,59.296 278.688,58 280.44,58 C282.168,58 283.608,59.296 283.608,61.408 C283.608,63.496 282.12,64.888 280.44,64.888 Z M280.752,75.04 C278.136,75.04 276.624,73.984 276.624,72.424 C276.624,71.56 277.104,70.624 278.208,69.856 C278.856,70 279.528,70.072 279.816,70.072 L282.432,70.072 C284.328,70.072 285.336,70.576 285.336,71.944 C285.336,73.48 283.536,75.04 280.752,75.04 Z M290.808,70 L290.808,60.424 C292.296,58.888 293.352,58.12 294.84,58.12 C296.808,58.12 297.648,59.344 297.648,62.008 L297.648,70 L299.04,70 L299.04,61.816 C299.04,58.528 297.816,56.872 295.152,56.872 C293.4,56.872 292.08,57.88 290.784,59.176 L290.808,56.392 L290.808,50.92 L289.416,50.92 L289.416,70 L290.808,70 Z M307.152,70.312 C307.728,70.312 308.544,70.096 309.288,69.832 L308.952,68.752 C308.496,68.944 307.872,69.112 307.392,69.112 C305.688,69.112 305.256,68.056 305.256,66.448 L305.256,58.384 L308.928,58.384 L308.928,57.208 L305.256,57.208 L305.256,53.512 L304.08,53.512 L303.912,57.208 L301.872,57.328 L301.872,58.384 L303.864,58.384 L303.864,66.352 C303.864,68.728 304.632,70.312 307.152,70.312 Z" id="NotoSansCJKKRDemiLight" fill="#000000" fill-rule="nonzero"></path>
        <path d="M3.48,26 L3.48,14.648 C3.48,12.992 3.432,11.504 3.384,9.872 L3.48,9.872 L5.472,13.304 L13.128,26 L14.088,26 L14.088,8.576 L13.224,8.576 L13.224,19.784 C13.224,21.416 13.272,23.024 13.368,24.704 L13.248,24.704 L11.256,21.272 L3.576,8.576 L2.64,8.576 L2.64,26 L3.48,26 Z M23.736,26.312 C26.76,26.312 29.352,23.888 29.352,19.712 C29.352,15.464 26.76,13.04 23.736,13.04 C20.712,13.04 18.12,15.464 18.12,19.712 C18.12,23.888 20.712,26.312 23.736,26.312 Z M23.736,25.52 C21.048,25.52 19.032,23.168 19.032,19.712 C19.032,16.232 21.048,13.832 23.736,13.832 C26.424,13.832 28.464,16.232 28.464,19.712 C28.464,23.168 26.424,25.52 23.736,25.52 Z M36.288,26.312 C36.72,26.312 37.512,26.096 38.256,25.832 L37.968,25.112 C37.512,25.328 36.84,25.52 36.36,25.52 C34.512,25.52 34.152,24.392 34.152,22.76 L34.152,14.144 L37.896,14.144 L37.896,13.352 L34.152,13.352 L34.152,9.656 L33.408,9.656 L33.312,13.352 L31.296,13.472 L31.296,14.144 L33.312,14.144 L33.312,22.64 C33.312,24.848 33.936,26.312 36.288,26.312 Z M45.288,26.312 C48.312,26.312 50.904,23.888 50.904,19.712 C50.904,15.464 48.312,13.04 45.288,13.04 C42.264,13.04 39.672,15.464 39.672,19.712 C39.672,23.888 42.264,26.312 45.288,26.312 Z M45.288,25.52 C42.6,25.52 40.584,23.168 40.584,19.712 C40.584,16.232 42.6,13.832 45.288,13.832 C47.976,13.832 50.016,16.232 50.016,19.712 C50.016,23.168 47.976,25.52 45.288,25.52 Z M64.68,26.312 C67.968,26.312 70.128,24.368 70.128,21.704 C70.128,19.016 68.4,17.984 66.432,17.096 L63.768,15.896 C62.544,15.344 60.72,14.552 60.72,12.368 C60.72,10.4 62.328,9.104 64.752,9.104 C66.528,9.104 67.944,9.848 68.952,10.928 L69.504,10.328 C68.496,9.224 66.864,8.264 64.752,8.264 C61.92,8.264 59.808,9.944 59.808,12.464 C59.808,15.032 61.848,16.064 63.36,16.736 L66.024,17.936 C67.776,18.728 69.24,19.448 69.24,21.776 C69.24,23.96 67.464,25.472 64.68,25.472 C62.592,25.472 60.744,24.536 59.472,23.048 L58.872,23.672 C60.192,25.208 62.112,26.312 64.68,26.312 Z M76.488,26.312 C78.168,26.312 79.752,25.376 81.048,24.32 L81.12,24.32 L81.24,26 L81.96,26 L81.96,17.816 C81.96,15.248 81.048,13.04 78.072,13.04 C76.008,13.04 74.256,14.096 73.464,14.672 L73.896,15.368 C74.712,14.72 76.224,13.832 78.024,13.832 C80.64,13.832 81.168,16.064 81.096,18.104 C75.408,18.752 72.84,20.072 72.84,22.88 C72.84,25.28 74.52,26.312 76.488,26.312 Z M76.56,25.52 C75.024,25.52 73.728,24.8 73.728,22.856 C73.728,20.72 75.6,19.448 81.096,18.848 L81.096,23.384 C79.44,24.8 78.072,25.52 76.56,25.52 Z M87.504,26 L87.504,16.328 C89.112,14.672 90.264,13.832 91.824,13.832 C93.984,13.832 94.872,15.2 94.872,17.984 L94.872,26 L95.736,26 L95.736,17.864 C95.736,14.6 94.512,13.04 91.92,13.04 C90.168,13.04 88.848,14.048 87.552,15.368 L87.504,15.368 L87.36,13.352 L86.64,13.352 L86.64,26 L87.504,26 Z M103.536,26.312 C106.2,26.312 107.664,24.68 107.664,22.808 C107.664,20.56775 105.870305,19.8452422 104.033492,19.1578445 L103.65342,19.0156389 C103.590164,18.9918594 103.527,18.968 103.464,18.944 C101.952,18.368 100.416,17.792 100.416,16.28 C100.416,15.032 101.352,13.832 103.44,13.832 C104.76,13.832 105.672,14.36 106.512,14.984 L107.016,14.336 C106.104,13.568 104.76,13.04 103.512,13.04 C100.896,13.04 99.528,14.576 99.528,16.328 C99.528,18.512 101.688,19.232 103.608,19.928 C105.096,20.456 106.776,21.2 106.776,22.856 C106.776,24.296 105.696,25.52 103.584,25.52 C101.712,25.52 100.536,24.8 99.48,23.888 L98.928,24.584 C100.056,25.52 101.64,26.312 103.536,26.312 Z M122.592,26.312 C124.848,26.312 126.384,25.376 127.704,23.84 L127.152,23.264 C125.832,24.728 124.464,25.472 122.64,25.472 C118.752,25.472 116.328,22.232 116.328,17.24 C116.328,12.248 118.752,9.104 122.736,9.104 C124.368,9.104 125.688,9.848 126.624,10.928 L127.176,10.328 C126.288,9.272 124.752,8.264 122.736,8.264 C118.32,8.264 115.392,11.744 115.392,17.24 C115.392,22.736 118.296,26.312 122.592,26.312 Z M133.8,26.312 C136.872,26.312 138,24.152 138,21.392 L138,8.576 L137.088,8.576 L137.088,21.272 C137.088,24.152 136.056,25.472 133.824,25.472 C132.312,25.472 131.256,24.896 130.368,23.36 L129.624,23.816 C130.512,25.424 131.928,26.312 133.8,26.312 Z M144.096,26 L144.096,19.856 L147.816,15.656 L153.768,26 L154.824,26 L148.488,14.96 L154.08,8.576 L152.952,8.576 L144.144,18.56 L144.096,18.56 L144.096,8.576 L143.208,8.576 L143.208,26 L144.096,26 Z M163.944,26 L163.944,19.856 L167.664,15.656 L173.616,26 L174.672,26 L168.336,14.96 L173.928,8.576 L172.8,8.576 L163.992,18.56 L163.944,18.56 L163.944,8.576 L163.056,8.576 L163.056,26 L163.944,26 Z M178.512,26 L178.512,17.792 L182.376,17.792 L187.296,26 L188.328,26 L183.408,17.744 C186.288,17.456 188.064,15.872 188.064,13.064 C188.064,9.848 185.88,8.576 182.448,8.576 L177.624,8.576 L177.624,26 L178.512,26 Z M182.136,17.024 L178.512,17.024 L178.512,9.368 L182.136,9.368 C185.328,9.368 187.104,10.352 187.104,13.064 C187.104,15.752 185.328,17.024 182.136,17.024 Z M201.744,26 L201.744,9.368 L207.36,9.368 L207.36,8.576 L195.192,8.576 L195.192,9.368 L200.808,9.368 L200.808,26 L201.744,26 Z M211.536,26 L211.536,16.328 C213.144,14.672 214.296,13.832 215.856,13.832 C218.016,13.832 218.904,15.2 218.904,17.984 L218.904,26 L219.768,26 L219.768,17.864 C219.768,14.6 218.544,13.04 215.952,13.04 C214.2,13.04 212.88,14.048 211.536,15.416 L211.536,6.944 L210.672,6.944 L210.672,26 L211.536,26 Z M224.928,10.16 C225.408,10.16 225.864,9.8 225.864,9.248 C225.864,8.648 225.408,8.312 224.928,8.312 C224.424,8.312 224.016,8.648 224.016,9.248 C224.016,9.8 224.424,10.16 224.928,10.16 Z M225.336,26 L225.336,13.352 L224.472,13.352 L224.472,26 L225.336,26 Z M231.216,26 L231.216,16.328 C232.824,14.672 233.976,13.832 235.536,13.832 C237.696,13.832 238.584,15.2 238.584,17.984 L238.584,26 L239.448,26 L239.448,17.864 C239.448,14.6 238.224,13.04 235.632,13.04 C233.88,13.04 232.56,14.048 231.264,15.368 L231.216,15.368 L231.072,13.352 L230.352,13.352 L230.352,26 L231.216,26 Z" id="NotoSansCJKKRThin" fill="#000000" fill-rule="nonzero"></path>
    </g>
</svg>