<svg width="180" height="180" xmlns="http://www.w3.org/2000/svg" xmlns:xlink="http://www.w3.org/1999/xlink" xml:space="preserve" version="1.1">
 <g>
  <title>Layer 1</title>
  <circle id="svg_1" stroke-miterlimit="10" stroke-width="6.7279" stroke="#5600FA" fill="none" r="69" cy="88.7" cx="90.5" class="st0"/>
  <g id="svg_2">
   <path id="svg_3" d="m62.4,53c0.5,-0.5 0.7,-1.3 0.7,-2.1c0,0 0,0 0,0c-0.1,0.3 -0.1,0.6 -0.1,0.9c-0.1,0.6 -0.4,1.1 -0.9,1.6c0.1,-0.1 0.2,-0.3 0.3,-0.4z"/>
   <rect id="svg_4" height="0.5" width="4.9" y="109.9" x="112.8"/>
   <path id="svg_5" d="m68.3,51.8c-0.1,-0.2 -0.2,-0.3 -0.3,-0.5c0,0.2 0,0.4 -0.1,0.6c0.1,0 0.2,-0.1 0.4,-0.1c0,0 0,0 0,0z"/>
   <path id="svg_6" d="m58.5,58c-0.2,-0.5 -0.1,-1.1 -0.1,-1.6c-0.1,0.5 -0.1,0.9 0,1.3c0,0 0,0.1 0,0.1c0.1,0.1 0.1,0.1 0.1,0.2c0,0 0.1,-0.1 0,0c0.1,-0.1 0.1,-0.1 0,0c0.1,-0.1 0.1,0 0,0z"/>
   <path id="svg_7" d="m72.2,104.4c-1.5,-0.4 -3.1,-0.9 -4.5,-1.5c-0.7,-0.2 -1.5,-0.5 -2.2,-0.8c-0.6,-0.2 -1.2,-0.5 -1.6,-0.9c0,0 -0.1,-0.1 -0.1,-0.1c-0.3,1.4 -1.3,2.6 -1.8,4c-0.8,2.4 0.1,5.2 -0.7,7.7c0,0.2 -0.1,0.4 -0.3,0.5c0,0 -0.1,0 -0.1,0c0.1,0 0.2,0 0.3,0c2.2,0.5 7.3,1.9 12.5,3.6l0,-12.2c-0.5,-0.1 -1,-0.2 -1.5,-0.3z"/>
   <path id="svg_8" d="m63.1,50.8c0.3,0 0.5,-0.1 0.8,-0.1c-0.3,-0.1 -0.6,-0.1 -0.8,0.1z"/>
   <path id="svg_9" d="m117.7,57.4l0,-6.1l-4,0l0,6.1l-36.3,0c0,0.1 -0.1,0.1 -0.1,0.2c0,0.2 -0.1,0.5 -0.1,0.7c0,-0.3 0,-0.5 0.1,-0.7c0,-0.1 0,-0.1 0,-0.2l-0.5,0c-0.2,1.1 -0.4,2.2 -0.7,3.4c-0.1,0.4 -0.2,0.7 -0.3,1.1l36.9,0l0,37.2c2,1.6 2.8,4.4 2.1,6.8c-0.1,0 -0.3,0 -0.4,0c-0.7,-1 -1.1,-2.3 -1.2,-3.5c-0.1,-0.1 -0.3,-0.1 -0.5,-0.1l0,4.3l0,0l0,0l0,0.4l4.9,-0.1l0,-45.1l10.9,0l25.5,0c-0.6,-1.5 -1.3,-3 -2.1,-4.5l-26.8,0l-7.4,0l0,0.1z"/>
   <path id="svg_10" d="m72.2,83.3c0.4,0.2 0.9,0.3 1.1,0.7c0.1,0.3 0.1,0.7 0,1c0,0.2 -0.1,0.4 -0.1,0.6c0.1,0 0.2,0.1 0.4,0.2l0,-19c-0.5,0.8 -1.1,1.5 -1.8,2.2c-0.3,0.3 -0.6,0.7 -0.9,1.1c-0.5,0.6 -1,1.2 -1.5,1.7c-0.4,0.4 -0.7,0.7 -1.1,1.1c-0.1,0.1 -0.1,0.1 -0.2,0.2c-0.2,0.1 -0.4,0.3 -0.7,0.4c-0.5,0.2 -1,0.2 -1.5,0.1c-0.2,0 -0.4,-0.1 -0.6,-0.2c-0.8,-0.3 -1.3,-0.9 -1.9,-1.5c0,0.1 0,0.3 -0.1,0.4c-0.2,0.1 -0.4,0.3 -0.6,0.5c0.6,0.8 1.3,1.6 1.9,2.4c0.3,0.2 0.7,0.3 0.8,0.7c0.1,0.2 0.2,0.4 0.2,0.6c1,1.3 2,2.5 3,3.8c1,1 2.1,2.3 3.6,3z"/>
   <path id="svg_11" d="m62.2,70.7c0.1,0 0.1,0.1 0.2,0.1c-0.2,-0.1 -0.3,-0.3 -0.5,-0.4c0.1,0.1 0.2,0.2 0.3,0.3z"/>
   <path id="svg_12" d="m71.2,91.8c-0.1,0 -0.1,0 -0.1,-0.1c0,0.2 0.1,0.4 0.1,0.6c0.3,0.2 0.6,-0.2 0.6,-0.6c-0.2,0.1 -0.4,0.1 -0.6,0.1z"/>
   <rect id="svg_13" height="1" width="4.9" y="114.8" x="112.8"/>
   <path id="svg_14" d="m157.8,87.5l0,0.5c0.1,-0.1 0.2,-0.1 0.2,-0.2c0.8,-0.8 1,-1.6 1,-2.6c0,0 0,0 0,0c0,0.4 -0.1,0.9 -0.3,1.3c-0.3,0.4 -0.7,0.6 -0.9,1z"/>
   <path id="svg_15" d="m21.5,88.7c0,11 2.6,21.4 7.2,30.6c0.6,-5.2 1.6,-11.1 1.8,-16.4c0.5,-11.3 -2.5,-15.8 -3.5,-23.2s2,-8.9 2,-8.9c7.9,-6 9.4,1 9.4,1l0,10.9c0,0 0,13.9 -0.5,14.9c-0.5,1 -1.9,11.6 -1.9,11.6s-2.5,6.3 -3,12.2c-0.5,6 1.5,7 1.5,7c1.5,3.5 13.4,4 24.3,3.5c10.9,-0.5 14.8,2.3 14.8,2.3l0,-2.9c0,0 -1,-1.5 -7,-1.5c-6,0 -25.2,-1 -25.2,-1s-3.4,-0.4 -5.9,-3.4c0,0 1,0.3 2.5,-0.1c-0.8,0 -1.5,-0.1 -2.1,-0.6c0.1,-0.2 0.1,-0.5 0.1,-0.7c-0.1,-0.2 -0.2,-0.4 -0.2,-0.7c0,-0.3 -0.1,-0.7 -0.1,-1c-0.4,-1 -0.9,-2.1 -1.2,-3.1c-0.5,-2.3 0.5,-4.6 1,-6.9c0.7,-2.9 0.8,-6.1 1.8,-9c0.5,-1.6 1.4,-3.2 1.7,-4.9c0.3,-1.6 0.2,-3.2 0.1,-4.8c-0.2,-2.4 -0.3,-4.8 -0.5,-7.2c-0.1,-1.2 -0.2,-2.3 0.1,-3.5c0.2,-1 0.8,-1.8 1.4,-2.7c0.9,-1.4 1.7,-2.7 2.8,-4c2.5,-3.1 5.9,-5.6 9.7,-7c1.4,-0.5 3.2,-3 4.8,-1.6c0.2,-0.2 0.4,-0.4 0.6,-0.6c0.5,-0.4 0.6,-0.7 1,-0.3c0,0 0,0 0,0c-0.2,-0.3 -0.3,-0.7 -0.2,-0.9c0,-1.2 0,-2.3 -0.1,-3.4c-0.1,-0.5 -0.2,-1 -0.4,-1.4c-0.1,-0.1 -0.1,-0.2 -0.2,-0.3c-0.5,-0.5 -1.4,-0.5 -1.7,-1.1c-0.2,-0.3 -0.2,-0.7 -0.2,-1.1c0,-1 0,-2 0,-2.9c0,-0.7 0,-1.7 0.7,-2c0.2,-0.1 0.5,-0.1 0.7,0c0.2,0.1 0.4,0.2 0.6,0.3c0.3,0.2 0.5,0.6 0.7,0.9c0,0 0,0 0,0c0,-0.4 -0.1,-0.8 -0.3,-1.2c-0.4,-0.6 -1.4,-0.6 -1.9,0c0.3,-2.3 0.6,-4.4 1.4,-6.5c0.3,-0.7 0.6,-1.4 1.1,-1.9c1.4,-1.5 4.1,-1.2 5.6,-2.6c0.3,-0.2 0.6,-0.6 0.9,-0.7c0.5,-0.2 1,-0.2 1.5,-0.2c2.1,0.1 4.2,0.5 6.3,1c0.2,0 0.4,0.1 0.6,0.2l0,-21.1c-30.4,7.5 -52.6,34.6 -52.6,66.9z"/>
   <path id="svg_16" d="m157.8,94.7c0.5,0 0.9,0 1.3,0c0.1,-1.3 0.2,-2.6 0.2,-3.9c-0.5,-0.1 -1.1,-0.2 -1.6,-0.4l0,4.3l0.1,0z"/>
   <path id="svg_17" d="m132,143.8c7.5,-5.7 13.8,-12.8 18.5,-21l-18.5,0l0,21z"/>
   <path id="svg_18" d="m113.7,51.2c0.3,-4.5 2.3,-7 4,-8.4l0,-17.4c-1.3,-0.6 -2.6,-1.1 -4,-1.6l0,22.2l0,5.2z"/>
   <path id="svg_19" d="m73.5,135l0,-1l-0.8,2.4c0.2,-0.5 0.5,-0.9 0.8,-1.4z"/>
   <path id="svg_20" d="m72.5,136.6c-0.9,0 -10.2,0 -18.8,0l0,10.5c4.1,2.6 8.5,4.8 13.2,6.5c0.2,-0.7 0.4,-1.4 0.7,-2.2c1.8,-5.6 -0.3,-6.4 4.9,-14.8z"/>
   <path id="svg_21" d="m42.6,122.4c0.4,-0.3 0.7,-0.7 1.1,-1.1c-0.2,0.2 -0.5,0.4 -0.7,0.7c-0.1,0 -0.3,0.2 -0.4,0.4z"/>
   <path id="svg_22" d="m128.5,122.7l-10.8,0l0,-4.9l-4.9,0l0,4.5l-26,0c3,2.2 4.5,3.9 2.7,9.8c-1.4,4.6 -8.9,17.3 -13.1,24.1c4.5,0.9 9.3,1.4 14.1,1.4c14.1,0 27.1,-4.2 38,-11.4l0,-2.3l0,-21.2z"/>
   <path id="svg_23" d="m53.4,136.6c-4,0 -7.9,0 -10.6,0c-0.7,0 -1.4,0 -2,0c2.8,2.9 5.8,5.5 9,7.8l0.3,-6.2l0.1,6.5c0,0 0,0 0,0l0,-7.7l3.2,-0.4z"/>
   <path id="svg_24" d="m64.1,98.8c0,0 0.1,0 0.1,0c0.1,-0.1 0.1,-0.2 0.2,-0.3c0.2,-0.4 0.4,-0.8 0.6,-1.2c0,0 0,0 -0.1,0c-0.2,0.3 -0.3,0.5 -0.5,0.8c-0.1,0.2 -0.2,0.5 -0.3,0.7z"/>
   <path id="svg_25" d="m60.1,69.1c-0.2,-0.2 -0.4,-0.5 -0.5,-0.8c-0.1,-0.2 -0.2,-0.4 -0.4,-0.8c0,0 0,0 0,0c0.1,0.4 0.2,0.9 0.5,1.2c0.1,0.2 0.3,0.3 0.4,0.4c0.1,0.1 0.1,0.1 0.2,0.2c-0.1,-0.1 -0.2,-0.2 -0.2,-0.2z"/>
   <path id="svg_26" fill="#433F5E" d="m113.7,23.8c-7.3,-2.6 -15.1,-4 -23.3,-4c-1.2,0 -2.3,0 -3.5,0.1l26.8,26.1l0,-22.2z" class="st1"/>
   <path id="svg_27" fill="#221575" d="m76.5,54.9c-0.4,-0.2 -1.1,-0.1 -1.6,-0.1c0.3,0.1 0.7,0.1 1,0.1c0.4,0 0.9,0.1 1.1,0.5c0.1,0.2 0.1,0.4 0,0.6c-0.1,0.4 -0.1,0.9 -0.2,1.3l0.5,0c0.1,-1 0.1,-1.9 -0.8,-2.4z" class="st2"/>
   <path id="svg_28" fill="#221575" d="m74.2,43.2c0.7,0.6 0.8,1.9 1.6,2.5c0.5,0.4 1.1,0.4 1.6,0.7c0.6,0.3 1.2,0.9 0.8,1.4c0,1.9 1.1,3.9 1,5.8c0,0.7 -0.1,1.4 -0.4,2.1c-0.3,0.7 -1,1.1 -1.3,1.7l36.3,0l0,-6.1l0,-5.3l-26.9,-26.2c-4.6,0.2 -9,0.9 -13.3,2l0,21.1c0.2,0.1 0.4,0.2 0.6,0.3z" class="st2"/>
   <path id="svg_29" fill="#433F5E" d="m131.5,40.6c0,0 5.5,3.7 6.4,10.6l-3.4,0l-1,0c0,0 -2,5.5 -6.4,5.5c-0.5,0 -1,-0.1 -1.5,-0.2c0,0 0,0 -0.1,0c-0.7,-0.1 -1.3,-0.2 -1.9,-0.4l1.4,1.3l26.8,0c-5.8,-11.3 -14.6,-20.8 -25.3,-27.4l0,9.7c1.5,0 3.1,0.3 5,0.9z" class="st1"/>
   <path id="svg_30" fill="#433F5E" d="m131.3,46.1c0.7,0.7 1.2,1.4 1.6,2c-0.3,-0.6 -0.8,-1.3 -1.6,-2z" class="st1"/>
   <path id="svg_31" fill="#433F5E" d="m119.5,41.6c0,0 -0.1,0 0,0c0,0 1.4,-1.7 5.1,-2l0,-10.8c-2.2,-1.3 -4.5,-2.4 -6.9,-3.4l0,17.4c0.7,-0.6 1.3,-1 1.8,-1.2z" class="st1"/>
   <path id="svg_32" fill="#433F5E" d="m120.7,51.2l0,0c-0.1,0 0,0 0,0c0,0 0,0 0,0z" class="st1"/>
   <path id="svg_33" fill="#221563" d="m117.9,51.2l-0.2,0l0,6.1l7.4,0l-1.4,-1.3c-4.4,-1.2 -5.8,-4.8 -5.8,-4.8z" class="st3"/>
   <path id="svg_34" fill="#221575" d="m111.4,102.3c0,0.1 0,0.2 -0.1,0.2c-0.1,0.1 -0.4,0.2 -0.6,0.2c-1.2,0.2 -2.6,0.3 -3.5,-0.6c-0.1,-0.2 -0.3,-0.4 -0.5,-0.6c-0.3,-0.2 -0.5,-0.2 -0.9,-0.2c-1.6,1 -3.4,1.7 -5.2,2.2c-1.2,0.5 -2.4,0.9 -3.7,1c3.8,1.1 7.7,1.4 11.6,1.1c1.4,-0.1 3.2,-0.2 4.1,0.9l0,-4.3c-0.3,-0.1 -0.7,0 -1.2,0.1z" class="st2"/>
   <path id="svg_35" fill="#221575" d="m75.2,63.9c0,0 0,0 0,0c0,0.1 -0.1,0.2 -0.1,0.3c-0.1,0.3 -0.2,0.5 -0.4,0.8c-0.3,0.6 -0.7,1.2 -1.1,1.7l0,19c0.7,0.4 1.3,1.1 1.9,1.4c1.3,0.8 2.6,1.6 3.9,2.5c2.4,1.6 4.7,3.5 6.9,5.6c0.4,0.4 0.7,0.7 1.2,0.9c0.5,0.2 1,0.2 1.4,0.2c2.6,0 5.2,-0.3 7.8,0c1.5,0.2 3,0.6 4.5,0.8c1.9,0.2 3.9,0 5.8,0.1c2,0 4,0.4 5.5,1.6c0,0 0.1,0.1 0.1,0.1l0,-37.1l-36.9,0c-0.2,0.6 -0.4,1.2 -0.6,1.9c0.2,0.1 0.1,0.1 0.1,0.2z" class="st2"/>
   <path id="svg_36" fill="#221575" d="m111.5,107.2l0,0l1.3,-0.1l0,-0.5c-0.7,0 -1.4,0.1 -2.1,0.2c0.2,0 0.5,0.1 0.8,0.4z" class="st2"/>
   <path id="svg_37" fill="#221575" d="m104.8,109.9c0,0 0,-0.1 0,-0.3c-0.7,0.3 -1.5,0.4 -2.3,0.5c-1.2,0.1 -2.6,0.1 -3.6,-0.6c-0.4,-0.3 -0.7,-0.6 -1.2,-0.8c-0.1,-0.1 -0.2,-0.1 -0.3,-0.2c-0.8,-0.2 -1.7,-0.4 -2.6,-0.4c0,0 -0.1,0 -0.1,0c-0.1,0 -0.3,0 -0.4,0c0,0 -0.1,0 -0.1,0c-0.1,0 -0.2,0 -0.3,0c-6,-0.6 -11.9,-1.7 -17.8,-2.8c-0.8,-0.1 -1.5,-0.3 -2.3,-0.4l0,12.1c5.3,1.7 10.5,3.6 12.3,4.8c0.3,0.2 0.5,0.4 0.8,0.6l26,0l0,-4.5l-22.9,0l0,-2l22.9,0l0,-1l-22.9,0l0,-4.4l22.9,0l0,-0.5l-8.1,0l0,-0.1z" class="st2"/>
   <rect id="svg_38" fill="#221575" height="4.9" width="10.8" class="st2" y="117.8" x="117.7"/>
   <path id="svg_39" fill="#221575" d="m157.1,92.2c0.1,0.8 0.1,1.7 0.2,2.5c0.2,0 0.4,0 0.5,0l0,-4.2c-0.3,-0.1 -0.5,-0.3 -0.7,-0.4c-0.3,-0.3 -0.3,-0.6 -0.3,-0.8c0,0 -0.1,0 -0.1,0.1c0.2,0.8 0.3,1.8 0.4,2.8z" class="st2"/>
   <path id="svg_40" fill="#221575" d="m131,86.6c0,0 2,-0.5 1.5,1.5c-0.5,2 -10.4,21.8 -10.4,21.8l-4.4,0l0,0.5l20.1,0l-0.3,-9.4l6.9,0l-0.5,8.9l-2.6,0.2c-0.2,0 -0.5,0 -0.7,0.1l-2.7,0.2l17.4,0c-0.1,-0.1 -0.1,-0.2 -0.2,-0.3c-1,-3.9 -1.4,-8 -1.2,-12c0,-0.8 0,-2.1 0.6,-2.8c0.4,-0.5 1.1,-0.5 1.7,-0.5c0.3,0 0.7,-0.1 1,-0.1c-0.4,-1.7 -0.8,-3.5 -1.1,-5.2c-0.1,0 -0.1,0 -0.2,0c-0.7,0 -1.4,-0.3 -2.1,-0.6c-0.7,-0.3 -1.4,-0.6 -2.1,-0.8c-0.8,-0.3 -1.7,-0.7 -2.4,-1.3c-0.4,-0.4 -0.7,-0.8 -1.1,-1.2c-0.5,-0.5 -1,-0.9 -1.4,-1.4c-0.4,-0.6 -0.5,-1.4 -0.1,-1.9c0.3,-0.4 0.9,-0.6 0.9,-1.1c-0.9,0 -1.4,-0.9 -1.8,-1.7c-0.5,-1.1 -1,-2.2 -1.5,-3.3l-15.6,-14.3l-10.9,0l0,45.1l3.4,0l9.8,-20.4zm5.5,2.4c0.5,-0.6 1.3,-0.7 2.1,-0.9c1.4,-0.2 2.8,-0.3 4.2,0c0.2,0 0.5,0.1 0.7,0.3c0.1,0.2 0.2,0.4 0.2,0.7c0.1,0.9 0.3,1.8 0.4,2.7c0.1,0.7 0.2,1.4 0,2.1c-0.6,1.5 -2.8,1.8 -3.7,3.2c-0.3,0.4 -0.3,1 -0.2,1.5c0.3,0.2 0.6,0.5 0.7,0.9c0,0.1 0,0.3 0,0.4c0.2,0.2 0.5,0.4 0.8,0.5c0,0.1 0,0.3 0,0.4c-0.2,0.2 -0.6,0 -0.7,-0.4c0,-0.1 -0.1,-0.3 -0.1,-0.5c-0.4,-0.4 -0.6,-0.8 -0.7,-1.3c-0.4,-0.3 -0.8,-0.4 -1.2,-0.6c-0.7,-0.3 -1.6,-1 -1.4,-1.8c0.1,-0.6 0.7,-0.9 1.1,-1.2c1.7,-1.3 -1.3,-1.9 -2.1,-3c-0.8,-1 -0.8,-2.3 -0.1,-3z" class="st2"/>
   <path id="svg_41" fill="#221575" d="m132,122.7l18.5,0c0.9,-1.6 1.8,-3.3 2.5,-4.9l-21,0l0,4.9z" class="st2"/>
   <path id="svg_42" fill="#221575" d="m117.7,115.8l36.2,0c0.1,-0.3 0.3,-0.7 0.4,-1l-36.6,0l0,1z" class="st2"/>
   <polygon id="svg_43" fill="#433F5E" points="152.5,72.19999694824219 152.5,72.19999694824219 152.5,72.19999694824219 " class="st1"/>
   <path id="svg_44" fill="#433F5E" d="m144.3,76.2c-0.5,-1.1 -0.9,-2.2 -1.3,-3.3c-0.6,-1.7 -1.2,-3.5 -0.7,-5.2c0,-0.2 0.1,-0.5 0.3,-0.6c0.3,-0.2 0.7,-0.2 1,-0.2c1.2,0 2.4,0.2 3.6,0.5c0.7,0.1 1.5,0.4 2.1,0.7c1.1,0.7 1.8,1.8 2.5,2.8c0.2,0.3 0.4,0.7 0.6,1.1c0.2,0.2 0.4,0.4 0.6,0.6c0.5,0.5 1,1 1.4,1.5c0.1,0.1 0.2,0.3 0.3,0.4c0.7,0.4 1.3,0.7 1.7,1.5c0.1,0.3 0.3,0.6 0.4,0.9c0.2,0.2 0.4,0.3 0.6,0.5c0,-0.4 -0.1,-0.8 -0.1,-1.2c0,-1.1 0,-2.2 0,-3.3c0,-0.2 0,-0.4 0,-0.6c-0.9,-3.6 -2,-7 -3.4,-10.3l-25.4,0l15.8,14.2z" class="st1"/>
   <path id="svg_45" fill="#433F5E" d="m157.8,87.5c-0.1,0.2 -0.1,0.4 -0.2,0.7c0.1,-0.1 0.1,-0.1 0.2,-0.2l0,-0.5c0,0 0,0 0,0z" class="st1"/>
   <path id="svg_46" fill="#811E13" d="m86.8,122.3c-0.3,-0.2 -0.5,-0.4 -0.8,-0.6c-1.8,-1.3 -7,-3.2 -12.3,-4.8c-5.1,-1.6 -10.3,-3.1 -12.5,-3.6c-0.1,0 -0.2,0 -0.3,0c-0.2,0.1 -0.4,0 -0.5,0c-0.1,0 -0.3,0 -0.4,0c0.4,0 0.8,0 1.1,0.1c0,0 19.3,4.4 25.8,9.9c0,0 4.4,2.5 1,8.9c-2.4,4.5 -9.2,16.7 -13.2,23.7c0.5,0.1 1.1,0.2 1.6,0.4c4.2,-6.9 11.7,-19.5 13.1,-24.1c1.9,-6 0.3,-7.8 -2.6,-9.9z" class="st4"/>
   <path id="svg_47" fill="#811E13" d="m58.6,113.3c-0.2,0 -0.5,0 -0.7,0c0.2,0 0.5,0 0.7,0z" class="st4"/>
   <path id="svg_48" fill="#811E13" d="m72.1,143.1c2,-2 4,-3 3,-8.9c0,0 0.5,-4.4 3,-6.4c0,0 0,-2 -5.9,0c0,0 -8.9,0 -10.4,-1.5c-1.5,-1.5 -4.4,-3 -9.9,-0.5c0,0 -10.5,0.2 -9.5,-2.4c0,0 0.5,-1 1.5,-2.3c-0.1,0.1 -0.1,0.1 -0.2,0.2c-0.4,0.4 -0.8,0.8 -1.1,1.1c-0.5,0.5 -1.1,1.1 -1.6,1.5c0,0.1 -0.1,0.1 -0.2,0.2c-0.1,0.1 -0.3,0.2 -0.5,0.2c-0.2,0.1 -0.3,0.2 -0.5,0.3c-0.6,0.3 -1.2,0.5 -1.8,0.5c-1.6,0.4 -2.5,0.1 -2.5,0.1c2.5,3 5.9,3.4 5.9,3.4s19.3,1 25.2,1c6,0 7,1.5 7,1.5l0,2.9l0,1.1c-0.3,0.5 -0.6,0.9 -0.8,1.3l-0.1,0.3c0,0 0,0 -0.1,0c-5.2,8.4 -3.1,9.2 -4.9,14.7c-0.3,0.8 -0.5,1.5 -0.7,2.2c0.7,0.3 1.4,0.5 2.1,0.7l0.6,-2.8c-0.1,0 0.4,-6.5 2.4,-8.4z" class="st4"/>
   <path id="svg_49" fill="#811E13" d="m58.7,113.3c0.4,0 0.7,0 1.1,0c-0.3,0 -0.7,0 -1.1,0z" class="st4"/>
   <path id="svg_50" fill="#D15437" d="m86.9,123.2c-6.4,-5.5 -25.8,-9.9 -25.8,-9.9c-0.4,0 -0.8,0 -1.1,-0.1c0,0 -0.1,0 -0.1,0c-0.4,0 -0.7,0 -1.1,0c-0.1,0 -0.1,0 -0.2,0c-0.2,0 -0.5,0 -0.7,0c-2.5,0.2 -4.9,1.1 -7.1,2.3c-2.6,1.4 -4.9,3.4 -7,5.4c-1,1.3 -1.5,2.3 -1.5,2.3c-1,2.6 9.4,2.4 9.5,2.4c5.5,-2.5 8.4,-1 9.9,0.5c1.5,1.5 10.4,1.5 10.4,1.5c5.9,-2 5.9,0 5.9,0c-2.5,2 -3,6.4 -3,6.4c1,5.9 -1,7 -3,8.9c-2,2 -2.5,8.4 -2.5,8.4l-0.6,2.8c1.9,0.6 3.8,1.1 5.7,1.6c3.9,-7 10.8,-19.2 13.2,-23.7c3.5,-6.3 -0.9,-8.8 -0.9,-8.8z" class="st5"/>
   <path id="svg_51" fill="#EAC8C7" d="m61.3,112.7c0.8,-2.5 -0.1,-5.3 0.7,-7.7c0.5,-1.4 1.5,-2.6 1.8,-4c-0.4,-0.5 -0.6,-1.1 -0.4,-1.6c0.1,-0.3 0.4,-0.5 0.7,-0.6c0.1,-0.2 0.2,-0.5 0.4,-0.7c0.2,-0.3 0.3,-0.5 0.5,-0.8c-0.1,0 -0.3,-0.1 -0.4,-0.1c-2.8,-0.7 -5.7,-1.4 -7.9,-3.3c-0.7,-0.6 -1.4,-1.4 -2.1,-1.9c-0.8,-0.6 -1.9,-0.9 -2.7,-1.5c-1.4,-1 -2.1,-2.9 -3.7,-3.4c-0.3,-0.1 -0.7,-0.1 -0.9,0.1c-0.1,0.2 -0.1,0.5 -0.1,0.7c0.1,7.6 0.3,15.4 -2.1,22.6c-0.6,1.6 -1.2,3.2 -2.3,4.4c-0.4,0.4 -0.7,0.8 -1,1.3c-0.6,1 -0.6,2.1 -0.6,3.3c0,1.1 0,2.2 0,3.3c0,0.3 0,0.7 -0.2,1c0.6,-0.5 1.1,-1 1.6,-1.5c0.1,-0.2 0.3,-0.3 0.4,-0.5c0.2,-0.2 0.4,-0.4 0.7,-0.7c0.1,-0.1 0.1,-0.1 0.2,-0.2c2.1,-2.1 4.4,-4 7,-5.4c2.2,-1.2 4.6,-2.1 7.1,-2.3c0.2,0 0.5,0 0.7,0c0.1,0 0.1,0 0.2,0c0.4,0 0.7,0 1.1,0c0,0 0.1,0 0.1,0c0.1,0 0.3,0 0.4,0c0.2,0 0.3,0 0.5,0c0,0 0.1,0 0.1,0c0,-0.1 0.1,-0.3 0.2,-0.5z" class="st6"/>
   <path id="svg_52" fill="#EAC8C7" d="m39.1,102.9c0.3,-1.5 0.5,-3 0.9,-4.4c0.7,-2.3 1.8,-4.4 2.3,-6.7c0.7,-2.9 0.1,-6 0.3,-9c0,-0.6 0.1,-1.2 0.3,-1.8c0.5,-1.6 2,-2.7 3.5,-3.6c1.5,-0.9 3.1,-1.6 4.2,-2.9c1.3,-1.4 1.9,-3.6 3.7,-4.3c0.8,-0.3 2,-0.6 3.1,-0.7c-0.2,-0.2 -0.4,-0.4 -0.7,-0.7c-0.1,-0.1 -0.1,-0.1 -0.2,-0.2c0,0 -0.1,-0.1 -0.1,-0.1c0,-0.2 0.1,-0.3 0.2,-0.5c0.2,-0.2 0.4,-0.4 0.6,-0.5c-1.5,-1.5 -3.4,1.1 -4.8,1.6c-3.8,1.5 -7.2,3.9 -9.7,7c-1,1.3 -1.9,2.6 -2.8,4c-0.6,0.8 -1.1,1.7 -1.4,2.7c-0.3,1.1 -0.2,2.3 -0.1,3.5c0.2,2.4 0.3,4.8 0.5,7.2c0.1,1.6 0.2,3.2 -0.1,4.8c-0.3,1.7 -1.2,3.3 -1.7,4.9c-0.9,2.9 -1,6 -1.8,9c-0.6,2.2 -1.5,4.6 -1,6.9c0.2,1.1 0.8,2.1 1.2,3.1c-0.3,-6.6 2.3,-12.9 3.6,-19.3z" class="st6"/>
   <path id="svg_53" fill="#EAC8C7" d="m62.2,73c0.5,0.7 1.1,1.3 1.9,1.8c0.1,0.1 0.2,0.1 0.4,0.2c-0.6,-0.8 -1.3,-1.6 -1.9,-2.4c-0.1,0.1 -0.2,0.2 -0.4,0.4z" class="st6"/>
   <path id="svg_54" fill="#EAC8C7" d="m66.5,94.5c0.3,-0.5 0.5,-1 0.8,-1.4c-0.3,0.4 -0.6,0.9 -0.8,1.4z" class="st6"/>
   <path id="svg_55" fill="#EAC8C7" d="m70.7,90.7c0.2,0.3 0.3,0.6 0.4,1c0,0 0.1,0 0.1,0.1c0.2,0.1 0.4,0 0.6,-0.1c0,0 0,0 0,0c0.4,-2.1 0.7,-4.1 1.1,-6.2c0.1,0 0.3,0 0.4,0.1c0,-0.2 0.1,-0.4 0.1,-0.6c0,-0.3 0.1,-0.7 0,-1c-0.2,-0.4 -0.7,-0.6 -1.1,-0.7c-1.5,-0.7 -2.6,-2 -3.6,-3.2c-1,-1.3 -2,-2.5 -3,-3.8c0.3,1.1 0.2,1.1 0.2,1.1c-2.1,1.1 0,4.7 -0.1,7c0,0.9 0,2 0.6,2.7c0.9,1.2 3.2,1.5 3.3,3.1c0.2,-0.1 0.7,0.1 1,0.5z" class="st6"/>
   <path id="svg_56" fill="#EAC8C7" d="m40.3,124.3c-0.2,0 -0.4,0.1 -0.5,0.1c-1,0 -2.1,0 -3,-0.2c-0.3,0 -0.6,-0.1 -0.8,-0.3c0,0 0,0 -0.1,-0.1c0,0.2 0,0.4 -0.1,0.7c0.6,0.5 1.4,0.7 2.1,0.6c0.6,0 1.3,-0.2 1.8,-0.5c0.3,-0.1 0.4,-0.2 0.6,-0.3z" class="st6"/>
   <path id="svg_57" fill="#EFEFEF" d="m36.7,124.2c1,0.1 2,0.2 3,0.2c0.2,0 0.4,0 0.5,-0.1c0.2,0 0.3,-0.1 0.5,-0.2c0.1,-0.1 0.1,-0.1 0.2,-0.2c0.2,-0.3 0.2,-0.7 0.2,-1c0,-1.1 0,-2.1 0,-3.3c0,-1.2 0,-2.3 0.6,-3.3c0.3,-0.5 0.7,-0.8 1,-1.3c1.1,-1.3 1.7,-2.8 2.3,-4.4c2.4,-7.2 2.2,-15 2.1,-22.6c0,-0.2 0,-0.5 0.1,-0.7c0.2,-0.2 0.6,-0.2 0.9,-0.1c1.6,0.5 2.3,2.4 3.7,3.4c0.8,0.6 1.8,0.9 2.7,1.5c0.8,0.5 1.4,1.3 2.1,1.9c2.2,1.9 5.1,2.6 7.9,3.3c0.1,0 0.3,0.1 0.4,0.1c0,0 0,0 0.1,0c0.5,-0.9 1.1,-1.9 1.6,-2.8c0.2,-0.5 0.5,-1 0.8,-1.4c0.4,-0.7 0.8,-1.4 1.1,-2c0.2,-0.4 0.4,-0.7 0.8,-0.9c0.1,0 0.2,0 0.2,-0.1c-0.1,-1.5 -2.4,-1.8 -3.3,-3.1c-0.6,-0.7 -0.6,-1.8 -0.6,-2.7c0,-2.3 -2,-5.9 0.1,-7c0.1,0 0.2,0 -0.2,-1.1c-0.1,-0.2 -0.1,-0.4 -0.2,-0.6c-0.1,-0.3 -0.5,-0.5 -0.8,-0.7c-0.1,-0.1 -0.2,-0.1 -0.4,-0.2c-0.8,-0.5 -1.4,-1.1 -1.9,-1.8c-0.2,0.2 -0.5,0.4 -0.7,0.5c-0.4,0.1 -0.1,-0.1 -0.4,-0.3c-0.3,-0.2 -0.5,-0.6 -0.7,-0.9c-0.3,-0.4 -0.7,-0.8 -1.2,-1.1c-0.2,-0.1 -0.5,-0.3 -0.7,-0.4c-0.2,-0.1 -0.3,-0.3 -0.5,-0.5c-0.1,-0.1 -0.2,-0.2 -0.3,-0.3c-0.1,-0.1 -0.3,-0.3 -0.4,-0.4c-1.1,0.1 -2.3,0.4 -3.1,0.7c-1.8,0.7 -2.4,2.9 -3.7,4.3c-1.1,1.3 -2.7,2 -4.2,2.9c-1.5,0.9 -2.9,2 -3.5,3.6c-0.2,0.6 -0.2,1.2 -0.3,1.8c-0.1,3 0.4,6.1 -0.3,9c-0.5,2.3 -1.6,4.4 -2.3,6.7c-0.4,1.4 -0.6,2.9 -0.9,4.4c-1.2,6.4 -3.9,12.7 -3.5,19.2c0,0.3 0,0.7 0.1,1c0,0.2 0.1,0.5 0.2,0.7c0,0 0,0 0.1,0.1c0.2,0.1 0.6,0.1 0.8,0.2z" class="st7"/>
   <path id="svg_58" fill="#EF9292" d="m100.7,103.5c1.8,-0.5 3.6,-1.2 5.2,-2.2c-0.4,0 -0.8,0.2 -1.1,0.3c-1.3,0.7 -2.7,1.4 -4.1,1.9z" class="st8"/>
   <path id="svg_59" fill="#EF9292" d="m94.2,108c0.1,0 0.3,0 0.4,0c-0.2,0 -0.4,0 -0.6,-0.1c0.1,0.1 0.2,0.1 0.2,0.1z" class="st8"/>
   <path id="svg_60" fill="#EF9292" d="m107.1,97.3c-2,0 -3.9,0.1 -5.8,-0.1c-1.5,-0.2 -3,-0.6 -4.5,-0.8c-2.6,-0.4 -5.2,0 -7.8,0c-0.5,0 -1,0 -1.4,-0.2c-0.5,-0.2 -0.8,-0.6 -1.2,-0.9c-2.1,-2.1 -4.5,-4 -6.9,-5.6c-1.3,-0.9 -2.6,-1.7 -3.9,-2.5c-0.5,-0.3 -1.2,-1 -1.9,-1.4c-0.1,-0.1 -0.2,-0.1 -0.4,-0.2c-0.1,-0.1 -0.3,-0.1 -0.4,-0.1c-0.4,2.1 -0.7,4.1 -1.1,6.2c0,0 0,0 0,0c-0.1,0.4 -0.3,0.8 -0.6,0.6c0,-0.2 -0.1,-0.4 -0.1,-0.6c-0.1,-0.3 -0.2,-0.7 -0.4,-1c-0.3,-0.4 -0.7,-0.7 -1.2,-0.6c-0.1,0 -0.2,0 -0.2,0.1c-0.4,0.1 -0.6,0.5 -0.8,0.9c-0.4,0.7 -0.8,1.4 -1.1,2c-0.3,0.5 -0.5,1 -0.8,1.4c-0.5,0.9 -1.1,1.9 -1.6,2.8c-0.2,0.4 -0.4,0.8 -0.6,1.2c-0.1,0.1 -0.1,0.2 -0.2,0.3c0.2,-0.1 0.5,0 0.7,0.1c0,-0.1 0,-0.3 0,-0.5c1,0 1.9,0.7 2.8,1.2c4,2.1 8.9,1.6 13.3,2.8c1.7,0.5 3.3,1.2 5,1.7c3.7,1.1 7.7,0.8 11.3,2.2c1.1,0.4 2.1,0.9 3.2,1.3c1.5,0.5 3.1,0.8 4.7,1c0.3,-0.3 0.9,-0.5 1.9,-0.4c2.7,0.3 5.1,0.3 5.1,0.3l-0.7,-1.3c-0.3,-0.2 -0.6,-0.4 -0.9,-0.5c0.7,0 1.4,-0.1 2.1,-0.2l0,0l0,0c-0.8,-1.2 -2.6,-1.1 -4.1,-0.9c-3.9,0.4 -7.9,0 -11.6,-1.1c-0.2,0 -0.4,0 -0.5,0c-1,0 -2.1,-0.1 -2.8,-0.8c-0.3,-0.3 -0.5,-0.7 -0.8,-1c-0.6,-0.6 -1.3,-0.8 -2.1,-1.1c-1.7,-0.5 -3.5,-0.8 -5,-1.9c-0.8,-0.5 -1.5,-1.3 -2.3,-1.8c-1.5,-1 -3.4,-1.2 -5.1,-1.7c-1.8,-0.5 -3.5,-1.4 -5.1,-2.5c-0.6,-0.4 -2,-1.6 -1.2,-2.3c0.7,-0.7 2.5,0.2 3.2,0.4c2.4,0.9 4.7,2.2 6.7,3.8c1.6,1.3 3.2,2.8 5.1,3.4c1.8,0.6 3.7,0.4 5.6,0.5c2.2,0.1 4.4,0.8 6.6,1.2c2.2,0.4 4.5,0.4 6.5,-0.7c0.6,-0.3 1.2,-0.7 1.9,-0.7c0.6,0 1.1,0.4 1.5,0.7c0.5,0.4 1,0.7 1.5,1.1c0.3,0.3 0.7,0.7 0.6,1c0.5,-0.1 0.9,-0.2 1.3,-0.1c0.2,0 0.3,0.1 0.5,0.1c0,1.3 0.5,2.5 1.2,3.5c0.1,0 0.3,0 0.4,0c0.8,-2.4 -0.1,-5.2 -2.1,-6.8c0,0 -0.1,-0.1 -0.1,-0.1c-1.4,-0.9 -3.4,-1.3 -5.4,-1.4z" class="st8"/>
   <path id="svg_61" fill="#EF9292" d="m94.8,108c0.9,0.1 1.8,0.2 2.6,0.4c-0.6,-0.2 -1.2,-0.3 -1.8,-0.4c-0.2,0.1 -0.5,0.1 -0.8,0z" class="st8"/>
   <path id="svg_62" fill="#EF9292" d="m67.7,102.9c1.4,0.6 2.9,1.2 4.5,1.5c0.5,0.1 1,0.2 1.4,0.3c0.8,0.2 1.5,0.3 2.3,0.4c5.9,1.1 11.8,2.1 17.8,2.8c-4,-0.4 -8,-1.1 -12,-1.8c-4.6,-0.8 -9.4,-1.7 -14,-3.2z" class="st8"/>
   <path id="svg_63" fill="#D65B56" d="m104.9,101.7c0.4,-0.2 0.7,-0.3 1.1,-0.3c0.3,0 0.6,0 0.9,0.2c0.2,0.1 0.3,0.4 0.5,0.6c0.8,0.9 2.2,0.8 3.5,0.6c0.2,0 0.4,-0.1 0.6,-0.2c0.1,-0.1 0.1,-0.1 0.1,-0.2c0.1,-0.3 -0.3,-0.8 -0.6,-1c-0.5,-0.4 -1,-0.7 -1.5,-1.1c-0.5,-0.4 -1,-0.7 -1.5,-0.7c-0.7,0 -1.3,0.4 -1.9,0.7c-2,1 -4.3,1 -6.5,0.7c-2.2,-0.4 -4.3,-1 -6.6,-1.2c-1.9,-0.1 -3.8,0.1 -5.6,-0.5c-2,-0.7 -3.5,-2.1 -5.1,-3.4c-2,-1.6 -4.3,-2.8 -6.7,-3.8c-0.7,-0.2 -2.5,-1.1 -3.2,-0.4c-0.7,0.7 0.6,1.9 1.2,2.3c1.6,1.1 3.3,2 5.1,2.5c1.7,0.5 3.6,0.7 5.1,1.7c0.8,0.5 1.5,1.3 2.3,1.8c1.5,1 3.3,1.4 5,1.9c0.7,0.2 1.5,0.5 2.1,1.1c0.3,0.3 0.5,0.7 0.8,1c0.7,0.7 1.8,0.9 2.8,0.8c0.2,0 0.4,0 0.5,0c1.3,-0.1 2.5,-0.5 3.7,-1c1.1,-0.8 2.5,-1.5 3.9,-2.1z" class="st9"/>
   <path id="svg_64" fill="#D65B56" d="m63.3,99.4c-0.2,0.6 0,1.2 0.4,1.6c0,0 0.1,0.1 0.1,0.1c0.4,0.5 1,0.7 1.6,0.9c0.7,0.3 1.5,0.6 2.2,0.8c4.6,1.5 9.4,2.4 14.1,3.2c4,0.7 8,1.4 12,1.8c0.1,0 0.2,0 0.3,0c0.2,0 0.4,0 0.6,0.1c0,0 0.1,0 0.1,0c0.3,0 0.6,0.1 0.8,0.1c0.6,0.1 1.2,0.1 1.8,0.4c0.1,0 0.2,0.1 0.3,0.2c0.4,0.2 0.7,0.6 1.2,0.8c1,0.7 2.4,0.7 3.6,0.6c0.7,-0.1 1.6,-0.2 2.3,-0.5c0,-0.3 0.1,-0.7 0.4,-1.1c-1.6,-0.2 -3.2,-0.4 -4.7,-1c-1.1,-0.4 -2.1,-0.9 -3.2,-1.3c-3.6,-1.4 -7.7,-1.1 -11.3,-2.2c-1.7,-0.5 -3.3,-1.3 -5,-1.7c-4.4,-1.2 -9.3,-0.7 -13.3,-2.8c-0.8,-0.4 -1.7,-1.1 -2.8,-1.2c0,0.2 0,0.4 0,0.5c-0.2,-0.1 -0.5,-0.1 -0.7,-0.1c0,0 -0.1,0 -0.1,0c-0.3,0.3 -0.5,0.5 -0.7,0.8z" class="st9"/>
   <path id="svg_65" fill="#EF9292" d="m59,67.5c0.1,0 0.1,0 0.2,0c0,0 0,0 0,0c-0.1,-0.1 -0.1,-0.2 -0.2,-0.3c0,0 0,0 0,0c0,0.1 0,0.2 0,0.3z" class="st8"/>
   <path id="svg_66" fill="#EF9292" d="m62.6,72.5c0.2,-0.2 0.4,-0.4 0.6,-0.5c0.1,-0.1 0.1,-0.2 0.1,-0.4c-0.3,-0.3 -0.6,-0.6 -1,-1c-0.1,0 -0.1,-0.1 -0.2,-0.1c-0.1,-0.1 -0.2,-0.2 -0.4,-0.3c-0.1,0 -0.1,-0.1 -0.2,-0.1c-0.1,0 -0.5,-0.2 -1,-0.6c-0.1,-0.1 -0.3,-0.2 -0.4,-0.4c0,0 -0.1,-0.1 -0.1,-0.1c-0.5,0.7 -1.6,0.9 -2.4,0.8c0.1,0.1 0.2,0.2 0.3,0.3c0.2,0.2 0.3,0.3 0.5,0.5c0.2,0.1 0.5,0.3 0.7,0.4c0.5,0.3 0.8,0.7 1.2,1.1c0.2,0.3 0.5,0.7 0.7,0.9c0.3,0.2 0,0.4 0.4,0.3c0.2,-0.1 0.5,-0.3 0.7,-0.5c0.3,0 0.4,-0.1 0.5,-0.3z" class="st8"/>
   <path id="svg_67" fill="#C48686" d="m60.1,69.2c-0.2,-0.1 -0.3,-0.3 -0.4,-0.4c-0.3,-0.3 -0.4,-0.8 -0.5,-1.2c-0.1,0 -0.1,0 -0.2,0c0,-0.1 0,-0.2 0,-0.3c-0.4,0.9 -1.2,1.5 -2.2,1.7c0,0 -0.1,0 -0.2,0c0.2,0.2 0.4,0.4 0.7,0.7c0.1,0.1 0.3,0.3 0.4,0.4c0.9,0 1.9,-0.2 2.4,-0.9z" class="st10"/>
   <path id="svg_68" fill="#996464" d="m56.3,68.6c0,0 0,0.1 0.1,0.1c0.1,0.1 0.1,0.1 0.2,0.2c0.1,0 0.1,0 0.2,0c1,-0.1 1.9,-0.7 2.2,-1.7c0,0 0,0 0,0c0,0 0,0 0,-0.1c-0.1,-0.1 -0.1,-0.3 -0.2,-0.4c0,0 0,0 0,0c-0.4,-0.4 -0.5,-0.1 -1,0.3c-0.2,0.2 -0.4,0.4 -0.6,0.6c-0.2,0.2 -0.4,0.4 -0.6,0.5c-0.2,0.1 -0.3,0.3 -0.3,0.5z" class="st11"/>
   <path id="svg_69" fill="#3F3228" d="m58.6,55.1c-0.1,0.4 -0.1,0.8 -0.2,1.2c-0.1,0.6 -0.1,1.1 0.1,1.6c0,0 0.1,0 0.1,-0.1c0.7,-0.6 0.7,-1.8 1.2,-2.6c0.2,-0.3 0.4,-0.5 0.7,-0.7c0.5,-0.4 1.1,-0.7 1.5,-1.1c0.5,-0.4 0.8,-0.9 0.9,-1.6c0,-0.3 0,-0.6 0.1,-0.9c0,0 0,0 0,0c0,0 0,-0.1 0,-0.1c0,0 0,0 0.1,0c0.2,-0.2 0.5,-0.2 0.8,-0.1c0.5,0 0.9,0 1.3,0.2c0.7,0.4 1.4,1.3 2.2,1.1c0.2,0 0.3,-0.1 0.5,-0.2c0,-0.2 0.1,-0.4 0.1,-0.6c0.1,0.2 0.2,0.3 0.3,0.5c0.2,0 0.3,0 0.5,0c0.4,0.1 0.8,0.4 1.1,0.7c0,0 0,0 0.1,0.1c0.5,0.4 1,0.7 1.5,1c0.3,0.1 0.5,0.3 0.8,0.4c0.6,0.3 1.1,0.5 1.7,0.6c0.3,0.1 0.6,0.1 0.9,0.2c0.6,0 1.2,-0.1 1.6,0.1c0.9,0.5 0.9,1.4 0.8,2.5c0,0.1 0,0.1 0,0.2c0,-0.1 0.1,-0.1 0.1,-0.2c0.3,-0.6 1,-1.1 1.3,-1.7c0.3,-0.7 0.4,-1.4 0.4,-2.1c0.1,-1.9 -0.9,-3.9 -1,-5.8c0.4,-0.4 -0.2,-1.1 -0.8,-1.4c-0.6,-0.3 -1.2,-0.3 -1.6,-0.7c-0.8,-0.6 -0.8,-1.9 -1.6,-2.5c-0.2,-0.1 -0.3,-0.2 -0.5,-0.3c-0.2,-0.1 -0.4,-0.1 -0.6,-0.2c-2.1,-0.5 -4.2,-0.9 -6.3,-1c-0.5,0 -1.1,0 -1.5,0.2c-0.3,0.2 -0.6,0.5 -0.9,0.7c-1.6,1.4 -4.2,1.1 -5.6,2.6c-0.5,0.5 -0.8,1.2 -1.1,1.9c-0.7,2.1 -1.1,4.2 -1.4,6.5c0.5,-0.6 1.5,-0.6 1.9,0c0.2,0.4 0.3,0.8 0.3,1.2c0,0 0,0 0,0.1c0.2,0.2 0.2,0.2 0.2,0.3z" class="st12"/>
   <path id="svg_70" fill="#3F3228" d="m77.2,58.3c0,-0.2 0.1,-0.5 0.1,-0.7c-0.1,0.2 -0.1,0.4 -0.1,0.7z" class="st12"/>
   <path id="svg_71" fill="#EDB0A9" d="m58.4,57.8c0,0 0,-0.1 0,-0.1c0,0 0,0 0,0.1l0,0z" class="st13"/>
   <path id="svg_72" fill="#EDB0A9" d="m67,73.1c-0.3,0 -0.6,-0.1 -0.8,-0.3c0,0 -0.1,0 -0.1,0c0,0.1 -0.1,0.2 -0.3,0.3c-0.2,0.1 -0.4,0.1 -0.5,0.2c0,0 0,0 0,0c0.2,0.1 0.4,0.1 0.6,0.2c0.5,0.1 1.1,0.1 1.5,-0.1c0.2,-0.1 0.4,-0.3 0.7,-0.4c0.1,-0.1 0.1,-0.1 0.2,-0.2c-0.2,0 -0.3,0 -0.5,0.1c-0.3,0 -0.5,0.2 -0.8,0.2z" class="st13"/>
   <path id="svg_73" fill="#EDB0A9" d="m60.9,61.7c-0.1,2.1 -0.6,4.4 -0.2,6.4c0.1,0.1 0.3,0.1 0.4,0.2c0,0 0,0 0,0c0.2,0 0.4,0.1 0.5,0.3c0,0 0.1,0 0.2,0.1c0.5,0.3 0.8,0.7 1.2,1.2c0.1,0 0.2,0.1 0.3,0.2c1.6,1.5 3.2,1.8 5.3,1.5c0.5,-0.3 0.7,-0.5 1.1,-1c0.5,-0.5 0.6,0 0.2,0.4c-0.1,0.2 -0.3,0.4 -0.5,0.6c0,0 0,0 0.1,0.1c0.5,-0.6 1,-1.1 1.5,-1.7c0.3,-0.4 0.6,-0.7 0.9,-1.1c0.6,-0.7 1.2,-1.4 1.8,-2.2c0.4,-0.5 0.8,-1.1 1.1,-1.7c0.1,-0.3 0.2,-0.5 0.4,-0.8c0,0 -0.1,0 -0.1,0c0,0.2 -0.1,0.4 -0.2,0.5c-0.3,0.4 -1,0.5 -1.4,0.1c0.1,-0.4 0.3,-0.8 0.4,-1.1c-0.6,-0.3 -1.1,-0.7 -1.4,-1.3l0,-0.3c0.4,-0.2 0.3,0.1 0.6,0.4c0.2,0.3 0.5,0.5 0.8,0.7c0.1,0 0.1,0.1 0.2,0.1c0.3,-0.8 0.6,-1.6 0.9,-2.4c0.1,-0.3 0.4,-1.5 1.1,-1c0.1,0 0.1,0.1 0.1,0.2c0.1,1.3 -0.5,2.4 -0.9,3.6c0,0 0.1,0 0.1,0c0.2,-0.6 0.4,-1.2 0.6,-1.9c0.1,-0.4 0.2,-0.7 0.3,-1.1c0.3,-1.1 0.5,-2.2 0.7,-3.4c0.1,-0.4 0.1,-0.9 0.2,-1.3c0,-0.2 0,-0.4 0,-0.6c-0.2,-0.4 -0.7,-0.5 -1.1,-0.5c-0.3,0 -0.7,-0.1 -1,-0.1c-0.3,-0.1 -0.6,-0.1 -0.9,-0.2c-0.5,0.6 -1.8,0.4 -1.7,-0.5c0,0 0,0 0,-0.1c-0.3,-0.1 -0.5,-0.3 -0.8,-0.4c-0.2,0.4 -0.6,0.6 -1.1,0.8c-1,0.3 -1.9,-0.3 -2.7,-0.8c-0.7,-0.4 -1.4,-0.7 -2.1,-1c-1.6,0.9 -3.3,1.6 -5.1,2.1c-0.3,0.2 -0.5,0.5 -0.7,0.7c-0.5,0.8 -0.4,2 -1.2,2.6c0,0 0,0 0,0l0,0c0.1,0.1 0.2,0.2 0.3,0.4c0,0.1 0.1,0.2 0.1,0.3l0,0.3c0,0.1 0,0.3 -0.1,0.4c0.2,0.4 -0.3,1 -0.8,0.7c-0.7,-0.3 -1,-1.1 -1,-1.8c0.1,-1 1,-1.8 1.1,-2.8c0,-0.3 0.2,-0.5 0.4,-0.5c0,0 0,0 0,-0.1c0,0 0,0 0,0c-0.2,0 -0.3,0 -0.5,0.1c-0.8,0.1 -1.1,-0.7 -0.8,-1.3c-0.2,-0.1 -0.5,-0.1 -0.7,0c-0.7,0.3 -0.8,1.2 -0.7,2c0,1 0,2 0,2.9c0,0.4 0,0.8 0.2,1.1c0.4,0.6 1.2,0.7 1.7,1.1c0.1,0.1 0.2,0.2 0.2,0.3c0.7,-0.7 2.7,-0.6 2.7,0.6zm6.7,2.2c1.3,0.4 1.9,-2 2.5,-3.3c0.3,-0.7 0.7,-0.3 1.1,0.3c1.5,2.3 -0.5,6.4 -2.8,3.8c-0.4,-0.4 -0.6,-0.6 -0.8,-0.8c0,0 0,0 0,0c-0.4,-0.1 -0.5,-0.3 0,0zm0.5,4.4c0.9,0.1 1.9,0.2 2.7,0.7c-1.1,0.6 -2.4,0.8 -3.6,0.6c0.3,0.2 0.7,0.3 1.1,0.4c0.7,0 0.7,1.2 0,1.1c-0.1,0 -0.1,0 -0.2,0l0,0c-0.7,0 -1.4,0 -2.1,-0.1c-0.3,0 -0.5,-0.4 -0.4,-0.7c0.1,-0.2 0.3,-0.3 0.5,-0.4c0,-0.2 0.1,-0.4 0.4,-0.5c-0.7,-0.3 -1.4,-0.7 -2,-1.3c-0.8,-0.8 -0.6,-1.1 0.3,-0.7c0.8,0.3 1.6,0.6 2.4,0.7c0.2,0.1 0.5,0.2 0.9,0.2zm-4.8,-9.1c0.2,-0.3 0.2,-0.2 0.6,0c0.3,0.2 0.6,0.3 0.8,0.4c0.7,0.2 1.3,0.4 2,0.5c0,0 0,0.3 0,0.3c0,0.1 0,0.1 0,0.2c0,0 0,0.1 0,0.1c-1.2,-0.1 -2.3,-0.5 -3.4,-1.2l0,-0.3z" class="st13"/>
   <path id="svg_74" fill="#EDB0A9" d="m75.1,63.9c0,0 0.1,0 0.1,0c0,0 0,0 0,0c0,0 -0.1,0 -0.1,0c0,0 0,0 0,0z" class="st13"/>
   <path id="svg_75" fill="#EDB0A9" d="m73,62.7c-0.2,-0.2 -0.2,-0.4 -0.4,-0.4c0.3,0.5 0.8,0.9 1.4,1.2c0,0 0,0 0,0c0,0 -0.1,0 -0.1,-0.1c-0.4,-0.2 -0.7,-0.4 -0.9,-0.7z" class="st13"/>
   <path id="svg_76" fill="#EDB0A9" d="m69.9,52.5c-0.4,-0.3 -0.7,-0.6 -1.1,-0.7c0.4,0.3 0.9,0.6 1.3,0.9c-0.1,-0.1 -0.2,-0.1 -0.2,-0.2z" class="st13"/>
   <path id="svg_77" fill="#DB9C97" d="m60.6,69.4c-0.1,-0.1 -0.3,-0.2 -0.5,-0.2c0,0 -0.1,0 -0.1,0c0.1,0.1 0.1,0.1 0.2,0.2c0.1,0.1 0.3,0.3 0.4,0.4c0.1,-0.3 0,-0.4 0,-0.4z" class="st14"/>
   <path id="svg_78" fill="#DB9C97" d="m59,67.1c0.5,0.4 1.1,0.6 1.7,0.9c-0.5,-2 0,-4.2 0.2,-6.4c0.1,-1.1 -1.9,-1.3 -2.9,-0.6c0.3,0.4 0.3,0.9 0.4,1.4c0.1,1.1 0.2,2.2 0.1,3.4c0,0.2 0.1,0.5 0.2,0.9c0.1,0.1 0.2,0.3 0.3,0.4z" class="st14"/>
   <path id="svg_79" fill="#DB9C97" d="m58.4,57.8l0,0c0,-0.1 0,-0.1 0,-0.1c-0.1,-0.4 0,-0.9 0,-1.3c0.1,-0.4 0.1,-0.8 0.2,-1.2c0,0 -0.1,-0.1 -0.1,-0.1c-0.2,0.1 -0.4,0.2 -0.4,0.5c-0.1,1 -1,1.7 -1.1,2.8c0,0.7 0.3,1.5 1,1.8c0.6,0.2 1,-0.4 0.8,-0.7c0.2,-0.3 0.2,-0.5 0.2,-0.6l0,-0.3c0,-0.1 0,-0.2 -0.1,-0.3c0,-0.1 -0.1,-0.3 -0.3,-0.4l0,0c0,0 -0.1,0.1 -0.1,0.1c0,-0.1 0,-0.1 -0.1,-0.2z" class="st14"/>
   <path id="svg_80" fill="#EAAEAC" d="m66,69.9c-0.2,0 -0.4,0.2 -0.5,0.4c-0.1,0.3 0.1,0.7 0.4,0.7c0.7,0.1 1.4,0.1 2.1,0.1l0,0c0.1,0 0.1,0 0.2,0c0.7,0.1 0.7,-1.1 0,-1.1c-0.4,0 -0.8,-0.2 -1.1,-0.4c-0.3,-0.1 -0.6,-0.1 -0.8,-0.2c-0.2,0.1 -0.3,0.3 -0.3,0.5z" class="st15"/>
   <path id="svg_81" fill="#EDB0A9" d="m66.7,60.6c0,-0.1 0,-0.1 0,-0.2c0,0 0,-0.3 0,-0.3c-0.7,0 -1.4,-0.2 -2,-0.5c-0.3,-0.1 -0.6,-0.2 -0.8,-0.4c-0.3,-0.2 -0.3,-0.3 -0.6,0l0,0.3c1,0.7 2.1,1.1 3.4,1.1c0,0.1 0,0 0,0z" class="st13"/>
   <path id="svg_82" enable-background="new" fill="#FFFFFF" opacity="0.49" d="m66.7,60.6c0,-0.1 0,-0.1 0,-0.2c0,0 0,-0.3 0,-0.3c-0.7,0 -1.4,-0.2 -2,-0.5c-0.3,-0.1 -0.6,-0.2 -0.8,-0.4c-0.3,-0.2 -0.3,-0.3 -0.6,0l0,0.3c1,0.7 2.1,1.1 3.4,1.1c0,0.1 0,0 0,0z" class="st16"/>
   <path id="svg_83" fill="#FFFFFF" d="m72.5,62.3c0.2,0 0.2,0.2 0.4,0.4c0.2,0.3 0.5,0.5 0.8,0.7c0,0 0.1,0 0.1,0.1c0,-0.1 0,-0.1 0.1,-0.2c-0.1,0 -0.1,-0.1 -0.2,-0.1c-0.3,-0.2 -0.6,-0.4 -0.8,-0.7c-0.2,-0.3 -0.2,-0.6 -0.6,-0.4l0,0.3c0.3,0.6 0.9,1 1.4,1.3c0,-0.1 0.1,-0.2 0.1,-0.3c-0.4,-0.2 -0.9,-0.6 -1.3,-1.1z" class="st17"/>
   <path id="svg_84" fill="#FFFFFF" d="m75.2,63.9c0,-0.1 0.1,-0.1 0.1,-0.2c0,0 -0.1,0 -0.1,0c0,0.1 0,0.1 -0.1,0.2c0,0 0.1,0 0.1,0z" class="st17"/>
   <path id="svg_85" fill="#FFFFFF" d="m75.1,63.9c0,0 0,0 0,0c0,0.1 -0.1,0.2 -0.1,0.3c0,0 0.1,0 0.1,0c0,-0.1 0.1,-0.2 0.1,-0.3c0,0 -0.1,0 -0.1,0z" class="st17"/>
   <path id="svg_86" fill="#B75E5E" d="m58,54.9c0.2,0 0.3,0 0.5,-0.1c-0.2,-0.3 -0.4,-0.7 -0.7,-0.9c-0.2,-0.1 -0.4,-0.2 -0.6,-0.3c-0.2,0.7 0,1.4 0.8,1.3z" class="st18"/>
   <path id="svg_87" fill="#B75E5E" d="m69.9,52.5c0.1,0.1 0.1,0.1 0.2,0.2c-0.4,-0.3 -0.9,-0.6 -1.3,-0.9c-0.1,0 -0.3,0 -0.5,0c0,0 0,0 0,0c-0.1,0 -0.2,0.1 -0.3,0.1c-0.2,0.1 -0.3,0.2 -0.5,0.2c-0.8,0.1 -1.4,-0.7 -2.2,-1.1c-0.4,-0.2 -0.9,-0.2 -1.3,-0.2c-0.3,0 -0.5,0 -0.8,0.1c0,0 0,0 -0.1,0c0,0 0,0.1 0,0.1c0.1,0.7 -0.2,1.5 -0.7,2.1c-0.1,0.1 -0.3,0.3 -0.4,0.4c-0.5,0.4 -1,0.7 -1.5,1.1c1.8,-0.4 3.5,-1.1 5.1,-2.1c0.7,0.3 1.4,0.6 2.1,1c0.8,0.5 1.7,1.1 2.7,0.8c0.5,-0.1 0.9,-0.4 1.1,-0.8c-0.6,-0.2 -1.1,-0.6 -1.6,-1c0,0 0,0 0,0z" class="st18"/>
   <path id="svg_88" fill="#B75E5E" d="m72.2,54c0,0 0.1,0 0,0c0,1.1 1.2,1.2 1.7,0.6c-0.5,-0.2 -1.1,-0.4 -1.7,-0.6z" class="st18"/>
   <path id="svg_89" fill="#B75E5E" d="m67.8,72.8c0.2,0 0.3,0 0.5,-0.1c0.4,-0.3 0.8,-0.7 1.1,-1.1c0,0 0,0 -0.1,-0.1c-0.4,0.4 -0.8,0.7 -1.3,1c0,0.1 -0.1,0.2 -0.2,0.3z" class="st18"/>
   <path id="svg_90" fill="#B75E5E" d="m59.6,68.3c0.1,0.3 0.3,0.6 0.5,0.8c0,0 0.1,0 0.1,0c0.2,0 0.3,0.1 0.5,0.2c0,0.1 0,0.2 0,0.2c0.5,0.4 0.9,0.5 1,0.6c0.1,0 0.1,0.1 0.2,0.1c0.2,0.1 0.4,0.3 0.5,0.4c0.4,0.3 0.7,0.6 1,1c0.6,0.6 1.1,1.2 1.9,1.5c0,0 0,0 0,0c0.1,0 0.3,-0.1 0.5,-0.2c0.1,-0.1 0.2,-0.2 0.3,-0.3c0,0 0.1,0 0.1,0c0,0 0,0 0,0c0.7,-0.4 1.5,-0.8 2.3,-1.2c0,0 0,0 0.1,0c-2.1,0.2 -3.6,0 -5.3,-1.5c-0.1,-0.1 -0.2,-0.2 -0.3,-0.2c-0.3,-0.5 -0.7,-0.9 -1.2,-1.2c0,0 -0.1,-0.1 -0.2,-0.1c-0.1,-0.1 -0.2,-0.3 -0.5,-0.3c0,0 0,0 0,0c-0.1,-0.1 -0.3,-0.1 -0.4,-0.2c-0.6,-0.3 -1.2,-0.5 -1.7,-0.9c0,0 0,0 0,0.1c0.1,0.1 0.1,0.2 0.2,0.3c0.2,0.4 0.3,0.7 0.4,0.9z" class="st18"/>
   <path id="svg_91" fill="#EAAEAC" d="m68.4,64.7c2.3,2.7 4.3,-1.4 2.8,-3.8c-0.4,-0.6 -0.8,-0.9 -1.1,-0.3c-0.6,1.3 -1.1,3.6 -2.5,3.3c0.2,0.2 0.4,0.4 0.8,0.8z" class="st15"/>
   <path id="svg_92" fill="#EAAEAC" d="m67.6,63.9c0,0 0,0 0,0c-0.5,-0.3 -0.4,-0.1 0,0z" class="st15"/>
   <path id="svg_93" fill="#FFFFFF" d="m75.1,63.9c0,0 0,0 0,0c0,-0.1 0,-0.2 0.1,-0.2c0.4,-1.2 1.1,-2.4 0.9,-3.6c0,0 0,-0.1 -0.1,-0.2c-0.7,-0.5 -0.9,0.7 -1.1,1c-0.3,0.8 -0.6,1.6 -0.9,2.4c0,0.1 0,0.1 -0.1,0.2c0,0 0,0 0,0c0,0.1 -0.1,0.2 -0.1,0.3c-0.1,0.4 -0.3,0.8 -0.4,1.1c0.4,0.3 1,0.3 1.4,-0.1c0.1,-0.2 0.2,-0.3 0.2,-0.5c0,-0.2 0,-0.3 0.1,-0.4c0,0 0,0 0,0z" class="st17"/>
   <path id="svg_94" fill="#CCCCCC" d="m66.2,72.8c0,0 0,0 0,0c0.2,0.2 0.5,0.4 0.8,0.3c0.3,0 0.6,-0.2 0.8,-0.3c0.1,-0.1 0.2,-0.1 0.3,-0.2c0.4,-0.3 0.9,-0.6 1.3,-1c0.2,-0.2 0.4,-0.4 0.5,-0.6c0.3,-0.5 0.2,-0.9 -0.2,-0.4c-0.4,0.4 -0.6,0.7 -1.1,1c0,0 0,0 -0.1,0c-0.8,0.4 -1.6,0.8 -2.3,1.2z" class="st19"/>
   <path id="svg_95" fill="#EF9292" d="m64.4,68.1c0.6,0.6 1.3,1 2,1.3c0.3,0.1 0.5,0.2 0.8,0.2c1.2,0.2 2.4,0.1 3.6,-0.6c-0.8,-0.6 -1.8,-0.6 -2.7,-0.7c-0.3,0 -0.6,-0.1 -0.9,-0.2c-0.8,-0.2 -1.6,-0.5 -2.4,-0.7c-1,-0.4 -1.2,0 -0.4,0.7z" class="st8"/>
   <path id="svg_96" fill="#1C1930" d="m128.5,146.3c0.6,-0.4 1.2,-0.8 1.8,-1.2l-1.8,-1.1l0,2.3z" class="st20"/>
   <path id="svg_97" fill="#100F1E" d="m132,117.8l0,0l-3.5,0l0,4.9l0,21.2l1.8,1.1c0.6,-0.4 1.2,-0.8 1.7,-1.3l0,-21l0,-4.9z" class="st21"/>
   <path id="svg_98" fill="#0F3860" d="m158.1,87.8c-0.1,0.1 -0.2,0.1 -0.2,0.2c-0.1,0.1 -0.1,0.1 -0.2,0.2c0,0.1 0,0.2 -0.1,0.2c-0.1,0.3 -0.4,0.6 -0.6,0.8c0,0.3 0,0.5 0.3,0.8c0.2,0.2 0.4,0.3 0.7,0.4c0.5,0.2 1,0.3 1.6,0.4c0,-0.7 0,-1.4 0,-2.1c0,-1.7 -0.1,-3.3 -0.2,-5c0,0.5 -0.1,1 -0.2,1.5c-0.1,1 -0.3,1.9 -1.1,2.6z" class="st22"/>
   <path id="svg_99" fill="#0A2056" d="m157.4,76.1c0,0.4 0,0.8 0.1,1.2c0.3,0.3 0.6,0.5 0.8,0.9c0.2,0.3 0.4,0.5 0.5,0.8c-0.3,-2.3 -0.8,-4.6 -1.3,-6.9c0,0.2 0,0.4 0,0.6c-0.1,1.2 -0.1,2.3 -0.1,3.4z" class="st23"/>
   <path id="svg_100" fill="#0A2056" d="m147.5,81.2c0,0.5 -0.6,0.7 -0.9,1.1c-0.4,0.5 -0.3,1.3 0.1,1.9c0.4,0.6 0.9,0.9 1.4,1.4c0.4,0.4 0.7,0.8 1.1,1.2c0.7,0.7 1.5,1 2.4,1.3c0.7,0.3 1.4,0.6 2.1,0.8c0.7,0.3 1.4,0.6 2.1,0.6c0.1,0 0.1,0 0.2,0c0,0 0,-0.1 0,-0.1c0,0 -0.1,0 -0.1,0c-1.2,0 -2.2,-1 -2.9,-2.1c-0.7,-1 -1.1,-2.2 -1.9,-3.2c-0.7,-0.8 -1.5,-1.4 -2.4,-1.8c-0.3,-0.1 -0.7,-0.3 -0.9,-0.7c-0.2,-0.4 -0.1,-1 0,-1.5c0.2,-1.4 0,-2.8 -0.6,-4.1c-0.6,-1.2 -1.7,-2.3 -1.9,-3.6c-0.1,-0.8 0.1,-1.7 -0.4,-2.4c-0.3,-0.5 -0.9,-0.7 -1.3,-1c-0.4,-0.4 -0.8,-1 -0.5,-1.4c0.3,-0.6 1.1,-0.5 1.7,-0.4c1.3,0.2 2.5,0.5 3.7,0.9c0.4,0.1 0.8,0.3 1.2,0.5c0,0 -0.1,-0.1 -0.1,-0.1l0.1,0.1c0.2,0.1 0.5,0.3 0.6,0.5c0.4,0.4 0.7,1 1,1.5l0.5,0.6c0.2,0.2 0.4,0.5 0.6,0.7c-0.2,-0.4 -0.4,-0.7 -0.6,-1.1c-0.7,-1.1 -1.4,-2.2 -2.5,-2.8c-0.7,-0.4 -1.4,-0.6 -2.1,-0.7c-1.2,-0.3 -2.4,-0.4 -3.6,-0.5c-0.3,0 -0.7,0 -1,0.2c-0.2,0.1 -0.3,0.4 -0.3,0.6c-0.5,1.7 0.1,3.5 0.7,5.2c0.4,1.1 0.9,2.2 1.3,3.3c0.5,1.1 1,2.2 1.5,3.3c0.3,0.8 0.8,1.7 1.7,1.8z" class="st23"/>
   <path id="svg_101" fill="#0A2056" d="m156.9,89.2c0.3,-0.2 0.5,-0.4 0.6,-0.8c0,-0.1 0.1,-0.2 0.1,-0.2c0.1,-0.2 0.1,-0.5 0.2,-0.7c0,0 0,0 0,0c0.2,-0.4 0.6,-0.6 0.9,-1c0.3,-0.4 0.3,-0.9 0.3,-1.3c0,0.1 0,0.1 0,0.2c-0.2,0.6 -0.6,1.2 -0.9,1.7c-0.3,0.6 -0.7,1.1 -1,1.6c-0.1,0.1 -0.2,0.3 -0.3,0.4c0,0.1 0,0.1 0,0.2c0,0 0.1,-0.1 0.1,-0.1z" class="st23"/>
   <path id="svg_102" fill="#0A2056" d="m149.6,68.7c0,0 0,0 0,0c0.6,0.7 1.1,1.4 1.7,2.1c0,0 0,-0.1 -0.1,-0.1l-1.6,-2z" class="st23"/>
   <path id="svg_103" fill="#0A2056" d="m152.5,72.2c0,0 0,0 0,0l-0.8,-0.9c-0.1,-0.2 -0.3,-0.3 -0.4,-0.5c0.4,0.5 0.7,1.1 1.2,1.4z" class="st23"/>
   <path id="svg_104" fill="#0A2056" d="m156.8,76.9c-0.1,-0.3 -0.2,-0.6 -0.4,-0.9c-0.4,-0.8 -1,-1.1 -1.7,-1.5c0.2,0.4 0.5,0.8 0.8,1.2c0.4,0.4 0.8,0.8 1.3,1.2z" class="st23"/>
   <path id="svg_105" fill="#0F3860" d="m157.4,77.4c-0.2,-0.2 -0.4,-0.3 -0.6,-0.5c-0.5,-0.4 -0.9,-0.8 -1.3,-1.2c-0.3,-0.3 -0.5,-0.8 -0.8,-1.2c-0.1,-0.1 -0.2,-0.3 -0.3,-0.4c-0.4,-0.6 -1,-1 -1.4,-1.5c-0.2,-0.2 -0.4,-0.4 -0.6,-0.6c-0.2,-0.2 -0.4,-0.5 -0.6,-0.7l0.8,0.9l0,0c0,0 0,0 0,0c-0.5,-0.3 -0.9,-0.9 -1.2,-1.4c-0.6,-0.7 -1.2,-1.4 -1.7,-2.1c-0.4,-0.2 -0.8,-0.4 -1.2,-0.5c-1.2,-0.4 -2.4,-0.7 -3.7,-0.9c-0.6,-0.1 -1.4,-0.2 -1.7,0.4c-0.3,0.5 0.1,1.1 0.5,1.4c0.4,0.3 1,0.6 1.3,1c0.5,0.7 0.3,1.6 0.4,2.4c0.2,1.4 1.3,2.4 1.9,3.6c0.7,1.2 0.8,2.7 0.6,4.1c-0.1,0.5 -0.2,1.1 0,1.5c0.2,0.3 0.6,0.5 0.9,0.7c0.9,0.5 1.8,1 2.4,1.8c0.8,0.9 1.2,2.1 1.9,3.2c0.7,1 1.7,2 2.9,2.1c0,0 0.1,0 0.1,0c-0.1,-0.5 -0.2,-1 -0.3,-1.5c-0.1,-0.6 -0.3,-1.1 -0.4,-1.7c-0.4,-1.4 -0.9,-2.7 -1.5,-4.1c-0.9,-2.3 -1.9,-4.5 -2.8,-6.8c-0.3,-0.7 -0.5,-1.3 -1,-1.8c-0.9,-1 -2.3,-1.5 -2.8,-2.8c0.7,1.2 2.1,1.8 3.1,2.7c0.8,0.8 1.4,1.8 2,2.8c2.2,3.9 3.8,8.2 4.6,12.7c0.1,-0.1 0.2,-0.2 0.3,-0.4c0.3,-0.6 0.7,-1.1 1,-1.6c0.4,-0.6 0.7,-1.1 0.9,-1.7c0,-0.1 0,-0.1 0,-0.2c0,0 0,0 0,0c0.1,-0.5 0.2,-1 0.2,-1.5c-0.1,-1.6 -0.3,-3.1 -0.5,-4.7c-0.1,-0.3 -0.3,-0.6 -0.5,-0.8c-0.3,-0.2 -0.6,-0.5 -0.9,-0.7z" class="st22"/>
   <path id="svg_106" fill="#0F3860" d="m151.3,70.8c0.1,0.2 0.3,0.3 0.4,0.5l-0.4,-0.5c0,-0.1 0,0 0,0z" class="st22"/>
   <path id="svg_107" fill="#0F3860" d="m150.3,69.2c-0.2,-0.2 -0.4,-0.3 -0.6,-0.5l1.7,2c-0.4,-0.6 -0.7,-1.1 -1.1,-1.5z" class="st22"/>
   <path id="svg_108" fill="#0F3860" d="m149.5,68.6c0,0 0.1,0.1 0.1,0.1c0,0 0,0 0,0l-0.1,-0.1z" class="st22"/>
   <path id="svg_109" fill="#0A2056" d="m155.4,109.9c-0.4,-0.2 -0.4,-0.7 -0.5,-1c-0.3,-3.7 -0.6,-7.5 -0.8,-11.2c-0.1,-1.2 -0.2,-2.2 1.1,-2.7c0.3,-0.1 0.5,-0.1 0.8,-0.2c-0.6,0 -1.3,0 -1.7,0.5c-0.6,0.6 -0.5,2 -0.6,2.8c-0.2,4.1 0.2,8.1 1.2,12c0,0.1 0.1,0.2 0.2,0.3l0.8,0c0,-0.1 0.1,-0.3 0.1,-0.4c0,0 0,0 0,0c-0.2,-0.1 -0.4,0 -0.6,-0.1z" class="st23"/>
   <path id="svg_110" fill="#0A2056" d="m139.1,110.1c-0.1,0 -0.1,0 -0.2,0c0,0 0,-0.1 -0.1,-0.2c-0.1,-0.7 0,-1.4 0.1,-2.1c0.1,-0.8 0.4,-1.7 0,-2.4c-0.1,-0.2 -0.3,-0.4 -0.5,-0.6c-0.4,-0.7 0.3,-2.7 0.9,-3.2c0.6,-0.6 2.9,-0.8 3.4,-0.1c0.1,0.1 0.1,0.4 0.1,0.6c0,2.6 0,5.2 0,7.7c-0.5,0.1 -1,0.2 -1.5,0.3l2.6,-0.2l0.5,-8.9l-6.9,0l0.3,9.4l2.7,-0.2c-0.5,0 -0.9,0 -1.4,-0.1z" class="st23"/>
   <path id="svg_111" fill="#163E6D" d="m142.7,102.1c0,-0.2 0,-0.4 -0.1,-0.6c-0.4,-0.7 -2.8,-0.5 -3.4,0.1c-0.6,0.6 -1.3,2.5 -0.9,3.2c0.1,0.2 0.3,0.4 0.5,0.6c0.5,0.7 0.2,1.6 0,2.4c-0.1,0.7 -0.2,1.4 -0.1,2.1c0,0 0,0.1 0.1,0.2c0.1,0 0.1,0 0.2,0c0.5,0 0.9,0 1.4,0c0.2,0 0.5,0 0.7,-0.1c0.5,-0.1 1,-0.1 1.5,-0.3c0.2,-2.5 0.1,-5.1 0.1,-7.6z" class="st24"/>
   <path id="svg_112" fill="#163E6D" d="m157.3,94.7c0,0.3 0,0.6 0,0.8c-0.1,-0.3 -0.1,-0.5 -0.2,-0.8c-0.3,0 -0.7,0 -1,0.1c-0.3,0 -0.5,0.1 -0.8,0.2c-1.4,0.5 -1.2,1.5 -1.1,2.7c0.3,3.7 0.6,7.5 0.8,11.2c0,0.4 0.1,0.8 0.5,1c0.2,0.1 0.4,0 0.6,0c0,0 0,0 0,0c1.6,-4.8 2.6,-9.9 3.1,-15.2c-0.4,0 -0.9,0 -1.3,0c-0.3,0 -0.4,0 -0.6,0z" class="st24"/>
   <path id="svg_113" fill="#0D0830" d="m157.1,94.7c0.1,0.3 0.1,0.5 0.2,0.8c0,-0.3 0,-0.5 0,-0.8c0,-0.8 -0.1,-1.7 -0.2,-2.5c-0.1,-1 -0.2,-1.9 -0.4,-2.9c0,-0.1 0,-0.1 0,-0.2c-0.8,-4.5 -2.4,-8.7 -4.6,-12.7c-0.6,-1 -1.2,-2.1 -2,-2.8c-1,-0.9 -2.4,-1.5 -3.1,-2.7c0.5,1.2 2,1.7 2.8,2.8c0.5,0.5 0.7,1.2 1,1.8c0.9,2.2 1.9,4.5 2.8,6.8c0.6,1.4 1.1,2.7 1.5,4.1c0.1,0.6 0.3,1.1 0.4,1.7c0.1,0.5 0.2,1 0.3,1.5c0,0 0,0.1 0,0.1c0.5,1.5 0.9,3.3 1.3,5z" class="st25"/>
   <path id="svg_114" fill="#1C1930" d="m137.8,110.4l-20.1,0l-4.9,0l-22.9,0l0,4.4l22.9,0l4.9,0l36.6,0c0.6,-1.5 1.1,-2.9 1.6,-4.4l-0.8,0l-17.3,0z" class="st20"/>
   <path id="svg_115" fill="#1C1930" d="m112.8,115.8l-22.9,0l0,2l22.9,0l4.9,0l10.8,0l3.5,0l0,0l21,0c0.3,-0.6 0.6,-1.3 0.9,-2l-36.2,0l-4.9,0z" class="st20"/>
   <path id="svg_116" fill="#4F779E" d="m140.8,99.8c0,-0.2 0,-0.3 0,-0.4c-0.1,-0.4 -0.3,-0.7 -0.7,-0.9c0.1,0.5 0.3,1 0.7,1.3z" class="st26"/>
   <path id="svg_117" fill="#4F779E" d="m138.5,94.9c-0.4,0.3 -0.9,0.7 -1.1,1.2c-0.2,0.8 0.7,1.4 1.4,1.8c0.4,0.2 0.8,0.4 1.2,0.6c-0.1,-0.5 0,-1 0.2,-1.5c0.8,-1.4 3.1,-1.6 3.7,-3.2c0.3,-0.7 0.1,-1.4 0,-2.1c-0.1,-0.9 -0.3,-1.8 -0.4,-2.7c0,-0.2 -0.1,-0.5 -0.2,-0.7c-0.1,-0.2 -0.4,-0.3 -0.7,-0.3c-1.4,-0.3 -2.8,-0.3 -4.2,0c-0.7,0.1 -1.5,0.3 -2.1,0.9c-0.7,0.8 -0.6,2.1 0,2.9c0.9,1.2 3.9,1.8 2.2,3.1z" class="st26"/>
   <path id="svg_118" fill="#4F779E" d="m141.5,100.7c0,-0.1 0,-0.2 0,-0.4c-0.3,-0.1 -0.5,-0.3 -0.8,-0.5c0,0.2 0,0.3 0.1,0.5c0.1,0.3 0.5,0.5 0.7,0.4z" class="st26"/>
   <path id="svg_119" fill="#1C1930" d="m53.4,136.6l-3.1,0.5l0,7.7c1.1,0.8 2.3,1.6 3.5,2.3l0,-10.5c-0.2,0 -0.3,0 -0.4,0z" class="st20"/>
   <path id="svg_120" fill="#1C1930" d="m49.9,144.5c0.1,0.1 0.3,0.2 0.4,0.3l-0.1,-6.5l-0.3,6.2z" class="st20"/>
   <path id="svg_121" fill="#B7C6E5" d="m111.5,107.2l0.7,1.3c0,0 -2.5,0 -5.1,-0.3c-1,-0.1 -1.5,0.1 -1.9,0.4c-0.3,0.3 -0.4,0.8 -0.4,1.1c0,0.2 0,0.3 0,0.3l8,0l4.9,0l4.4,0c0,0 9.9,-19.8 10.4,-21.8c0.5,-2 -1.5,-1.5 -1.5,-1.5l-9.9,20.3l-3.4,0l-4.9,0.1l-1.3,0.1l0,0z" class="st27"/>
   <path id="svg_122" fill="#1C1930" d="m53.4,136.6c0.1,0 0.2,0 0.3,0c8.6,0 17.9,0 18.8,0c0,0 0.1,0 0.1,0l0.1,-0.3l0.8,-2.4c0,0 -4,-2.8 -14.8,-2.3c-10.9,0.5 -22.8,0 -24.3,-3.5c0,0 -2,-1 -1.5,-7c0.5,-5.9 3,-12.2 3,-12.2s1.4,-10.6 1.9,-11.6c0.5,-1 0.5,-14.9 0.5,-14.9l0,-10.6c0,0 -1.5,-7 -9.4,-1c0,0 -3,1.5 -2,8.9s4,11.9 3.5,23.3c-0.2,5.3 -1.2,11.2 -1.8,16.4c3.2,6.4 7.3,12.2 12.2,17.3c0.6,0 1.3,0 2,0c2.7,-0.1 6.6,-0.1 10.6,-0.1z" class="st20"/>
   <path id="svg_123" fill="#0A2056" d="m126.6,39.6l0,-9.6c-0.6,-0.4 -1.3,-0.8 -2,-1.2l0,10.8c0.6,0 1.2,0 2,0z" class="st23"/>
   <path id="svg_124" fill="#163E6D" d="m117.9,51.2l2.7,0l0.1,0l12.8,0c0,0 0.3,-1.4 -0.6,-3.1c-0.4,-0.6 -1,-1.3 -1.6,-2c-1.9,-1.7 -5.5,-3.5 -11.8,-4.5c-0.5,0.2 -1.1,0.6 -1.8,1.2c-1.7,1.4 -3.7,4 -4,8.4l4,0l0.2,0z" class="st24"/>
   <path id="svg_125" fill="#0A2056" d="m132.9,48.1c0.9,1.7 0.6,3.1 0.6,3.1l1,0l3.4,0c-1,-7 -6.4,-10.6 -6.4,-10.6c-1.9,-0.6 -3.5,-0.9 -4.9,-1c-0.7,0 -1.4,0 -2,0c-3.7,0.3 -5.2,2 -5.2,2c0,0 0,0 0,0c6.4,1 9.9,2.7 11.8,4.5c0.9,0.7 1.4,1.4 1.7,2z" class="st23"/>
   <path id="svg_126" fill="#D67525" d="m120.8,51.3c-0.1,0 -0.1,-0.1 -0.1,-0.1l-2.7,0c0,0 1.4,3.5 5.8,4.8c0.6,0.2 1.2,0.3 1.9,0.4c0,0 0,0 0.1,0c-3.3,-0.9 -4.8,-4.6 -5,-5.1z" class="st28"/>
   <path id="svg_127" fill="#F9A34E" d="m120.8,51.3c0.2,0.5 1.7,4.2 4.9,5.2c0.5,0.1 0.9,0.2 1.5,0.2c4.5,0 6.4,-5.5 6.4,-5.5l-12.8,0.1c-0.1,-0.1 -0.1,-0.1 0,0z" class="st29"/>
  </g>
  <g id="svg_128">
   <path id="svg_129" fill="#D65B56" d="m66.2,159.9c0,0 -3.5,5.5 -3.5,7c0,1.5 7,5.9 13.3,4.4c0,0 0.5,-3 -2,-3c-2.5,0 -6.1,-4.1 -1.3,-7.2c0.1,-0.1 -5.9,-0.8 -6.5,-1.2z" class="st9"/>
   <path id="svg_130" fill="#EF9292" d="m67.6,160.8c0,0 -4.9,4.4 -4,7c1,2.5 5.5,4 5.5,4l4.9,-0.5c0,0 0.5,-3 -1.5,-3s-4.4,0 -4,-4.4l1.7,-2.8l-2.6,-0.3z" class="st8"/>
   <path id="svg_131" fill="#811E13" d="m35.4,125.2c0,0 3.8,1.2 8.6,-4.4c4.8,-5.6 12.7,-8.5 17.2,-7.5c4.4,1 21.3,5.9 24.8,8.4s5.5,4 3.5,10.4c-2,6.4 -15.9,28.7 -15.9,28.7s-5.5,1 -7.9,-1.5c0,0 0,-2 2,-7.9c2,-5.9 -0.5,-6.4 5.9,-16.3l0,-4c0,0 -1,-1.5 -7,-1.5s-25.2,-1 -25.2,-1s-3.5,-0.4 -6,-3.4z" class="st4"/>
   <path id="svg_132" fill="#D15437" d="m42.3,123.3c0,0 5.5,-11 18.8,-10c0,0 19.3,4.4 25.8,9.9c0,0 4.4,2.5 1,8.9c-3.5,6.4 -16,28.9 -16,28.9l-4.1,-0.4l1.9,-9.1c0,0 0.5,-6.4 2.5,-8.4c2,-2 4,-3 3,-8.9c0,0 0.5,-4.4 3,-6.4c0,0 0,-2 -5.9,0c0,0 -8.9,0 -10.4,-1.5c-1.5,-1.5 -4.4,-3 -9.9,-0.5c-0.2,-0.1 -10.6,0.1 -9.7,-2.5z" class="st5"/>
  </g>
  <g id="body_2_">
   <path id="svg_133" fill="#EAC8C7" d="m42.7,76.2c-1,1.3 -1.9,2.6 -2.8,4c-0.6,0.8 -1.1,1.7 -1.4,2.7c-0.3,1.1 -0.2,2.3 -0.1,3.5c0.2,2.4 0.3,4.8 0.5,7.2c0.1,1.6 0.2,3.2 -0.1,4.8c-0.3,1.7 -1.2,3.3 -1.7,4.9c-0.9,2.9 -1,6 -1.8,9c-0.6,2.2 -1.5,4.6 -1,6.9c0.4,1.9 1.9,3.6 1.4,5.5c1.1,0.9 2.7,0.8 4,0.1c1.3,-0.6 2.2,-1.7 3.2,-2.7c2.3,-2.4 4.9,-4.6 7.8,-6.3c2.9,-1.6 6.3,-2.6 9.6,-2.3c0.2,0 0.4,0 0.6,-0.1c0.1,-0.1 0.2,-0.3 0.3,-0.5c0.8,-2.5 -0.1,-5.3 0.7,-7.7c0.5,-1.5 1.8,-2.9 1.9,-4.5c0,-0.5 0,-0.9 0.1,-1.4c0.1,-0.4 0.3,-0.7 0.5,-1c1.5,-2.5 3,-4.9 4.6,-7.4c0.1,-0.2 0.2,-0.4 0.5,-0.5c0.7,-0.3 0.9,1.3 1.7,1.5c0.7,0.2 1.2,-0.7 1.4,-1.5c0.3,-1.7 0.6,-3.5 0.8,-5.2c0,-0.3 0.1,-0.7 0,-1c-0.2,-0.4 -0.7,-0.6 -1.1,-0.7c-1.5,-0.7 -2.6,-2 -3.6,-3.2c-2.1,-2.7 -4.3,-5.4 -6.4,-8c-1.2,-1.5 -3.5,-2.2 -4.6,-3.9c-1.6,-2.6 -3.7,0.4 -5.2,1c-3.9,1.2 -7.3,3.6 -9.8,6.8z" class="st6"/>
   <path id="svg_134" fill="#EFEFEF" d="m54.2,70.2c-1.8,0.7 -2.4,2.9 -3.7,4.3c-1.1,1.3 -2.7,2 -4.2,2.9c-1.5,0.9 -2.9,2 -3.5,3.6c-0.2,0.6 -0.2,1.2 -0.3,1.8c-0.1,3 0.4,6.1 -0.3,9c-0.5,2.3 -1.6,4.4 -2.3,6.7c-0.4,1.4 -0.6,2.9 -0.9,4.4c-1.3,6.7 -4.2,13.4 -3.4,20.2c0,0.3 0.1,0.6 0.3,0.7c0.2,0.2 0.5,0.3 0.8,0.3c1,0.1 2,0.2 3,0.2c0.3,0 0.7,0 1,-0.3c0.3,-0.3 0.3,-0.8 0.3,-1.2c0,-1.1 0,-2.1 0,-3.3c0,-1.2 0,-2.3 0.6,-3.3c0.3,-0.5 0.7,-0.8 1,-1.3c1.1,-1.3 1.7,-2.8 2.3,-4.4c2.4,-7.2 2.2,-15 2.1,-22.6c0,-0.2 0,-0.5 0.1,-0.7c0.2,-0.2 0.6,-0.2 0.9,-0.1c1.6,0.5 2.3,2.4 3.7,3.4c0.8,0.6 1.8,0.9 2.7,1.5c0.8,0.5 1.4,1.3 2.1,1.9c2.2,1.9 5.1,2.6 7.9,3.3c0.3,0.1 0.7,0.2 1,0c0.6,-0.3 0.7,-1.1 0.7,-1.7c0.1,-1.1 0.7,-2.2 1.5,-3c0.7,-0.7 1.8,-1.4 1.7,-2.4c0,-1.6 -2.4,-1.9 -3.3,-3.1c-0.6,-0.7 -0.6,-1.8 -0.6,-2.7c0,-2.3 -2,-5.9 0.1,-7c0.1,0 0.2,0 -0.4,-1.7c-0.1,-0.5 -0.7,-0.6 -1.2,-0.8c-2,-1.2 -2.8,-3.5 -4.6,-4.8c-0.8,-1 -3.7,-0.3 -5.1,0.2z" class="st7"/>
   <path id="svg_135" fill="#EF9292" d="m86.3,95.3c0.4,0.4 0.7,0.7 1.2,0.9c0.5,0.2 1,0.2 1.4,0.2c2.6,0 5.2,-0.3 7.8,0c1.5,0.2 3,0.6 4.5,0.8c1.9,0.2 3.9,0 5.8,0.1c2,0 4,0.4 5.5,1.6c2.1,1.5 3,4.4 2.2,6.9c-0.1,0 -0.3,0 -0.4,0c-0.7,-1 -1.1,-2.3 -1.2,-3.5c-0.8,-0.4 -1.9,0 -2.8,0.3c-0.9,0.3 -2.1,0.4 -2.6,-0.3c-0.3,-0.5 -0.4,-1.2 -1,-1.3c-0.3,0 -0.6,0.1 -0.8,0.3c-3.1,1.9 -6.8,2.9 -10.5,2.8c4.2,1.4 8.7,1.9 13.1,1.5c1.4,-0.1 3.2,-0.2 4.1,0.9c-0.7,0 -1.4,0.1 -2.1,0.2c0.9,0.2 1.6,1 1.7,1.9c-2.1,0.7 -4.7,-1.3 -6.5,0c-0.4,0.3 -0.7,0.6 -1,0.8c-0.4,0.2 -0.8,0.2 -1.2,0.2c-0.7,0 -1.4,0 -2.1,0c-0.6,0 -1.1,0 -1.6,-0.1c-0.5,-0.1 -0.9,-0.4 -1.4,-0.7c-1.3,-0.6 -2.8,-0.7 -4.2,-0.9c-6.2,-0.6 -12.2,-1.7 -18.3,-2.8c-1.3,-0.2 -2.5,-0.5 -3.7,-0.7c-2.3,-0.6 -4.5,-1.4 -6.5,-2.5c-0.9,-0.5 -1.9,-1.2 -1.8,-2.2c0,-0.4 0.2,-0.8 0.5,-1.2c1.4,-2.5 2.8,-5 4.2,-7.5c0.2,-0.4 0.4,-0.7 0.8,-0.9c0.5,-0.2 1.1,0.1 1.4,0.6c0.3,0.5 0.4,1 0.5,1.5c0.3,0.2 0.6,-0.3 0.7,-0.7c0.4,-2.1 0.7,-4.1 1.1,-6.2c0.8,0 1.9,1.2 2.7,1.7c1.3,0.8 2.6,1.6 3.9,2.5c2.1,1.7 4.5,3.7 6.6,5.8z" class="st8"/>
   <path id="svg_136" fill="#D65B56" d="m82,95.7c1.6,1.3 3.2,2.8 5.1,3.4c1.8,0.6 3.7,0.4 5.6,0.5c2.2,0.1 4.4,0.8 6.6,1.2s4.5,0.4 6.5,-0.7c0.6,-0.3 1.2,-0.7 1.9,-0.7c0.6,0 1.1,0.4 1.5,0.7c0.5,0.4 1,0.7 1.5,1.1c0.4,0.3 0.8,0.9 0.5,1.3c-0.1,0.1 -0.4,0.2 -0.6,0.2c-1.2,0.2 -2.6,0.3 -3.5,-0.6c-0.1,-0.2 -0.3,-0.4 -0.5,-0.6c-0.6,-0.4 -1.3,-0.2 -2,0.1c-2.7,1.2 -5.4,2.8 -8.4,2.8c-1,0 -2.1,-0.1 -2.8,-0.8c-0.3,-0.3 -0.5,-0.7 -0.8,-1c-0.6,-0.6 -1.3,-0.8 -2.1,-1.1c-1.7,-0.5 -3.5,-0.8 -5,-1.9c-0.8,-0.5 -1.5,-1.3 -2.3,-1.8c-1.5,-1 -3.4,-1.2 -5.1,-1.7c-1.8,-0.5 -3.5,-1.4 -5.1,-2.5c-0.6,-0.4 -2,-1.6 -1.2,-2.3c0.7,-0.7 2.5,0.2 3.2,0.4c2.7,1.1 5,2.4 7,4z" class="st9"/>
   <path id="svg_137" fill="#D65B56" d="m67.7,99.5c4,2.1 8.9,1.6 13.3,2.8c1.7,0.5 3.3,1.2 5,1.7c3.7,1.1 7.7,0.8 11.3,2.2c1.1,0.4 2.1,0.9 3.2,1.3c1.7,0.6 3.5,0.8 5.4,1c-0.6,1.2 -2.1,1.4 -3.4,1.5c-1.2,0.1 -2.6,0.1 -3.6,-0.6c-0.4,-0.3 -0.7,-0.6 -1.2,-0.8c-0.7,-0.4 -1.4,-0.4 -2.1,-0.5c-4.6,-0.4 -9.2,-1.2 -13.8,-2c-5.5,-1 -11.1,-2 -16.3,-4c-0.6,-0.2 -1.2,-0.5 -1.6,-0.9c-0.5,-0.5 -0.7,-1.1 -0.5,-1.7c0.2,-0.6 1,-0.8 1.5,-0.6c0,-0.1 0,-0.3 0,-0.5c1.1,0 1.9,0.7 2.8,1.1z" class="st9"/>
  </g>
  <g id="emoji_face_2_">
   <g id="svg_138">
    <g id="svg_139">
     <path fill="#EF9292" d="m56.6,68.1c-0.1,0.1 -0.3,0.3 -0.2,0.5c0,0 0,0.1 0.1,0.1c0.5,0.5 1.1,1.1 1.6,1.6c0.2,0.2 0.3,0.3 0.5,0.5c0.2,0.1 0.5,0.3 0.7,0.4c0.5,0.3 0.8,0.7 1.2,1.1c0.2,0.3 0.5,0.7 0.7,0.9c0.3,0.2 0,0.4 0.4,0.3c0.6,-0.2 1.2,-1.2 1.6,-1.4c0.2,-0.1 0.1,-0.6 0,-0.8c-0.2,-0.3 -0.7,-0.4 -1,-0.6c-0.2,-0.1 -0.3,-0.3 -0.5,-0.5c-0.6,-0.6 -1.5,-0.8 -2,-1.4c-0.5,-0.6 -0.4,-1.6 -0.9,-2.1c-0.4,-0.4 -0.5,-0.1 -1,0.3c-0.4,0.4 -0.8,0.7 -1.2,1.1z" class="st8" id="SVGID_4_"/>
    </g>
    <g id="svg_140">
     <g id="svg_141">
      <defs transform="translate(-8 -11) translate(3 0) translate(-28 -29) translate(-6 57)">
       <path d="m95.6,51.1c-0.1,0.1 -0.3,0.3 -0.2,0.5c0,0 0,0.1 0.1,0.1c0.5,0.5 1.1,1.1 1.6,1.6c0.2,0.2 0.3,0.3 0.5,0.5c0.2,0.1 0.5,0.3 0.7,0.4c0.5,0.3 0.8,0.7 1.2,1.1c0.2,0.3 0.5,0.7 0.7,0.9c0.3,0.2 0,0.4 0.4,0.3c0.6,-0.2 1.2,-1.2 1.6,-1.4c0.2,-0.1 0.1,-0.6 0,-0.8c-0.2,-0.3 -0.7,-0.4 -1,-0.6c-0.2,-0.1 -0.3,-0.3 -0.5,-0.5c-0.6,-0.6 -1.5,-0.8 -2,-1.4c-0.5,-0.6 -0.4,-1.6 -0.9,-2.1c-0.4,-0.4 -0.5,-0.1 -1,0.3c-0.4,0.4 -0.8,0.7 -1.2,1.1z" id="SVGID_1_"/>
      </defs>
      <clipPath transform="translate(-8 -11) translate(3 0) translate(-28 -29) translate(-6 57)" id="SVGID_3_">
       <use x="-39" y="17" id="svg_142" xlink:href="#SVGID_1_"/>
      </clipPath>
      <path id="svg_143" fill="#C48686" clip-path="url(#SVGID_3_)" d="m59.5,67.6c-0.1,0 -0.3,0 -0.5,0c0.2,-0.7 -0.9,-1.5 -1.6,-0.9c0,0 -0.1,0.1 -0.2,0.1c-0.6,-0.3 -1.4,0 -1.5,0.8c-0.1,1.1 0.7,2.1 1.7,2.3c1.1,0.3 2.5,0 2.9,-1.2c0.3,-0.6 -0.3,-1.1 -0.8,-1.1z" class="st30"/>
     </g>
    </g>
    <g id="svg_144">
     <g id="svg_145">
      <defs transform="translate(-8 -11) translate(3 0) translate(-28 -29) translate(-6 57)">
       <path d="m95.6,51.1c-0.1,0.1 -0.3,0.3 -0.2,0.5c0,0 0,0.1 0.1,0.1c0.5,0.5 1.1,1.1 1.6,1.6c0.2,0.2 0.3,0.3 0.5,0.5c0.2,0.1 0.5,0.3 0.7,0.4c0.5,0.3 0.8,0.7 1.2,1.1c0.2,0.3 0.5,0.7 0.7,0.9c0.3,0.2 0,0.4 0.4,0.3c0.6,-0.2 1.2,-1.2 1.6,-1.4c0.2,-0.1 0.1,-0.6 0,-0.8c-0.2,-0.3 -0.7,-0.4 -1,-0.6c-0.2,-0.1 -0.3,-0.3 -0.5,-0.5c-0.6,-0.6 -1.5,-0.8 -2,-1.4c-0.5,-0.6 -0.4,-1.6 -0.9,-2.1c-0.4,-0.4 -0.5,-0.1 -1,0.3c-0.4,0.4 -0.8,0.7 -1.2,1.1z" id="SVGID_5_"/>
      </defs>
      <clipPath transform="translate(-8 -11) translate(3 0) translate(-28 -29) translate(-6 57)" id="SVGID_6_">
       <use x="-39" y="17" id="svg_146" xlink:href="#SVGID_5_"/>
      </clipPath>
      <path id="svg_147" fill="#996464" clip-path="url(#SVGID_6_)" d="m58,66.6c-0.9,0 -1.8,0.7 -1.8,1.7c0,0.3 0.3,0.6 0.6,0.6c1.1,-0.1 2,-0.8 2.3,-1.9c0.2,-0.7 -0.8,-1 -1.1,-0.4z" class="st31"/>
     </g>
    </g>
   </g>
   <path id="svg_148" fill="#3F3228" d="m56.3,53.6c0.5,-0.6 1.5,-0.6 1.9,0c0.4,0.6 0.3,1.4 0.3,2.1c0,0.7 -0.2,1.5 0,2.1c0.7,-0.4 0.7,-1.4 1.1,-2.2c0.7,-1.6 3.1,-2.2 3.3,-3.9c0,-0.3 0,-0.6 0.1,-0.9c0.3,-0.7 1.4,0.1 2,0.4c0.9,0.4 1.7,0.7 2.7,1.2c0.4,-0.7 0.5,-2 0,-2.6c0,1.1 0.7,2.4 1.6,3c1.5,1 3.2,1.7 4.9,1.9c0.7,0.1 1.7,-0.2 2.3,0.1c1.2,0.7 0.9,2 0.7,3.4c-0.2,-1.1 1,-1.6 1.5,-2.6c0.3,-0.7 0.4,-1.4 0.4,-2.1c0.1,-1.9 -0.9,-3.9 -1,-5.8c0.4,-0.4 -0.2,-1.1 -0.8,-1.4s-1.2,-0.3 -1.6,-0.7c-0.8,-0.6 -0.8,-1.9 -1.6,-2.5c-0.3,-0.3 -0.7,-0.4 -1.1,-0.5c-2.1,-0.5 -4.2,-0.9 -6.3,-1c-0.5,0 -1.1,0 -1.5,0.2c-0.3,0.2 -0.6,0.5 -0.9,0.7c-1.6,1.4 -4.2,1.1 -5.6,2.6c-0.5,0.5 -0.8,1.2 -1.1,1.9c-0.7,2.2 -1,4.3 -1.3,6.6z" class="st12"/>
   <g id="svg_149">
    <g id="svg_150">
     <path fill="#EDB0A9" d="m58.6,55.1c-0.2,-0.4 -0.5,-0.8 -0.8,-1.1c-0.4,-0.3 -0.9,-0.5 -1.3,-0.3c-0.7,0.3 -0.8,1.2 -0.7,2c0,1 0,2 0,2.9c0,0.4 0,0.8 0.2,1.1c0.4,0.6 1.2,0.7 1.7,1.1c0.5,0.4 0.6,1.1 0.7,1.7c0.1,1.1 0.2,2.2 0.1,3.4c0,0.6 0.8,1.9 1.1,2.4c0.5,1.3 1.9,1.8 2.1,1.9c1.8,1.2 2.3,2.9 4.2,3.2c0.5,0.1 1.1,0.1 1.5,-0.1c0.2,-0.1 0.4,-0.3 0.7,-0.4c1.1,-0.8 2,-1.9 2.8,-2.9c0.3,-0.4 0.6,-0.7 0.9,-1.1c1.1,-1.2 2.1,-2.5 2.8,-3.9c0.7,-1.4 1.1,-2.8 1.4,-4.2c0.4,-1.5 0.7,-3.1 0.8,-4.7c0,-0.2 0,-0.4 0,-0.6c-0.2,-0.4 -0.7,-0.5 -1.1,-0.5c-2.1,-0.2 -4.2,-1 -5.9,-2.4c-0.5,-0.4 -1.1,-0.9 -1.7,-0.7c-0.3,0 -0.5,0.2 -0.8,0.3c-0.8,0.1 -1.4,-0.7 -2.2,-1.1c-0.7,-0.3 -1.4,-0.2 -2.2,-0.1c0.1,0.7 -0.1,1.6 -0.7,2.1c-0.7,0.9 -2,1.3 -2.6,2.3c-0.5,0.9 -0.4,2.2 -1.3,2.8c0,-1.1 0.2,-2.1 0.3,-3.1z" class="st13" id="SVGID_2_"/>
    </g>
    <g id="svg_151">
     <g id="svg_152">
      <defs transform="translate(-8 -11) translate(3 0) translate(-28 -29) translate(-6 57)">
       <path d="m97.6,38.1c-0.2,-0.4 -0.5,-0.8 -0.8,-1.1c-0.4,-0.3 -0.9,-0.5 -1.3,-0.3c-0.7,0.3 -0.8,1.2 -0.7,2c0,1 0,2 0,2.9c0,0.4 0,0.8 0.2,1.1c0.4,0.6 1.2,0.7 1.7,1.1c0.5,0.4 0.6,1.1 0.7,1.7c0.1,1.1 0.2,2.2 0.1,3.4c0,0.6 0.8,1.9 1.1,2.4c0.5,1.3 1.9,1.8 2.1,1.9c1.8,1.2 2.3,2.9 4.2,3.2c0.5,0.1 1.1,0.1 1.5,-0.1c0.2,-0.1 0.4,-0.3 0.7,-0.4c1.1,-0.8 2,-1.9 2.8,-2.9c0.3,-0.4 0.6,-0.7 0.9,-1.1c1.1,-1.2 2.1,-2.5 2.8,-3.9c0.7,-1.4 1.1,-2.8 1.4,-4.2c0.4,-1.5 0.7,-3.1 0.8,-4.7c0,-0.2 0,-0.4 0,-0.6c-0.2,-0.4 -0.7,-0.5 -1.1,-0.5c-2.1,-0.2 -4.2,-1 -5.9,-2.4c-0.5,-0.4 -1.1,-0.9 -1.7,-0.7c-0.3,0 -0.5,0.2 -0.8,0.3c-0.8,0.1 -1.4,-0.7 -2.2,-1.1c-0.7,-0.3 -1.4,-0.2 -2.2,-0.1c0.1,0.7 -0.1,1.6 -0.7,2.1c-0.7,0.9 -2,1.3 -2.6,2.3c-0.5,0.9 -0.4,2.2 -1.3,2.8c0,-1.1 0.2,-2.1 0.3,-3.1z" id="SVGID_7_"/>
      </defs>
      <clipPath transform="translate(-8 -11) translate(3 0) translate(-28 -29) translate(-6 57)" id="SVGID_8_">
       <use x="-39" y="17" id="svg_153" xlink:href="#SVGID_7_"/>
      </clipPath>
      <path id="svg_154" fill="#DB9C97" clip-path="url(#SVGID_8_)" d="m61.1,69.2c-1.1,-2.3 -0.4,-5 -0.2,-7.6c0.1,-1.5 -3.3,-1.3 -3.4,0.2c-0.2,3 0.4,5.8 1.7,8.5c0.5,1.4 2.5,0.2 1.9,-1.1z" class="st32"/>
     </g>
    </g>
    <g id="svg_155">
     <g id="svg_156">
      <defs transform="translate(-8 -11) translate(3 0) translate(-28 -29) translate(-6 57)">
       <path d="m97.6,38.1c-0.2,-0.4 -0.5,-0.8 -0.8,-1.1c-0.4,-0.3 -0.9,-0.5 -1.3,-0.3c-0.7,0.3 -0.8,1.2 -0.7,2c0,1 0,2 0,2.9c0,0.4 0,0.8 0.2,1.1c0.4,0.6 1.2,0.7 1.7,1.1c0.5,0.4 0.6,1.1 0.7,1.7c0.1,1.1 0.2,2.2 0.1,3.4c0,0.6 0.8,1.9 1.1,2.4c0.5,1.3 1.9,1.8 2.1,1.9c1.8,1.2 2.3,2.9 4.2,3.2c0.5,0.1 1.1,0.1 1.5,-0.1c0.2,-0.1 0.4,-0.3 0.7,-0.4c1.1,-0.8 2,-1.9 2.8,-2.9c0.3,-0.4 0.6,-0.7 0.9,-1.1c1.1,-1.2 2.1,-2.5 2.8,-3.9c0.7,-1.4 1.1,-2.8 1.4,-4.2c0.4,-1.5 0.7,-3.1 0.8,-4.7c0,-0.2 0,-0.4 0,-0.6c-0.2,-0.4 -0.7,-0.5 -1.1,-0.5c-2.1,-0.2 -4.2,-1 -5.9,-2.4c-0.5,-0.4 -1.1,-0.9 -1.7,-0.7c-0.3,0 -0.5,0.2 -0.8,0.3c-0.8,0.1 -1.4,-0.7 -2.2,-1.1c-0.7,-0.3 -1.4,-0.2 -2.2,-0.1c0.1,0.7 -0.1,1.6 -0.7,2.1c-0.7,0.9 -2,1.3 -2.6,2.3c-0.5,0.9 -0.4,2.2 -1.3,2.8c0,-1.1 0.2,-2.1 0.3,-3.1z" id="SVGID_9_"/>
      </defs>
      <clipPath transform="translate(-8 -11) translate(3 0) translate(-28 -29) translate(-6 57)" id="SVGID_10_">
       <use x="-39" y="17" id="svg_157" xlink:href="#SVGID_9_"/>
      </clipPath>
      <path id="svg_158" fill="#DB9C97" clip-path="url(#SVGID_10_)" d="m59.3,55.5c0.1,-0.7 -1.1,-0.7 -1.2,0c-0.1,1 -1,1.7 -1.1,2.8c0,0.7 0.3,1.5 1,1.8c0.6,0.2 1,-0.4 0.8,-0.7c0.2,-0.2 0.2,-0.4 0.2,-0.5l0,-0.3c0,-0.1 0,-0.2 -0.1,-0.3c0,-0.1 -0.1,-0.3 -0.3,-0.4l-0.2,-0.2c0.1,-0.3 0.3,-0.5 0.4,-0.7c0.2,-0.5 0.4,-1 0.5,-1.5z" class="st33"/>
     </g>
    </g>
    <g id="svg_159">
     <g id="svg_160">
      <defs transform="translate(-8 -11) translate(3 0) translate(-28 -29) translate(-6 57)">
       <path d="m97.6,38.1c-0.2,-0.4 -0.5,-0.8 -0.8,-1.1c-0.4,-0.3 -0.9,-0.5 -1.3,-0.3c-0.7,0.3 -0.8,1.2 -0.7,2c0,1 0,2 0,2.9c0,0.4 0,0.8 0.2,1.1c0.4,0.6 1.2,0.7 1.7,1.1c0.5,0.4 0.6,1.1 0.7,1.7c0.1,1.1 0.2,2.2 0.1,3.4c0,0.6 0.8,1.9 1.1,2.4c0.5,1.3 1.9,1.8 2.1,1.9c1.8,1.2 2.3,2.9 4.2,3.2c0.5,0.1 1.1,0.1 1.5,-0.1c0.2,-0.1 0.4,-0.3 0.7,-0.4c1.1,-0.8 2,-1.9 2.8,-2.9c0.3,-0.4 0.6,-0.7 0.9,-1.1c1.1,-1.2 2.1,-2.5 2.8,-3.9c0.7,-1.4 1.1,-2.8 1.4,-4.2c0.4,-1.5 0.7,-3.1 0.8,-4.7c0,-0.2 0,-0.4 0,-0.6c-0.2,-0.4 -0.7,-0.5 -1.1,-0.5c-2.1,-0.2 -4.2,-1 -5.9,-2.4c-0.5,-0.4 -1.1,-0.9 -1.7,-0.7c-0.3,0 -0.5,0.2 -0.8,0.3c-0.8,0.1 -1.4,-0.7 -2.2,-1.1c-0.7,-0.3 -1.4,-0.2 -2.2,-0.1c0.1,0.7 -0.1,1.6 -0.7,2.1c-0.7,0.9 -2,1.3 -2.6,2.3c-0.5,0.9 -0.4,2.2 -1.3,2.8c0,-1.1 0.2,-2.1 0.3,-3.1z" id="SVGID_11_"/>
      </defs>
      <clipPath transform="translate(-8 -11) translate(3 0) translate(-28 -29) translate(-6 57)" id="SVGID_12_">
       <use x="-39" y="17" id="svg_161" xlink:href="#SVGID_11_"/>
      </clipPath>
      <path id="svg_162" fill="#EAAEAC" clip-path="url(#SVGID_12_)" d="m68.3,70c-0.5,0 -1,-0.2 -1.4,-0.5c-0.4,-0.4 -1,0 -1,0.4c-0.2,0 -0.4,0.2 -0.5,0.4c-0.1,0.3 0.1,0.7 0.4,0.7c0.7,0.1 1.4,0.1 2.1,0.1l0,0c0.1,0 0.1,0 0.2,0c1,0.1 1,-1 0.2,-1.1z" class="st34"/>
     </g>
    </g>
    <g id="svg_163">
     <g id="svg_164">
      <defs transform="translate(-8 -11) translate(3 0) translate(-28 -29) translate(-6 57)">
       <path d="m97.6,38.1c-0.2,-0.4 -0.5,-0.8 -0.8,-1.1c-0.4,-0.3 -0.9,-0.5 -1.3,-0.3c-0.7,0.3 -0.8,1.2 -0.7,2c0,1 0,2 0,2.9c0,0.4 0,0.8 0.2,1.1c0.4,0.6 1.2,0.7 1.7,1.1c0.5,0.4 0.6,1.1 0.7,1.7c0.1,1.1 0.2,2.2 0.1,3.4c0,0.6 0.8,1.9 1.1,2.4c0.5,1.3 1.9,1.8 2.1,1.9c1.8,1.2 2.3,2.9 4.2,3.2c0.5,0.1 1.1,0.1 1.5,-0.1c0.2,-0.1 0.4,-0.3 0.7,-0.4c1.1,-0.8 2,-1.9 2.8,-2.9c0.3,-0.4 0.6,-0.7 0.9,-1.1c1.1,-1.2 2.1,-2.5 2.8,-3.9c0.7,-1.4 1.1,-2.8 1.4,-4.2c0.4,-1.5 0.7,-3.1 0.8,-4.7c0,-0.2 0,-0.4 0,-0.6c-0.2,-0.4 -0.7,-0.5 -1.1,-0.5c-2.1,-0.2 -4.2,-1 -5.9,-2.4c-0.5,-0.4 -1.1,-0.9 -1.7,-0.7c-0.3,0 -0.5,0.2 -0.8,0.3c-0.8,0.1 -1.4,-0.7 -2.2,-1.1c-0.7,-0.3 -1.4,-0.2 -2.2,-0.1c0.1,0.7 -0.1,1.6 -0.7,2.1c-0.7,0.9 -2,1.3 -2.6,2.3c-0.5,0.9 -0.4,2.2 -1.3,2.8c0,-1.1 0.2,-2.1 0.3,-3.1z" id="SVGID_13_"/>
      </defs>
      <clipPath transform="translate(-8 -11) translate(3 0) translate(-28 -29) translate(-6 57)" id="SVGID_14_">
       <use x="-39" y="17" id="svg_165" xlink:href="#SVGID_13_"/>
      </clipPath>
      <g id="svg_166" clip-path="url(#SVGID_14_)" class="st35">
       <path id="svg_167" enable-background="new" fill="#FFFFFF" opacity="0.49" d="m66.7,60.1c-0.7,0 -1.4,-0.2 -2,-0.5c-0.3,-0.1 -0.6,-0.2 -0.8,-0.4c-0.3,-0.2 -0.3,-0.3 -0.6,0l0,0.3c1,0.7 2.1,1.1 3.4,1.2c0,0 0,0 0,-0.1c0,0 0,0 0,0.1c0,-0.1 0,-0.2 0,-0.3c0,0 0,-0.3 0,-0.3z" class="st16"/>
      </g>
     </g>
    </g>
    <g id="svg_168">
     <g id="svg_169">
      <defs transform="translate(-8 -11) translate(3 0) translate(-28 -29) translate(-6 57)">
       <path d="m97.6,38.1c-0.2,-0.4 -0.5,-0.8 -0.8,-1.1c-0.4,-0.3 -0.9,-0.5 -1.3,-0.3c-0.7,0.3 -0.8,1.2 -0.7,2c0,1 0,2 0,2.9c0,0.4 0,0.8 0.2,1.1c0.4,0.6 1.2,0.7 1.7,1.1c0.5,0.4 0.6,1.1 0.7,1.7c0.1,1.1 0.2,2.2 0.1,3.4c0,0.6 0.8,1.9 1.1,2.4c0.5,1.3 1.9,1.8 2.1,1.9c1.8,1.2 2.3,2.9 4.2,3.2c0.5,0.1 1.1,0.1 1.5,-0.1c0.2,-0.1 0.4,-0.3 0.7,-0.4c1.1,-0.8 2,-1.9 2.8,-2.9c0.3,-0.4 0.6,-0.7 0.9,-1.1c1.1,-1.2 2.1,-2.5 2.8,-3.9c0.7,-1.4 1.1,-2.8 1.4,-4.2c0.4,-1.5 0.7,-3.1 0.8,-4.7c0,-0.2 0,-0.4 0,-0.6c-0.2,-0.4 -0.7,-0.5 -1.1,-0.5c-2.1,-0.2 -4.2,-1 -5.9,-2.4c-0.5,-0.4 -1.1,-0.9 -1.7,-0.7c-0.3,0 -0.5,0.2 -0.8,0.3c-0.8,0.1 -1.4,-0.7 -2.2,-1.1c-0.7,-0.3 -1.4,-0.2 -2.2,-0.1c0.1,0.7 -0.1,1.6 -0.7,2.1c-0.7,0.9 -2,1.3 -2.6,2.3c-0.5,0.9 -0.4,2.2 -1.3,2.8c0,-1.1 0.2,-2.1 0.3,-3.1z" id="SVGID_15_"/>
      </defs>
      <clipPath transform="translate(-8 -11) translate(3 0) translate(-28 -29) translate(-6 57)" id="SVGID_16_">
       <use x="-39" y="17" id="svg_170" xlink:href="#SVGID_15_"/>
      </clipPath>
      <g id="svg_171" clip-path="url(#SVGID_16_)" class="st36">
       <g id="svg_172" opacity="0.49" class="st37">
        <path id="svg_173" fill="#FFFFFF" d="m76.1,63.9c-0.8,-0.2 -1.6,-0.4 -2.3,-0.8c-0.3,-0.2 -0.6,-0.4 -0.8,-0.7c-0.2,-0.3 -0.2,-0.6 -0.6,-0.4l0,0.3c0.7,1.3 2.2,1.8 3.6,2.1c0,0 0,0 0,-0.1c0,0 0,0.1 0,0.1c0,-0.1 0,-0.2 0,-0.3c0.1,0 0.1,-0.2 0.1,-0.2zm-0.1,0.2c-1.3,-0.3 -2.7,-0.7 -3.5,-1.9c0.2,0 0.2,0.2 0.4,0.4c0.2,0.3 0.5,0.5 0.8,0.7c0.8,0.5 1.5,0.6 2.3,0.8l0,0z" class="st17"/>
       </g>
      </g>
     </g>
    </g>
    <g id="svg_174">
     <g id="svg_175">
      <defs transform="translate(-8 -11) translate(3 0) translate(-28 -29) translate(-6 57)">
       <path d="m97.6,38.1c-0.2,-0.4 -0.5,-0.8 -0.8,-1.1c-0.4,-0.3 -0.9,-0.5 -1.3,-0.3c-0.7,0.3 -0.8,1.2 -0.7,2c0,1 0,2 0,2.9c0,0.4 0,0.8 0.2,1.1c0.4,0.6 1.2,0.7 1.7,1.1c0.5,0.4 0.6,1.1 0.7,1.7c0.1,1.1 0.2,2.2 0.1,3.4c0,0.6 0.8,1.9 1.1,2.4c0.5,1.3 1.9,1.8 2.1,1.9c1.8,1.2 2.3,2.9 4.2,3.2c0.5,0.1 1.1,0.1 1.5,-0.1c0.2,-0.1 0.4,-0.3 0.7,-0.4c1.1,-0.8 2,-1.9 2.8,-2.9c0.3,-0.4 0.6,-0.7 0.9,-1.1c1.1,-1.2 2.1,-2.5 2.8,-3.9c0.7,-1.4 1.1,-2.8 1.4,-4.2c0.4,-1.5 0.7,-3.1 0.8,-4.7c0,-0.2 0,-0.4 0,-0.6c-0.2,-0.4 -0.7,-0.5 -1.1,-0.5c-2.1,-0.2 -4.2,-1 -5.9,-2.4c-0.5,-0.4 -1.1,-0.9 -1.7,-0.7c-0.3,0 -0.5,0.2 -0.8,0.3c-0.8,0.1 -1.4,-0.7 -2.2,-1.1c-0.7,-0.3 -1.4,-0.2 -2.2,-0.1c0.1,0.7 -0.1,1.6 -0.7,2.1c-0.7,0.9 -2,1.3 -2.6,2.3c-0.5,0.9 -0.4,2.2 -1.3,2.8c0,-1.1 0.2,-2.1 0.3,-3.1z" id="SVGID_17_"/>
      </defs>
      <clipPath transform="translate(-8 -11) translate(3 0) translate(-28 -29) translate(-6 57)" id="SVGID_18_">
       <use x="-39" y="17" id="svg_176" xlink:href="#SVGID_17_"/>
      </clipPath>
      <path id="svg_177" fill="#B75E5E" clip-path="url(#SVGID_18_)" d="m70.3,51c-0.9,0.2 -0.8,1.3 -0.2,1.7c-0.8,-0.6 -1.7,-1.1 -2.6,-1.5c0.2,-0.2 0.5,-0.4 0.7,-0.6c0.9,-0.8 -0.4,-2.1 -1.4,-1.4c-0.5,0.4 -0.9,0.8 -1.4,1.1c-1,-0.3 -2,-0.4 -3,-0.4c-1.2,0 -1.2,1.9 0,1.9c0.1,0 0.1,0 0.2,0c-1.4,0.6 -2.9,1 -4.5,1.1c-1.2,0.1 -1.2,2.1 0,1.9c2.8,-0.3 5.3,-1.1 7.6,-2.5c0.7,0.3 1.4,0.6 2.1,1c0.8,0.5 1.7,1.1 2.7,0.8c0.8,-0.2 1.3,-0.7 1.4,-1.4c0.4,0.2 0.6,0.6 0.6,1.1c0,1.2 1.9,1.2 1.9,0c-0.1,-1.9 -2.1,-3.4 -4.1,-2.8z" class="st38"/>
     </g>
    </g>
    <g id="svg_178">
     <g id="svg_179">
      <defs transform="translate(-8 -11) translate(3 0) translate(-28 -29) translate(-6 57)">
       <path d="m97.6,38.1c-0.2,-0.4 -0.5,-0.8 -0.8,-1.1c-0.4,-0.3 -0.9,-0.5 -1.3,-0.3c-0.7,0.3 -0.8,1.2 -0.7,2c0,1 0,2 0,2.9c0,0.4 0,0.8 0.2,1.1c0.4,0.6 1.2,0.7 1.7,1.1c0.5,0.4 0.6,1.1 0.7,1.7c0.1,1.1 0.2,2.2 0.1,3.4c0,0.6 0.8,1.9 1.1,2.4c0.5,1.3 1.9,1.8 2.1,1.9c1.8,1.2 2.3,2.9 4.2,3.2c0.5,0.1 1.1,0.1 1.5,-0.1c0.2,-0.1 0.4,-0.3 0.7,-0.4c1.1,-0.8 2,-1.9 2.8,-2.9c0.3,-0.4 0.6,-0.7 0.9,-1.1c1.1,-1.2 2.1,-2.5 2.8,-3.9c0.7,-1.4 1.1,-2.8 1.4,-4.2c0.4,-1.5 0.7,-3.1 0.8,-4.7c0,-0.2 0,-0.4 0,-0.6c-0.2,-0.4 -0.7,-0.5 -1.1,-0.5c-2.1,-0.2 -4.2,-1 -5.9,-2.4c-0.5,-0.4 -1.1,-0.9 -1.7,-0.7c-0.3,0 -0.5,0.2 -0.8,0.3c-0.8,0.1 -1.4,-0.7 -2.2,-1.1c-0.7,-0.3 -1.4,-0.2 -2.2,-0.1c0.1,0.7 -0.1,1.6 -0.7,2.1c-0.7,0.9 -2,1.3 -2.6,2.3c-0.5,0.9 -0.4,2.2 -1.3,2.8c0,-1.1 0.2,-2.1 0.3,-3.1z" id="SVGID_19_"/>
      </defs>
      <clipPath transform="translate(-8 -11) translate(3 0) translate(-28 -29) translate(-6 57)" id="SVGID_20_">
       <use x="-39" y="17" id="svg_180" xlink:href="#SVGID_19_"/>
      </clipPath>
      <path id="svg_181" fill="#B75E5E" clip-path="url(#SVGID_20_)" d="m68.9,71.5c-2.3,0.3 -3.9,0.1 -5.6,-1.5c-0.1,-0.1 -0.2,-0.2 -0.3,-0.2c-0.3,-0.5 -0.7,-0.9 -1.2,-1.2c0,0 -0.1,-0.1 -0.2,-0.1c-0.1,-0.1 -0.2,-0.3 -0.5,-0.3c0,0 0,0 0,0c-1.6,-0.7 -3.1,-1.1 -3.2,-3.4c0,-0.7 -1.2,-0.7 -1.2,0c0,1 0.3,1.9 1,2.7c0.7,0.7 1.4,1 2.2,1.4c0,0.1 0.1,0.1 0.2,0.2c0.2,0 0.3,0.1 0.5,0.2c0,0.1 0,0.3 0,0.4s0.1,0.3 0.2,0.4c-0.5,0.4 0,1.2 0.7,0.9c0,0 0.1,0 0.1,0c0.9,2 2.2,3.6 3.9,4.9c0.4,0.3 0.9,-0.1 0.8,-0.6c0.6,0.2 1.3,0.4 1.9,0.6c0.7,0.2 1,-0.9 0.3,-1.1c-1.4,-0.4 -2.6,-0.7 -3.5,-1.6c0.1,0 0.3,-0.1 0.5,-0.2c0.1,-0.1 0.2,-0.2 0.3,-0.3c1.1,0.1 2.2,0 3.3,-0.2c0.9,0 0.5,-1.1 -0.2,-1z" class="st39"/>
     </g>
    </g>
    <g id="svg_182">
     <g id="svg_183">
      <defs transform="translate(-8 -11) translate(3 0) translate(-28 -29) translate(-6 57)">
       <path d="m97.6,38.1c-0.2,-0.4 -0.5,-0.8 -0.8,-1.1c-0.4,-0.3 -0.9,-0.5 -1.3,-0.3c-0.7,0.3 -0.8,1.2 -0.7,2c0,1 0,2 0,2.9c0,0.4 0,0.8 0.2,1.1c0.4,0.6 1.2,0.7 1.7,1.1c0.5,0.4 0.6,1.1 0.7,1.7c0.1,1.1 0.2,2.2 0.1,3.4c0,0.6 0.8,1.9 1.1,2.4c0.5,1.3 1.9,1.8 2.1,1.9c1.8,1.2 2.3,2.9 4.2,3.2c0.5,0.1 1.1,0.1 1.5,-0.1c0.2,-0.1 0.4,-0.3 0.7,-0.4c1.1,-0.8 2,-1.9 2.8,-2.9c0.3,-0.4 0.6,-0.7 0.9,-1.1c1.1,-1.2 2.1,-2.5 2.8,-3.9c0.7,-1.4 1.1,-2.8 1.4,-4.2c0.4,-1.5 0.7,-3.1 0.8,-4.7c0,-0.2 0,-0.4 0,-0.6c-0.2,-0.4 -0.7,-0.5 -1.1,-0.5c-2.1,-0.2 -4.2,-1 -5.9,-2.4c-0.5,-0.4 -1.1,-0.9 -1.7,-0.7c-0.3,0 -0.5,0.2 -0.8,0.3c-0.8,0.1 -1.4,-0.7 -2.2,-1.1c-0.7,-0.3 -1.4,-0.2 -2.2,-0.1c0.1,0.7 -0.1,1.6 -0.7,2.1c-0.7,0.9 -2,1.3 -2.6,2.3c-0.5,0.9 -0.4,2.2 -1.3,2.8c0,-1.1 0.2,-2.1 0.3,-3.1z" id="SVGID_21_"/>
      </defs>
      <clipPath transform="translate(-8 -11) translate(3 0) translate(-28 -29) translate(-6 57)" id="SVGID_22_">
       <use x="-39" y="17" id="svg_184" xlink:href="#SVGID_21_"/>
      </clipPath>
      <path id="svg_185" fill="#EAAEAC" clip-path="url(#SVGID_22_)" d="m70.1,60.7c-0.6,1.3 -1.1,3.6 -2.5,3.3c-0.6,-0.1 -0.4,-0.6 0.8,0.8c2.3,2.7 4.3,-1.4 2.8,-3.8c-0.4,-0.6 -0.9,-1 -1.1,-0.3z" class="st40"/>
     </g>
    </g>
    <g id="svg_186">
     <path id="svg_187" stroke-miterlimit="10" stroke-width="0.4666" stroke="#B75E5E" fill="none" d="m58.6,55.1c-0.2,-0.4 -0.5,-0.8 -0.8,-1.1c-0.4,-0.3 -0.9,-0.5 -1.3,-0.3c-0.7,0.3 -0.8,1.2 -0.7,2c0,1 0,2 0,2.9c0,0.4 0,0.8 0.2,1.1c0.4,0.6 1.2,0.7 1.7,1.1c0.5,0.4 0.6,1.1 0.7,1.7c0.1,1.1 0.2,2.2 0.1,3.4c0,0.6 0.8,1.9 1.1,2.4c0.5,1.3 1.9,1.8 2.1,1.9c1.8,1.2 2.3,2.9 4.2,3.2c0.5,0.1 1.1,0.1 1.5,-0.1c0.2,-0.1 0.4,-0.3 0.7,-0.4c1.1,-0.8 2,-1.9 2.8,-2.9c0.3,-0.4 0.6,-0.7 0.9,-1.1c1.1,-1.2 2.1,-2.5 2.8,-3.9c0.7,-1.4 1.1,-2.8 1.4,-4.2c0.4,-1.5 0.7,-3.1 0.8,-4.7c0,-0.2 0,-0.4 0,-0.6c-0.2,-0.4 -0.7,-0.5 -1.1,-0.5c-2.1,-0.2 -4.2,-1 -5.9,-2.4c-0.5,-0.4 -1.1,-0.9 -1.7,-0.7c-0.3,0 -0.5,0.2 -0.8,0.3c-0.8,0.1 -1.4,-0.7 -2.2,-1.1c-0.7,-0.3 -1.4,-0.2 -2.2,-0.1c0.1,0.7 -0.1,1.6 -0.7,2.1c-0.7,0.9 -2,1.3 -2.6,2.3c-0.5,0.9 -0.4,2.2 -1.3,2.8c0,-1.1 0.2,-2.1 0.3,-3.1z" class="st41"/>
    </g>
   </g>
   <path id="svg_188" stroke-miterlimit="10" stroke-width="0.4666" stroke="#8C6239" fill="none" d="m65,54c0.6,0 1.2,0 1.8,0c0.2,0 0.5,0 0.7,0.1c0.2,0 0.4,0.2 0.7,0.3c0.4,0.2 0.8,0.5 1.3,0.7" class="st42"/>
   <path id="svg_189" stroke-miterlimit="10" stroke-width="0.4666" stroke="#000000" fill="none" d="m59.8,55.5c1.2,-0.1 2.4,0 3.6,0.1c0.3,0 0.7,0.2 0.7,0.5c0,0.1 -0.1,0.2 -0.1,0.3c-0.6,0.9 -0.8,2 -0.7,3.1c0,0.1 0,0.2 0.1,0.3s0.2,0.1 0.3,0.2c1.4,0.6 2.8,1 4.2,1.3c0.6,0.1 1.2,0.1 1.6,-0.2c0.4,-0.3 0.5,-0.8 0.7,-1.3c0.3,-0.6 0.9,-1.2 0.6,-1.9c-0.1,-0.3 -0.5,-0.5 -0.8,-0.7c-2.1,-1 -4.3,-1.6 -6.6,-1.8" class="st43"/>
   <path id="svg_190" stroke-miterlimit="10" stroke-width="0.4666" stroke="#000000" fill="none" d="m64.6,57.8c0.4,-0.1 0.7,-0.2 1.2,-0.3c0.9,0 1.8,0.5 2.1,1.3" class="st43"/>
   <path stroke-miterlimit="10" stroke-width="0.4666" stroke="#E2BCBC" fill="none" d="m67.2,62.7c-0.3,0.5 -0.1,1.1 0.3,1.4c0.1,0.1 0.3,0.2 0.5,0.2c0.5,0.2 0.9,0.4 1.4,0.7c0.9,0.4 1.9,0.8 2.8,0.5c0,-0.7 0,-1.4 0,-2.2" class="st44" id="XMLID_1_"/>
   <path id="svg_191" fill="#FFFFFF" d="m74.9,60.8c-0.5,1.4 -1,2.7 -1.5,4c0.4,0.3 1,0.3 1.4,-0.1c0.2,-0.2 0.2,-0.5 0.3,-0.7c0.4,-1.3 1.2,-2.6 1,-3.9c0,0 0,-0.1 -0.1,-0.2c-0.7,-0.6 -0.9,0.6 -1.1,0.9z" class="st17"/>
   <path id="svg_192" stroke-miterlimit="10" stroke-width="0.4666" stroke="#000000" fill="none" d="m71,58.4c0.7,0.1 1.3,0.1 2,0.2c1.1,0.1 2.2,0.2 3.3,0.7c0.2,0.1 0.3,0.1 0.5,0.2c0.2,0 0.3,0 0.5,0c0.5,0.1 0.7,0.8 0.7,1.4c0,0.5 0,1.1 -0.4,1.4c-0.2,0.1 -0.4,0.1 -0.6,0.3c-0.3,0.2 -0.5,0.5 -0.7,0.7c-0.4,0.4 -0.9,0.5 -1.5,0.5s-1,-0.2 -1.5,-0.5c-0.5,-0.3 -1,-0.7 -1.2,-1.2c-0.1,-0.3 -0.1,-0.6 -0.1,-0.9c0,-0.7 0,-1.5 0.4,-2.1" class="st43"/>
   <path id="svg_193" stroke-miterlimit="10" stroke-width="0.4666" stroke="#000000" fill="none" d="m73,60.5c0.7,-0.3 1.6,0 2.1,0.7" class="st43"/>
   <path id="svg_194" stroke-miterlimit="10" stroke-width="0.4666" stroke="#8C6239" fill="none" d="m74.6,56.7c0.8,-0.1 1.6,0.2 2.1,0.9" class="st42"/>
   <path id="svg_195" fill="#CCCCCC" d="m68.5,71.6c-0.7,0.4 -1.5,0.8 -2.3,1.2c0.1,0.2 0.5,0.4 0.8,0.3c0.4,0 0.8,-0.3 1.1,-0.5c0.7,-0.5 1.4,-0.9 1.8,-1.6c0.3,-0.5 0.2,-0.9 -0.2,-0.4c-0.4,0.4 -0.7,0.7 -1.2,1z" class="st19"/>
  </g>
  <path id="svg_196" stroke-miterlimit="10" stroke-width="0.4666" stroke="#EF9292" fill="none" d="m63.3,66.7c0.7,0.1 1.5,0.1 2.3,0.2c0.6,0.1 1.2,0.2 1.7,0.3c0.2,0 0.3,0.1 0.5,0.1c0.7,0.1 1.3,0.3 1.8,0.7c0.6,0.4 1,1 1.6,1.4" class="st45"/>
  <path id="svg_197" fill="none" d="m63.5,66.8c2.2,1.6 4.8,1.9 7.3,2.2" class="st46"/>
  <path id="svg_198" fill="#EF9292" d="m64.4,68.1c1.8,1.7 4.3,2.1 6.3,0.9c-0.8,-0.6 -1.8,-0.6 -2.7,-0.7c-0.3,0 -0.6,-0.1 -0.9,-0.2c-0.8,-0.2 -1.6,-0.5 -2.4,-0.7c-0.9,-0.4 -1.1,0 -0.3,0.7z" class="st8"/>
 </g>
</svg>