<?xml version="1.0" encoding="utf-8"?>
<!-- Generator: Adobe Illustrator 23.0.6, SVG Export Plug-In . SVG Version: 6.00 Build 0)  -->
<svg version="1.1" id="Layer_2_copy" xmlns="http://www.w3.org/2000/svg" xmlns:xlink="http://www.w3.org/1999/xlink" x="0px"
	 y="0px" viewBox="0 0 258 248.5" style="enable-background:new 0 0 258 248.5;" xml:space="preserve">
<style type="text/css">
	.st0{fill:none;stroke:#5600FA;stroke-width:6.7279;stroke-miterlimit:10;}
	.st1{fill:#433F5E;}
	.st2{fill:#221575;}
	.st3{fill:#221563;}
	.st4{fill:#811E13;}
	.st5{fill:#D15437;}
	.st6{fill:#EAC8C7;}
	.st7{fill:#EFEFEF;}
	.st8{fill:#EF9292;}
	.st9{fill:#D65B56;}
	.st10{fill:#C48686;}
	.st11{fill:#996464;}
	.st12{fill:#3F3228;}
	.st13{fill:#EDB0A9;}
	.st14{fill:#DB9C97;}
	.st15{fill:#EAAEAC;}
	.st16{opacity:0.49;fill:#FFFFFF;enable-background:new    ;}
	.st17{fill:#FFFFFF;}
	.st18{fill:#B75E5E;}
	.st19{fill:#CCCCCC;}
	.st20{fill:#1C1930;}
	.st21{fill:#100F1E;}
	.st22{fill:#0F3860;}
	.st23{fill:#0A2056;}
	.st24{fill:#163E6D;}
	.st25{fill:#0D0830;}
	.st26{fill:#4F779E;}
	.st27{fill:#B7C6E5;}
	.st28{fill:#D67525;}
	.st29{fill:#F9A34E;}
	.st30{clip-path:url(#SVGID_3_);fill:#C48686;}
	.st31{clip-path:url(#SVGID_6_);fill:#996464;}
	.st32{clip-path:url(#SVGID_8_);fill:#DB9C97;}
	.st33{clip-path:url(#SVGID_10_);fill:#DB9C97;}
	.st34{clip-path:url(#SVGID_12_);fill:#EAAEAC;}
	.st35{clip-path:url(#SVGID_14_);}
	.st36{clip-path:url(#SVGID_16_);}
	.st37{opacity:0.49;}
	.st38{clip-path:url(#SVGID_18_);fill:#B75E5E;}
	.st39{clip-path:url(#SVGID_20_);fill:#B75E5E;}
	.st40{clip-path:url(#SVGID_22_);fill:#EAAEAC;}
	.st41{fill:none;stroke:#B75E5E;stroke-width:0.4666;stroke-miterlimit:10;}
	.st42{fill:none;stroke:#8C6239;stroke-width:0.4666;stroke-miterlimit:10;}
	.st43{fill:none;stroke:#000000;stroke-width:0.4666;stroke-miterlimit:10;}
	.st44{fill:none;stroke:#E2BCBC;stroke-width:0.4666;stroke-miterlimit:10;}
	.st45{fill:none;stroke:#EF9292;stroke-width:0.4666;stroke-miterlimit:10;}
	.st46{fill:none;}
	.st47{fill:#FDD000;}
	.st48{opacity:6.000000e-02;fill:none;stroke:#000000;stroke-width:0.25;stroke-miterlimit:10;}
	.st49{font-family:'MyriadPro-Regular';}
	.st50{font-size:27.5484px;}
	.st51{font-size:10.7133px;}
</style>
<circle class="st0" cx="129.5" cy="71.7" r="69"/>
<g>
	<path d="M101.4,36c0.5-0.5,0.7-1.3,0.7-2.1c0,0,0,0,0,0c-0.1,0.3-0.1,0.6-0.1,0.9c-0.1,0.6-0.4,1.1-0.9,1.6
		C101.2,36.3,101.3,36.1,101.4,36z"/>
	<rect x="151.8" y="92.9" width="4.9" height="0.5"/>
	<path d="M107.3,34.8c-0.1-0.2-0.2-0.3-0.3-0.5c0,0.2,0,0.4-0.1,0.6C107,34.9,107.1,34.8,107.3,34.8
		C107.3,34.8,107.3,34.8,107.3,34.8z"/>
	<path d="M97.5,41c-0.2-0.5-0.1-1.1-0.1-1.6c-0.1,0.5-0.1,0.9,0,1.3c0,0,0,0.1,0,0.1C97.5,40.9,97.5,40.9,97.5,41
		C97.5,41,97.6,40.9,97.5,41C97.6,40.9,97.6,40.9,97.5,41C97.6,40.9,97.6,41,97.5,41z"/>
	<path d="M111.2,87.4c-1.5-0.4-3.1-0.9-4.5-1.5c-0.7-0.2-1.5-0.5-2.2-0.8c-0.6-0.2-1.2-0.5-1.6-0.9c0,0-0.1-0.1-0.1-0.1
		c-0.3,1.4-1.3,2.6-1.8,4c-0.8,2.4,0.1,5.2-0.7,7.7c0,0.2-0.1,0.4-0.3,0.5c0,0-0.1,0-0.1,0c0.1,0,0.2,0,0.3,0
		c2.2,0.5,7.3,1.9,12.5,3.6V87.7C112.2,87.6,111.7,87.5,111.2,87.4z"/>
	<path d="M102.1,33.8c0.3,0,0.5-0.1,0.8-0.1C102.6,33.6,102.3,33.6,102.1,33.8z"/>
	<path d="M156.7,40.4v-6.1h-4v6.1h-36.3c0,0.1-0.1,0.1-0.1,0.2c0,0.2-0.1,0.5-0.1,0.7c0-0.3,0-0.5,0.1-0.7c0-0.1,0-0.1,0-0.2h-0.5
		c-0.2,1.1-0.4,2.2-0.7,3.4c-0.1,0.4-0.2,0.7-0.3,1.1h36.9v37.2c2,1.6,2.8,4.4,2.1,6.8c-0.1,0-0.3,0-0.4,0c-0.7-1-1.1-2.3-1.2-3.5
		c-0.1-0.1-0.3-0.1-0.5-0.1v4.3l0,0h0V90l4.9-0.1V44.8h10.9H193c-0.6-1.5-1.3-3-2.1-4.5h-26.8H156.7z"/>
	<path d="M111.2,66.3c0.4,0.2,0.9,0.3,1.1,0.7c0.1,0.3,0.1,0.7,0,1c0,0.2-0.1,0.4-0.1,0.6c0.1,0,0.2,0.1,0.4,0.2v-19
		c-0.5,0.8-1.1,1.5-1.8,2.2c-0.3,0.3-0.6,0.7-0.9,1.1c-0.5,0.6-1,1.2-1.5,1.7c-0.4,0.4-0.7,0.7-1.1,1.1c-0.1,0.1-0.1,0.1-0.2,0.2
		c-0.2,0.1-0.4,0.3-0.7,0.4c-0.5,0.2-1,0.2-1.5,0.1c-0.2,0-0.4-0.1-0.6-0.2c-0.8-0.3-1.3-0.9-1.9-1.5c0,0.1,0,0.3-0.1,0.4
		c-0.2,0.1-0.4,0.3-0.6,0.5c0.6,0.8,1.3,1.6,1.9,2.4c0.3,0.2,0.7,0.3,0.8,0.7c0.1,0.2,0.2,0.4,0.2,0.6c1,1.3,2,2.5,3,3.8
		C108.6,64.3,109.7,65.6,111.2,66.3z"/>
	<path d="M101.2,53.7c0.1,0,0.1,0.1,0.2,0.1c-0.2-0.1-0.3-0.3-0.5-0.4C101,53.5,101.1,53.6,101.2,53.7z"/>
	<path d="M110.2,74.8c-0.1,0-0.1,0-0.1-0.1c0,0.2,0.1,0.4,0.1,0.6c0.3,0.2,0.6-0.2,0.6-0.6C110.6,74.8,110.4,74.8,110.2,74.8z"/>
	<rect x="151.8" y="97.8" width="4.9" height="1"/>
	<path d="M196.8,70.5V71c0.1-0.1,0.2-0.1,0.2-0.2c0.8-0.8,1-1.6,1-2.6c0,0,0,0,0,0c0,0.4-0.1,0.9-0.3,1.3
		C197.4,69.9,197,70.1,196.8,70.5z"/>
	<path d="M60.5,71.7c0,11,2.6,21.4,7.2,30.6c0.6-5.2,1.6-11.1,1.8-16.4C70,74.6,67,70.1,66,62.7s2-8.9,2-8.9c7.9-6,9.4,1,9.4,1v10.9
		c0,0,0,13.9-0.5,14.9c-0.5,1-1.9,11.6-1.9,11.6s-2.5,6.3-3,12.2c-0.5,6,1.5,7,1.5,7c1.5,3.5,13.4,4,24.3,3.5
		c10.9-0.5,14.8,2.3,14.8,2.3v-2.9c0,0-1-1.5-7-1.5c-6,0-25.2-1-25.2-1s-3.4-0.4-5.9-3.4c0,0,1,0.3,2.5-0.1c-0.8,0-1.5-0.1-2.1-0.6
		c0.1-0.2,0.1-0.5,0.1-0.7c-0.1-0.2-0.2-0.4-0.2-0.7c0-0.3-0.1-0.7-0.1-1c-0.4-1-0.9-2.1-1.2-3.1c-0.5-2.3,0.5-4.6,1-6.9
		c0.7-2.9,0.8-6.1,1.8-9c0.5-1.6,1.4-3.2,1.7-4.9c0.3-1.6,0.2-3.2,0.1-4.8c-0.2-2.4-0.3-4.8-0.5-7.2c-0.1-1.2-0.2-2.3,0.1-3.5
		c0.2-1,0.8-1.8,1.4-2.7c0.9-1.4,1.7-2.7,2.8-4c2.5-3.1,5.9-5.6,9.7-7c1.4-0.5,3.2-3,4.8-1.6c0.2-0.2,0.4-0.4,0.6-0.6
		c0.5-0.4,0.6-0.7,1-0.3c0,0,0,0,0,0c-0.2-0.3-0.3-0.7-0.2-0.9c0-1.2,0-2.3-0.1-3.4c-0.1-0.5-0.2-1-0.4-1.4
		c-0.1-0.1-0.1-0.2-0.2-0.3c-0.5-0.5-1.4-0.5-1.7-1.1c-0.2-0.3-0.2-0.7-0.2-1.1c0-1,0-2,0-2.9c0-0.7,0-1.7,0.7-2
		c0.2-0.1,0.5-0.1,0.7,0c0.2,0.1,0.4,0.2,0.6,0.3c0.3,0.2,0.5,0.6,0.7,0.9c0,0,0,0,0,0c0-0.4-0.1-0.8-0.3-1.2
		c-0.4-0.6-1.4-0.6-1.9,0c0.3-2.3,0.6-4.4,1.4-6.5c0.3-0.7,0.6-1.4,1.1-1.9c1.4-1.5,4.1-1.2,5.6-2.6c0.3-0.2,0.6-0.6,0.9-0.7
		c0.5-0.2,1-0.2,1.5-0.2c2.1,0.1,4.2,0.5,6.3,1c0.2,0,0.4,0.1,0.6,0.2V4.8C82.7,12.3,60.5,39.4,60.5,71.7z"/>
	<path d="M196.8,77.7c0.5,0,0.9,0,1.3,0c0.1-1.3,0.2-2.6,0.2-3.9c-0.5-0.1-1.1-0.2-1.6-0.4V77.7z"/>
	<path d="M171,126.8c7.5-5.7,13.8-12.8,18.5-21H171V126.8z"/>
	<path d="M152.7,34.2c0.3-4.5,2.3-7,4-8.4V8.4c-1.3-0.6-2.6-1.1-4-1.6V29V34.2z"/>
	<path d="M112.5,118V117l-0.8,2.4C111.9,118.9,112.2,118.5,112.5,118z"/>
	<path d="M111.5,119.6c-0.9,0-10.2,0-18.8,0v10.5c4.1,2.6,8.5,4.8,13.2,6.5c0.2-0.7,0.4-1.4,0.7-2.2
		C108.4,128.8,106.3,128,111.5,119.6z"/>
	<path d="M81.6,105.4c0.4-0.3,0.7-0.7,1.1-1.1c-0.2,0.2-0.5,0.4-0.7,0.7C81.9,105,81.7,105.2,81.6,105.4z"/>
	<path d="M167.5,105.7h-10.8v-4.9h-4.9v4.5h-26c3,2.2,4.5,3.9,2.7,9.8c-1.4,4.6-8.9,17.3-13.1,24.1c4.5,0.9,9.3,1.4,14.1,1.4
		c14.1,0,27.1-4.2,38-11.4v-2.3V105.7z"/>
	<path d="M92.4,119.6c-4,0-7.9,0-10.6,0c-0.7,0-1.4,0-2,0c2.8,2.9,5.8,5.5,9,7.8l0.3-6.2l0.1,6.5c0,0,0,0,0,0v-7.7L92.4,119.6z"/>
	<path d="M103.1,81.8c0,0,0.1,0,0.1,0c0.1-0.1,0.1-0.2,0.2-0.3c0.2-0.4,0.4-0.8,0.6-1.2c0,0,0,0-0.1,0c-0.2,0.3-0.3,0.5-0.5,0.8
		C103.3,81.3,103.2,81.6,103.1,81.8z"/>
	<path d="M99.1,52.1c-0.2-0.2-0.4-0.5-0.5-0.8c-0.1-0.2-0.2-0.4-0.4-0.8c0,0,0,0,0,0c0.1,0.4,0.2,0.9,0.5,1.2
		C98.8,51.9,99,52,99.1,52.1c0.1,0.1,0.1,0.1,0.2,0.2C99.2,52.2,99.1,52.1,99.1,52.1z"/>
	<path class="st1" d="M152.7,6.8c-7.3-2.6-15.1-4-23.3-4c-1.2,0-2.3,0-3.5,0.1L152.7,29V6.8z"/>
	<path class="st2" d="M115.5,37.9c-0.4-0.2-1.1-0.1-1.6-0.1c0.3,0.1,0.7,0.1,1,0.1c0.4,0,0.9,0.1,1.1,0.5c0.1,0.2,0.1,0.4,0,0.6
		c-0.1,0.4-0.1,0.9-0.2,1.3h0.5C116.4,39.3,116.4,38.4,115.5,37.9z"/>
	<path class="st2" d="M113.2,26.2c0.7,0.6,0.8,1.9,1.6,2.5c0.5,0.4,1.1,0.4,1.6,0.7c0.6,0.3,1.2,0.9,0.8,1.4c0,1.9,1.1,3.9,1,5.8
		c0,0.7-0.1,1.4-0.4,2.1c-0.3,0.7-1,1.1-1.3,1.7h36.3v-6.1V29L125.9,2.8c-4.6,0.2-9,0.9-13.3,2v21.1C112.8,26,113,26.1,113.2,26.2z"
		/>
	<path class="st1" d="M170.5,23.6c0,0,5.5,3.7,6.4,10.6h-3.4h-1c0,0-2,5.5-6.4,5.5c-0.5,0-1-0.1-1.5-0.2c0,0,0,0-0.1,0
		c-0.7-0.1-1.3-0.2-1.9-0.4l1.4,1.3h26.8c-5.8-11.3-14.6-20.8-25.3-27.4v9.7C167,22.7,168.6,23,170.5,23.6z"/>
	<path class="st1" d="M170.3,29.1c0.7,0.7,1.2,1.4,1.6,2C171.6,30.5,171.1,29.8,170.3,29.1z"/>
	<path class="st1" d="M158.5,24.6C158.5,24.6,158.4,24.6,158.5,24.6c0,0,1.4-1.7,5.1-2V11.8c-2.2-1.3-4.5-2.4-6.9-3.4v17.4
		C157.4,25.2,158,24.8,158.5,24.6z"/>
	<path class="st1" d="M159.7,34.2L159.7,34.2C159.6,34.2,159.7,34.2,159.7,34.2C159.7,34.2,159.7,34.2,159.7,34.2z"/>
	<path class="st3" d="M156.9,34.2h-0.2v6.1h7.4l-1.4-1.3C158.3,37.8,156.9,34.2,156.9,34.2z"/>
	<path class="st2" d="M150.4,85.3c0,0.1,0,0.2-0.1,0.2c-0.1,0.1-0.4,0.2-0.6,0.2c-1.2,0.2-2.6,0.3-3.5-0.6c-0.1-0.2-0.3-0.4-0.5-0.6
		c-0.3-0.2-0.5-0.2-0.9-0.2c-1.6,1-3.4,1.7-5.2,2.2c-1.2,0.5-2.4,0.9-3.7,1c3.8,1.1,7.7,1.4,11.6,1.1c1.4-0.1,3.2-0.2,4.1,0.9v-4.3
		C151.3,85.1,150.9,85.2,150.4,85.3z"/>
	<path class="st2" d="M114.2,46.9C114.2,46.9,114.2,46.9,114.2,46.9c0,0.1-0.1,0.2-0.1,0.3c-0.1,0.3-0.2,0.5-0.4,0.8
		c-0.3,0.6-0.7,1.2-1.1,1.7v19c0.7,0.4,1.3,1.1,1.9,1.4c1.3,0.8,2.6,1.6,3.9,2.5c2.4,1.6,4.7,3.5,6.9,5.6c0.4,0.4,0.7,0.7,1.2,0.9
		c0.5,0.2,1,0.2,1.4,0.2c2.6,0,5.2-0.3,7.8,0c1.5,0.2,3,0.6,4.5,0.8c1.9,0.2,3.9,0,5.8,0.1c2,0,4,0.4,5.5,1.6c0,0,0.1,0.1,0.1,0.1
		V44.8h-36.9c-0.2,0.6-0.4,1.2-0.6,1.9C114.3,46.8,114.2,46.8,114.2,46.9z"/>
	<path class="st2" d="M150.5,90.2L150.5,90.2l1.3-0.1v-0.5c-0.7,0-1.4,0.1-2.1,0.2C149.9,89.8,150.2,89.9,150.5,90.2z"/>
	<path class="st2" d="M143.8,92.9c0,0,0-0.1,0-0.3c-0.7,0.3-1.5,0.4-2.3,0.5c-1.2,0.1-2.6,0.1-3.6-0.6c-0.4-0.3-0.7-0.6-1.2-0.8
		c-0.1-0.1-0.2-0.1-0.3-0.2c-0.8-0.2-1.7-0.4-2.6-0.4c0,0-0.1,0-0.1,0c-0.1,0-0.3,0-0.4,0c0,0-0.1,0-0.1,0c-0.1,0-0.2,0-0.3,0
		c-6-0.6-11.9-1.7-17.8-2.8c-0.8-0.1-1.5-0.3-2.3-0.4v12.1c5.3,1.7,10.5,3.6,12.3,4.8c0.3,0.2,0.5,0.4,0.8,0.6h26v-4.5h-22.9v-2
		h22.9v-1h-22.9v-4.4h22.9v-0.5H143.8z"/>
	<rect x="156.7" y="100.8" class="st2" width="10.8" height="4.9"/>
	<path class="st2" d="M196.1,75.2c0.1,0.8,0.1,1.7,0.2,2.5c0.2,0,0.4,0,0.5,0v-4.2c-0.3-0.1-0.5-0.3-0.7-0.4
		c-0.3-0.3-0.3-0.6-0.3-0.8c0,0-0.1,0-0.1,0.1C195.9,73.2,196,74.2,196.1,75.2z"/>
	<path class="st2" d="M170,69.6c0,0,2-0.5,1.5,1.5c-0.5,2-10.4,21.8-10.4,21.8h-4.4v0.5h20.1l-0.3-9.4h6.9l-0.5,8.9l-2.6,0.2
		c-0.2,0-0.5,0-0.7,0.1l-2.7,0.2h17.4c-0.1-0.1-0.1-0.2-0.2-0.3c-1-3.9-1.4-8-1.2-12c0-0.8,0-2.1,0.6-2.8c0.4-0.5,1.1-0.5,1.7-0.5
		c0.3,0,0.7-0.1,1-0.1c-0.4-1.7-0.8-3.5-1.1-5.2c-0.1,0-0.1,0-0.2,0c-0.7,0-1.4-0.3-2.1-0.6c-0.7-0.3-1.4-0.6-2.1-0.8
		c-0.8-0.3-1.7-0.7-2.4-1.3c-0.4-0.4-0.7-0.8-1.1-1.2c-0.5-0.5-1-0.9-1.4-1.4c-0.4-0.6-0.5-1.4-0.1-1.9c0.3-0.4,0.9-0.6,0.9-1.1
		c-0.9,0-1.4-0.9-1.8-1.7c-0.5-1.1-1-2.2-1.5-3.3l-15.6-14.3h-10.9V90l3.4,0L170,69.6z M175.5,72c0.5-0.6,1.3-0.7,2.1-0.9
		c1.4-0.2,2.8-0.3,4.2,0c0.2,0,0.5,0.1,0.7,0.3c0.1,0.2,0.2,0.4,0.2,0.7c0.1,0.9,0.3,1.8,0.4,2.7c0.1,0.7,0.2,1.4,0,2.1
		c-0.6,1.5-2.8,1.8-3.7,3.2c-0.3,0.4-0.3,1-0.2,1.5c0.3,0.2,0.6,0.5,0.7,0.9c0,0.1,0,0.3,0,0.4c0.2,0.2,0.5,0.4,0.8,0.5
		c0,0.1,0,0.3,0,0.4c-0.2,0.2-0.6,0-0.7-0.4c0-0.1-0.1-0.3-0.1-0.5c-0.4-0.4-0.6-0.8-0.7-1.3c-0.4-0.3-0.8-0.4-1.2-0.6
		c-0.7-0.3-1.6-1-1.4-1.8c0.1-0.6,0.7-0.9,1.1-1.2c1.7-1.3-1.3-1.9-2.1-3C174.8,74,174.8,72.7,175.5,72z"/>
	<path class="st2" d="M171,105.7h18.5c0.9-1.6,1.8-3.3,2.5-4.9h-21V105.7z"/>
	<path class="st2" d="M156.7,98.8h36.2c0.1-0.3,0.3-0.7,0.4-1h-36.6V98.8z"/>
	<polygon class="st1" points="191.5,55.2 191.5,55.2 191.5,55.2 	"/>
	<path class="st1" d="M183.3,59.2c-0.5-1.1-0.9-2.2-1.3-3.3c-0.6-1.7-1.2-3.5-0.7-5.2c0-0.2,0.1-0.5,0.3-0.6c0.3-0.2,0.7-0.2,1-0.2
		c1.2,0,2.4,0.2,3.6,0.5c0.7,0.1,1.5,0.4,2.1,0.7c1.1,0.7,1.8,1.8,2.5,2.8c0.2,0.3,0.4,0.7,0.6,1.1c0.2,0.2,0.4,0.4,0.6,0.6
		c0.5,0.5,1,1,1.4,1.5c0.1,0.1,0.2,0.3,0.3,0.4c0.7,0.4,1.3,0.7,1.7,1.5c0.1,0.3,0.3,0.6,0.4,0.9c0.2,0.2,0.4,0.3,0.6,0.5
		c0-0.4-0.1-0.8-0.1-1.2c0-1.1,0-2.2,0-3.3c0-0.2,0-0.4,0-0.6c-0.9-3.6-2-7-3.4-10.3h-25.4L183.3,59.2z"/>
	<path class="st1" d="M196.8,70.5c-0.1,0.2-0.1,0.4-0.2,0.7c0.1-0.1,0.1-0.1,0.2-0.2L196.8,70.5C196.8,70.5,196.8,70.5,196.8,70.5z"
		/>
	<path class="st4" d="M125.8,105.3c-0.3-0.2-0.5-0.4-0.8-0.6c-1.8-1.3-7-3.2-12.3-4.8c-5.1-1.6-10.3-3.1-12.5-3.6
		c-0.1,0-0.2,0-0.3,0c-0.2,0.1-0.4,0-0.5,0c-0.1,0-0.3,0-0.4,0c0.4,0,0.8,0,1.1,0.1c0,0,19.3,4.4,25.8,9.9c0,0,4.4,2.5,1,8.9
		c-2.4,4.5-9.2,16.7-13.2,23.7c0.5,0.1,1.1,0.2,1.6,0.4c4.2-6.9,11.7-19.5,13.1-24.1C130.3,109.2,128.7,107.4,125.8,105.3z"/>
	<path class="st4" d="M97.6,96.3c-0.2,0-0.5,0-0.7,0C97.1,96.3,97.4,96.3,97.6,96.3z"/>
	<path class="st4" d="M111.1,126.1c2-2,4-3,3-8.9c0,0,0.5-4.4,3-6.4c0,0,0-2-5.9,0c0,0-8.9,0-10.4-1.5c-1.5-1.5-4.4-3-9.9-0.5
		c0,0-10.5,0.2-9.5-2.4c0,0,0.5-1,1.5-2.3c-0.1,0.1-0.1,0.1-0.2,0.2c-0.4,0.4-0.8,0.8-1.1,1.1c-0.5,0.5-1.1,1.1-1.6,1.5
		c0,0.1-0.1,0.1-0.2,0.2c-0.1,0.1-0.3,0.2-0.5,0.2c-0.2,0.1-0.3,0.2-0.5,0.3c-0.6,0.3-1.2,0.5-1.8,0.5c-1.6,0.4-2.5,0.1-2.5,0.1
		c2.5,3,5.9,3.4,5.9,3.4s19.3,1,25.2,1c6,0,7,1.5,7,1.5v2.9v1.1c-0.3,0.5-0.6,0.9-0.8,1.3l-0.1,0.3c0,0,0,0-0.1,0
		c-5.2,8.4-3.1,9.2-4.9,14.7c-0.3,0.8-0.5,1.5-0.7,2.2c0.7,0.3,1.4,0.5,2.1,0.7l0.6-2.8C108.6,134.5,109.1,128,111.1,126.1z"/>
	<path class="st4" d="M97.7,96.3c0.4,0,0.7,0,1.1,0C98.5,96.3,98.1,96.3,97.7,96.3z"/>
	<path class="st5" d="M125.9,106.2c-6.4-5.5-25.8-9.9-25.8-9.9c-0.4,0-0.8,0-1.1-0.1c0,0-0.1,0-0.1,0c-0.4,0-0.7,0-1.1,0
		c-0.1,0-0.1,0-0.2,0c-0.2,0-0.5,0-0.7,0c-2.5,0.2-4.9,1.1-7.1,2.3c-2.6,1.4-4.9,3.4-7,5.4c-1,1.3-1.5,2.3-1.5,2.3
		c-1,2.6,9.4,2.4,9.5,2.4c5.5-2.5,8.4-1,9.9,0.5c1.5,1.5,10.4,1.5,10.4,1.5c5.9-2,5.9,0,5.9,0c-2.5,2-3,6.4-3,6.4c1,5.9-1,7-3,8.9
		c-2,2-2.5,8.4-2.5,8.4l-0.6,2.8c1.9,0.6,3.8,1.1,5.7,1.6c3.9-7,10.8-19.2,13.2-23.7C130.3,108.7,125.9,106.2,125.9,106.2z"/>
	<path class="st6" d="M100.3,95.7c0.8-2.5-0.1-5.3,0.7-7.7c0.5-1.4,1.5-2.6,1.8-4c-0.4-0.5-0.6-1.1-0.4-1.6c0.1-0.3,0.4-0.5,0.7-0.6
		c0.1-0.2,0.2-0.5,0.4-0.7c0.2-0.3,0.3-0.5,0.5-0.8c-0.1,0-0.3-0.1-0.4-0.1c-2.8-0.7-5.7-1.4-7.9-3.3c-0.7-0.6-1.4-1.4-2.1-1.9
		c-0.8-0.6-1.9-0.9-2.7-1.5c-1.4-1-2.1-2.9-3.7-3.4c-0.3-0.1-0.7-0.1-0.9,0.1c-0.1,0.2-0.1,0.5-0.1,0.7c0.1,7.6,0.3,15.4-2.1,22.6
		c-0.6,1.6-1.2,3.2-2.3,4.4c-0.4,0.4-0.7,0.8-1,1.3c-0.6,1-0.6,2.1-0.6,3.3c0,1.1,0,2.2,0,3.3c0,0.3,0,0.7-0.2,1
		c0.6-0.5,1.1-1,1.6-1.5c0.1-0.2,0.3-0.3,0.4-0.5c0.2-0.2,0.4-0.4,0.7-0.7c0.1-0.1,0.1-0.1,0.2-0.2c2.1-2.1,4.4-4,7-5.4
		c2.2-1.2,4.6-2.1,7.1-2.3c0.2,0,0.5,0,0.7,0c0.1,0,0.1,0,0.2,0c0.4,0,0.7,0,1.1,0c0,0,0.1,0,0.1,0c0.1,0,0.3,0,0.4,0
		c0.2,0,0.3,0,0.5,0c0,0,0.1,0,0.1,0C100.1,96.1,100.2,95.9,100.3,95.7z"/>
	<path class="st6" d="M78.1,85.9c0.3-1.5,0.5-3,0.9-4.4c0.7-2.3,1.8-4.4,2.3-6.7c0.7-2.9,0.1-6,0.3-9c0-0.6,0.1-1.2,0.3-1.8
		c0.5-1.6,2-2.7,3.5-3.6c1.5-0.9,3.1-1.6,4.2-2.9c1.3-1.4,1.9-3.6,3.7-4.3c0.8-0.3,2-0.6,3.1-0.7c-0.2-0.2-0.4-0.4-0.7-0.7
		c-0.1-0.1-0.1-0.1-0.2-0.2c0,0-0.1-0.1-0.1-0.1c0-0.2,0.1-0.3,0.2-0.5c0.2-0.2,0.4-0.4,0.6-0.5c-1.5-1.5-3.4,1.1-4.8,1.6
		c-3.8,1.5-7.2,3.9-9.7,7c-1,1.3-1.9,2.6-2.8,4c-0.6,0.8-1.1,1.7-1.4,2.7c-0.3,1.1-0.2,2.3-0.1,3.5c0.2,2.4,0.3,4.8,0.5,7.2
		c0.1,1.6,0.2,3.2-0.1,4.8c-0.3,1.7-1.2,3.3-1.7,4.9c-0.9,2.9-1,6-1.8,9c-0.6,2.2-1.5,4.6-1,6.9c0.2,1.1,0.8,2.1,1.2,3.1
		C74.2,98.6,76.8,92.3,78.1,85.9z"/>
	<path class="st6" d="M101.2,56c0.5,0.7,1.1,1.3,1.9,1.8c0.1,0.1,0.2,0.1,0.4,0.2c-0.6-0.8-1.3-1.6-1.9-2.4
		C101.5,55.7,101.4,55.8,101.2,56z"/>
	<path class="st6" d="M105.5,77.5c0.3-0.5,0.5-1,0.8-1.4C106,76.5,105.7,77,105.5,77.5z"/>
	<path class="st6" d="M109.7,73.7c0.2,0.3,0.3,0.6,0.4,1c0,0,0.1,0,0.1,0.1c0.2,0.1,0.4,0,0.6-0.1c0,0,0,0,0,0
		c0.4-2.1,0.7-4.1,1.1-6.2c0.1,0,0.3,0,0.4,0.1c0-0.2,0.1-0.4,0.1-0.6c0-0.3,0.1-0.7,0-1c-0.2-0.4-0.7-0.6-1.1-0.7
		c-1.5-0.7-2.6-2-3.6-3.2c-1-1.3-2-2.5-3-3.8c0.3,1.1,0.2,1.1,0.2,1.1c-2.1,1.1,0,4.7-0.1,7c0,0.9,0,2,0.6,2.7
		c0.9,1.2,3.2,1.5,3.3,3.1C108.9,73.1,109.4,73.3,109.7,73.7z"/>
	<path class="st6" d="M79.3,107.3c-0.2,0-0.4,0.1-0.5,0.1c-1,0-2.1,0-3-0.2c-0.3,0-0.6-0.1-0.8-0.3c0,0,0,0-0.1-0.1
		c0,0.2,0,0.4-0.1,0.7c0.6,0.5,1.4,0.7,2.1,0.6c0.6,0,1.3-0.2,1.8-0.5C79,107.5,79.1,107.4,79.3,107.3z"/>
	<path class="st7" d="M75.7,107.2c1,0.1,2,0.2,3,0.2c0.2,0,0.4,0,0.5-0.1c0.2,0,0.3-0.1,0.5-0.2c0.1-0.1,0.1-0.1,0.2-0.2
		c0.2-0.3,0.2-0.7,0.2-1c0-1.1,0-2.1,0-3.3c0-1.2,0-2.3,0.6-3.3c0.3-0.5,0.7-0.8,1-1.3c1.1-1.3,1.7-2.8,2.3-4.4
		c2.4-7.2,2.2-15,2.1-22.6c0-0.2,0-0.5,0.1-0.7c0.2-0.2,0.6-0.2,0.9-0.1c1.6,0.5,2.3,2.4,3.7,3.4c0.8,0.6,1.8,0.9,2.7,1.5
		c0.8,0.5,1.4,1.3,2.1,1.9c2.2,1.9,5.1,2.6,7.9,3.3c0.1,0,0.3,0.1,0.4,0.1c0,0,0,0,0.1,0c0.5-0.9,1.1-1.9,1.6-2.8
		c0.2-0.5,0.5-1,0.8-1.4c0.4-0.7,0.8-1.4,1.1-2c0.2-0.4,0.4-0.7,0.8-0.9c0.1,0,0.2,0,0.2-0.1c-0.1-1.5-2.4-1.8-3.3-3.1
		c-0.6-0.7-0.6-1.8-0.6-2.7c0-2.3-2-5.9,0.1-7c0.1,0,0.2,0-0.2-1.1c-0.1-0.2-0.1-0.4-0.2-0.6c-0.1-0.3-0.5-0.5-0.8-0.7
		c-0.1-0.1-0.2-0.1-0.4-0.2c-0.8-0.5-1.4-1.1-1.9-1.8c-0.2,0.2-0.5,0.4-0.7,0.5c-0.4,0.1-0.1-0.1-0.4-0.3c-0.3-0.2-0.5-0.6-0.7-0.9
		c-0.3-0.4-0.7-0.8-1.2-1.1c-0.2-0.1-0.5-0.3-0.7-0.4c-0.2-0.1-0.3-0.3-0.5-0.5c-0.1-0.1-0.2-0.2-0.3-0.3c-0.1-0.1-0.3-0.3-0.4-0.4
		c-1.1,0.1-2.3,0.4-3.1,0.7c-1.8,0.7-2.4,2.9-3.7,4.3c-1.1,1.3-2.7,2-4.2,2.9c-1.5,0.9-2.9,2-3.5,3.6c-0.2,0.6-0.2,1.2-0.3,1.8
		c-0.1,3,0.4,6.1-0.3,9c-0.5,2.3-1.6,4.4-2.3,6.7c-0.4,1.4-0.6,2.9-0.9,4.4c-1.2,6.4-3.9,12.7-3.5,19.2c0,0.3,0,0.7,0.1,1
		c0,0.2,0.1,0.5,0.2,0.7c0,0,0,0,0.1,0.1C75.1,107.1,75.5,107.1,75.7,107.2z"/>
	<path class="st8" d="M139.7,86.5c1.8-0.5,3.6-1.2,5.2-2.2c-0.4,0-0.8,0.2-1.1,0.3C142.5,85.3,141.1,86,139.7,86.5z"/>
	<path class="st8" d="M133.2,91c0.1,0,0.3,0,0.4,0c-0.2,0-0.4,0-0.6-0.1C133.1,91,133.2,91,133.2,91z"/>
	<path class="st8" d="M146.1,80.3c-2,0-3.9,0.1-5.8-0.1c-1.5-0.2-3-0.6-4.5-0.8c-2.6-0.4-5.2,0-7.8,0c-0.5,0-1,0-1.4-0.2
		c-0.5-0.2-0.8-0.6-1.2-0.9c-2.1-2.1-4.5-4-6.9-5.6c-1.3-0.9-2.6-1.7-3.9-2.5c-0.5-0.3-1.2-1-1.9-1.4c-0.1-0.1-0.2-0.1-0.4-0.2
		c-0.1-0.1-0.3-0.1-0.4-0.1c-0.4,2.1-0.7,4.1-1.1,6.2c0,0,0,0,0,0c-0.1,0.4-0.3,0.8-0.6,0.6c0-0.2-0.1-0.4-0.1-0.6
		c-0.1-0.3-0.2-0.7-0.4-1c-0.3-0.4-0.7-0.7-1.2-0.6c-0.1,0-0.2,0-0.2,0.1c-0.4,0.1-0.6,0.5-0.8,0.9c-0.4,0.7-0.8,1.4-1.1,2
		c-0.3,0.5-0.5,1-0.8,1.4c-0.5,0.9-1.1,1.9-1.6,2.8c-0.2,0.4-0.4,0.8-0.6,1.2c-0.1,0.1-0.1,0.2-0.2,0.3c0.2-0.1,0.5,0,0.7,0.1
		c0-0.1,0-0.3,0-0.5c1,0,1.9,0.7,2.8,1.2c4,2.1,8.9,1.6,13.3,2.8c1.7,0.5,3.3,1.2,5,1.7c3.7,1.1,7.7,0.8,11.3,2.2
		c1.1,0.4,2.1,0.9,3.2,1.3c1.5,0.5,3.1,0.8,4.7,1c0.3-0.3,0.9-0.5,1.9-0.4c2.7,0.3,5.1,0.3,5.1,0.3l-0.7-1.3
		c-0.3-0.2-0.6-0.4-0.9-0.5c0.7,0,1.4-0.1,2.1-0.2h0l0,0c-0.8-1.2-2.6-1.1-4.1-0.9c-3.9,0.4-7.9,0-11.6-1.1c-0.2,0-0.4,0-0.5,0
		c-1,0-2.1-0.1-2.8-0.8c-0.3-0.3-0.5-0.7-0.8-1c-0.6-0.6-1.3-0.8-2.1-1.1c-1.7-0.5-3.5-0.8-5-1.9c-0.8-0.5-1.5-1.3-2.3-1.8
		c-1.5-1-3.4-1.2-5.1-1.7c-1.8-0.5-3.5-1.4-5.1-2.5c-0.6-0.4-2-1.6-1.2-2.3c0.7-0.7,2.5,0.2,3.2,0.4c2.4,0.9,4.7,2.2,6.7,3.8
		c1.6,1.3,3.2,2.8,5.1,3.4c1.8,0.6,3.7,0.4,5.6,0.5c2.2,0.1,4.4,0.8,6.6,1.2c2.2,0.4,4.5,0.4,6.5-0.7c0.6-0.3,1.2-0.7,1.9-0.7
		c0.6,0,1.1,0.4,1.5,0.7c0.5,0.4,1,0.7,1.5,1.1c0.3,0.3,0.7,0.7,0.6,1c0.5-0.1,0.9-0.2,1.3-0.1c0.2,0,0.3,0.1,0.5,0.1
		c0,1.3,0.5,2.5,1.2,3.5c0.1,0,0.3,0,0.4,0c0.8-2.4-0.1-5.2-2.1-6.8c0,0-0.1-0.1-0.1-0.1C150.1,80.8,148.1,80.4,146.1,80.3z"/>
	<path class="st8" d="M133.8,91c0.9,0.1,1.8,0.2,2.6,0.4c-0.6-0.2-1.2-0.3-1.8-0.4C134.4,91.1,134.1,91.1,133.8,91z"/>
	<path class="st8" d="M106.7,85.9c1.4,0.6,2.9,1.2,4.5,1.5c0.5,0.1,1,0.2,1.4,0.3c0.8,0.2,1.5,0.3,2.3,0.4
		c5.9,1.1,11.8,2.1,17.8,2.8c-4-0.4-8-1.1-12-1.8C116.1,88.3,111.3,87.4,106.7,85.9z"/>
	<path class="st9" d="M143.9,84.7c0.4-0.2,0.7-0.3,1.1-0.3c0.3,0,0.6,0,0.9,0.2c0.2,0.1,0.3,0.4,0.5,0.6c0.8,0.9,2.2,0.8,3.5,0.6
		c0.2,0,0.4-0.1,0.6-0.2c0.1-0.1,0.1-0.1,0.1-0.2c0.1-0.3-0.3-0.8-0.6-1c-0.5-0.4-1-0.7-1.5-1.1c-0.5-0.4-1-0.7-1.5-0.7
		c-0.7,0-1.3,0.4-1.9,0.7c-2,1-4.3,1-6.5,0.7c-2.2-0.4-4.3-1-6.6-1.2c-1.9-0.1-3.8,0.1-5.6-0.5c-2-0.7-3.5-2.1-5.1-3.4
		c-2-1.6-4.3-2.8-6.7-3.8c-0.7-0.2-2.5-1.1-3.2-0.4c-0.7,0.7,0.6,1.9,1.2,2.3c1.6,1.1,3.3,2,5.1,2.5c1.7,0.5,3.6,0.7,5.1,1.7
		c0.8,0.5,1.5,1.3,2.3,1.8c1.5,1,3.3,1.4,5,1.9c0.7,0.2,1.5,0.5,2.1,1.1c0.3,0.3,0.5,0.7,0.8,1c0.7,0.7,1.8,0.9,2.8,0.8
		c0.2,0,0.4,0,0.5,0c1.3-0.1,2.5-0.5,3.7-1C141.1,86,142.5,85.3,143.9,84.7z"/>
	<path class="st9" d="M102.3,82.4c-0.2,0.6,0,1.2,0.4,1.6c0,0,0.1,0.1,0.1,0.1c0.4,0.5,1,0.7,1.6,0.9c0.7,0.3,1.5,0.6,2.2,0.8
		c4.6,1.5,9.4,2.4,14.1,3.2c4,0.7,8,1.4,12,1.8c0.1,0,0.2,0,0.3,0c0.2,0,0.4,0,0.6,0.1c0,0,0.1,0,0.1,0c0.3,0,0.6,0.1,0.8,0.1
		c0.6,0.1,1.2,0.1,1.8,0.4c0.1,0,0.2,0.1,0.3,0.2c0.4,0.2,0.7,0.6,1.2,0.8c1,0.7,2.4,0.7,3.6,0.6c0.7-0.1,1.6-0.2,2.3-0.5
		c0-0.3,0.1-0.7,0.4-1.1c-1.6-0.2-3.2-0.4-4.7-1c-1.1-0.4-2.1-0.9-3.2-1.3c-3.6-1.4-7.7-1.1-11.3-2.2c-1.7-0.5-3.3-1.3-5-1.7
		c-4.4-1.2-9.3-0.7-13.3-2.8c-0.8-0.4-1.7-1.1-2.8-1.2c0,0.2,0,0.4,0,0.5c-0.2-0.1-0.5-0.1-0.7-0.1c0,0-0.1,0-0.1,0
		C102.7,81.9,102.5,82.1,102.3,82.4z"/>
	<path class="st8" d="M98,50.5c0.1,0,0.1,0,0.2,0c0,0,0,0,0,0c-0.1-0.1-0.1-0.2-0.2-0.3c0,0,0,0,0,0C98,50.3,98,50.4,98,50.5z"/>
	<path class="st8" d="M101.6,55.5c0.2-0.2,0.4-0.4,0.6-0.5c0.1-0.1,0.1-0.2,0.1-0.4c-0.3-0.3-0.6-0.6-1-1c-0.1,0-0.1-0.1-0.2-0.1
		c-0.1-0.1-0.2-0.2-0.4-0.3c-0.1,0-0.1-0.1-0.2-0.1c-0.1,0-0.5-0.2-1-0.6c-0.1-0.1-0.3-0.2-0.4-0.4c0,0-0.1-0.1-0.1-0.1
		c-0.5,0.7-1.6,0.9-2.4,0.8c0.1,0.1,0.2,0.2,0.3,0.3c0.2,0.2,0.3,0.3,0.5,0.5c0.2,0.1,0.5,0.3,0.7,0.4c0.5,0.3,0.8,0.7,1.2,1.1
		c0.2,0.3,0.5,0.7,0.7,0.9c0.3,0.2,0,0.4,0.4,0.3c0.2-0.1,0.5-0.3,0.7-0.5C101.4,55.8,101.5,55.7,101.6,55.5z"/>
	<path class="st10" d="M99.1,52.2c-0.2-0.1-0.3-0.3-0.4-0.4c-0.3-0.3-0.4-0.8-0.5-1.2c-0.1,0-0.1,0-0.2,0c0-0.1,0-0.2,0-0.3
		c-0.4,0.9-1.2,1.5-2.2,1.7c0,0-0.1,0-0.2,0c0.2,0.2,0.4,0.4,0.7,0.7c0.1,0.1,0.3,0.3,0.4,0.4C97.6,53.1,98.6,52.9,99.1,52.2z"/>
	<path class="st11" d="M95.3,51.6c0,0,0,0.1,0.1,0.1c0.1,0.1,0.1,0.1,0.2,0.2c0.1,0,0.1,0,0.2,0c1-0.1,1.9-0.7,2.2-1.7c0,0,0,0,0,0
		c0,0,0,0,0-0.1c-0.1-0.1-0.1-0.3-0.2-0.4c0,0,0,0,0,0c-0.4-0.4-0.5-0.1-1,0.3c-0.2,0.2-0.4,0.4-0.6,0.6c-0.2,0.2-0.4,0.4-0.6,0.5
		C95.4,51.2,95.3,51.4,95.3,51.6z"/>
	<path class="st12" d="M97.6,38.1c-0.1,0.4-0.1,0.8-0.2,1.2c-0.1,0.6-0.1,1.1,0.1,1.6c0,0,0.1,0,0.1-0.1c0.7-0.6,0.7-1.8,1.2-2.6
		c0.2-0.3,0.4-0.5,0.7-0.7c0.5-0.4,1.1-0.7,1.5-1.1c0.5-0.4,0.8-0.9,0.9-1.6c0-0.3,0-0.6,0.1-0.9c0,0,0,0,0,0c0,0,0-0.1,0-0.1
		c0,0,0,0,0.1,0c0.2-0.2,0.5-0.2,0.8-0.1c0.5,0,0.9,0,1.3,0.2c0.7,0.4,1.4,1.3,2.2,1.1c0.2,0,0.3-0.1,0.5-0.2c0-0.2,0.1-0.4,0.1-0.6
		c0.1,0.2,0.2,0.3,0.3,0.5c0.2,0,0.3,0,0.5,0c0.4,0.1,0.8,0.4,1.1,0.7c0,0,0,0,0.1,0.1c0.5,0.4,1,0.7,1.5,1c0.3,0.1,0.5,0.3,0.8,0.4
		c0.6,0.3,1.1,0.5,1.7,0.6c0.3,0.1,0.6,0.1,0.9,0.2c0.6,0,1.2-0.1,1.6,0.1c0.9,0.5,0.9,1.4,0.8,2.5c0,0.1,0,0.1,0,0.2
		c0-0.1,0.1-0.1,0.1-0.2c0.3-0.6,1-1.1,1.3-1.7c0.3-0.7,0.4-1.4,0.4-2.1c0.1-1.9-0.9-3.9-1-5.8c0.4-0.4-0.2-1.1-0.8-1.4
		c-0.6-0.3-1.2-0.3-1.6-0.7c-0.8-0.6-0.8-1.9-1.6-2.5c-0.2-0.1-0.3-0.2-0.5-0.3c-0.2-0.1-0.4-0.1-0.6-0.2c-2.1-0.5-4.2-0.9-6.3-1
		c-0.5,0-1.1,0-1.5,0.2c-0.3,0.2-0.6,0.5-0.9,0.7c-1.6,1.4-4.2,1.1-5.6,2.6c-0.5,0.5-0.8,1.2-1.1,1.9c-0.7,2.1-1.1,4.2-1.4,6.5
		c0.5-0.6,1.5-0.6,1.9,0c0.2,0.4,0.3,0.8,0.3,1.2c0,0,0,0,0,0.1C97.6,38,97.6,38,97.6,38.1z"/>
	<path class="st12" d="M116.2,41.3c0-0.2,0.1-0.5,0.1-0.7C116.2,40.8,116.2,41,116.2,41.3z"/>
	<path class="st13" d="M97.4,40.8c0,0,0-0.1,0-0.1C97.4,40.7,97.4,40.7,97.4,40.8L97.4,40.8z"/>
	<path class="st13" d="M106,56.1c-0.3,0-0.6-0.1-0.8-0.3c0,0-0.1,0-0.1,0c0,0.1-0.1,0.2-0.3,0.3c-0.2,0.1-0.4,0.1-0.5,0.2
		c0,0,0,0,0,0c0.2,0.1,0.4,0.1,0.6,0.2c0.5,0.1,1.1,0.1,1.5-0.1c0.2-0.1,0.4-0.3,0.7-0.4c0.1-0.1,0.1-0.1,0.2-0.2
		c-0.2,0-0.3,0-0.5,0.1C106.5,55.9,106.3,56.1,106,56.1z"/>
	<path class="st13" d="M99.9,44.7c-0.1,2.1-0.6,4.4-0.2,6.4c0.1,0.1,0.3,0.1,0.4,0.2c0,0,0,0,0,0c0.2,0,0.4,0.1,0.5,0.3
		c0,0,0.1,0,0.2,0.1c0.5,0.3,0.8,0.7,1.2,1.2c0.1,0,0.2,0.1,0.3,0.2c1.6,1.5,3.2,1.8,5.3,1.5c0.5-0.3,0.7-0.5,1.1-1
		c0.5-0.5,0.6,0,0.2,0.4c-0.1,0.2-0.3,0.4-0.5,0.6c0,0,0,0,0.1,0.1c0.5-0.6,1-1.1,1.5-1.7c0.3-0.4,0.6-0.7,0.9-1.1
		c0.6-0.7,1.2-1.4,1.8-2.2c0.4-0.5,0.8-1.1,1.1-1.7c0.1-0.3,0.2-0.5,0.4-0.8c0,0-0.1,0-0.1,0c0,0.2-0.1,0.4-0.2,0.5
		c-0.3,0.4-1,0.5-1.4,0.1c0.1-0.4,0.3-0.8,0.4-1.1c-0.6-0.3-1.1-0.7-1.4-1.3v-0.3c0.4-0.2,0.3,0.1,0.6,0.4c0.2,0.3,0.5,0.5,0.8,0.7
		c0.1,0,0.1,0.1,0.2,0.1c0.3-0.8,0.6-1.6,0.9-2.4c0.1-0.3,0.4-1.5,1.1-1c0.1,0,0.1,0.1,0.1,0.2c0.1,1.3-0.5,2.4-0.9,3.6
		c0,0,0.1,0,0.1,0c0.2-0.6,0.4-1.2,0.6-1.9c0.1-0.4,0.2-0.7,0.3-1.1c0.3-1.1,0.5-2.2,0.7-3.4c0.1-0.4,0.1-0.9,0.2-1.3
		c0-0.2,0-0.4,0-0.6c-0.2-0.4-0.7-0.5-1.1-0.5c-0.3,0-0.7-0.1-1-0.1c-0.3-0.1-0.6-0.1-0.9-0.2c-0.5,0.6-1.8,0.4-1.7-0.5
		c0,0,0,0,0-0.1c-0.3-0.1-0.5-0.3-0.8-0.4c-0.2,0.4-0.6,0.6-1.1,0.8c-1,0.3-1.9-0.3-2.7-0.8c-0.7-0.4-1.4-0.7-2.1-1
		c-1.6,0.9-3.3,1.6-5.1,2.1c-0.3,0.2-0.5,0.5-0.7,0.7c-0.5,0.8-0.4,2-1.2,2.6c0,0,0,0,0,0l0,0c0.1,0.1,0.2,0.2,0.3,0.4
		c0,0.1,0.1,0.2,0.1,0.3v0.3c0,0.1,0,0.3-0.1,0.4c0.2,0.4-0.3,1-0.8,0.7c-0.7-0.3-1-1.1-1-1.8c0.1-1,1-1.8,1.1-2.8
		c0-0.3,0.2-0.5,0.4-0.5c0,0,0,0,0-0.1c0,0,0,0,0,0c-0.2,0-0.3,0-0.5,0.1c-0.8,0.1-1.1-0.7-0.8-1.3c-0.2-0.1-0.5-0.1-0.7,0
		c-0.7,0.3-0.8,1.2-0.7,2c0,1,0,2,0,2.9c0,0.4,0,0.8,0.2,1.1c0.4,0.6,1.2,0.7,1.7,1.1c0.1,0.1,0.2,0.2,0.2,0.3
		C97.9,43.4,99.9,43.5,99.9,44.7z M106.6,46.9c1.3,0.4,1.9-2,2.5-3.3c0.3-0.7,0.7-0.3,1.1,0.3c1.5,2.3-0.5,6.4-2.8,3.8
		C107,47.3,106.8,47.1,106.6,46.9C106.6,46.9,106.6,46.9,106.6,46.9C106.2,46.8,106.1,46.6,106.6,46.9z M107.1,51.3
		c0.9,0.1,1.9,0.2,2.7,0.7c-1.1,0.6-2.4,0.8-3.6,0.6c0.3,0.2,0.7,0.3,1.1,0.4c0.7,0,0.7,1.2,0,1.1c-0.1,0-0.1,0-0.2,0h0
		c-0.7,0-1.4,0-2.1-0.1c-0.3,0-0.5-0.4-0.4-0.7c0.1-0.2,0.3-0.3,0.5-0.4c0-0.2,0.1-0.4,0.4-0.5c-0.7-0.3-1.4-0.7-2-1.3
		c-0.8-0.8-0.6-1.1,0.3-0.7c0.8,0.3,1.6,0.6,2.4,0.7C106.4,51.2,106.7,51.3,107.1,51.3z M102.3,42.2c0.2-0.3,0.2-0.2,0.6,0
		c0.3,0.2,0.6,0.3,0.8,0.4c0.7,0.2,1.3,0.4,2,0.5c0,0,0,0.3,0,0.3c0,0.1,0,0.1,0,0.2c0,0,0,0.1,0,0.1c-1.2-0.1-2.3-0.5-3.4-1.2V42.2
		z"/>
	<path class="st13" d="M114.1,46.9c0,0,0.1,0,0.1,0c0,0,0,0,0,0C114.2,46.9,114.1,46.9,114.1,46.9C114.1,46.9,114.1,46.9,114.1,46.9
		z"/>
	<path class="st13" d="M112,45.7c-0.2-0.2-0.2-0.4-0.4-0.4c0.3,0.5,0.8,0.9,1.4,1.2c0,0,0,0,0,0c0,0-0.1,0-0.1-0.1
		C112.5,46.2,112.2,46,112,45.7z"/>
	<path class="st13" d="M108.9,35.5c-0.4-0.3-0.7-0.6-1.1-0.7c0.4,0.3,0.9,0.6,1.3,0.9C109,35.6,108.9,35.6,108.9,35.5z"/>
	<path class="st14" d="M99.6,52.4c-0.1-0.1-0.3-0.2-0.5-0.2c0,0-0.1,0-0.1,0c0.1,0.1,0.1,0.1,0.2,0.2c0.1,0.1,0.3,0.3,0.4,0.4
		C99.7,52.5,99.6,52.4,99.6,52.4z"/>
	<path class="st14" d="M98,50.1c0.5,0.4,1.1,0.6,1.7,0.9c-0.5-2,0-4.2,0.2-6.4c0.1-1.1-1.9-1.3-2.9-0.6c0.3,0.4,0.3,0.9,0.4,1.4
		c0.1,1.1,0.2,2.2,0.1,3.4c0,0.2,0.1,0.5,0.2,0.9C97.8,49.8,97.9,50,98,50.1z"/>
	<path class="st14" d="M97.4,40.8L97.4,40.8c0-0.1,0-0.1,0-0.1c-0.1-0.4,0-0.9,0-1.3c0.1-0.4,0.1-0.8,0.2-1.2c0,0-0.1-0.1-0.1-0.1
		c-0.2,0.1-0.4,0.2-0.4,0.5c-0.1,1-1,1.7-1.1,2.8c0,0.7,0.3,1.5,1,1.8c0.6,0.2,1-0.4,0.8-0.7C98,42.2,98,42,98,41.9v-0.3
		c0-0.1,0-0.2-0.1-0.3c0-0.1-0.1-0.3-0.3-0.4l0,0c0,0-0.1,0.1-0.1,0.1C97.5,40.9,97.5,40.9,97.4,40.8z"/>
	<path class="st15" d="M105,52.9c-0.2,0-0.4,0.2-0.5,0.4c-0.1,0.3,0.1,0.7,0.4,0.7c0.7,0.1,1.4,0.1,2.1,0.1h0c0.1,0,0.1,0,0.2,0
		c0.7,0.1,0.7-1.1,0-1.1c-0.4,0-0.8-0.2-1.1-0.4c-0.3-0.1-0.6-0.1-0.8-0.2C105.1,52.5,105,52.7,105,52.9z"/>
	<path class="st13" d="M105.7,43.6c0-0.1,0-0.1,0-0.2c0,0,0-0.3,0-0.3c-0.7,0-1.4-0.2-2-0.5c-0.3-0.1-0.6-0.2-0.8-0.4
		c-0.3-0.2-0.3-0.3-0.6,0v0.3C103.3,43.2,104.4,43.6,105.7,43.6C105.7,43.7,105.7,43.6,105.7,43.6z"/>
	<path class="st16" d="M105.7,43.6c0-0.1,0-0.1,0-0.2c0,0,0-0.3,0-0.3c-0.7,0-1.4-0.2-2-0.5c-0.3-0.1-0.6-0.2-0.8-0.4
		c-0.3-0.2-0.3-0.3-0.6,0v0.3C103.3,43.2,104.4,43.6,105.7,43.6C105.7,43.7,105.7,43.6,105.7,43.6z"/>
	<path class="st17" d="M111.5,45.3c0.2,0,0.2,0.2,0.4,0.4c0.2,0.3,0.5,0.5,0.8,0.7c0,0,0.1,0,0.1,0.1c0-0.1,0-0.1,0.1-0.2
		c-0.1,0-0.1-0.1-0.2-0.1c-0.3-0.2-0.6-0.4-0.8-0.7c-0.2-0.3-0.2-0.6-0.6-0.4v0.3c0.3,0.6,0.9,1,1.4,1.3c0-0.1,0.1-0.2,0.1-0.3
		C112.4,46.2,111.9,45.8,111.5,45.3z"/>
	<path class="st17" d="M114.2,46.9c0-0.1,0.1-0.1,0.1-0.2c0,0-0.1,0-0.1,0c0,0.1,0,0.1-0.1,0.2C114.1,46.9,114.2,46.9,114.2,46.9z"
		/>
	<path class="st17" d="M114.1,46.9C114.1,46.9,114.1,46.9,114.1,46.9c0,0.1-0.1,0.2-0.1,0.3c0,0,0.1,0,0.1,0c0-0.1,0.1-0.2,0.1-0.3
		C114.2,46.9,114.1,46.9,114.1,46.9z"/>
	<path class="st18" d="M97,37.9c0.2,0,0.3,0,0.5-0.1c-0.2-0.3-0.4-0.7-0.7-0.9c-0.2-0.1-0.4-0.2-0.6-0.3C96,37.3,96.2,38,97,37.9z"
		/>
	<path class="st18" d="M108.9,35.5c0.1,0.1,0.1,0.1,0.2,0.2c-0.4-0.3-0.9-0.6-1.3-0.9c-0.1,0-0.3,0-0.5,0c0,0,0,0,0,0
		c-0.1,0-0.2,0.1-0.3,0.1c-0.2,0.1-0.3,0.2-0.5,0.2c-0.8,0.1-1.4-0.7-2.2-1.1c-0.4-0.2-0.9-0.2-1.3-0.2c-0.3,0-0.5,0-0.8,0.1
		c0,0,0,0-0.1,0c0,0,0,0.1,0,0.1c0.1,0.7-0.2,1.5-0.7,2.1c-0.1,0.1-0.3,0.3-0.4,0.4c-0.5,0.4-1,0.7-1.5,1.1c1.8-0.4,3.5-1.1,5.1-2.1
		c0.7,0.3,1.4,0.6,2.1,1c0.8,0.5,1.7,1.1,2.7,0.8c0.5-0.1,0.9-0.4,1.1-0.8C109.9,36.3,109.4,35.9,108.9,35.5
		C108.9,35.5,108.9,35.5,108.9,35.5z"/>
	<path class="st18" d="M111.2,37C111.2,37,111.3,37,111.2,37c0,1.1,1.2,1.2,1.7,0.6C112.4,37.4,111.8,37.2,111.2,37z"/>
	<path class="st18" d="M106.8,55.8c0.2,0,0.3,0,0.5-0.1c0.4-0.3,0.8-0.7,1.1-1.1c0,0,0,0-0.1-0.1c-0.4,0.4-0.8,0.7-1.3,1
		C107,55.6,106.9,55.7,106.8,55.8z"/>
	<path class="st18" d="M98.6,51.3c0.1,0.3,0.3,0.6,0.5,0.8c0,0,0.1,0,0.1,0c0.2,0,0.3,0.1,0.5,0.2c0,0.1,0,0.2,0,0.2
		c0.5,0.4,0.9,0.5,1,0.6c0.1,0,0.1,0.1,0.2,0.1c0.2,0.1,0.4,0.3,0.5,0.4c0.4,0.3,0.7,0.6,1,1c0.6,0.6,1.1,1.2,1.9,1.5c0,0,0,0,0,0
		c0.1,0,0.3-0.1,0.5-0.2c0.1-0.1,0.2-0.2,0.3-0.3c0,0,0.1,0,0.1,0c0,0,0,0,0,0c0.7-0.4,1.5-0.8,2.3-1.2c0,0,0,0,0.1,0
		c-2.1,0.2-3.6,0-5.3-1.5c-0.1-0.1-0.2-0.2-0.3-0.2c-0.3-0.5-0.7-0.9-1.2-1.2c0,0-0.1-0.1-0.2-0.1c-0.1-0.1-0.2-0.3-0.5-0.3
		c0,0,0,0,0,0c-0.1-0.1-0.3-0.1-0.4-0.2c-0.6-0.3-1.2-0.5-1.7-0.9c0,0,0,0,0,0.1c0.1,0.1,0.1,0.2,0.2,0.3
		C98.4,50.8,98.5,51.1,98.6,51.3z"/>
	<path class="st15" d="M107.4,47.7c2.3,2.7,4.3-1.4,2.8-3.8c-0.4-0.6-0.8-0.9-1.1-0.3c-0.6,1.3-1.1,3.6-2.5,3.3
		C106.8,47.1,107,47.3,107.4,47.7z"/>
	<path class="st15" d="M106.6,46.9C106.6,46.9,106.6,46.9,106.6,46.9C106.1,46.6,106.2,46.8,106.6,46.9z"/>
	<path class="st17" d="M114.1,46.9C114.1,46.9,114.1,46.9,114.1,46.9c0-0.1,0-0.2,0.1-0.2c0.4-1.2,1.1-2.4,0.9-3.6
		c0,0,0-0.1-0.1-0.2c-0.7-0.5-0.9,0.7-1.1,1c-0.3,0.8-0.6,1.6-0.9,2.4c0,0.1,0,0.1-0.1,0.2c0,0,0,0,0,0c0,0.1-0.1,0.2-0.1,0.3
		c-0.1,0.4-0.3,0.8-0.4,1.1c0.4,0.3,1,0.3,1.4-0.1c0.1-0.2,0.2-0.3,0.2-0.5C114,47.1,114,47,114.1,46.9
		C114.1,46.9,114.1,46.9,114.1,46.9z"/>
	<path class="st19" d="M105.2,55.8C105.2,55.8,105.2,55.8,105.2,55.8c0.2,0.2,0.5,0.4,0.8,0.3c0.3,0,0.6-0.2,0.8-0.3
		c0.1-0.1,0.2-0.1,0.3-0.2c0.4-0.3,0.9-0.6,1.3-1c0.2-0.2,0.4-0.4,0.5-0.6c0.3-0.5,0.2-0.9-0.2-0.4c-0.4,0.4-0.6,0.7-1.1,1
		c0,0,0,0-0.1,0C106.7,55,105.9,55.4,105.2,55.8z"/>
	<path class="st8" d="M103.4,51.1c0.6,0.6,1.3,1,2,1.3c0.3,0.1,0.5,0.2,0.8,0.2c1.2,0.2,2.4,0.1,3.6-0.6c-0.8-0.6-1.8-0.6-2.7-0.7
		c-0.3,0-0.6-0.1-0.9-0.2c-0.8-0.2-1.6-0.5-2.4-0.7C102.8,50,102.6,50.4,103.4,51.1z"/>
	<path class="st20" d="M167.5,129.3c0.6-0.4,1.2-0.8,1.8-1.2l-1.8-1.1V129.3z"/>
	<path class="st21" d="M171,100.8L171,100.8h-3.5v4.9v21.2l1.8,1.1c0.6-0.4,1.2-0.8,1.7-1.3v-21V100.8z"/>
	<path class="st22" d="M197.1,70.8c-0.1,0.1-0.2,0.1-0.2,0.2c-0.1,0.1-0.1,0.1-0.2,0.2c0,0.1,0,0.2-0.1,0.2
		c-0.1,0.3-0.4,0.6-0.6,0.8c0,0.3,0,0.5,0.3,0.8c0.2,0.2,0.4,0.3,0.7,0.4c0.5,0.2,1,0.3,1.6,0.4c0-0.7,0-1.4,0-2.1
		c0-1.7-0.1-3.3-0.2-5c0,0.5-0.1,1-0.2,1.5C198.1,69.2,197.9,70.1,197.1,70.8z"/>
	<path class="st23" d="M196.4,59.1c0,0.4,0,0.8,0.1,1.2c0.3,0.3,0.6,0.5,0.8,0.9c0.2,0.3,0.4,0.5,0.5,0.8c-0.3-2.3-0.8-4.6-1.3-6.9
		c0,0.2,0,0.4,0,0.6C196.4,56.9,196.4,58,196.4,59.1z"/>
	<path class="st23" d="M186.5,64.2c0,0.5-0.6,0.7-0.9,1.1c-0.4,0.5-0.3,1.3,0.1,1.9c0.4,0.6,0.9,0.9,1.4,1.4
		c0.4,0.4,0.7,0.8,1.1,1.2c0.7,0.7,1.5,1,2.4,1.3c0.7,0.3,1.4,0.6,2.1,0.8c0.7,0.3,1.4,0.6,2.1,0.6c0.1,0,0.1,0,0.2,0
		c0,0,0-0.1,0-0.1c0,0-0.1,0-0.1,0c-1.2,0-2.2-1-2.9-2.1c-0.7-1-1.1-2.2-1.9-3.2c-0.7-0.8-1.5-1.4-2.4-1.8c-0.3-0.1-0.7-0.3-0.9-0.7
		c-0.2-0.4-0.1-1,0-1.5c0.2-1.4,0-2.8-0.6-4.1c-0.6-1.2-1.7-2.3-1.9-3.6c-0.1-0.8,0.1-1.7-0.4-2.4c-0.3-0.5-0.9-0.7-1.3-1
		c-0.4-0.4-0.8-1-0.5-1.4c0.3-0.6,1.1-0.5,1.7-0.4c1.3,0.2,2.5,0.5,3.7,0.9c0.4,0.1,0.8,0.3,1.2,0.5c0,0-0.1-0.1-0.1-0.1l0.1,0.1
		c0.2,0.1,0.5,0.3,0.6,0.5c0.4,0.4,0.7,1,1,1.5l0.5,0.6c0.2,0.2,0.4,0.5,0.6,0.7c-0.2-0.4-0.4-0.7-0.6-1.1c-0.7-1.1-1.4-2.2-2.5-2.8
		c-0.7-0.4-1.4-0.6-2.1-0.7c-1.2-0.3-2.4-0.4-3.6-0.5c-0.3,0-0.7,0-1,0.2c-0.2,0.1-0.3,0.4-0.3,0.6c-0.5,1.7,0.1,3.5,0.7,5.2
		c0.4,1.1,0.9,2.2,1.3,3.3c0.5,1.1,1,2.2,1.5,3.3C185.1,63.2,185.6,64.1,186.5,64.2z"/>
	<path class="st23" d="M195.9,72.2c0.3-0.2,0.5-0.4,0.6-0.8c0-0.1,0.1-0.2,0.1-0.2c0.1-0.2,0.1-0.5,0.2-0.7c0,0,0,0,0,0
		c0.2-0.4,0.6-0.6,0.9-1c0.3-0.4,0.3-0.9,0.3-1.3c0,0.1,0,0.1,0,0.2c-0.2,0.6-0.6,1.2-0.9,1.7c-0.3,0.6-0.7,1.1-1,1.6
		c-0.1,0.1-0.2,0.3-0.3,0.4c0,0.1,0,0.1,0,0.2C195.8,72.3,195.9,72.2,195.9,72.2z"/>
	<path class="st23" d="M188.6,51.7C188.6,51.7,188.6,51.7,188.6,51.7c0.6,0.7,1.1,1.4,1.7,2.1c0,0,0-0.1-0.1-0.1L188.6,51.7z"/>
	<path class="st23" d="M191.5,55.2C191.5,55.2,191.5,55.2,191.5,55.2l-0.8-0.9c-0.1-0.2-0.3-0.3-0.4-0.5
		C190.7,54.3,191,54.9,191.5,55.2z"/>
	<path class="st23" d="M195.8,59.9c-0.1-0.3-0.2-0.6-0.4-0.9c-0.4-0.8-1-1.1-1.7-1.5c0.2,0.4,0.5,0.8,0.8,1.2
		C194.9,59.1,195.3,59.5,195.8,59.9z"/>
	<path class="st22" d="M196.4,60.4c-0.2-0.2-0.4-0.3-0.6-0.5c-0.5-0.4-0.9-0.8-1.3-1.2c-0.3-0.3-0.5-0.8-0.8-1.2
		c-0.1-0.1-0.2-0.3-0.3-0.4c-0.4-0.6-1-1-1.4-1.5c-0.2-0.2-0.4-0.4-0.6-0.6c-0.2-0.2-0.4-0.5-0.6-0.7l0.8,0.9l0,0c0,0,0,0,0,0
		c-0.5-0.3-0.9-0.9-1.2-1.4c-0.6-0.7-1.2-1.4-1.7-2.1c-0.4-0.2-0.8-0.4-1.2-0.5c-1.2-0.4-2.4-0.7-3.7-0.9c-0.6-0.1-1.4-0.2-1.7,0.4
		c-0.3,0.5,0.1,1.1,0.5,1.4c0.4,0.3,1,0.6,1.3,1c0.5,0.7,0.3,1.6,0.4,2.4c0.2,1.4,1.3,2.4,1.9,3.6c0.7,1.2,0.8,2.7,0.6,4.1
		c-0.1,0.5-0.2,1.1,0,1.5c0.2,0.3,0.6,0.5,0.9,0.7c0.9,0.5,1.8,1,2.4,1.8c0.8,0.9,1.2,2.1,1.9,3.2c0.7,1,1.7,2,2.9,2.1
		c0,0,0.1,0,0.1,0c-0.1-0.5-0.2-1-0.3-1.5c-0.1-0.6-0.3-1.1-0.4-1.7c-0.4-1.4-0.9-2.7-1.5-4.1c-0.9-2.3-1.9-4.5-2.8-6.8
		c-0.3-0.7-0.5-1.3-1-1.8c-0.9-1-2.3-1.5-2.8-2.8c0.7,1.2,2.1,1.8,3.1,2.7c0.8,0.8,1.4,1.8,2,2.8c2.2,3.9,3.8,8.2,4.6,12.7
		c0.1-0.1,0.2-0.2,0.3-0.4c0.3-0.6,0.7-1.1,1-1.6c0.4-0.6,0.7-1.1,0.9-1.7c0-0.1,0-0.1,0-0.2c0,0,0,0,0,0c0.1-0.5,0.2-1,0.2-1.5
		c-0.1-1.6-0.3-3.1-0.5-4.7c-0.1-0.3-0.3-0.6-0.5-0.8C197,60.9,196.7,60.6,196.4,60.4z"/>
	<path class="st22" d="M190.3,53.8c0.1,0.2,0.3,0.3,0.4,0.5L190.3,53.8C190.3,53.7,190.3,53.8,190.3,53.8z"/>
	<path class="st22" d="M189.3,52.2c-0.2-0.2-0.4-0.3-0.6-0.5l1.7,2C190,53.1,189.7,52.6,189.3,52.2z"/>
	<path class="st22" d="M188.5,51.6c0,0,0.1,0.1,0.1,0.1c0,0,0,0,0,0L188.5,51.6z"/>
	<path class="st23" d="M194.4,92.9c-0.4-0.2-0.4-0.7-0.5-1c-0.3-3.7-0.6-7.5-0.8-11.2c-0.1-1.2-0.2-2.2,1.1-2.7
		c0.3-0.1,0.5-0.1,0.8-0.2c-0.6,0-1.3,0-1.7,0.5c-0.6,0.6-0.5,2-0.6,2.8c-0.2,4.1,0.2,8.1,1.2,12c0,0.1,0.1,0.2,0.2,0.3h0.8
		c0-0.1,0.1-0.3,0.1-0.4c0,0,0,0,0,0C194.8,92.9,194.6,93,194.4,92.9z"/>
	<path class="st23" d="M178.1,93.1c-0.1,0-0.1,0-0.2,0c0,0,0-0.1-0.1-0.2c-0.1-0.7,0-1.4,0.1-2.1c0.1-0.8,0.4-1.7,0-2.4
		c-0.1-0.2-0.3-0.4-0.5-0.6c-0.4-0.7,0.3-2.7,0.9-3.2c0.6-0.6,2.9-0.8,3.4-0.1c0.1,0.1,0.1,0.4,0.1,0.6c0,2.6,0,5.2,0,7.7
		c-0.5,0.1-1,0.2-1.5,0.3l2.6-0.2l0.5-8.9h-6.9l0.3,9.4l2.7-0.2C179,93.2,178.6,93.2,178.1,93.1z"/>
	<path class="st24" d="M181.7,85.1c0-0.2,0-0.4-0.1-0.6c-0.4-0.7-2.8-0.5-3.4,0.1c-0.6,0.6-1.3,2.5-0.9,3.2c0.1,0.2,0.3,0.4,0.5,0.6
		c0.5,0.7,0.2,1.6,0,2.4c-0.1,0.7-0.2,1.4-0.1,2.1c0,0,0,0.1,0.1,0.2c0.1,0,0.1,0,0.2,0c0.5,0,0.9,0,1.4,0c0.2,0,0.5,0,0.7-0.1
		c0.5-0.1,1-0.1,1.5-0.3C181.8,90.2,181.7,87.6,181.7,85.1z"/>
	<path class="st24" d="M196.3,77.7c0,0.3,0,0.6,0,0.8c-0.1-0.3-0.1-0.5-0.2-0.8c-0.3,0-0.7,0-1,0.1c-0.3,0-0.5,0.1-0.8,0.2
		c-1.4,0.5-1.2,1.5-1.1,2.7c0.3,3.7,0.6,7.5,0.8,11.2c0,0.4,0.1,0.8,0.5,1c0.2,0.1,0.4,0,0.6,0c0,0,0,0,0,0
		c1.6-4.8,2.6-9.9,3.1-15.2c-0.4,0-0.9,0-1.3,0C196.6,77.7,196.5,77.7,196.3,77.7z"/>
	<path class="st25" d="M196.1,77.7c0.1,0.3,0.1,0.5,0.2,0.8c0-0.3,0-0.5,0-0.8c0-0.8-0.1-1.7-0.2-2.5c-0.1-1-0.2-1.9-0.4-2.9
		c0-0.1,0-0.1,0-0.2c-0.8-4.5-2.4-8.7-4.6-12.7c-0.6-1-1.2-2.1-2-2.8c-1-0.9-2.4-1.5-3.1-2.7c0.5,1.2,2,1.7,2.8,2.8
		c0.5,0.5,0.7,1.2,1,1.8c0.9,2.2,1.9,4.5,2.8,6.8c0.6,1.4,1.1,2.7,1.5,4.1c0.1,0.6,0.3,1.1,0.4,1.7c0.1,0.5,0.2,1,0.3,1.5
		c0,0,0,0.1,0,0.1C195.3,74.2,195.7,76,196.1,77.7z"/>
	<path class="st20" d="M176.8,93.4h-20.1h-4.9h-22.9v4.4h22.9h4.9h36.6c0.6-1.5,1.1-2.9,1.6-4.4h-0.8H176.8z"/>
	<path class="st20" d="M151.8,98.8h-22.9v2h22.9h4.9h10.8h3.5h0h21c0.3-0.6,0.6-1.3,0.9-2h-36.2H151.8z"/>
	<path class="st26" d="M179.8,82.8c0-0.2,0-0.3,0-0.4c-0.1-0.4-0.3-0.7-0.7-0.9C179.2,82,179.4,82.5,179.8,82.8z"/>
	<path class="st26" d="M177.5,77.9c-0.4,0.3-0.9,0.7-1.1,1.2c-0.2,0.8,0.7,1.4,1.4,1.8c0.4,0.2,0.8,0.4,1.2,0.6
		c-0.1-0.5,0-1,0.2-1.5c0.8-1.4,3.1-1.6,3.7-3.2c0.3-0.7,0.1-1.4,0-2.1c-0.1-0.9-0.3-1.8-0.4-2.7c0-0.2-0.1-0.5-0.2-0.7
		c-0.1-0.2-0.4-0.3-0.7-0.3c-1.4-0.3-2.8-0.3-4.2,0c-0.7,0.1-1.5,0.3-2.1,0.9c-0.7,0.8-0.6,2.1,0,2.9
		C176.2,76,179.2,76.6,177.5,77.9z"/>
	<path class="st26" d="M180.5,83.7c0-0.1,0-0.2,0-0.4c-0.3-0.1-0.5-0.3-0.8-0.5c0,0.2,0,0.3,0.1,0.5
		C179.9,83.6,180.3,83.8,180.5,83.7z"/>
	<path class="st20" d="M92.4,119.6l-3.1,0.5v7.7c1.1,0.8,2.3,1.6,3.5,2.3v-10.5C92.6,119.6,92.5,119.6,92.4,119.6z"/>
	<path class="st20" d="M88.9,127.5c0.1,0.1,0.3,0.2,0.4,0.3l-0.1-6.5L88.9,127.5z"/>
	<path class="st27" d="M150.5,90.2l0.7,1.3c0,0-2.5,0-5.1-0.3c-1-0.1-1.5,0.1-1.9,0.4c-0.3,0.3-0.4,0.8-0.4,1.1c0,0.2,0,0.3,0,0.3h8
		h4.9h4.4c0,0,9.9-19.8,10.4-21.8c0.5-2-1.5-1.5-1.5-1.5l-9.9,20.3l-3.4,0l-4.9,0.1L150.5,90.2L150.5,90.2z"/>
	<path class="st20" d="M92.4,119.6c0.1,0,0.2,0,0.3,0c8.6,0,17.9,0,18.8,0c0,0,0.1,0,0.1,0l0.1-0.3l0.8-2.4c0,0-4-2.8-14.8-2.3
		c-10.9,0.5-22.8,0-24.3-3.5c0,0-2-1-1.5-7c0.5-5.9,3-12.2,3-12.2s1.4-10.6,1.9-11.6c0.5-1,0.5-14.9,0.5-14.9V54.8c0,0-1.5-7-9.4-1
		c0,0-3,1.5-2,8.9s4,11.9,3.5,23.3c-0.2,5.3-1.2,11.2-1.8,16.4c3.2,6.4,7.3,12.2,12.2,17.3c0.6,0,1.3,0,2,0
		C84.5,119.6,88.4,119.6,92.4,119.6z"/>
	<path class="st23" d="M165.6,22.6V13c-0.6-0.4-1.3-0.8-2-1.2v10.8C164.2,22.6,164.8,22.6,165.6,22.6z"/>
	<path class="st24" d="M156.9,34.2h2.7h0.1h12.8c0,0,0.3-1.4-0.6-3.1c-0.4-0.6-1-1.3-1.6-2c-1.9-1.7-5.5-3.5-11.8-4.5
		c-0.5,0.2-1.1,0.6-1.8,1.2c-1.7,1.4-3.7,4-4,8.4h4H156.9z"/>
	<path class="st23" d="M171.9,31.1c0.9,1.7,0.6,3.1,0.6,3.1h1h3.4c-1-7-6.4-10.6-6.4-10.6c-1.9-0.6-3.5-0.9-4.9-1c-0.7,0-1.4,0-2,0
		c-3.7,0.3-5.2,2-5.2,2c0,0,0,0,0,0c6.4,1,9.9,2.7,11.8,4.5C171.1,29.8,171.6,30.5,171.9,31.1z"/>
	<path class="st28" d="M159.8,34.3c-0.1,0-0.1-0.1-0.1-0.1h-2.7c0,0,1.4,3.5,5.8,4.8c0.6,0.2,1.2,0.3,1.9,0.4c0,0,0,0,0.1,0
		C161.5,38.5,160,34.8,159.8,34.3z"/>
	<path class="st29" d="M159.8,34.3c0.2,0.5,1.7,4.2,4.9,5.2c0.5,0.1,0.9,0.2,1.5,0.2c4.5,0,6.4-5.5,6.4-5.5L159.8,34.3
		C159.7,34.2,159.7,34.2,159.8,34.3z"/>
</g>
<g>
	<path class="st9" d="M105.2,142.9c0,0-3.5,5.5-3.5,7c0,1.5,7,5.9,13.3,4.4c0,0,0.5-3-2-3c-2.5,0-6.1-4.1-1.3-7.2
		C111.8,144,105.8,143.3,105.2,142.9z"/>
	<path class="st8" d="M106.6,143.8c0,0-4.9,4.4-4,7c1,2.5,5.5,4,5.5,4l4.9-0.5c0,0,0.5-3-1.5-3s-4.4,0-4-4.4l1.7-2.8L106.6,143.8z"
		/>
	<path class="st4" d="M74.4,108.2c0,0,3.8,1.2,8.6-4.4c4.8-5.6,12.7-8.5,17.2-7.5c4.4,1,21.3,5.9,24.8,8.4s5.5,4,3.5,10.4
		c-2,6.4-15.9,28.7-15.9,28.7s-5.5,1-7.9-1.5c0,0,0-2,2-7.9c2-5.9-0.5-6.4,5.9-16.3v-4c0,0-1-1.5-7-1.5s-25.2-1-25.2-1
		S76.9,111.2,74.4,108.2z"/>
	<path class="st5" d="M81.3,106.3c0,0,5.5-11,18.8-10c0,0,19.3,4.4,25.8,9.9c0,0,4.4,2.5,1,8.9c-3.5,6.4-16,28.9-16,28.9l-4.1-0.4
		l1.9-9.1c0,0,0.5-6.4,2.5-8.4c2-2,4-3,3-8.9c0,0,0.5-4.4,3-6.4c0,0,0-2-5.9,0c0,0-8.9,0-10.4-1.5c-1.5-1.5-4.4-3-9.9-0.5
		C90.8,108.7,80.4,108.9,81.3,106.3z"/>
</g>
<g id="body_2_">
	<path class="st6" d="M81.7,59.2c-1,1.3-1.9,2.6-2.8,4c-0.6,0.8-1.1,1.7-1.4,2.7c-0.3,1.1-0.2,2.3-0.1,3.5c0.2,2.4,0.3,4.8,0.5,7.2
		c0.1,1.6,0.2,3.2-0.1,4.8c-0.3,1.7-1.2,3.3-1.7,4.9c-0.9,2.9-1,6-1.8,9c-0.6,2.2-1.5,4.6-1,6.9c0.4,1.9,1.9,3.6,1.4,5.5
		c1.1,0.9,2.7,0.8,4,0.1c1.3-0.6,2.2-1.7,3.2-2.7c2.3-2.4,4.9-4.6,7.8-6.3c2.9-1.6,6.3-2.6,9.6-2.3c0.2,0,0.4,0,0.6-0.1
		c0.1-0.1,0.2-0.3,0.3-0.5c0.8-2.5-0.1-5.3,0.7-7.7c0.5-1.5,1.8-2.9,1.9-4.5c0-0.5,0-0.9,0.1-1.4c0.1-0.4,0.3-0.7,0.5-1
		c1.5-2.5,3-4.9,4.6-7.4c0.1-0.2,0.2-0.4,0.5-0.5c0.7-0.3,0.9,1.3,1.7,1.5c0.7,0.2,1.2-0.7,1.4-1.5c0.3-1.7,0.6-3.5,0.8-5.2
		c0-0.3,0.1-0.7,0-1c-0.2-0.4-0.7-0.6-1.1-0.7c-1.5-0.7-2.6-2-3.6-3.2c-2.1-2.7-4.3-5.4-6.4-8c-1.2-1.5-3.5-2.2-4.6-3.9
		c-1.6-2.6-3.7,0.4-5.2,1C87.6,53.6,84.2,56,81.7,59.2z"/>
	<path class="st7" d="M93.2,53.2c-1.8,0.7-2.4,2.9-3.7,4.3c-1.1,1.3-2.7,2-4.2,2.9c-1.5,0.9-2.9,2-3.5,3.6c-0.2,0.6-0.2,1.2-0.3,1.8
		c-0.1,3,0.4,6.1-0.3,9c-0.5,2.3-1.6,4.4-2.3,6.7c-0.4,1.4-0.6,2.9-0.9,4.4c-1.3,6.7-4.2,13.4-3.4,20.2c0,0.3,0.1,0.6,0.3,0.7
		c0.2,0.2,0.5,0.3,0.8,0.3c1,0.1,2,0.2,3,0.2c0.3,0,0.7,0,1-0.3c0.3-0.3,0.3-0.8,0.3-1.2c0-1.1,0-2.1,0-3.3c0-1.2,0-2.3,0.6-3.3
		c0.3-0.5,0.7-0.8,1-1.3c1.1-1.3,1.7-2.8,2.3-4.4c2.4-7.2,2.2-15,2.1-22.6c0-0.2,0-0.5,0.1-0.7c0.2-0.2,0.6-0.2,0.9-0.1
		c1.6,0.5,2.3,2.4,3.7,3.4c0.8,0.6,1.8,0.9,2.7,1.5c0.8,0.5,1.4,1.3,2.1,1.9c2.2,1.9,5.1,2.6,7.9,3.3c0.3,0.1,0.7,0.2,1,0
		c0.6-0.3,0.7-1.1,0.7-1.7c0.1-1.1,0.7-2.2,1.5-3c0.7-0.7,1.8-1.4,1.7-2.4c0-1.6-2.4-1.9-3.3-3.1c-0.6-0.7-0.6-1.8-0.6-2.7
		c0-2.3-2-5.9,0.1-7c0.1,0,0.2,0-0.4-1.7c-0.1-0.5-0.7-0.6-1.2-0.8c-2-1.2-2.8-3.5-4.6-4.8C97.5,52,94.6,52.7,93.2,53.2z"/>
	<path class="st8" d="M125.3,78.3c0.4,0.4,0.7,0.7,1.2,0.9c0.5,0.2,1,0.2,1.4,0.2c2.6,0,5.2-0.3,7.8,0c1.5,0.2,3,0.6,4.5,0.8
		c1.9,0.2,3.9,0,5.8,0.1c2,0,4,0.4,5.5,1.6c2.1,1.5,3,4.4,2.2,6.9c-0.1,0-0.3,0-0.4,0c-0.7-1-1.1-2.3-1.2-3.5
		c-0.8-0.4-1.9,0-2.8,0.3c-0.9,0.3-2.1,0.4-2.6-0.3c-0.3-0.5-0.4-1.2-1-1.3c-0.3,0-0.6,0.1-0.8,0.3c-3.1,1.9-6.8,2.9-10.5,2.8
		c4.2,1.4,8.7,1.9,13.1,1.5c1.4-0.1,3.2-0.2,4.1,0.9c-0.7,0-1.4,0.1-2.1,0.2c0.9,0.2,1.6,1,1.7,1.9c-2.1,0.7-4.7-1.3-6.5,0
		c-0.4,0.3-0.7,0.6-1,0.8c-0.4,0.2-0.8,0.2-1.2,0.2c-0.7,0-1.4,0-2.1,0c-0.6,0-1.1,0-1.6-0.1c-0.5-0.1-0.9-0.4-1.4-0.7
		c-1.3-0.6-2.8-0.7-4.2-0.9c-6.2-0.6-12.2-1.7-18.3-2.8c-1.3-0.2-2.5-0.5-3.7-0.7c-2.3-0.6-4.5-1.4-6.5-2.5
		c-0.9-0.5-1.9-1.2-1.8-2.2c0-0.4,0.2-0.8,0.5-1.2c1.4-2.5,2.8-5,4.2-7.5c0.2-0.4,0.4-0.7,0.8-0.9c0.5-0.2,1.1,0.1,1.4,0.6
		c0.3,0.5,0.4,1,0.5,1.5c0.3,0.2,0.6-0.3,0.7-0.7c0.4-2.1,0.7-4.1,1.1-6.2c0.8,0,1.9,1.2,2.7,1.7c1.3,0.8,2.6,1.6,3.9,2.5
		C120.8,74.2,123.2,76.2,125.3,78.3z"/>
	<path class="st9" d="M121,78.7c1.6,1.3,3.2,2.8,5.1,3.4c1.8,0.6,3.7,0.4,5.6,0.5c2.2,0.1,4.4,0.8,6.6,1.2s4.5,0.4,6.5-0.7
		c0.6-0.3,1.2-0.7,1.9-0.7c0.6,0,1.1,0.4,1.5,0.7c0.5,0.4,1,0.7,1.5,1.1c0.4,0.3,0.8,0.9,0.5,1.3c-0.1,0.1-0.4,0.2-0.6,0.2
		c-1.2,0.2-2.6,0.3-3.5-0.6c-0.1-0.2-0.3-0.4-0.5-0.6c-0.6-0.4-1.3-0.2-2,0.1c-2.7,1.2-5.4,2.8-8.4,2.8c-1,0-2.1-0.1-2.8-0.8
		c-0.3-0.3-0.5-0.7-0.8-1c-0.6-0.6-1.3-0.8-2.1-1.1c-1.7-0.5-3.5-0.8-5-1.9c-0.8-0.5-1.5-1.3-2.3-1.8c-1.5-1-3.4-1.2-5.1-1.7
		c-1.8-0.5-3.5-1.4-5.1-2.5c-0.6-0.4-2-1.6-1.2-2.3c0.7-0.7,2.5,0.2,3.2,0.4C116.7,75.8,119,77.1,121,78.7z"/>
	<path class="st9" d="M106.7,82.5c4,2.1,8.9,1.6,13.3,2.8c1.7,0.5,3.3,1.2,5,1.7c3.7,1.1,7.7,0.8,11.3,2.2c1.1,0.4,2.1,0.9,3.2,1.3
		c1.7,0.6,3.5,0.8,5.4,1c-0.6,1.2-2.1,1.4-3.4,1.5c-1.2,0.1-2.6,0.1-3.6-0.6c-0.4-0.3-0.7-0.6-1.2-0.8c-0.7-0.4-1.4-0.4-2.1-0.5
		c-4.6-0.4-9.2-1.2-13.8-2c-5.5-1-11.1-2-16.3-4c-0.6-0.2-1.2-0.5-1.6-0.9c-0.5-0.5-0.7-1.1-0.5-1.7c0.2-0.6,1-0.8,1.5-0.6
		c0-0.1,0-0.3,0-0.5C105,81.4,105.8,82.1,106.7,82.5z"/>
</g>
<g id="emoji_face_2_">
	<g>
		<g>
			<path id="SVGID_4_" class="st8" d="M95.6,51.1c-0.1,0.1-0.3,0.3-0.2,0.5c0,0,0,0.1,0.1,0.1c0.5,0.5,1.1,1.1,1.6,1.6
				c0.2,0.2,0.3,0.3,0.5,0.5c0.2,0.1,0.5,0.3,0.7,0.4c0.5,0.3,0.8,0.7,1.2,1.1c0.2,0.3,0.5,0.7,0.7,0.9c0.3,0.2,0,0.4,0.4,0.3
				c0.6-0.2,1.2-1.2,1.6-1.4c0.2-0.1,0.1-0.6,0-0.8c-0.2-0.3-0.7-0.4-1-0.6c-0.2-0.1-0.3-0.3-0.5-0.5c-0.6-0.6-1.5-0.8-2-1.4
				c-0.5-0.6-0.4-1.6-0.9-2.1c-0.4-0.4-0.5-0.1-1,0.3C96.4,50.4,96,50.7,95.6,51.1z"/>
		</g>
		<g>
			<g>
				<defs>
					<path id="SVGID_1_" d="M95.6,51.1c-0.1,0.1-0.3,0.3-0.2,0.5c0,0,0,0.1,0.1,0.1c0.5,0.5,1.1,1.1,1.6,1.6
						c0.2,0.2,0.3,0.3,0.5,0.5c0.2,0.1,0.5,0.3,0.7,0.4c0.5,0.3,0.8,0.7,1.2,1.1c0.2,0.3,0.5,0.7,0.7,0.9c0.3,0.2,0,0.4,0.4,0.3
						c0.6-0.2,1.2-1.2,1.6-1.4c0.2-0.1,0.1-0.6,0-0.8c-0.2-0.3-0.7-0.4-1-0.6c-0.2-0.1-0.3-0.3-0.5-0.5c-0.6-0.6-1.5-0.8-2-1.4
						c-0.5-0.6-0.4-1.6-0.9-2.1c-0.4-0.4-0.5-0.1-1,0.3C96.4,50.4,96,50.7,95.6,51.1z"/>
				</defs>
				<clipPath id="SVGID_3_">
					<use xlink:href="#SVGID_1_"  style="overflow:visible;"/>
				</clipPath>
				<path class="st30" d="M98.5,50.6c-0.1,0-0.3,0-0.5,0c0.2-0.7-0.9-1.5-1.6-0.9c0,0-0.1,0.1-0.2,0.1c-0.6-0.3-1.4,0-1.5,0.8
					c-0.1,1.1,0.7,2.1,1.7,2.3c1.1,0.3,2.5,0,2.9-1.2C99.6,51.1,99,50.6,98.5,50.6z"/>
			</g>
		</g>
		<g>
			<g>
				<defs>
					<path id="SVGID_5_" d="M95.6,51.1c-0.1,0.1-0.3,0.3-0.2,0.5c0,0,0,0.1,0.1,0.1c0.5,0.5,1.1,1.1,1.6,1.6
						c0.2,0.2,0.3,0.3,0.5,0.5c0.2,0.1,0.5,0.3,0.7,0.4c0.5,0.3,0.8,0.7,1.2,1.1c0.2,0.3,0.5,0.7,0.7,0.9c0.3,0.2,0,0.4,0.4,0.3
						c0.6-0.2,1.2-1.2,1.6-1.4c0.2-0.1,0.1-0.6,0-0.8c-0.2-0.3-0.7-0.4-1-0.6c-0.2-0.1-0.3-0.3-0.5-0.5c-0.6-0.6-1.5-0.8-2-1.4
						c-0.5-0.6-0.4-1.6-0.9-2.1c-0.4-0.4-0.5-0.1-1,0.3C96.4,50.4,96,50.7,95.6,51.1z"/>
				</defs>
				<clipPath id="SVGID_6_">
					<use xlink:href="#SVGID_5_"  style="overflow:visible;"/>
				</clipPath>
				<path class="st31" d="M97,49.6c-0.9,0-1.8,0.7-1.8,1.7c0,0.3,0.3,0.6,0.6,0.6c1.1-0.1,2-0.8,2.3-1.9C98.3,49.3,97.3,49,97,49.6z
					"/>
			</g>
		</g>
	</g>
	<path class="st12" d="M95.3,36.6c0.5-0.6,1.5-0.6,1.9,0c0.4,0.6,0.3,1.4,0.3,2.1c0,0.7-0.2,1.5,0,2.1c0.7-0.4,0.7-1.4,1.1-2.2
		c0.7-1.6,3.1-2.2,3.3-3.9c0-0.3,0-0.6,0.1-0.9c0.3-0.7,1.4,0.1,2,0.4c0.9,0.4,1.7,0.7,2.7,1.2c0.4-0.7,0.5-2,0-2.6
		c0,1.1,0.7,2.4,1.6,3c1.5,1,3.2,1.7,4.9,1.9c0.7,0.1,1.7-0.2,2.3,0.1c1.2,0.7,0.9,2,0.7,3.4c-0.2-1.1,1-1.6,1.5-2.6
		c0.3-0.7,0.4-1.4,0.4-2.1c0.1-1.9-0.9-3.9-1-5.8c0.4-0.4-0.2-1.1-0.8-1.4s-1.2-0.3-1.6-0.7c-0.8-0.6-0.8-1.9-1.6-2.5
		c-0.3-0.3-0.7-0.4-1.1-0.5c-2.1-0.5-4.2-0.9-6.3-1c-0.5,0-1.1,0-1.5,0.2c-0.3,0.2-0.6,0.5-0.9,0.7c-1.6,1.4-4.2,1.1-5.6,2.6
		c-0.5,0.5-0.8,1.2-1.1,1.9C95.9,32.2,95.6,34.3,95.3,36.6z"/>
	<g>
		<g>
			<path id="SVGID_2_" class="st13" d="M97.6,38.1c-0.2-0.4-0.5-0.8-0.8-1.1c-0.4-0.3-0.9-0.5-1.3-0.3c-0.7,0.3-0.8,1.2-0.7,2
				c0,1,0,2,0,2.9c0,0.4,0,0.8,0.2,1.1c0.4,0.6,1.2,0.7,1.7,1.1c0.5,0.4,0.6,1.1,0.7,1.7c0.1,1.1,0.2,2.2,0.1,3.4
				c0,0.6,0.8,1.9,1.1,2.4c0.5,1.3,1.9,1.8,2.1,1.9c1.8,1.2,2.3,2.9,4.2,3.2c0.5,0.1,1.1,0.1,1.5-0.1c0.2-0.1,0.4-0.3,0.7-0.4
				c1.1-0.8,2-1.9,2.8-2.9c0.3-0.4,0.6-0.7,0.9-1.1c1.1-1.2,2.1-2.5,2.8-3.9c0.7-1.4,1.1-2.8,1.4-4.2c0.4-1.5,0.7-3.1,0.8-4.7
				c0-0.2,0-0.4,0-0.6c-0.2-0.4-0.7-0.5-1.1-0.5c-2.1-0.2-4.2-1-5.9-2.4c-0.5-0.4-1.1-0.9-1.7-0.7c-0.3,0-0.5,0.2-0.8,0.3
				c-0.8,0.1-1.4-0.7-2.2-1.1c-0.7-0.3-1.4-0.2-2.2-0.1c0.1,0.7-0.1,1.6-0.7,2.1c-0.7,0.9-2,1.3-2.6,2.3c-0.5,0.9-0.4,2.2-1.3,2.8
				C97.3,40.1,97.5,39.1,97.6,38.1z"/>
		</g>
		<g>
			<g>
				<defs>
					<path id="SVGID_7_" d="M97.6,38.1c-0.2-0.4-0.5-0.8-0.8-1.1c-0.4-0.3-0.9-0.5-1.3-0.3c-0.7,0.3-0.8,1.2-0.7,2c0,1,0,2,0,2.9
						c0,0.4,0,0.8,0.2,1.1c0.4,0.6,1.2,0.7,1.7,1.1c0.5,0.4,0.6,1.1,0.7,1.7c0.1,1.1,0.2,2.2,0.1,3.4c0,0.6,0.8,1.9,1.1,2.4
						c0.5,1.3,1.9,1.8,2.1,1.9c1.8,1.2,2.3,2.9,4.2,3.2c0.5,0.1,1.1,0.1,1.5-0.1c0.2-0.1,0.4-0.3,0.7-0.4c1.1-0.8,2-1.9,2.8-2.9
						c0.3-0.4,0.6-0.7,0.9-1.1c1.1-1.2,2.1-2.5,2.8-3.9c0.7-1.4,1.1-2.8,1.4-4.2c0.4-1.5,0.7-3.1,0.8-4.7c0-0.2,0-0.4,0-0.6
						c-0.2-0.4-0.7-0.5-1.1-0.5c-2.1-0.2-4.2-1-5.9-2.4c-0.5-0.4-1.1-0.9-1.7-0.7c-0.3,0-0.5,0.2-0.8,0.3c-0.8,0.1-1.4-0.7-2.2-1.1
						c-0.7-0.3-1.4-0.2-2.2-0.1c0.1,0.7-0.1,1.6-0.7,2.1c-0.7,0.9-2,1.3-2.6,2.3c-0.5,0.9-0.4,2.2-1.3,2.8
						C97.3,40.1,97.5,39.1,97.6,38.1z"/>
				</defs>
				<clipPath id="SVGID_8_">
					<use xlink:href="#SVGID_7_"  style="overflow:visible;"/>
				</clipPath>
				<path class="st32" d="M100.1,52.2c-1.1-2.3-0.4-5-0.2-7.6c0.1-1.5-3.3-1.3-3.4,0.2c-0.2,3,0.4,5.8,1.7,8.5
					C98.7,54.7,100.7,53.5,100.1,52.2z"/>
			</g>
		</g>
		<g>
			<g>
				<defs>
					<path id="SVGID_9_" d="M97.6,38.1c-0.2-0.4-0.5-0.8-0.8-1.1c-0.4-0.3-0.9-0.5-1.3-0.3c-0.7,0.3-0.8,1.2-0.7,2c0,1,0,2,0,2.9
						c0,0.4,0,0.8,0.2,1.1c0.4,0.6,1.2,0.7,1.7,1.1c0.5,0.4,0.6,1.1,0.7,1.7c0.1,1.1,0.2,2.2,0.1,3.4c0,0.6,0.8,1.9,1.1,2.4
						c0.5,1.3,1.9,1.8,2.1,1.9c1.8,1.2,2.3,2.9,4.2,3.2c0.5,0.1,1.1,0.1,1.5-0.1c0.2-0.1,0.4-0.3,0.7-0.4c1.1-0.8,2-1.9,2.8-2.9
						c0.3-0.4,0.6-0.7,0.9-1.1c1.1-1.2,2.1-2.5,2.8-3.9c0.7-1.4,1.1-2.8,1.4-4.2c0.4-1.5,0.7-3.1,0.8-4.7c0-0.2,0-0.4,0-0.6
						c-0.2-0.4-0.7-0.5-1.1-0.5c-2.1-0.2-4.2-1-5.9-2.4c-0.5-0.4-1.1-0.9-1.7-0.7c-0.3,0-0.5,0.2-0.8,0.3c-0.8,0.1-1.4-0.7-2.2-1.1
						c-0.7-0.3-1.4-0.2-2.2-0.1c0.1,0.7-0.1,1.6-0.7,2.1c-0.7,0.9-2,1.3-2.6,2.3c-0.5,0.9-0.4,2.2-1.3,2.8
						C97.3,40.1,97.5,39.1,97.6,38.1z"/>
				</defs>
				<clipPath id="SVGID_10_">
					<use xlink:href="#SVGID_9_"  style="overflow:visible;"/>
				</clipPath>
				<path class="st33" d="M98.3,38.5c0.1-0.7-1.1-0.7-1.2,0c-0.1,1-1,1.7-1.1,2.8c0,0.7,0.3,1.5,1,1.8c0.6,0.2,1-0.4,0.8-0.7
					C98,42.2,98,42,98,41.9v-0.3c0-0.1,0-0.2-0.1-0.3c0-0.1-0.1-0.3-0.3-0.4l-0.2-0.2c0.1-0.3,0.3-0.5,0.4-0.7
					C98,39.5,98.2,39,98.3,38.5z"/>
			</g>
		</g>
		<g>
			<g>
				<defs>
					<path id="SVGID_11_" d="M97.6,38.1c-0.2-0.4-0.5-0.8-0.8-1.1c-0.4-0.3-0.9-0.5-1.3-0.3c-0.7,0.3-0.8,1.2-0.7,2c0,1,0,2,0,2.9
						c0,0.4,0,0.8,0.2,1.1c0.4,0.6,1.2,0.7,1.7,1.1c0.5,0.4,0.6,1.1,0.7,1.7c0.1,1.1,0.2,2.2,0.1,3.4c0,0.6,0.8,1.9,1.1,2.4
						c0.5,1.3,1.9,1.8,2.1,1.9c1.8,1.2,2.3,2.9,4.2,3.2c0.5,0.1,1.1,0.1,1.5-0.1c0.2-0.1,0.4-0.3,0.7-0.4c1.1-0.8,2-1.9,2.8-2.9
						c0.3-0.4,0.6-0.7,0.9-1.1c1.1-1.2,2.1-2.5,2.8-3.9c0.7-1.4,1.1-2.8,1.4-4.2c0.4-1.5,0.7-3.1,0.8-4.7c0-0.2,0-0.4,0-0.6
						c-0.2-0.4-0.7-0.5-1.1-0.5c-2.1-0.2-4.2-1-5.9-2.4c-0.5-0.4-1.1-0.9-1.7-0.7c-0.3,0-0.5,0.2-0.8,0.3c-0.8,0.1-1.4-0.7-2.2-1.1
						c-0.7-0.3-1.4-0.2-2.2-0.1c0.1,0.7-0.1,1.6-0.7,2.1c-0.7,0.9-2,1.3-2.6,2.3c-0.5,0.9-0.4,2.2-1.3,2.8
						C97.3,40.1,97.5,39.1,97.6,38.1z"/>
				</defs>
				<clipPath id="SVGID_12_">
					<use xlink:href="#SVGID_11_"  style="overflow:visible;"/>
				</clipPath>
				<path class="st34" d="M107.3,53c-0.5,0-1-0.2-1.4-0.5c-0.4-0.4-1,0-1,0.4c-0.2,0-0.4,0.2-0.5,0.4c-0.1,0.3,0.1,0.7,0.4,0.7
					c0.7,0.1,1.4,0.1,2.1,0.1h0c0.1,0,0.1,0,0.2,0C108.1,54.2,108.1,53.1,107.3,53z"/>
			</g>
		</g>
		<g>
			<g>
				<defs>
					<path id="SVGID_13_" d="M97.6,38.1c-0.2-0.4-0.5-0.8-0.8-1.1c-0.4-0.3-0.9-0.5-1.3-0.3c-0.7,0.3-0.8,1.2-0.7,2c0,1,0,2,0,2.9
						c0,0.4,0,0.8,0.2,1.1c0.4,0.6,1.2,0.7,1.7,1.1c0.5,0.4,0.6,1.1,0.7,1.7c0.1,1.1,0.2,2.2,0.1,3.4c0,0.6,0.8,1.9,1.1,2.4
						c0.5,1.3,1.9,1.8,2.1,1.9c1.8,1.2,2.3,2.9,4.2,3.2c0.5,0.1,1.1,0.1,1.5-0.1c0.2-0.1,0.4-0.3,0.7-0.4c1.1-0.8,2-1.9,2.8-2.9
						c0.3-0.4,0.6-0.7,0.9-1.1c1.1-1.2,2.1-2.5,2.8-3.9c0.7-1.4,1.1-2.8,1.4-4.2c0.4-1.5,0.7-3.1,0.8-4.7c0-0.2,0-0.4,0-0.6
						c-0.2-0.4-0.7-0.5-1.1-0.5c-2.1-0.2-4.2-1-5.9-2.4c-0.5-0.4-1.1-0.9-1.7-0.7c-0.3,0-0.5,0.2-0.8,0.3c-0.8,0.1-1.4-0.7-2.2-1.1
						c-0.7-0.3-1.4-0.2-2.2-0.1c0.1,0.7-0.1,1.6-0.7,2.1c-0.7,0.9-2,1.3-2.6,2.3c-0.5,0.9-0.4,2.2-1.3,2.8
						C97.3,40.1,97.5,39.1,97.6,38.1z"/>
				</defs>
				<clipPath id="SVGID_14_">
					<use xlink:href="#SVGID_13_"  style="overflow:visible;"/>
				</clipPath>
				<g class="st35">
					<path class="st16" d="M105.7,43.1c-0.7,0-1.4-0.2-2-0.5c-0.3-0.1-0.6-0.2-0.8-0.4c-0.3-0.2-0.3-0.3-0.6,0v0.3
						c1,0.7,2.1,1.1,3.4,1.2c0,0,0,0,0-0.1c0,0,0,0,0,0.1c0-0.1,0-0.2,0-0.3C105.7,43.4,105.7,43.1,105.7,43.1z"/>
				</g>
			</g>
		</g>
		<g>
			<g>
				<defs>
					<path id="SVGID_15_" d="M97.6,38.1c-0.2-0.4-0.5-0.8-0.8-1.1c-0.4-0.3-0.9-0.5-1.3-0.3c-0.7,0.3-0.8,1.2-0.7,2c0,1,0,2,0,2.9
						c0,0.4,0,0.8,0.2,1.1c0.4,0.6,1.2,0.7,1.7,1.1c0.5,0.4,0.6,1.1,0.7,1.7c0.1,1.1,0.2,2.2,0.1,3.4c0,0.6,0.8,1.9,1.1,2.4
						c0.5,1.3,1.9,1.8,2.1,1.9c1.8,1.2,2.3,2.9,4.2,3.2c0.5,0.1,1.1,0.1,1.5-0.1c0.2-0.1,0.4-0.3,0.7-0.4c1.1-0.8,2-1.9,2.8-2.9
						c0.3-0.4,0.6-0.7,0.9-1.1c1.1-1.2,2.1-2.5,2.8-3.9c0.7-1.4,1.1-2.8,1.4-4.2c0.4-1.5,0.7-3.1,0.8-4.7c0-0.2,0-0.4,0-0.6
						c-0.2-0.4-0.7-0.5-1.1-0.5c-2.1-0.2-4.2-1-5.9-2.4c-0.5-0.4-1.1-0.9-1.7-0.7c-0.3,0-0.5,0.2-0.8,0.3c-0.8,0.1-1.4-0.7-2.2-1.1
						c-0.7-0.3-1.4-0.2-2.2-0.1c0.1,0.7-0.1,1.6-0.7,2.1c-0.7,0.9-2,1.3-2.6,2.3c-0.5,0.9-0.4,2.2-1.3,2.8
						C97.3,40.1,97.5,39.1,97.6,38.1z"/>
				</defs>
				<clipPath id="SVGID_16_">
					<use xlink:href="#SVGID_15_"  style="overflow:visible;"/>
				</clipPath>
				<g class="st36">
					<g class="st37">
						<path class="st17" d="M115.1,46.9c-0.8-0.2-1.6-0.4-2.3-0.8c-0.3-0.2-0.6-0.4-0.8-0.7c-0.2-0.3-0.2-0.6-0.6-0.4v0.3
							c0.7,1.3,2.2,1.8,3.6,2.1c0,0,0,0,0-0.1c0,0,0,0.1,0,0.1c0-0.1,0-0.2,0-0.3C115.1,47.1,115.1,46.9,115.1,46.9z M115,47.1
							c-1.3-0.3-2.7-0.7-3.5-1.9c0.2,0,0.2,0.2,0.4,0.4c0.2,0.3,0.5,0.5,0.8,0.7C113.5,46.8,114.2,46.9,115,47.1L115,47.1z"/>
					</g>
				</g>
			</g>
		</g>
		<g>
			<g>
				<defs>
					<path id="SVGID_17_" d="M97.6,38.1c-0.2-0.4-0.5-0.8-0.8-1.1c-0.4-0.3-0.9-0.5-1.3-0.3c-0.7,0.3-0.8,1.2-0.7,2c0,1,0,2,0,2.9
						c0,0.4,0,0.8,0.2,1.1c0.4,0.6,1.2,0.7,1.7,1.1c0.5,0.4,0.6,1.1,0.7,1.7c0.1,1.1,0.2,2.2,0.1,3.4c0,0.6,0.8,1.9,1.1,2.4
						c0.5,1.3,1.9,1.8,2.1,1.9c1.8,1.2,2.3,2.9,4.2,3.2c0.5,0.1,1.1,0.1,1.5-0.1c0.2-0.1,0.4-0.3,0.7-0.4c1.1-0.8,2-1.9,2.8-2.9
						c0.3-0.4,0.6-0.7,0.9-1.1c1.1-1.2,2.1-2.5,2.8-3.9c0.7-1.4,1.1-2.8,1.4-4.2c0.4-1.5,0.7-3.1,0.8-4.7c0-0.2,0-0.4,0-0.6
						c-0.2-0.4-0.7-0.5-1.1-0.5c-2.1-0.2-4.2-1-5.9-2.4c-0.5-0.4-1.1-0.9-1.7-0.7c-0.3,0-0.5,0.2-0.8,0.3c-0.8,0.1-1.4-0.7-2.2-1.1
						c-0.7-0.3-1.4-0.2-2.2-0.1c0.1,0.7-0.1,1.6-0.7,2.1c-0.7,0.9-2,1.3-2.6,2.3c-0.5,0.9-0.4,2.2-1.3,2.8
						C97.3,40.1,97.5,39.1,97.6,38.1z"/>
				</defs>
				<clipPath id="SVGID_18_">
					<use xlink:href="#SVGID_17_"  style="overflow:visible;"/>
				</clipPath>
				<path class="st38" d="M109.3,34c-0.9,0.2-0.8,1.3-0.2,1.7c-0.8-0.6-1.7-1.1-2.6-1.5c0.2-0.2,0.5-0.4,0.7-0.6
					c0.9-0.8-0.4-2.1-1.4-1.4c-0.5,0.4-0.9,0.8-1.4,1.1c-1-0.3-2-0.4-3-0.4c-1.2,0-1.2,1.9,0,1.9c0.1,0,0.1,0,0.2,0
					c-1.4,0.6-2.9,1-4.5,1.1c-1.2,0.1-1.2,2.1,0,1.9c2.8-0.3,5.3-1.1,7.6-2.5c0.7,0.3,1.4,0.6,2.1,1c0.8,0.5,1.7,1.1,2.7,0.8
					c0.8-0.2,1.3-0.7,1.4-1.4c0.4,0.2,0.6,0.6,0.6,1.1c0,1.2,1.9,1.2,1.9,0C113.3,34.9,111.3,33.4,109.3,34z"/>
			</g>
		</g>
		<g>
			<g>
				<defs>
					<path id="SVGID_19_" d="M97.6,38.1c-0.2-0.4-0.5-0.8-0.8-1.1c-0.4-0.3-0.9-0.5-1.3-0.3c-0.7,0.3-0.8,1.2-0.7,2c0,1,0,2,0,2.9
						c0,0.4,0,0.8,0.2,1.1c0.4,0.6,1.2,0.7,1.7,1.1c0.5,0.4,0.6,1.1,0.7,1.7c0.1,1.1,0.2,2.2,0.1,3.4c0,0.6,0.8,1.9,1.1,2.4
						c0.5,1.3,1.9,1.8,2.1,1.9c1.8,1.2,2.3,2.9,4.2,3.2c0.5,0.1,1.1,0.1,1.5-0.1c0.2-0.1,0.4-0.3,0.7-0.4c1.1-0.8,2-1.9,2.8-2.9
						c0.3-0.4,0.6-0.7,0.9-1.1c1.1-1.2,2.1-2.5,2.8-3.9c0.7-1.4,1.1-2.8,1.4-4.2c0.4-1.5,0.7-3.1,0.8-4.7c0-0.2,0-0.4,0-0.6
						c-0.2-0.4-0.7-0.5-1.1-0.5c-2.1-0.2-4.2-1-5.9-2.4c-0.5-0.4-1.1-0.9-1.7-0.7c-0.3,0-0.5,0.2-0.8,0.3c-0.8,0.1-1.4-0.7-2.2-1.1
						c-0.7-0.3-1.4-0.2-2.2-0.1c0.1,0.7-0.1,1.6-0.7,2.1c-0.7,0.9-2,1.3-2.6,2.3c-0.5,0.9-0.4,2.2-1.3,2.8
						C97.3,40.1,97.5,39.1,97.6,38.1z"/>
				</defs>
				<clipPath id="SVGID_20_">
					<use xlink:href="#SVGID_19_"  style="overflow:visible;"/>
				</clipPath>
				<path class="st39" d="M107.9,54.5c-2.3,0.3-3.9,0.1-5.6-1.5c-0.1-0.1-0.2-0.2-0.3-0.2c-0.3-0.5-0.7-0.9-1.2-1.2
					c0,0-0.1-0.1-0.2-0.1c-0.1-0.1-0.2-0.3-0.5-0.3c0,0,0,0,0,0c-1.6-0.7-3.1-1.1-3.2-3.4c0-0.7-1.2-0.7-1.2,0c0,1,0.3,1.9,1,2.7
					c0.7,0.7,1.4,1,2.2,1.4c0,0.1,0.1,0.1,0.2,0.2c0.2,0,0.3,0.1,0.5,0.2c0,0.1,0,0.3,0,0.4s0.1,0.3,0.2,0.4c-0.5,0.4,0,1.2,0.7,0.9
					c0,0,0.1,0,0.1,0c0.9,2,2.2,3.6,3.9,4.9c0.4,0.3,0.9-0.1,0.8-0.6c0.6,0.2,1.3,0.4,1.9,0.6c0.7,0.2,1-0.9,0.3-1.1
					c-1.4-0.4-2.6-0.7-3.5-1.6c0.1,0,0.3-0.1,0.5-0.2c0.1-0.1,0.2-0.2,0.3-0.3c1.1,0.1,2.2,0,3.3-0.2
					C109,55.5,108.6,54.4,107.9,54.5z"/>
			</g>
		</g>
		<g>
			<g>
				<defs>
					<path id="SVGID_21_" d="M97.6,38.1c-0.2-0.4-0.5-0.8-0.8-1.1c-0.4-0.3-0.9-0.5-1.3-0.3c-0.7,0.3-0.8,1.2-0.7,2c0,1,0,2,0,2.9
						c0,0.4,0,0.8,0.2,1.1c0.4,0.6,1.2,0.7,1.7,1.1c0.5,0.4,0.6,1.1,0.7,1.7c0.1,1.1,0.2,2.2,0.1,3.4c0,0.6,0.8,1.9,1.1,2.4
						c0.5,1.3,1.9,1.8,2.1,1.9c1.8,1.2,2.3,2.9,4.2,3.2c0.5,0.1,1.1,0.1,1.5-0.1c0.2-0.1,0.4-0.3,0.7-0.4c1.1-0.8,2-1.9,2.8-2.9
						c0.3-0.4,0.6-0.7,0.9-1.1c1.1-1.2,2.1-2.5,2.8-3.9c0.7-1.4,1.1-2.8,1.4-4.2c0.4-1.5,0.7-3.1,0.8-4.7c0-0.2,0-0.4,0-0.6
						c-0.2-0.4-0.7-0.5-1.1-0.5c-2.1-0.2-4.2-1-5.9-2.4c-0.5-0.4-1.1-0.9-1.7-0.7c-0.3,0-0.5,0.2-0.8,0.3c-0.8,0.1-1.4-0.7-2.2-1.1
						c-0.7-0.3-1.4-0.2-2.2-0.1c0.1,0.7-0.1,1.6-0.7,2.1c-0.7,0.9-2,1.3-2.6,2.3c-0.5,0.9-0.4,2.2-1.3,2.8
						C97.3,40.1,97.5,39.1,97.6,38.1z"/>
				</defs>
				<clipPath id="SVGID_22_">
					<use xlink:href="#SVGID_21_"  style="overflow:visible;"/>
				</clipPath>
				<path class="st40" d="M109.1,43.7c-0.6,1.3-1.1,3.6-2.5,3.3c-0.6-0.1-0.4-0.6,0.8,0.8c2.3,2.7,4.3-1.4,2.8-3.8
					C109.8,43.4,109.3,43,109.1,43.7z"/>
			</g>
		</g>
		<g>
			<path class="st41" d="M97.6,38.1c-0.2-0.4-0.5-0.8-0.8-1.1c-0.4-0.3-0.9-0.5-1.3-0.3c-0.7,0.3-0.8,1.2-0.7,2c0,1,0,2,0,2.9
				c0,0.4,0,0.8,0.2,1.1c0.4,0.6,1.2,0.7,1.7,1.1c0.5,0.4,0.6,1.1,0.7,1.7c0.1,1.1,0.2,2.2,0.1,3.4c0,0.6,0.8,1.9,1.1,2.4
				c0.5,1.3,1.9,1.8,2.1,1.9c1.8,1.2,2.3,2.9,4.2,3.2c0.5,0.1,1.1,0.1,1.5-0.1c0.2-0.1,0.4-0.3,0.7-0.4c1.1-0.8,2-1.9,2.8-2.9
				c0.3-0.4,0.6-0.7,0.9-1.1c1.1-1.2,2.1-2.5,2.8-3.9c0.7-1.4,1.1-2.8,1.4-4.2c0.4-1.5,0.7-3.1,0.8-4.7c0-0.2,0-0.4,0-0.6
				c-0.2-0.4-0.7-0.5-1.1-0.5c-2.1-0.2-4.2-1-5.9-2.4c-0.5-0.4-1.1-0.9-1.7-0.7c-0.3,0-0.5,0.2-0.8,0.3c-0.8,0.1-1.4-0.7-2.2-1.1
				c-0.7-0.3-1.4-0.2-2.2-0.1c0.1,0.7-0.1,1.6-0.7,2.1c-0.7,0.9-2,1.3-2.6,2.3c-0.5,0.9-0.4,2.2-1.3,2.8
				C97.3,40.1,97.5,39.1,97.6,38.1z"/>
		</g>
	</g>
	<path class="st42" d="M104,37c0.6,0,1.2,0,1.8,0c0.2,0,0.5,0,0.7,0.1c0.2,0,0.4,0.2,0.7,0.3c0.4,0.2,0.8,0.5,1.3,0.7"/>
	<path class="st43" d="M98.8,38.5c1.2-0.1,2.4,0,3.6,0.1c0.3,0,0.7,0.2,0.7,0.5c0,0.1-0.1,0.2-0.1,0.3c-0.6,0.9-0.8,2-0.7,3.1
		c0,0.1,0,0.2,0.1,0.3s0.2,0.1,0.3,0.2c1.4,0.6,2.8,1,4.2,1.3c0.6,0.1,1.2,0.1,1.6-0.2c0.4-0.3,0.5-0.8,0.7-1.3
		c0.3-0.6,0.9-1.2,0.6-1.9c-0.1-0.3-0.5-0.5-0.8-0.7c-2.1-1-4.3-1.6-6.6-1.8"/>
	<path class="st43" d="M103.6,40.8c0.4-0.1,0.7-0.2,1.2-0.3c0.9,0,1.8,0.5,2.1,1.3"/>
	<path id="XMLID_1_" class="st44" d="M106.2,45.7c-0.3,0.5-0.1,1.1,0.3,1.4c0.1,0.1,0.3,0.2,0.5,0.2c0.5,0.2,0.9,0.4,1.4,0.7
		c0.9,0.4,1.9,0.8,2.8,0.5c0-0.7,0-1.4,0-2.2"/>
	<path class="st17" d="M113.9,43.8c-0.5,1.4-1,2.7-1.5,4c0.4,0.3,1,0.3,1.4-0.1c0.2-0.2,0.2-0.5,0.3-0.7c0.4-1.3,1.2-2.6,1-3.9
		c0,0,0-0.1-0.1-0.2C114.3,42.3,114.1,43.5,113.9,43.8z"/>
	<path class="st43" d="M110,41.4c0.7,0.1,1.3,0.1,2,0.2c1.1,0.1,2.2,0.2,3.3,0.7c0.2,0.1,0.3,0.1,0.5,0.2c0.2,0,0.3,0,0.5,0
		c0.5,0.1,0.7,0.8,0.7,1.4c0,0.5,0,1.1-0.4,1.4c-0.2,0.1-0.4,0.1-0.6,0.3c-0.3,0.2-0.5,0.5-0.7,0.7c-0.4,0.4-0.9,0.5-1.5,0.5
		s-1-0.2-1.5-0.5c-0.5-0.3-1-0.7-1.2-1.2c-0.1-0.3-0.1-0.6-0.1-0.9c0-0.7,0-1.5,0.4-2.1"/>
	<path class="st43" d="M112,43.5c0.7-0.3,1.6,0,2.1,0.7"/>
	<path class="st42" d="M113.6,39.7c0.8-0.1,1.6,0.2,2.1,0.9"/>
	<path class="st19" d="M107.5,54.6c-0.7,0.4-1.5,0.8-2.3,1.2c0.1,0.2,0.5,0.4,0.8,0.3c0.4,0,0.8-0.3,1.1-0.5
		c0.7-0.5,1.4-0.9,1.8-1.6c0.3-0.5,0.2-0.9-0.2-0.4C108.3,54,108,54.3,107.5,54.6z"/>
</g>
<path class="st45" d="M102.3,49.7c0.7,0.1,1.5,0.1,2.3,0.2c0.6,0.1,1.2,0.2,1.7,0.3c0.2,0,0.3,0.1,0.5,0.1c0.7,0.1,1.3,0.3,1.8,0.7
	c0.6,0.4,1,1,1.6,1.4"/>
<path class="st46" d="M102.5,49.8c2.2,1.6,4.8,1.9,7.3,2.2"/>
<path class="st8" d="M103.4,51.1c1.8,1.7,4.3,2.1,6.3,0.9c-0.8-0.6-1.8-0.6-2.7-0.7c-0.3,0-0.6-0.1-0.9-0.2
	c-0.8-0.2-1.6-0.5-2.4-0.7C102.8,50,102.6,50.4,103.4,51.1z"/>
<rect x="112.4" y="161.9" width="32.6" height="32.6"/>
<path class="st47" d="M130.4,168.4c-0.8-0.5-2.3-0.6-2.5-1.4l0-0.1c-0.1-0.2-0.2-1.1-0.4-1.1c0,0.4,0,0.7,0,1c0,0,0,0.1,0,0.2
	c0-0.1,0-0.1,0-0.2c0-0.4,0-0.7,0-1c-0.2,0-0.4,1-0.5,1.2l0,0c-0.1,0.4-1.1,1-1.6,1.3c-0.4,0.3-0.9,0.3-0.8,1c0,0.5,0.8,2.6,1,3.1
	c0.3,0.6,0.7,1.5,0.8,1.9c0.2,0.4,0.3,0.7,0.3,1.3c0,0.4,0,1.2-0.3,1.6c0,0,0.3-0.1,0.3-0.1l-0.3,0.1c-0.9,0.3-2.2,1-2.9,1.5
	c-0.6,0.4-2.1,1.3-1.6,2.2c0.4,0.6,0.8,0.5,2.1,0.3c1.1-0.2,1.9-0.7,2.6-0.8c0.8-0.1,0.4,1.5,0.9,1.5c0,0,0.1-0.9,0.1-0.9l0,0.9
	c0,0.3,0,0.5,0,0.6c0,0.6,0.3,1.3,0.2,1.7c-0.1,0.4-0.3,1.3-0.3,2.2c0,0.6,0.2,1,0.1,1.9c0,0.4-0.3,0.7-0.3,1.1c0,0.2,0,0.5,0.1,0.7
	c0,0,0,0.1,0,0.1c0,0,0,0,0,0c0.3,0.2,1.1,0.3,1.1-0.1c0-0.2-0.4-0.5-0.5-0.8c0-0.2,0.1-0.4,0.1-0.7c0.2-1.3,0.6-1.6,0.8-2.9
	c0.1-0.4,0-2.2,0-2.2c-0.1-0.7,0.9-3.1,0.9-4.8c0-1.2-0.3-1.7-0.4-2c-0.6-1.1-0.1-2.4,0.3-3.5l0.2-1c0.2-0.7,0.3-1.3,0.5-2.1
	C130.4,169.9,130.7,169.1,130.4,168.4L130.4,168.4z M129.2,171.2c-0.1,0.3-0.4,0.9-0.9,0.8c-0.3-0.1-0.3-0.4-0.3-0.6
	c0.2,0.1,0.4,0.1,0.5,0.1c0.2,0,0.2-0.1,0.2-0.2c0-0.1,0-0.1,0.1-0.2c0,0,0.1,0,0.1,0c0,0,0,0,0-0.1c0,0,0,0,0,0c0,0,0.1,0,0.1-0.1
	c0-0.1-0.1-0.1,0-0.1c0,0,0.1,0,0.1,0c0,0,0-0.1,0-0.1c0-0.1-0.1-0.1-0.1-0.2c0,0,0,0,0-0.1c0,0,0,0,0,0c0,0,0.1,0,0.1-0.1
	c0,0-0.1,0-0.1,0c0,0,0-0.1,0-0.2c0-0.1,0-0.2,0-0.3c0-0.1,0-0.2-0.1-0.4c0-0.8-0.8-0.8-1-0.8c0,0,0.1,0,0.1-0.1
	c0.1,0,0-0.1-0.1-0.1c-0.1,0-0.1,0.1-0.1,0.1c0-0.1,0-0.1,0.1-0.2c0-0.1-0.1-0.1-0.1,0c0,0,0,0.1,0,0.1c0-0.1-0.1-0.2-0.2-0.2
	c-0.5-0.2-1,0.5-1,0.9c0,0.3,0.3,0.3,0.3,0.3c0,0-0.1,0.1-0.2,0.5c0,0.4,0.3,1,0.4,1.2l0,0c0,0.1,0.1,0.3,0.1,0.4
	c0.1,0.9-0.8,0.8-1,0c-0.3-1-0.4-1.3-0.8-1.9l0,0c0.7-0.5,1.3-1.9,1.9-1.8l0.1,0c0.1,0,0.1-0.1,0.2-0.2c0,0.1,0.1,0.2,0.2,0.2l0,0
	c0.4,0.2,0.8,0.4,1.2,0.7c0.2,0.1,0.5,0.4,0.8,0.5l0,0C129.5,169.7,129.4,170.5,129.2,171.2z"/>
<path d="M167.3,171.5C167.3,171.5,167.3,171.4,167.3,171.5c0-0.1,0-0.1,0-0.1c0.1,0,0.1,0,0.2-0.1c-0.1,0-0.1,0-0.2,0
	c0-0.1,0-0.1,0-0.2c0-0.1,0-0.3,0-0.4c0-0.1,0-0.2-0.1-0.5c0-1-0.9-1.1-1.3-1.1c0.1,0,0.1-0.1,0.2-0.1c0.1,0,0-0.1-0.1-0.1
	c-0.1,0-0.1,0.1-0.2,0.2c0-0.1,0-0.2,0.1-0.2c0.1-0.1-0.1-0.1-0.1,0c0,0,0,0.1,0,0.1c0-0.1-0.1-0.2-0.3-0.3c-0.3-0.1-0.5,0-0.8,0.2
	c0,0,0.2,0.7,0.2,0.7c-0.1-0.2-0.4-1-0.4-1.1c0-0.1-2.5-1.3-2.8-1.4c-0.1-0.1-0.5-0.5-0.6-0.5c-0.2,0-0.4,0-0.5,0
	c-0.2,0-0.8,0-0.9,0.4c0,0-0.1,0.1-0.1,0.1c0,0-1.3,1.4-2.1,2.1c-0.8,0.6-1.5,1.2-2.1,2c-0.2,0.3-0.5,0.8-0.4,1.2
	c0.1,0.4,0.4,0.8,0.6,1.2c0.5,0.8,1.4,2.8,2.7,4.2c-0.1,1.9,0.5,4.5,0.9,5.4c0.3,0.8,0.1,1.6,0.1,2.4c0,1.3,0.7,2.4,0.4,3.7
	c-0.1,0.3-0.3,0.8,0.1,1c0.4,0.2,0.7-0.2,1.1-0.1c0.3,0.1,2.4,0.5,2.3,0.2l0-0.1c-0.1-0.2-0.4-0.1-0.6-0.2c-0.2-0.1-0.5-0.4-0.6-0.4
	c-0.4-0.3-0.9-0.6-1.1-1.1c-0.4-0.8-0.2-1.7-0.2-2.6c-0.1-0.8-0.2-1.6,0-2.4c0.1-0.5,0.2-1.9,0.2-2.6c0-0.8-0.1-1.6-0.1-2.4
	c0-0.1,0-0.6,0-0.6c0,0,0.1,0.5,0.1,0.5c0.4-0.2,0.7-0.5,1.1-0.8c0.4-0.2,0.9-0.3,1.3-0.4c0.5-0.2,0.8-0.4,1.3-0.5
	c0.3-0.1,0.8-0.2,1-0.5l0,0c0.6,0.1,1.2-0.4,0.9-1.2c-0.3-0.6-0.9-1.3-0.7-2c0-0.2,0.2-0.5,0.3-0.7c0.2,0.1,0.6,0.2,0.7,0.2
	c0.2,0,0.2-0.1,0.2-0.3c0-0.1,0-0.2,0.1-0.2c0,0,0.1,0,0.1,0c0,0,0-0.1,0-0.1c0,0-0.1-0.1,0-0.1c0,0,0.1-0.1,0.1-0.1
	c0-0.1-0.1-0.1,0-0.2c0,0,0.1,0,0.1-0.1c0,0,0-0.1,0-0.1C167.4,171.7,167.3,171.6,167.3,171.5z M156.7,172.6
	c-0.1-0.1-0.2-0.2-0.3-0.4l0-0.1c0.3,0,0.8-0.3,0.9-0.5c0.3-0.2,0.4-0.7,0.6-1c0.2-0.3,0.6-1.5,1.1-1.8l0,0c0.1,0.1,0.2,0.1,0.4,0.1
	c0.4,0,0.5-0.3,0.4-0.6c0-0.1,0-0.2-0.1-0.2c0-0.1,0-0.3,0-0.3c0,0,0,0.3,0,0.3c0.3-0.1,0.6-0.3,0.9-0.3c0.4,0,0.8,0.2,1.1,0.5
	c0.3,0.2,1.1,0.8,1.4,1c0,0-0.1-0.4-0.1-0.4c0.1,0.1,0.7,2,0.8,2.4c0.1,0.4,0.1,0.8,0.1,1.3c-0.1,0.5-0.5,1-0.8,1.3
	c-0.4,0.5-0.6,1-0.9,1.4c-0.3,0.4-0.7,0.8-1.2,0.6c-0.5-0.3-0.7-0.8-1.3-1.1c-0.3-0.1-0.7-0.2-1-0.1c0,0-0.3,0.2-0.4,0.2
	c0,0,0.2-0.2,0.2-0.2C157.9,173.4,157,172.9,156.7,172.6z"/>
<circle class="st47" cx="96.1" cy="178.2" r="16.3"/>
<rect y="0.3" class="st48" width="258" height="248.1"/>
<rect x="113.1" y="161.9" width="32.6" height="32.6"/>
<path class="st47" d="M131.1,168.4c-0.8-0.5-2.3-0.6-2.5-1.4l0-0.1c-0.1-0.2-0.2-1.1-0.4-1.1c0,0.4,0,0.7,0,1c0,0,0,0.1,0,0.2
	c0-0.1,0-0.1,0-0.2c0-0.4,0-0.7,0-1c-0.2,0-0.4,1-0.5,1.2l0,0c-0.1,0.4-1.1,1-1.6,1.3c-0.4,0.3-0.9,0.3-0.8,1c0,0.5,0.8,2.6,1,3.1
	c0.3,0.6,0.7,1.5,0.8,1.9c0.2,0.4,0.3,0.7,0.3,1.3c0,0.4,0,1.2-0.3,1.6c0,0,0.3-0.1,0.3-0.1l-0.3,0.1c-0.9,0.3-2.2,1-2.9,1.5
	c-0.6,0.4-2.1,1.3-1.6,2.2c0.4,0.6,0.8,0.5,2.1,0.3c1.1-0.2,1.9-0.7,2.6-0.8c0.8-0.1,0.4,1.5,0.9,1.5c0,0,0.1-0.9,0.1-0.9l0,0.9
	c0,0.3,0,0.5,0,0.6c0,0.6,0.3,1.3,0.2,1.7c-0.1,0.4-0.3,1.3-0.3,2.2c0,0.6,0.2,1,0.1,1.9c0,0.4-0.3,0.7-0.3,1.1c0,0.2,0,0.5,0.1,0.7
	c0,0,0,0.1,0,0.1c0,0,0,0,0,0c0.3,0.2,1.1,0.3,1.1-0.1c0-0.2-0.4-0.5-0.5-0.8c0-0.2,0.1-0.4,0.1-0.7c0.2-1.3,0.6-1.6,0.8-2.9
	c0.1-0.4,0-2.2,0-2.2c-0.1-0.7,0.9-3.1,0.9-4.8c0-1.2-0.3-1.7-0.4-2c-0.6-1.1-0.1-2.4,0.3-3.5l0.2-1c0.2-0.7,0.3-1.3,0.5-2.1
	C131.1,169.9,131.4,169.1,131.1,168.4L131.1,168.4z M129.9,171.2c-0.1,0.3-0.4,0.9-0.9,0.8c-0.3-0.1-0.3-0.4-0.3-0.6
	c0.2,0.1,0.4,0.1,0.5,0.1c0.2,0,0.2-0.1,0.2-0.2c0-0.1,0-0.1,0.1-0.2c0,0,0.1,0,0.1,0c0,0,0,0,0-0.1c0,0,0,0,0,0c0,0,0.1,0,0.1-0.1
	c0-0.1-0.1-0.1,0-0.1c0,0,0.1,0,0.1,0c0,0,0-0.1,0-0.1c0-0.1-0.1-0.1-0.1-0.2c0,0,0,0,0-0.1c0,0,0,0,0,0c0,0,0.1,0,0.1-0.1
	c0,0-0.1,0-0.1,0c0,0,0-0.1,0-0.2c0-0.1,0-0.2,0-0.3c0-0.1,0-0.2-0.1-0.4c0-0.8-0.8-0.8-1-0.8c0,0,0.1,0,0.1-0.1
	c0.1,0,0-0.1-0.1-0.1c-0.1,0-0.1,0.1-0.1,0.1c0-0.1,0-0.1,0.1-0.2c0-0.1-0.1-0.1-0.1,0c0,0,0,0.1,0,0.1c0-0.1-0.1-0.2-0.2-0.2
	c-0.5-0.2-1,0.5-1,0.9c0,0.3,0.3,0.3,0.3,0.3c0,0-0.1,0.1-0.2,0.5c0,0.4,0.3,1,0.4,1.2l0,0c0,0.1,0.1,0.3,0.1,0.4
	c0.1,0.9-0.8,0.8-1,0c-0.3-1-0.4-1.3-0.8-1.9l0,0c0.7-0.5,1.3-1.9,1.9-1.8l0.1,0c0.1,0,0.1-0.1,0.2-0.2c0,0.1,0.1,0.2,0.2,0.2l0,0
	c0.4,0.2,0.8,0.4,1.2,0.7c0.2,0.1,0.5,0.4,0.8,0.5l0,0C130.2,169.7,130.2,170.5,129.9,171.2z"/>
<circle class="st47" cx="162" cy="178.2" r="16.3"/>
<path d="M168,171.5C168,171.5,168,171.4,168,171.5c0-0.1,0-0.1,0-0.1c0.1,0,0.1,0,0.2-0.1c-0.1,0-0.1,0-0.2,0c0-0.1,0-0.1,0-0.2
	c0-0.1,0-0.3,0-0.4c0-0.1,0-0.2-0.1-0.5c0-1-0.9-1.1-1.3-1.1c0.1,0,0.1-0.1,0.2-0.1c0.1,0,0-0.1-0.1-0.1c-0.1,0-0.1,0.1-0.2,0.2
	c0-0.1,0-0.2,0.1-0.2c0.1-0.1-0.1-0.1-0.1,0c0,0,0,0.1,0,0.1c0-0.1-0.1-0.2-0.3-0.3c-0.3-0.1-0.5,0-0.8,0.2c0,0,0.2,0.7,0.2,0.7
	c-0.1-0.2-0.4-1-0.4-1.1c0-0.1-2.5-1.3-2.8-1.4c-0.1-0.1-0.5-0.5-0.6-0.5c-0.2,0-0.4,0-0.5,0c-0.2,0-0.8,0-0.9,0.4
	c0,0-0.1,0.1-0.1,0.1c0,0-1.3,1.4-2.1,2.1c-0.8,0.6-1.5,1.2-2.1,2c-0.2,0.3-0.5,0.8-0.4,1.2c0.1,0.4,0.4,0.8,0.6,1.2
	c0.5,0.8,1.4,2.8,2.7,4.2c-0.1,1.9,0.5,4.5,0.9,5.4c0.3,0.8,0.1,1.6,0.1,2.4c0,1.3,0.7,2.4,0.4,3.7c-0.1,0.3-0.3,0.8,0.1,1
	c0.4,0.2,0.7-0.2,1.1-0.1c0.3,0.1,2.4,0.5,2.3,0.2l0-0.1c-0.1-0.2-0.4-0.1-0.6-0.2c-0.2-0.1-0.5-0.4-0.6-0.4
	c-0.4-0.3-0.9-0.6-1.1-1.1c-0.4-0.8-0.2-1.7-0.2-2.6c-0.1-0.8-0.2-1.6,0-2.4c0.1-0.5,0.2-1.9,0.2-2.6c0-0.8-0.1-1.6-0.1-2.4
	c0-0.1,0-0.6,0-0.6c0,0,0.1,0.5,0.1,0.5c0.4-0.2,0.7-0.5,1.1-0.8c0.4-0.2,0.9-0.3,1.3-0.4c0.5-0.2,0.8-0.4,1.3-0.5
	c0.3-0.1,0.8-0.2,1-0.5l0,0c0.6,0.1,1.2-0.4,0.9-1.2c-0.3-0.6-0.9-1.3-0.7-2c0-0.2,0.2-0.5,0.3-0.7c0.2,0.1,0.6,0.2,0.7,0.2
	c0.2,0,0.2-0.1,0.2-0.3c0-0.1,0-0.2,0.1-0.2c0,0,0.1,0,0.1,0c0,0,0-0.1,0-0.1c0,0-0.1-0.1,0-0.1c0,0,0.1-0.1,0.1-0.1
	c0-0.1-0.1-0.1,0-0.2c0,0,0.1,0,0.1-0.1c0,0,0-0.1,0-0.1C168.1,171.7,168,171.6,168,171.5z M157.4,172.6c-0.1-0.1-0.2-0.2-0.3-0.4
	l0-0.1c0.3,0,0.8-0.3,0.9-0.5c0.3-0.2,0.4-0.7,0.6-1c0.2-0.3,0.6-1.5,1.1-1.8l0,0c0.1,0.1,0.2,0.1,0.4,0.1c0.4,0,0.5-0.3,0.4-0.6
	c0-0.1,0-0.2-0.1-0.2c0-0.1,0-0.3,0-0.3c0,0,0,0.3,0,0.3c0.3-0.1,0.6-0.3,0.9-0.3c0.4,0,0.8,0.2,1.1,0.5c0.3,0.2,1.1,0.8,1.4,1
	c0,0-0.1-0.4-0.1-0.4c0.1,0.1,0.7,2,0.8,2.4c0.1,0.4,0.1,0.8,0.1,1.3c-0.1,0.5-0.5,1-0.8,1.3c-0.4,0.5-0.6,1-0.9,1.4
	c-0.3,0.4-0.7,0.8-1.2,0.6c-0.5-0.3-0.7-0.8-1.3-1.1c-0.3-0.1-0.7-0.2-1-0.1c0,0-0.3,0.2-0.4,0.2c0,0,0.2-0.2,0.2-0.2
	C158.6,173.4,157.7,172.9,157.4,172.6z"/>
<g>
	<path d="M102.5,183.2c-0.6-0.6-1.2-1.2-1.8-1.7c-0.5-0.4-1.3-0.8-1.9-1.2c-0.1-0.4-0.2-0.8-0.2-1.1c-0.1-0.9-0.2-1.8-0.4-2.7
		c-0.1-0.4-0.3-0.8-0.3-1.2c0-0.4,0.1-0.9,0.3-1.3c0.3-0.8,0.3-1.6,0.3-2.5c0-0.5-0.1-0.9-0.1-1.4c0-0.7,0.1-1.1,0.2-1.5
		c0.1-0.1,0.1-0.2,0.1-0.3c0.1-0.4-0.2-0.6-0.6-0.6c-0.4,0-0.7-0.1-1-0.3c-0.3-0.2-0.6-0.4-0.9-0.3c-0.3,0.1-1,0.4-0.7,0.6
		c0.4-0.2,0.8-0.1,1.2,0.2c0.2,0.1,0.3,0.3,0.4,0.5c0.1,0.1,0.2,0.2,0.4,0.3c0,0.8-0.1,1.4-0.2,2.2c-0.1,0.4-0.4,3.1-0.6,3.4
		c-0.1,0.2-0.2,0.4-0.2,0.5c0,0.2,0.1,0.4,0.1,0.6c0.1,0.4-0.2,0.8-0.2,1.1c-0.1,0.4-0.2,0.8-0.2,1.2c-0.1,0.4-0.1,0.8-0.1,1.2
		c0,0.2,0,0.5,0,0.7c-0.3,0.3-0.8,0.6-1.2,0.8c-0.5,0.2-0.9,0.3-1.4,0.5c-0.4,0.2-0.8,0.4-1,0.8c-0.1,0.2-0.2,0.5-0.3,0.7
		c-0.1,0.2-0.3,0.3-0.4,0.5c-0.2,0.2-0.2,0.5-0.2,0.8l0,0c-0.3,0.5-0.5,1-0.1,1.5c0.3,0.4,1.1,0.5,1.3,1c0.1,0.3,0.2,1.1,0.2,1.1
		c0,0-0.1-0.5-0.2-0.5c-0.2,0.1-0.5,0.2-0.6,0.3c-0.2,0.1,0,0.3,0.1,0.4c0.1,0.1,0.1,0.1,0.1,0.2c0,0,0,0.1,0,0.1c0,0,0,0.1,0,0.1
		c0,0,0.1,0,0,0c0,0,0,0.1,0,0.1c0.1,0.1,0.1,0,0.1,0.2c0,0,0,0.1,0,0.1c0,0,0,0.1,0.1,0.1c0.1,0,0.2,0,0.3,0.1c0,0,0.1,0,0.1,0
		c0,0,0,0,0,0c0,0-0.1,0.1-0.1,0.2c0,0,0-0.1,0.1-0.1c0,0.2,0.1,0.3,0.1,0.5c0.1,0.3,0.2,0.7,0.2,0.9c0.2,0.2,1.6,0.3,2,0.3
		c0.9-0.1,1.4-0.2,2.1-0.3c0.2,0,0.4-0.1,0.6-0.1c0.1,0,0.4-0.1,0.6-0.1c0.3,0.1,0.6,0,0.9,0c0.4,0,1.1,0.2,1.4,0.1
		c0.2-0.1,0.4-0.3,0.2-0.4c-0.1,0-0.4,0-0.7-0.1c-0.5-0.1-1-0.5-1-0.7c-0.1-0.4,1.9-3,2.5-3.7C102.6,184.3,103.2,183.9,102.5,183.2z
		 M101,184.2c-1.9,0.7-1.1,2.5-2.5,4.4c-0.4,0.2-0.7,0.8-1.1,0.8c-0.3,0.1-1.2,0.1-1.5,0c-0.2,0-0.6-0.1-1.2-0.2c0.1,0,0.7,0,0.7,0
		c0.1-0.1,0.1-0.1,0.2-0.2c0,0.1,0,0.1-0.1,0.2c-0.1,0.1,0.1,0.1,0.1,0c0-0.1,0-0.2,0-0.3c0,0.1,0.1,0.1,0.1,0.2
		c0,0.1,0.2,0,0.1-0.1c0,0,0-0.1-0.1-0.1c0.1,0,0.3,0.1,0.4,0c0.6-0.3,0.5-1.4,0-1.8c-0.3-0.2-0.6,0-0.6,0c0,0,0-0.1-0.3-0.5
		c-0.3-0.3-0.8-0.4-1.1-0.5c0.1-0.4,0-0.7,0-1.1c-0.1-1-0.2-2.4,0.9-2.8c0.4-0.1,0.8-0.1,1.2-0.1c0.2,0.2,0.7,0.4,1,0.4
		c0.3,0,0.7,0,1.1-0.2l0,0c0.4,0.4,0.8,0.7,1.3,1c0.3,0.2,0.6,0.3,0.9,0.4C100.8,184,101,184,101,184.2L101,184.2z"/>
</g>
<text transform="matrix(1 0 0 1 29.8709 226.8049)"><tspan x="0" y="0" class="st49 st50">Python Anaconda</tspan><tspan x="0" y="12.9" class="st49 st51">by tonyleekorea</tspan></text>
</svg>
