<?xml version="1.0" encoding="utf-8"?>
<!-- Generator: Adobe Illustrator 26.0.3, SVG Export Plug-In . SVG Version: 6.00 Build 0)  -->
<svg version="1.1" xmlns="http://www.w3.org/2000/svg" xmlns:xlink="http://www.w3.org/1999/xlink" x="0px" y="0px"
	 viewBox="0 0 258 258" style="enable-background:new 0 0 258 258;" xml:space="preserve">
<style type="text/css">
	.st0{opacity:0.34;}
	.st1{fill:#0D0800;}
	.st2{fill:#00001B;}
	.st3{fill:none;stroke:#212735;stroke-miterlimit:10;}
	.st4{fill:#2B1211;}
	.st5{fill:#4D2F2F;}
	.st6{fill:#3D0E09;}
	.st7{fill:#3D1910;}
	.st8{fill:#4A3F3F;}
	.st9{fill:#4D4D4D;}
	.st10{fill:#3F3228;}
	.st11{fill:#1A1A1A;}
	.st12{fill:#5D4544;}
	.st13{fill:#1C1930;}
	.st14{fill:#100F1E;}
	.st15{fill:#0F3860;}
	.st16{fill:#0A2056;}
	.st17{fill:none;stroke:#0D0830;stroke-miterlimit:10;}
	.st18{fill:#0D0830;}
	.st19{fill:#163E6D;}
	.st20{fill:#4F779E;}
	.st21{fill:#292C33;}
	.st22{fill:#0F0F0F;}
	.st23{fill:#0C0B18;}
	.st24{fill:#18152A;}
	.st25{fill:#100F1F;}
	.st26{fill:#D67525;}
	.st27{fill:#F9A34E;}
	.st28{fill:none;}
	.st29{fill:none;stroke:#777777;stroke-width:12;stroke-miterlimit:10;}
	.st30{fill:none;stroke:#231F20;stroke-width:0.25;stroke-miterlimit:10;}
	.st31{fill:none;stroke:#000000;stroke-width:0.25;stroke-miterlimit:10;}
</style>
<g id="Layer_3_copy">
	<g class="st0">
		
			<image style="overflow:visible;" width="1374" height="1375" xlink:href="6D0BA870.png"  transform="matrix(0.24 0 0 0.24 -36 -36.08)">
		</image>
	</g>
	<polygon class="st1" points="85.9,37.1 85.9,25.8 129.6,25.3 129.6,79.8 	"/>
	<polygon class="st2" points="84.6,36.9 84.6,91.9 128.3,91.9 128.3,79.5 	"/>
	<polygon class="st1" points="132.6,25 132.6,84.4 140.7,91.9 175.2,91.9 175.2,25 	"/>
	<polygon class="st2" points="132.6,84.4 132.6,91.9 140.7,91.9 	"/>
	<rect x="84.6" y="96.8" class="st2" width="42.6" height="65.9"/>
	<polygon class="st2" points="132.6,96.8 132.6,163.2 176.3,163.2 176.3,125.9 144.5,96.8 	"/>
	<polygon class="st1" points="144.5,96.8 176.3,96.8 176.3,125.9 	"/>
	<line class="st3" x1="48.9" y1="76.7" x2="60.6" y2="76.7"/>
	<path class="st3" d="M50.2,82.2c0.2,0,0.4,0,0.6,0h16"/>
	<line class="st3" x1="59.1" y1="82.5" x2="59.1" y2="87.5"/>
	<line class="st3" x1="47" y1="87.6" x2="63.1" y2="87.6"/>
	<g>
		<path class="st4" d="M96.5,203.7c0,0-3.9,5.9-3.9,7.6c0,1.6,7.6,6.5,14.6,4.9c0,0,0.5-3.2-2.2-3.2c-2.7,0-6.6-4.4-1.4-7.9
			C103.7,204.9,97.2,204.2,96.5,203.7z"/>
		<path class="st5" d="M98,204.7c0,0-5.4,4.9-4.3,7.6c1.1,2.7,5.9,4.3,5.9,4.3l5.4-0.5c0,0,0.5-3.2-1.6-3.2s-4.9,0-4.3-4.9l1.9-3
			L98,204.7z"/>
		<path class="st6" d="M63,165.9c0,0,4.2,1.3,9.4-4.8c5.2-6,13.8-9.3,18.7-8.2c4.9,1.1,23.2,6.5,27,9.2c3.8,2.7,5.9,4.3,3.8,11.3
			c-2.2,7-17.3,31.3-17.3,31.3s-5.9,1.1-8.6-1.6c0,0,0-2.2,2.2-8.6c2.2-6.5-0.5-7,6.5-17.8v-4.3c0,0-1.1-1.6-7.6-1.6
			c-6.5,0-27.5-1.1-27.5-1.1S65.7,169.1,63,165.9z"/>
		<path class="st7" d="M70.5,163.8c0,0,5.9-12,20.5-10.9c0,0,21.1,4.9,28.1,10.8c0,0,4.9,2.7,1.1,9.7c-3.8,7-17.5,31.5-17.5,31.5
			l-4.5-0.5l2-10c0,0,0.5-7,2.7-9.2s4.3-3.2,3.2-9.7c0,0,0.5-4.9,3.2-7c0,0,0-2.2-6.5,0c0,0-9.7,0-11.3-1.6s-4.9-3.2-10.8-0.5
			C80.8,166.4,69.4,166.6,70.5,163.8z"/>
	</g>
	<g id="body_1_">
		<path class="st8" d="M70.9,112.4c-1.1,1.4-2,2.8-3,4.3c-0.6,0.9-1.2,1.9-1.5,2.9c-0.3,1.2-0.3,2.5-0.2,3.8
			c0.2,2.6,0.4,5.2,0.6,7.8c0.1,1.7,0.3,3.5-0.1,5.2c-0.4,1.9-1.2,3.6-1.8,5.4c-1,3.2-1.1,6.5-2,9.8c-0.6,2.5-1.7,5-1.1,7.5
			c0.5,2,2,4,1.5,6c1.2,1,3,0.8,4.3,0.2c1.4-0.7,2.4-1.8,3.5-2.9c2.5-2.6,5.3-5.1,8.5-6.8s6.8-2.8,10.5-2.5c0.2,0,0.5,0,0.6-0.1
			c0.2-0.1,0.3-0.3,0.3-0.5c0.9-2.7-0.1-5.7,0.8-8.4c0.6-1.7,1.9-3.2,2-5c0-0.5,0-1,0.1-1.5c0.1-0.4,0.3-0.7,0.5-1.1
			c1.7-2.7,3.3-5.4,5-8.1c0.1-0.2,0.3-0.4,0.5-0.5c0.8-0.3,1,1.4,1.9,1.6c0.8,0.3,1.3-0.8,1.5-1.7c0.3-1.9,0.6-3.8,0.9-5.7
			c0.1-0.4,0.1-0.8-0.1-1.1c-0.2-0.5-0.8-0.6-1.2-0.8c-1.6-0.7-2.8-2.1-3.9-3.5c-2.3-2.9-4.7-5.8-7-8.7c-1.3-1.6-3.9-2.4-5-4.2
			c-1.7-2.8-4,0.4-5.7,1.1C77.3,106.4,73.6,109,70.9,112.4z"/>
		<path class="st9" d="M83.4,106c-2,0.8-2.7,3.1-4,4.7c-1.2,1.4-3,2.2-4.6,3.1s-3.2,2.1-3.8,3.9c-0.2,0.6-0.3,1.3-0.3,1.9
			c-0.2,3.3,0.4,6.6-0.3,9.8c-0.5,2.5-1.8,4.8-2.5,7.3c-0.5,1.6-0.7,3.2-1,4.8c-1.4,7.3-4.6,14.6-3.7,22c0,0.3,0.1,0.6,0.3,0.8
			c0.2,0.2,0.6,0.3,0.9,0.4c1.1,0.2,2.2,0.2,3.3,0.2c0.4,0,0.8,0,1.1-0.3c0.3-0.3,0.4-0.8,0.4-1.3c0-1.2,0-2.4,0-3.5
			c0-1.2,0-2.6,0.6-3.6c0.3-0.5,0.7-0.9,1.1-1.4c1.2-1.4,1.9-3.1,2.5-4.8c2.6-7.9,2.5-16.3,2.3-24.6c0-0.3,0-0.6,0.2-0.8
			c0.2-0.3,0.7-0.2,1-0.1c1.8,0.6,2.6,2.6,4,3.7c0.9,0.7,2,1,2.9,1.6c0.9,0.6,1.5,1.4,2.3,2c2.4,2,5.6,2.9,8.6,3.6
			c0.4,0.1,0.8,0.2,1.1,0c0.7-0.3,0.7-1.2,0.8-1.9c0.2-1.2,0.8-2.4,1.6-3.3c0.8-0.8,1.9-1.5,1.9-2.6c-0.1-1.7-2.6-2-3.6-3.4
			c-0.6-0.8-0.6-1.9-0.6-2.9c0-2.5-2.1-6.5,0.1-7.6c0.1-0.1,0.3,0-0.4-1.9c-0.2-0.5-0.8-0.6-1.3-0.9c-2.2-1.3-3-3.8-5-5.2
			C88.1,104.6,84.9,105.4,83.4,106z"/>
		<path class="st5" d="M118.4,133.2c0.4,0.4,0.8,0.8,1.3,1c0.5,0.2,1,0.2,1.6,0.3c2.8,0,5.7-0.3,8.5,0c1.7,0.2,3.3,0.7,4.9,0.9
			c2.1,0.2,4.2,0,6.4,0.1c2.1,0.1,4.3,0.5,6,1.7c2.3,1.7,3.3,4.8,2.4,7.5c-0.2,0-0.3,0-0.5,0c-0.8-1.1-1.2-2.5-1.3-3.9
			c-0.9-0.5-2,0-3,0.3c-1,0.3-2.3,0.5-2.9-0.4c-0.4-0.5-0.5-1.3-1.1-1.4c-0.3-0.1-0.6,0.1-0.9,0.3c-3.4,2.1-7.4,3.1-11.4,3
			c4.6,1.5,9.5,2.1,14.2,1.6c1.6-0.1,3.5-0.3,4.4,1c-0.8,0.1-1.6,0.1-2.4,0.2c0.9,0.3,1.7,1.1,1.9,2.1c-2.3,0.8-5.2-1.4-7.1,0
			c-0.4,0.3-0.7,0.7-1.1,0.9c-0.4,0.2-0.9,0.2-1.3,0.2c-0.8,0-1.5,0-2.3,0c-0.6,0-1.2,0-1.8-0.1c-0.5-0.2-1-0.5-1.5-0.7
			c-1.4-0.7-3-0.8-4.6-0.9c-6.7-0.6-13.3-1.8-19.9-3c-1.4-0.2-2.7-0.5-4-0.8c-2.5-0.6-4.9-1.5-7.1-2.7c-1-0.5-2.1-1.3-2-2.4
			c0-0.5,0.3-0.9,0.5-1.3c1.5-2.7,3-5.4,4.5-8.2c0.2-0.4,0.5-0.8,0.9-1c0.5-0.2,1.2,0.1,1.5,0.6c0.3,0.5,0.4,1.1,0.5,1.7
			c0.4,0.2,0.7-0.3,0.7-0.7c0.4-2.2,0.8-4.5,1.2-6.7c0.9,0,2.1,1.3,2.9,1.8c1.4,0.9,2.9,1.8,4.2,2.8
			C113.6,128.8,116.1,130.9,118.4,133.2z"/>
		<path class="st4" d="M113.7,133.6c1.8,1.4,3.4,3,5.6,3.7c2,0.6,4.1,0.4,6.1,0.6c2.4,0.2,4.8,0.9,7.2,1.3c2.4,0.4,5,0.4,7.1-0.7
			c0.7-0.3,1.3-0.8,2.1-0.8c0.6,0,1.2,0.4,1.7,0.8c0.6,0.4,1.1,0.8,1.7,1.2c0.4,0.3,0.9,1,0.6,1.4c-0.2,0.2-0.4,0.2-0.6,0.2
			c-1.3,0.2-2.9,0.3-3.7-0.7c-0.2-0.2-0.3-0.4-0.5-0.6c-0.6-0.5-1.4-0.2-2.1,0.1c-3,1.3-5.9,3-9.1,3.1c-1.1,0-2.2-0.1-3-0.9
			c-0.3-0.3-0.6-0.8-0.9-1.1c-0.6-0.6-1.4-0.9-2.3-1.2c-1.9-0.6-3.9-0.9-5.5-2c-0.9-0.6-1.6-1.4-2.5-1.9c-1.7-1-3.7-1.3-5.6-1.8
			c-2-0.6-3.9-1.5-5.6-2.7c-0.7-0.5-2.1-1.7-1.3-2.6c0.7-0.8,2.7,0.2,3.5,0.5C109,130.6,111.5,131.9,113.7,133.6z"/>
		<path class="st4" d="M98.2,137.9c4.4,2.3,9.7,1.7,14.5,3.1c1.8,0.5,3.6,1.3,5.4,1.9c4,1.2,8.4,0.9,12.4,2.4c1.2,0.4,2.3,1,3.5,1.4
			c1.9,0.7,3.9,0.9,5.9,1.1c-0.6,1.3-2.3,1.5-3.7,1.6c-1.3,0.1-2.8,0.1-3.9-0.6c-0.4-0.3-0.8-0.7-1.3-0.9c-0.7-0.4-1.5-0.5-2.3-0.5
			c-5-0.5-10-1.3-15-2.2c-6-1.1-12.1-2.1-17.8-4.4c-0.6-0.3-1.3-0.5-1.8-1s-0.8-1.2-0.5-1.9c0.3-0.7,1-0.9,1.7-0.6
			c0-0.1,0.1-0.4,0-0.5C96.2,136.6,97.2,137.4,98.2,137.9z"/>
	</g>
	<g>
		<path class="st9" d="M109.9,100.4c0.7,0.1,1.3,0.3,2,0.4c-0.1-1.6-0.1-3.1-0.2-4.7c0-0.2,0-0.3,0.1-0.5c0.1-0.1,0.2-0.1,0.3-0.2
			c0.4-0.2,0.8-0.4,1-0.8s0.1-0.9-0.2-1.1c-0.3-0.2-0.8-0.1-1.1,0.2c-0.3,0.2-0.6,0.6-0.9,0.8c-0.2,0.2-0.4,0.3-0.6,0.5
			c-0.4,0.4-0.5,0.9-0.6,1.4c-0.2,1-0.5,2-0.7,3c-0.1,0.6-0.3,1.2-0.4,1.7c-0.2,0.6-0.4,1.3-0.3,1.9
			C108.4,102.8,109.4,100.3,109.9,100.4z"/>
		<path class="st10" d="M114.3,86.3c-0.5-0.6-1.1-1.1-1.7-1.6c-1-0.7-2-1.4-3-2.2c-0.7-0.5-1.4-1-2.3-1.3c-0.8-0.3-1.8-0.3-2.6,0.1
			c-0.4,0.2-0.7,0.6-1,0.8c-0.8,0.5-2,0.2-2.7,0.9c-0.5,0.5-0.5,1.4-0.6,2.1c-0.1,1.3-0.5,2.5-1.1,3.6c-0.4,0.6-0.8,1.3-0.8,2
			c0,0.6,0.3,1.1,0.5,1.7c0.1,0.6,0,1.3-0.6,1.5c-0.3,0.1-0.6,0-0.8,0.2c-0.2,0.2-0.3,0.5-0.3,0.8c-0.1,2.3-0.1,4.7-0.2,7
			c0.7,0.5,1.2,1.6,2.1,1.8c0.1,1,1.3,1,2.1,1.6c1.2,0.9,2.5,1.7,4,1.9c0.2,0,0.4,0,0.6-0.1c0.1-0.1,0.2-0.2,0.3-0.4
			c0.6-1.1,1.2-2.2,1.7-3.3c-1,0.3-2.1,0-3.1-0.5c-2.4-1-4.6-2.7-6.1-4.9c-0.3-0.4-0.6-0.9-0.7-1.4c-0.2-0.7-0.1-1.5,0.3-2.1
			c0.5-0.9,1.5-1.5,1.7-2.5c0.1-0.5,0.1-1,0.3-1.5c0.5-1,1.9-1.1,3-1c0-1.2,0-2.3,0-3.5c1.7,0,3.4,1.1,4,2.7
			c1.7-0.1,3.3,0.8,4.1,2.3c0.4,0.7,0.5,2.3,1.4,2.5c0.9,0.2,1.7-0.9,1.9-1.5C115.4,90.4,115.3,87.8,114.3,86.3z"/>
		<path class="st11" d="M101.7,80.5c-2.3-0.2-4.6,1.1-5.5,3.2c-0.1,0.3-0.3,0.6-0.6,0.8c-0.2,0.1-0.5,0.2-0.8,0.3
			c-0.3,0.2-0.4,0.7-0.3,1.1c0,1.3,0,2.7,0.1,4c0,1.1,0,2.2-0.7,3.1c-0.5,0.6-1.2,0.8-1.8,1.3c-0.8,0.7-1.1,1.9-1.3,2.9
			c1.7,0.4,3.6-0.9,3.9-2.6c0.2-0.8,0-1.6,0.2-2.3c0.2-0.9,1-1.7,1.9-2c0.7-0.2,1.6-0.2,2.2-0.6c0.7-0.5,0.8-1.4,1-2.2
			c0.1-0.9,0.3-1.8,0.4-2.7c0.1-0.8,0.3-1.7,1-2.2c0.4-0.2,0.8-0.3,1.3-0.4c0.6-0.1,2.5-0.5,2.5-1.3
			C103.9,80.9,102.8,80.6,101.7,80.5z"/>
		<path class="st5" d="M93.6,106.9c0.2-1.1,0.8-2.2,1.8-2.7c0.8-0.4,1.9-0.7,1.9-1.5c0-0.3-0.1-0.6-0.3-0.8c-0.8-1.9-0.7-4-0.5-6.1
			c0-0.4,0.1-0.9,0.3-1.2c0.3-0.4-0.1-1.5,0.3-1.8c0.9-0.7,2-1.3,1-1.9c-0.9-0.5-2,0-2.7,0.8c-0.7,0.9-1.2,2.1-1.1,3.2
			c0,0.4,0.1,0.8-0.1,1.2c-0.3,0.8-1.2,1-2,1.3c-1.1,0.4-2.1,1.1-3.1,1.8c-1.2,0.8-2.7,2.6-3.9,3.4c-0.1,0.1,0,0.4,0,0.5
			c0,0.1,0-0.8,0-0.8c0.9,1.6,2.4,2.8,3.9,3.9c0.8,0.6,1.6,1.1,2.3,1.7c0.6,0.5,1.3,1.4,2,1.8C93.6,108.7,93.5,107.8,93.6,106.9z"/>
		<path class="st12" d="M105.8,86.9c-0.7-0.5-1.6-0.6-2.5-0.6c-0.2,1.2-0.3,2.4-0.3,3.6c-0.6,0-1.2,0-1.8,0.2
			c-0.1,0-0.3,0.1-0.4,0.2c-0.1,0.1-0.1,0.3-0.2,0.3c-1.8,1-2.7,3.1-3.4,4.8c-0.2,0.5-0.5,2.2-0.5,2.7c0,1.1,0.3,4.2,1,4.7
			c0.9,0.7,3.4,2.5,4.3,3.2c1.3,1,2.1,0.9,3.8,1.1c0.3,0,1.8-3.3,2-3.5c0.1-0.1,0.2-0.3,0.3-0.5c0.6-1.7,1.2-3.4,1.3-5.2
			c0.1-1,0.3-1.2,0.9-2c0.7-0.9,1.9-2.1,1.8-3.2c0-0.3-0.2-0.6-0.3-0.8c-0.4-0.8-0.8-1.5-1.4-2.1c-0.9-0.8-1.6-0.6-2.5-0.9
			C106.8,88.7,106.5,87.5,105.8,86.9z"/>
	</g>
	<rect x="164.4" y="157.8" class="st13" width="3.8" height="68.6"/>
	<rect x="148.8" y="223.6" class="st13" width="34.5" height="3.2"/>
	<polygon class="st14" points="164.4,157.8 164.4,186.3 168.2,188.8 168.2,157.8 	"/>
	<path class="st15" d="M202.7,127.5c0.8-0.9,1.7-1.8,2.2-2.9c0.6-1.1,0.9-2.3,0.6-3.5c0.9,0.2,1.9-0.5,2.1-1.4
		c0.1-0.5-0.1-1.1,0.1-1.6c0.4-1.1,1.8-1.2,2.8-1.8c0.9-0.5,1.4-1.5,1.6-2.5s0.2-2.1,0.2-3.1c-0.1-1.8-0.1-3.5-0.2-5.3
		c-0.8-0.1-1.6-0.3-2.3-0.2c-0.8,0.1-1.6,0.4-2,1.1c-0.6,0.9-0.4,2.1-0.5,3.2c-0.3,1.8-1.8,3.2-3.4,4.1s-3.4,1.6-4.8,2.6
		c-0.6,0.5-1.2,1-1.5,1.8c-0.4,1.1-0.1,2.4,0.1,3.5c0.3,1.5,0.1,2.7-1,3.7c-0.7,0.6-1.8,1.4-0.9,2.4c0.7,0.8,2.3,0.8,3.2,1
		C200.4,128.7,201.5,128.8,202.7,127.5z"/>
	<path class="st16" d="M201.8,109.3c0-0.2,0-0.5,0.1-0.7c0.1-0.3,0.4-0.5,0.6-0.8c2-2.2,1.9-5.5,1.8-8.5c0-0.2,0-0.5-0.2-0.6
		c-0.1-0.2-0.3-0.3-0.5-0.3c-2.4-0.8-5.4,0.9-6,3.4c-0.2,0.9-0.2,1.8-0.5,2.6c-0.2,0.6-0.7,1.2-0.9,1.8c-0.3,0.8-0.4,1.8-0.4,2.7
		c0,1.2,0,2.4-0.1,3.6c0,0.9,0,1.9,0.5,2.7c0.3,0.5,0.7,0.9,1.1,1.3c0.3,0.5,0.6,1.1,0.4,1.6c0.1-0.3,1.9-1,2.3-1.3
		c0.7-0.5,1.6-1.3,2-2.1C202.7,113.2,201.8,110.8,201.8,109.3z"/>
	<path class="st16" d="M189.8,106.6c-0.7-1.2-1.5-2.4-2.7-3.1c-0.7-0.4-1.5-0.7-2.3-0.8c-1.3-0.3-2.6-0.5-4-0.5
		c-0.4,0-0.8,0-1.1,0.2c-0.2,0.2-0.3,0.4-0.4,0.7c-0.5,1.9,0.1,3.8,0.8,5.6c0.9,2.4,1.9,4.8,3,7.2c0.4,0.9,1,1.8,1.9,1.9
		c0,0.5-0.7,0.8-1,1.2c-0.5,0.6-0.3,1.4,0.1,2c0.4,0.6,1,1,1.5,1.6c0.4,0.4,0.7,0.9,1.2,1.3c0.7,0.7,1.7,1.1,2.6,1.4
		c0.8,0.3,1.5,0.6,2.3,0.9c0.8,0.3,1.5,0.6,2.3,0.6c0.8,0,1.7-0.4,2-1.2c0.1-0.3,0.1-0.7,0.3-1c0.2-0.4,0.7-0.7,0.9-1
		c0.3-0.4,0.3-1,0.3-1.5c0-1.4,0.1-2.7,0.1-4.1c0.1-1.6-0.4-2.3-1.5-3.4c-0.8-0.8-1-1.5-1.5-2.5c-0.6-1.1-1.5-1.3-2.5-2
		C191.2,109.4,190.6,107.8,189.8,106.6z"/>
	<path class="st15" d="M190.7,108.1c-1.2-0.7-1.5-2.3-2.5-3.3c-0.6-0.5-1.3-0.9-2-1.1c-1.3-0.4-2.7-0.7-4-1
		c-0.6-0.1-1.5-0.2-1.8,0.4c-0.3,0.5,0.1,1.2,0.5,1.6c0.5,0.4,1.1,0.6,1.4,1.1c0.5,0.7,0.3,1.7,0.4,2.6c0.2,1.5,1.4,2.6,2,4
		c0.7,1.3,0.9,2.9,0.6,4.4c-0.1,0.6-0.3,1.2,0,1.7c0.2,0.4,0.6,0.5,1,0.7c1,0.5,1.9,1.1,2.6,2c0.9,1,1.3,2.3,2,3.5
		c0.7,1.1,1.8,2.2,3.2,2.2c0.3,0,0.7-0.1,1-0.3c0.2-0.1,0.3-0.3,0.4-0.5c0.4-0.6,0.7-1.2,1.1-1.8c0.4-0.6,0.8-1.2,1-1.9
		c0.3-0.8,0.3-1.6,0.3-2.5c0-1.9,0-3.9-1.1-5.4c-0.8-1.1-2.1-1.7-3-2.8c-0.4-0.5-0.7-1.2-1.1-1.7c-0.5-0.6-1-1.1-1.6-1.7
		c-1.4-1.3-2.6-2.9-3.8-4.4"/>
	<path class="st17" d="M198.7,132.4c-0.1-2.3-0.1-4.5-0.2-6.8c0-0.5,0-1.1,0.1-1.6c0.1-0.6,0.5-1.1,0.8-1.6c1.6-2.6,3.3-5.2,5.6-7.2
		c1-0.8,2.1-1.5,3.1-2.4s1.6-2.2,1.5-3.5"/>
	<path class="st18" d="M198.4,108.3c0-0.5,0-1,0.1-1.5c0.1-0.4,0.3-0.8,0.6-1.2c0.7-1,1.5-1.9,2.4-2.7c-1.5,1.7-2,4.1-2.1,6.4
		c-0.1,2,0.7,4.6,0.2,6.5c-0.8-0.4-0.8-1.8-0.9-2.6C198.5,111.5,198.5,109.9,198.4,108.3z"/>
	<path class="st16" d="M202.5,133.2c0.5,0.1,1,0.2,1.3,0.6c0.1,0.2,0.2,0.5,0.2,0.7c0.2,2.3,0.4,4.6,0.7,6.9c0.1,0.9,0.2,1.8,0,2.7
		c-0.4,1.7-2,3.3-1.6,5.1c-2.8-0.1-5.6,0.1-8.4,0.8c-0.3,0.1-0.8,0.1-1-0.1c-0.1-0.1-0.1-0.3-0.2-0.4c-1.1-4.3-1.5-8.7-1.3-13.1
		c0-0.9,0-2.3,0.6-3c0.6-0.7,1.5-0.5,2.3-0.5C197.5,132.7,200,132.9,202.5,133.2z"/>
	<polygon class="st16" points="174.2,139.4 174.5,149.7 181.2,149.1 181.7,139.4 	"/>
	<polyline class="st17" points="181.6,140.9 182.8,141 182.8,148.1 181.2,148.1 	"/>
	<path class="st19" d="M179.8,140c0.1,0.2,0.1,0.4,0.1,0.6c0,2.8,0,5.6,0,8.4c-1.3,0.3-2.6,0.4-3.9,0.4c-0.1,0-0.2,0-0.2-0.1
		c-0.1-0.1-0.1-0.1-0.1-0.2c-0.1-0.8-0.1-1.6,0.1-2.3c0.2-0.9,0.5-1.9,0-2.6c-0.2-0.2-0.4-0.4-0.5-0.6c-0.5-0.8,0.4-2.9,1-3.5
		C176.8,139.5,179.4,139.3,179.8,140z"/>
	<path class="st3" d="M133.5,173.5c3.5,0.2,7,0.3,10.5,0.5"/>
	<path class="st3" d="M139.6,174c0,1.7-0.2,3.5-0.5,5.2"/>
	<path class="st3" d="M135.1,179.3c5.4,0.1,10.9,0.5,16.2,1.4"/>
	<path class="st3" d="M143.8,179.7c0.6,1.5,0.8,3.1,0.6,4.7"/>
	<path class="st3" d="M132.2,185.1c5.1-0.3,10.1-0.1,15.2,0.6"/>
	<line class="st3" x1="191.6" y1="54.9" x2="202.5" y2="54.9"/>
	<line class="st3" x1="196" y1="55.4" x2="196" y2="60.9"/>
	<line class="st3" x1="189.2" y1="60.7" x2="206.1" y2="60.7"/>
	<line class="st3" x1="201.4" y1="61" x2="201.4" y2="66.4"/>
	<line class="st3" x1="193.2" y1="66.7" x2="208.1" y2="66.7"/>
	<path class="st19" d="M198.6,132.7c0.3,0,0.6,0,0.8,0.2c0.5,0.4,0.3,1.1,0.1,1.6c-1,2.6-0.8,5.5-0.7,8.3c0.1,1.8,0.2,3.6,0.3,5.5
		c0,0.2,0,0.4-0.1,0.5c-0.1,0.1-0.3,0.1-0.4,0.2c-1.3,0.1-2.6,0.2-3.9,0.4c-0.2,0-0.5,0-0.7-0.1c-0.4-0.2-0.5-0.7-0.5-1.1
		c-0.3-4.1-0.6-8.1-0.9-12.2c-0.1-1.3-0.2-2.4,1.2-2.9C195.1,132.4,197,132.6,198.6,132.7z"/>
	<path class="st18" d="M195.7,129.9c-0.4-6-2.5-11.9-5.4-17.2c-0.6-1.1-1.3-2.3-2.2-3.1c-1.1-1-2.6-1.7-3.4-3c0.5,1.3,2.2,1.9,3.1,3
		c0.5,0.6,0.8,1.3,1.1,2c1,2.5,2,4.9,3,7.4c0.6,1.5,1.2,2.9,1.6,4.4c0.2,0.6,0.3,1.2,0.4,1.9c0.6,2.8,1.2,5.5,1.8,8.3
		C195.8,132.3,195.8,131,195.7,129.9z"/>
	<path class="st17" d="M192,135.1c1.7-0.1,4.4,0.8,6.1,0.7c1.9-0.1,3.7-0.8,5.2-1.9"/>
	<path class="st17" d="M206,132.4c-0.7,0.1-4,3.3-4.6,3.6c-1.2,0.6-2.4,1.1-3.7,1.5c-0.8,0.2-1.7,0.4-2.4,0.9
		c-0.6,0.4-2.6,1.1-3.4,1.1"/>
	<path class="st17" d="M192.8,141.2c0.6,0.2,1.2,0.4,1.8,0.5c3.1,0.8,8.2,0,11.4-0.2"/>
	<path class="st17" d="M206,142.1c-1.3-0.1-4.5,0.9-5.7,1.3c-0.8,0.3-1.5,0.7-2.2,0.9c-1.6,0.5-5.7,0.2-7.1,1"/>
	<path class="st17" d="M192,147c2.6,0.6,9.7,1.5,12.4,1.6"/>
	<rect x="122.3" y="149.7" class="st13" width="85.8" height="4.9"/>
	<rect x="122.3" y="155.6" class="st13" width="85.8" height="2.2"/>
	<path class="st20" d="M173.1,129.5c-0.7-0.9-0.8-2.3,0-3.2c0.6-0.6,1.4-0.8,2.3-1c1.5-0.2,3.1-0.3,4.6,0c0.3,0.1,0.6,0.1,0.7,0.3
		c0.2,0.2,0.2,0.5,0.3,0.7c0.1,1,0.3,1.9,0.4,2.9c0.1,0.8,0.2,1.6-0.1,2.3c-0.7,1.7-3.1,1.9-4,3.4c-0.7,1.2-0.1,3.1,1.3,3.6
		c0,0.1,0,0.3,0,0.4c-0.3,0.2-0.7-0.1-0.8-0.4s0-0.7-0.1-1c-0.2-0.9-1.2-1.3-2-1.6c-0.8-0.3-1.8-1-1.6-1.9c0.1-0.6,0.7-0.9,1.2-1.3
		C177.3,131.4,173.9,130.7,173.1,129.5z"/>
	<polygon class="st13" points="79.2,178.8 79.2,189.1 82.9,190.7 82.9,178.3 	"/>
	<path class="st13" d="M79,180.1l-1,18.2c0,0,3.8,2.2,4.9-1.1v-6.5l-3.8-1.1L79,180.1z"/>
	<polyline class="st13" points="77,200.4 83.5,200.4 82.4,219.3 79.2,219.3 77,201 	"/>
	<path class="st21" d="M145.8,146.1l10.5-0.2l10.8-22.1c0,0,2.2-0.5,1.6,1.6c-0.5,2.2-11.3,23.8-11.3,23.8h-18.9c0,0-0.4-2.3,2.5-2
		c2.9,0.3,5.6,0.3,5.6,0.3L145.8,146.1z"/>
	<path class="st22" d="M66.2,119.4v-11.9c0,0-1.6-7.6-10.3-1.1c0,0-3.2,1.6-2.2,9.7c1.1,8.1,4.3,13,3.8,25.4
		C57,154,52.7,169.6,57,173.4c4.3,3.8,4.3,4.9,14,4.9s32.4,0,32.4,0l1-2.9c0,0-4.3-3.1-16.2-2.5c-11.9,0.5-24.8,0-26.5-3.8
		c0,0-2.2-1.1-1.6-7.6c0.5-6.5,3.3-13.3,3.3-13.3s1.5-11.5,2.1-12.6S66.2,119.4,66.2,119.4z"/>
	<circle class="st13" cx="56.8" cy="223.9" r="3"/>
	<circle class="st13" cx="81" cy="223.9" r="3"/>
	<circle class="st23" cx="106.1" cy="224.2" r="3.2"/>
	<path class="st24" d="M54.9,219.3l0.5-2.7c0,0,10.8-4.9,21.6-5.9h1.1l0.2,1.6l-20.8,4.4l-1.6,2.7H54.9z"/>
	<path class="st14" d="M57.6,219.9l0.5-2.2c0,0,19.4-3.8,20-2.7s0-2.7,0-2.7l-20.5,4.3V219.9z"/>
	<polygon class="st13" points="83.5,210.1 93.7,212.3 95.1,214.1 83,212.3 	"/>
	<polygon class="st25" points="82.9,212.3 95.3,213.9 98.3,216.1 82.6,215 	"/>
	<rect x="167.7" y="14.7" class="st16" width="2.2" height="43.3"/>
	<path class="st19" d="M155.8,70.2h22.7c0,0-3.2-11-15.7-11.6C162.8,58.6,156.3,60.9,155.8,70.2z"/>
	<path class="st16" d="M162.1,59c0,0,3.5-4.4,13.2-1.2c0,0,5.9,4.3,7,12.4h-4.8C177.5,70.2,179.3,61.8,162.1,59z"/>
	<path class="st26" d="M160.4,70.2c0,0,1.9,5.3,8.4,6.1c6.5,0.8-5.4-6.1-5.4-6.1H160.4z"/>
	<path class="st27" d="M163.4,70.2h14c0,0-2.2,6.4-7,6.4C165.5,76.5,163.4,70.2,163.4,70.2z"/>
	<g>
		<path class="st28" d="M6.5,117.4C6.2,121.2,6,125.1,6,129s0.2,7.8,0.5,11.6V117.4z"/>
		<path d="M129,252c67.9,0,123-55.1,123-123S196.9,6,129,6C65,6,12.4,54.9,6.5,117.4v23.2C12.4,203.1,65,252,129,252z"/>
	</g>
	<polygon class="st1" points="85.9,37.1 85.9,25.8 129.6,25.3 129.6,79.8 	"/>
	<polygon class="st2" points="84.6,36.9 84.6,91.9 128.3,91.9 128.3,79.5 	"/>
	<polygon class="st1" points="132.6,25 132.6,84.4 140.7,91.9 175.2,91.9 175.2,25 	"/>
	<polygon class="st2" points="132.6,84.4 132.6,91.9 140.7,91.9 	"/>
	<rect x="84.6" y="96.8" class="st2" width="42.6" height="65.9"/>
	<polygon class="st2" points="132.6,96.8 132.6,163.2 176.3,163.2 176.3,125.9 144.5,96.8 	"/>
	<polygon class="st1" points="144.5,96.8 176.3,96.8 176.3,125.9 	"/>
	<line class="st3" x1="48.9" y1="76.7" x2="60.6" y2="76.7"/>
	<path class="st3" d="M50.2,82.2c0.2,0,0.4,0,0.6,0h16"/>
	<line class="st3" x1="59.1" y1="82.5" x2="59.1" y2="87.5"/>
	<line class="st3" x1="47" y1="87.6" x2="63.1" y2="87.6"/>
	<g>
		<path class="st4" d="M96.5,203.7c0,0-3.9,5.9-3.9,7.6c0,1.6,7.6,6.5,14.6,4.9c0,0,0.5-3.2-2.2-3.2c-2.7,0-6.6-4.4-1.4-7.9
			C103.7,204.9,97.2,204.2,96.5,203.7z"/>
		<path class="st5" d="M98,204.7c0,0-5.4,4.9-4.3,7.6c1.1,2.7,5.9,4.3,5.9,4.3l5.4-0.5c0,0,0.5-3.2-1.6-3.2s-4.9,0-4.3-4.9l1.9-3
			L98,204.7z"/>
		<path class="st6" d="M63,165.9c0,0,4.2,1.3,9.4-4.8c5.2-6,13.8-9.3,18.7-8.2c4.9,1.1,23.2,6.5,27,9.2c3.8,2.7,5.9,4.3,3.8,11.3
			c-2.2,7-17.3,31.3-17.3,31.3s-5.9,1.1-8.6-1.6c0,0,0-2.2,2.2-8.6c2.2-6.5-0.5-7,6.5-17.8v-4.3c0,0-1.1-1.6-7.6-1.6
			c-6.5,0-27.5-1.1-27.5-1.1S65.7,169.1,63,165.9z"/>
		<path class="st7" d="M70.5,163.8c0,0,5.9-12,20.5-10.9c0,0,21.1,4.9,28.1,10.8c0,0,4.9,2.7,1.1,9.7c-3.8,7-17.5,31.5-17.5,31.5
			l-4.5-0.5l2-10c0,0,0.5-7,2.7-9.2s4.3-3.2,3.2-9.7c0,0,0.5-4.9,3.2-7c0,0,0-2.2-6.5,0c0,0-9.7,0-11.3-1.6s-4.9-3.2-10.8-0.5
			C80.8,166.4,69.4,166.6,70.5,163.8z"/>
	</g>
	<g id="body_2_">
		<path class="st8" d="M70.9,112.4c-1.1,1.4-2,2.8-3,4.3c-0.6,0.9-1.2,1.9-1.5,2.9c-0.3,1.2-0.3,2.5-0.2,3.8
			c0.2,2.6,0.4,5.2,0.6,7.8c0.1,1.7,0.3,3.5-0.1,5.2c-0.4,1.9-1.2,3.6-1.8,5.4c-1,3.2-1.1,6.5-2,9.8c-0.6,2.5-1.7,5-1.1,7.5
			c0.5,2,2,4,1.5,6c1.2,1,3,0.8,4.3,0.2c1.4-0.7,2.4-1.8,3.5-2.9c2.5-2.6,5.3-5.1,8.5-6.8s6.8-2.8,10.5-2.5c0.2,0,0.5,0,0.6-0.1
			c0.2-0.1,0.3-0.3,0.3-0.5c0.9-2.7-0.1-5.7,0.8-8.4c0.6-1.7,1.9-3.2,2-5c0-0.5,0-1,0.1-1.5c0.1-0.4,0.3-0.7,0.5-1.1
			c1.7-2.7,3.3-5.4,5-8.1c0.1-0.2,0.3-0.4,0.5-0.5c0.8-0.3,1,1.4,1.9,1.6c0.8,0.3,1.3-0.8,1.5-1.7c0.3-1.9,0.6-3.8,0.9-5.7
			c0.1-0.4,0.1-0.8-0.1-1.1c-0.2-0.5-0.8-0.6-1.2-0.8c-1.6-0.7-2.8-2.1-3.9-3.5c-2.3-2.9-4.7-5.8-7-8.7c-1.3-1.6-3.9-2.4-5-4.2
			c-1.7-2.8-4,0.4-5.7,1.1C77.3,106.4,73.6,109,70.9,112.4z"/>
		<path class="st9" d="M83.4,106c-2,0.8-2.7,3.1-4,4.7c-1.2,1.4-3,2.2-4.6,3.1s-3.2,2.1-3.8,3.9c-0.2,0.6-0.3,1.3-0.3,1.9
			c-0.2,3.3,0.4,6.6-0.3,9.8c-0.5,2.5-1.8,4.8-2.5,7.3c-0.5,1.6-0.7,3.2-1,4.8c-1.4,7.3-4.6,14.6-3.7,22c0,0.3,0.1,0.6,0.3,0.8
			c0.2,0.2,0.6,0.3,0.9,0.4c1.1,0.2,2.2,0.2,3.3,0.2c0.4,0,0.8,0,1.1-0.3c0.3-0.3,0.4-0.8,0.4-1.3c0-1.2,0-2.4,0-3.5
			c0-1.2,0-2.6,0.6-3.6c0.3-0.5,0.7-0.9,1.1-1.4c1.2-1.4,1.9-3.1,2.5-4.8c2.6-7.9,2.5-16.3,2.3-24.6c0-0.3,0-0.6,0.2-0.8
			c0.2-0.3,0.7-0.2,1-0.1c1.8,0.6,2.6,2.6,4,3.7c0.9,0.7,2,1,2.9,1.6c0.9,0.6,1.5,1.4,2.3,2c2.4,2,5.6,2.9,8.6,3.6
			c0.4,0.1,0.8,0.2,1.1,0c0.7-0.3,0.7-1.2,0.8-1.9c0.2-1.2,0.8-2.4,1.6-3.3c0.8-0.8,1.9-1.5,1.9-2.6c-0.1-1.7-2.6-2-3.6-3.4
			c-0.6-0.8-0.6-1.9-0.6-2.9c0-2.5-2.1-6.5,0.1-7.6c0.1-0.1,0.3,0-0.4-1.9c-0.2-0.5-0.8-0.6-1.3-0.9c-2.2-1.3-3-3.8-5-5.2
			C88.1,104.6,84.9,105.4,83.4,106z"/>
		<path class="st5" d="M118.4,133.2c0.4,0.4,0.8,0.8,1.3,1c0.5,0.2,1,0.2,1.6,0.3c2.8,0,5.7-0.3,8.5,0c1.7,0.2,3.3,0.7,4.9,0.9
			c2.1,0.2,4.2,0,6.4,0.1c2.1,0.1,4.3,0.5,6,1.7c2.3,1.7,3.3,4.8,2.4,7.5c-0.2,0-0.3,0-0.5,0c-0.8-1.1-1.2-2.5-1.3-3.9
			c-0.9-0.5-2,0-3,0.3c-1,0.3-2.3,0.5-2.9-0.4c-0.4-0.5-0.5-1.3-1.1-1.4c-0.3-0.1-0.6,0.1-0.9,0.3c-3.4,2.1-7.4,3.1-11.4,3
			c4.6,1.5,9.5,2.1,14.2,1.6c1.6-0.1,3.5-0.3,4.4,1c-0.8,0.1-1.6,0.1-2.4,0.2c0.9,0.3,1.7,1.1,1.9,2.1c-2.3,0.8-5.2-1.4-7.1,0
			c-0.4,0.3-0.7,0.7-1.1,0.9c-0.4,0.2-0.9,0.2-1.3,0.2c-0.8,0-1.5,0-2.3,0c-0.6,0-1.2,0-1.8-0.1c-0.5-0.2-1-0.5-1.5-0.7
			c-1.4-0.7-3-0.8-4.6-0.9c-6.7-0.6-13.3-1.8-19.9-3c-1.4-0.2-2.7-0.5-4-0.8c-2.5-0.6-4.9-1.5-7.1-2.7c-1-0.5-2.1-1.3-2-2.4
			c0-0.5,0.3-0.9,0.5-1.3c1.5-2.7,3-5.4,4.5-8.2c0.2-0.4,0.5-0.8,0.9-1c0.5-0.2,1.2,0.1,1.5,0.6c0.3,0.5,0.4,1.1,0.5,1.7
			c0.4,0.2,0.7-0.3,0.7-0.7c0.4-2.2,0.8-4.5,1.2-6.7c0.9,0,2.1,1.3,2.9,1.8c1.4,0.9,2.9,1.8,4.2,2.8
			C113.6,128.8,116.1,130.9,118.4,133.2z"/>
		<path class="st4" d="M113.7,133.6c1.8,1.4,3.4,3,5.6,3.7c2,0.6,4.1,0.4,6.1,0.6c2.4,0.2,4.8,0.9,7.2,1.3c2.4,0.4,5,0.4,7.1-0.7
			c0.7-0.3,1.3-0.8,2.1-0.8c0.6,0,1.2,0.4,1.7,0.8c0.6,0.4,1.1,0.8,1.7,1.2c0.4,0.3,0.9,1,0.6,1.4c-0.2,0.2-0.4,0.2-0.6,0.2
			c-1.3,0.2-2.9,0.3-3.7-0.7c-0.2-0.2-0.3-0.4-0.5-0.6c-0.6-0.5-1.4-0.2-2.1,0.1c-3,1.3-5.9,3-9.1,3.1c-1.1,0-2.2-0.1-3-0.9
			c-0.3-0.3-0.6-0.8-0.9-1.1c-0.6-0.6-1.4-0.9-2.3-1.2c-1.9-0.6-3.9-0.9-5.5-2c-0.9-0.6-1.6-1.4-2.5-1.9c-1.7-1-3.7-1.3-5.6-1.8
			c-2-0.6-3.9-1.5-5.6-2.7c-0.7-0.5-2.1-1.7-1.3-2.6c0.7-0.8,2.7,0.2,3.5,0.5C109,130.6,111.5,131.9,113.7,133.6z"/>
		<path class="st4" d="M98.2,137.9c4.4,2.3,9.7,1.7,14.5,3.1c1.8,0.5,3.6,1.3,5.4,1.9c4,1.2,8.4,0.9,12.4,2.4c1.2,0.4,2.3,1,3.5,1.4
			c1.9,0.7,3.9,0.9,5.9,1.1c-0.6,1.3-2.3,1.5-3.7,1.6c-1.3,0.1-2.8,0.1-3.9-0.6c-0.4-0.3-0.8-0.7-1.3-0.9c-0.7-0.4-1.5-0.5-2.3-0.5
			c-5-0.5-10-1.3-15-2.2c-6-1.1-12.1-2.1-17.8-4.4c-0.6-0.3-1.3-0.5-1.8-1s-0.8-1.2-0.5-1.9c0.3-0.7,1-0.9,1.7-0.6
			c0-0.1,0.1-0.4,0-0.5C96.2,136.6,97.2,137.4,98.2,137.9z"/>
	</g>
	<g>
		<path class="st9" d="M109.9,100.4c0.7,0.1,1.6,0.2,2-0.3c-0.1-1.6-0.1-2.4-0.2-4c0-0.2,0-0.3,0.1-0.5c0.1-0.1,0.2-0.1,0.3-0.2
			c0.4-0.2,0.8-0.4,1-0.8s0.1-0.9-0.2-1.1c-0.3-0.2-0.8-0.1-1.1,0.2c-0.3,0.2-0.6,0.6-0.9,0.8c-0.2,0.2-0.4,0.3-0.6,0.5
			c-0.4,0.4-0.5,0.9-0.6,1.4c-0.2,1-0.5,2-0.7,3c-0.1,0.6-0.3,1.2-0.4,1.7c-0.2,0.6-0.4,1.3-0.3,1.9
			C108.4,102.8,109.4,100.3,109.9,100.4z"/>
		<path class="st10" d="M114.3,86.3c-0.5-0.6-1.1-1.1-1.7-1.6c-1-0.7-2-1.4-3-2.2c-0.7-0.5-1.4-1-2.3-1.3c-0.8-0.3-1.8-0.3-2.6,0.1
			c-0.4,0.2-0.7,0.6-1,0.8c-0.8,0.5-2,0.2-2.7,0.9c-0.5,0.5-0.5,1.4-0.6,2.1c-0.1,1.3-0.5,2.5-1.1,3.6c-0.4,0.6-0.8,1.3-0.8,2
			c0,0.6,0.3,1.1,0.5,1.7c0.1,0.6,0,1.3-0.6,1.5c-0.3,0.1-0.6,0-0.8,0.2c-0.2,0.2-0.3,0.5-0.3,0.8c-0.1,2.3-0.1,4.7-0.2,7
			c0.7,0.5,1.2,1.6,2.1,1.8c0.1,1,1.3,1,2.1,1.6c1.2,0.9,2.5,1.7,4,1.9c0.2,0,0.4,0,0.6-0.1c0.1-0.1,0.2-0.2,0.3-0.4
			c0.6-1.1,1.2-2.2,1.7-3.3c-1,0.3-2.1,0-3.1-0.5c-2.4-1-4.6-2.7-6.1-4.9c-0.3-0.4-0.6-0.9-0.7-1.4c-0.2-0.7-0.1-1.5,0.3-2.1
			c0.5-0.9,0.9,0.3,0.5,1.3c-1.2,3.8,1.2-0.6,1.4-1.1c0.5-1,2-5.3,3.2-5.2c0-1.2,0-2.3,0-3.5c1.7,0,3.4,1.1,4,2.7
			c1.7-0.1,3.3,0.8,4.1,2.3c0.4,0.7,0.5,2.3,1.4,2.5c0.9,0.2,1.7-0.9,1.9-1.5C115.4,90.4,115.3,87.8,114.3,86.3z"/>
		<path class="st11" d="M101.7,80.5c-2.3-0.2-4.6,1.1-5.5,3.2c-0.1,0.3-0.3,0.6-0.6,0.8c-0.2,0.1-0.5,0.2-0.8,0.3
			c-0.3,0.2-0.4,0.7-0.3,1.1c0,1.3,0,2.7,0.1,4c0,1.1,0,2.2-0.7,3.1c-0.5,0.6-1.2,0.8-1.8,1.3c-0.8,0.7-1.1,1.9-1.3,2.9
			c1.7,0.4,3.6-0.9,3.9-2.6c0.2-0.8,0-1.6,0.2-2.3c0.2-0.9,1-1.7,1.9-2c0.7-0.2,1.6-0.2,2.2-0.6c0.7-0.5,0.8-1.4,1-2.2
			c0.1-0.9,0.3-1.8,0.4-2.7c0.1-0.8,0.3-1.7,1-2.2c0.4-0.2,0.8-0.3,1.3-0.4c0.6-0.1,2.5-0.5,2.5-1.3
			C103.9,80.9,102.8,80.6,101.7,80.5z"/>
		<path class="st5" d="M93.6,106.9c0.2-1.1,0.8-2.2,1.8-2.7c0.8-0.4,1.9-0.7,1.9-1.5c0-0.3-0.1-0.6-0.3-0.8c-0.8-1.9-0.7-4-0.5-6.1
			c0-0.4,0.1-0.9,0.3-1.2c0.3-0.4-0.1-1.5,0.3-1.8c0.9-0.7,2-1.3,1-1.9c-0.9-0.5-2,0-2.7,0.8c-0.7,0.9-1.2,2.1-1.1,3.2
			c0,0.4,0.1,0.8-0.1,1.2c-0.3,0.8-1.2,1-2,1.3c-1.1,0.4-2.1,1.1-3.1,1.8c-1.2,0.8-2.7,2.6-3.9,3.4c-0.1,0.1,0,0.4,0,0.5
			c0,0.1,0-0.8,0-0.8c0.9,1.6,2.4,2.8,3.9,3.9c0.8,0.6,1.6,1.1,2.3,1.7c0.6,0.5,1.3,1.4,2,1.8C93.6,108.7,93.5,107.8,93.6,106.9z"/>
		<path class="st12" d="M105.8,86.9c-0.7-0.5-1.6-0.6-2.5-0.6c-0.2,1.2-0.3,2.4-0.3,3.6c-0.6,0-1.2,0-1.8,0.2
			c-0.1,0-0.3,0.1-0.4,0.2c-0.1,0.1-0.1,0.3-0.2,0.3c-1.8,1-2.7,3.1-3.4,4.8c-0.2,0.5-0.5,2.2-0.5,2.7c0,1.1,0.3,4.2,1,4.7
			c0.9,0.7,3.4,2.5,4.3,3.2c1.3,1,2.1,0.9,3.8,1.1c0.3,0,1.8-3.3,2-3.5c0.1-0.1,0.2-0.3,0.3-0.5c0.6-1.7,1.2-3.4,1.3-5.2
			c0.1-1,0.3-1.2,0.9-2c0.7-0.9,1.9-2.1,1.8-3.2c0-0.3-0.2-0.6-0.3-0.8c-0.4-0.8-0.8-1.5-1.4-2.1c-0.9-0.8-1.6-0.6-2.5-0.9
			C106.8,88.7,106.5,87.5,105.8,86.9z"/>
	</g>
	<rect x="164.4" y="157.8" class="st13" width="3.8" height="68.6"/>
	<rect x="148.8" y="223.6" class="st13" width="34.5" height="3.2"/>
	<polygon class="st14" points="164.4,157.8 164.4,186.3 168.2,188.8 168.2,157.8 	"/>
	<path class="st15" d="M202.7,127.5c0.8-0.9,1.7-1.8,2.2-2.9c0.6-1.1,0.9-2.3,0.6-3.5c0.9,0.2,1.9-0.5,2.1-1.4
		c0.1-0.5-0.1-1.1,0.1-1.6c0.4-1.1,1.8-1.2,2.8-1.8c0.9-0.5,1.4-1.5,1.6-2.5s0.2-2.1,0.2-3.1c-0.1-1.8-0.1-3.5-0.2-5.3
		c-0.8-0.1-1.6-0.3-2.3-0.2c-0.8,0.1-1.6,0.4-2,1.1c-0.6,0.9-0.4,2.1-0.5,3.2c-0.3,1.8-1.8,3.2-3.4,4.1s-3.4,1.6-4.8,2.6
		c-0.6,0.5-1.2,1-1.5,1.8c-0.4,1.1-0.1,2.4,0.1,3.5c0.3,1.5,0.1,2.7-1,3.7c-0.7,0.6-1.8,1.4-0.9,2.4c0.7,0.8,2.3,0.8,3.2,1
		C200.4,128.7,201.5,128.8,202.7,127.5z"/>
	<path class="st16" d="M201.8,109.3c0-0.2,0-0.5,0.1-0.7c0.1-0.3,0.4-0.5,0.6-0.8c2-2.2,1.9-5.5,1.8-8.5c0-0.2,0-0.5-0.2-0.6
		c-0.1-0.2-0.3-0.3-0.5-0.3c-2.4-0.8-5.4,0.9-6,3.4c-0.2,0.9-0.2,1.8-0.5,2.6c-0.2,0.6-0.7,1.2-0.9,1.8c-0.3,0.8-0.4,1.8-0.4,2.7
		c0,1.2,0,2.4-0.1,3.6c0,0.9,0,1.9,0.5,2.7c0.3,0.5,0.7,0.9,1.1,1.3c0.3,0.5,0.6,1.1,0.4,1.6c0.1-0.3,1.9-1,2.3-1.3
		c0.7-0.5,1.6-1.3,2-2.1C202.7,113.2,201.8,110.8,201.8,109.3z"/>
	<path class="st16" d="M189.8,106.6c-0.7-1.2-1.5-2.4-2.7-3.1c-0.7-0.4-1.5-0.7-2.3-0.8c-1.3-0.3-2.6-0.5-4-0.5
		c-0.4,0-0.8,0-1.1,0.2c-0.2,0.2-0.3,0.4-0.4,0.7c-0.5,1.9,0.1,3.8,0.8,5.6c0.9,2.4,1.9,4.8,3,7.2c0.4,0.9,1,1.8,1.9,1.9
		c0,0.5-0.7,0.8-1,1.2c-0.5,0.6-0.3,1.4,0.1,2c0.4,0.6,1,1,1.5,1.6c0.4,0.4,0.7,0.9,1.2,1.3c0.7,0.7,1.7,1.1,2.6,1.4
		c0.8,0.3,1.5,0.6,2.3,0.9c0.8,0.3,1.5,0.6,2.3,0.6c0.8,0,1.7-0.4,2-1.2c0.1-0.3,0.1-0.7,0.3-1c0.2-0.4,0.7-0.7,0.9-1
		c0.3-0.4,0.3-1,0.3-1.5c0-1.4,0.1-2.7,0.1-4.1c0.1-1.6-0.4-2.3-1.5-3.4c-0.8-0.8-1-1.5-1.5-2.5c-0.6-1.1-1.5-1.3-2.5-2
		C191.2,109.4,190.6,107.8,189.8,106.6z"/>
	<path class="st15" d="M190.7,108.1c-1.2-0.7-1.5-2.3-2.5-3.3c-0.6-0.5-1.3-0.9-2-1.1c-1.3-0.4-2.7-0.7-4-1
		c-0.6-0.1-1.5-0.2-1.8,0.4c-0.3,0.5,0.1,1.2,0.5,1.6c0.5,0.4,1.1,0.6,1.4,1.1c0.5,0.7,0.3,1.7,0.4,2.6c0.2,1.5,1.4,2.6,2,4
		c0.7,1.3,0.9,2.9,0.6,4.4c-0.1,0.6-0.3,1.2,0,1.7c0.2,0.4,0.6,0.5,1,0.7c1,0.5,1.9,1.1,2.6,2c0.9,1,1.3,2.3,2,3.5
		c0.7,1.1,1.8,2.2,3.2,2.2c0.3,0,0.7-0.1,1-0.3c0.2-0.1,0.3-0.3,0.4-0.5c0.4-0.6,0.7-1.2,1.1-1.8c0.4-0.6,0.8-1.2,1-1.9
		c0.3-0.8,0.3-1.6,0.3-2.5c0-1.9,0-3.9-1.1-5.4c-0.8-1.1-2.1-1.7-3-2.8c-0.4-0.5-0.7-1.2-1.1-1.7c-0.5-0.6-1-1.1-1.6-1.7
		c-1.4-1.3-2.6-2.9-3.8-4.4"/>
	<path class="st17" d="M198.7,132.4c-0.1-2.3-0.1-4.5-0.2-6.8c0-0.5,0-1.1,0.1-1.6c0.1-0.6,0.5-1.1,0.8-1.6c1.6-2.6,3.3-5.2,5.6-7.2
		c1-0.8,2.1-1.5,3.1-2.4s1.6-2.2,1.5-3.5"/>
	<path class="st18" d="M198.4,108.3c0-0.5,0-1,0.1-1.5c0.1-0.4,0.3-0.8,0.6-1.2c0.7-1,1.5-1.9,2.4-2.7c-1.5,1.7-2,4.1-2.1,6.4
		c-0.1,2,0.7,4.6,0.2,6.5c-0.8-0.4-0.8-1.8-0.9-2.6C198.5,111.5,198.5,109.9,198.4,108.3z"/>
	<path class="st16" d="M202.5,133.2c0.5,0.1,1,0.2,1.3,0.6c0.1,0.2,0.2,0.5,0.2,0.7c0.2,2.3,0.4,4.6,0.7,6.9c0.1,0.9,0.2,1.8,0,2.7
		c-0.4,1.7-2,3.3-1.6,5.1c-2.8-0.1-5.6,0.1-8.4,0.8c-0.3,0.1-0.8,0.1-1-0.1c-0.1-0.1-0.1-0.3-0.2-0.4c-1.1-4.3-1.5-8.7-1.3-13.1
		c0-0.9,0-2.3,0.6-3c0.6-0.7,1.5-0.5,2.3-0.5C197.5,132.7,200,132.9,202.5,133.2z"/>
	<polygon class="st16" points="174.2,139.4 174.5,149.7 181.2,149.1 181.7,139.4 	"/>
	<polyline class="st17" points="181.6,140.9 182.8,141 182.8,148.1 181.2,148.1 	"/>
	<path class="st19" d="M179.8,140c0.1,0.2,0.1,0.4,0.1,0.6c0,2.8,0,5.6,0,8.4c-1.3,0.3-2.6,0.4-3.9,0.4c-0.1,0-0.2,0-0.2-0.1
		c-0.1-0.1-0.1-0.1-0.1-0.2c-0.1-0.8-0.1-1.6,0.1-2.3c0.2-0.9,0.5-1.9,0-2.6c-0.2-0.2-0.4-0.4-0.5-0.6c-0.5-0.8,0.4-2.9,1-3.5
		C176.8,139.5,179.4,139.3,179.8,140z"/>
	<path class="st3" d="M133.5,173.5c3.5,0.2,7,0.3,10.5,0.5"/>
	<path class="st3" d="M139.6,174c0,1.7-0.2,3.5-0.5,5.2"/>
	<path class="st3" d="M135.1,179.3c5.4,0.1,10.9,0.5,16.2,1.4"/>
	<path class="st3" d="M143.8,179.7c0.6,1.5,0.8,3.1,0.6,4.7"/>
	<path class="st3" d="M132.2,185.1c5.1-0.3,10.1-0.1,15.2,0.6"/>
	<line class="st3" x1="191.6" y1="54.9" x2="202.5" y2="54.9"/>
	<line class="st3" x1="196" y1="55.4" x2="196" y2="60.9"/>
	<line class="st3" x1="189.2" y1="60.7" x2="206.1" y2="60.7"/>
	<line class="st3" x1="201.4" y1="61" x2="201.4" y2="66.4"/>
	<line class="st3" x1="193.2" y1="66.7" x2="208.1" y2="66.7"/>
	<path class="st19" d="M198.6,132.7c0.3,0,0.6,0,0.8,0.2c0.5,0.4,0.3,1.1,0.1,1.6c-1,2.6-0.8,5.5-0.7,8.3c0.1,1.8,0.2,3.6,0.3,5.5
		c0,0.2,0,0.4-0.1,0.5c-0.1,0.1-0.3,0.1-0.4,0.2c-1.3,0.1-2.6,0.2-3.9,0.4c-0.2,0-0.5,0-0.7-0.1c-0.4-0.2-0.5-0.7-0.5-1.1
		c-0.3-4.1-0.6-8.1-0.9-12.2c-0.1-1.3-0.2-2.4,1.2-2.9C195.1,132.4,197,132.6,198.6,132.7z"/>
	<path class="st18" d="M195.7,129.9c-0.4-6-2.5-11.9-5.4-17.2c-0.6-1.1-1.3-2.3-2.2-3.1c-1.1-1-2.6-1.7-3.4-3c0.5,1.3,2.2,1.9,3.1,3
		c0.5,0.6,0.8,1.3,1.1,2c1,2.5,2,4.9,3,7.4c0.6,1.5,1.2,2.9,1.6,4.4c0.2,0.6,0.3,1.2,0.4,1.9c0.6,2.8,1.2,5.5,1.8,8.3
		C195.8,132.3,195.8,131,195.7,129.9z"/>
	<path class="st17" d="M192,135.1c1.7-0.1,4.4,0.8,6.1,0.7c1.9-0.1,3.7-0.8,5.2-1.9"/>
	<path class="st17" d="M206,132.4c-0.7,0.1-4,3.3-4.6,3.6c-1.2,0.6-2.4,1.1-3.7,1.5c-0.8,0.2-1.7,0.4-2.4,0.9
		c-0.6,0.4-2.6,1.1-3.4,1.1"/>
	<path class="st17" d="M192.8,141.2c0.6,0.2,1.2,0.4,1.8,0.5c3.1,0.8,8.2,0,11.4-0.2"/>
	<path class="st17" d="M206,142.1c-1.3-0.1-4.5,0.9-5.7,1.3c-0.8,0.3-1.5,0.7-2.2,0.9c-1.6,0.5-5.7,0.2-7.1,1"/>
	<path class="st17" d="M192,147c2.6,0.6,9.7,1.5,12.4,1.6"/>
	<rect x="122.3" y="149.7" class="st13" width="85.8" height="4.9"/>
	<rect x="122.3" y="155.6" class="st13" width="85.8" height="2.2"/>
	<path class="st20" d="M173.1,129.5c-0.7-0.9-0.8-2.3,0-3.2c0.6-0.6,1.4-0.8,2.3-1c1.5-0.2,3.1-0.3,4.6,0c0.3,0.1,0.6,0.1,0.7,0.3
		c0.2,0.2,0.2,0.5,0.3,0.7c0.1,1,0.3,1.9,0.4,2.9c0.1,0.8,0.2,1.6-0.1,2.3c-0.7,1.7-3.1,1.9-4,3.4c-0.7,1.2-0.1,3.1,1.3,3.6
		c0,0.1,0,0.3,0,0.4c-0.3,0.2-0.7-0.1-0.8-0.4s0-0.7-0.1-1c-0.2-0.9-1.2-1.3-2-1.6c-0.8-0.3-1.8-1-1.6-1.9c0.1-0.6,0.7-0.9,1.2-1.3
		C177.3,131.4,173.9,130.7,173.1,129.5z"/>
	<polygon class="st13" points="79.2,178.8 79.2,189.1 82.9,190.7 82.9,178.3 	"/>
	<path class="st13" d="M79,180.1l-1,18.2c0,0,3.8,2.2,4.9-1.1v-6.5l-3.8-1.1L79,180.1z"/>
	<polyline class="st13" points="77,200.4 83.5,200.4 82.4,219.3 79.2,219.3 77,201 	"/>
	<path class="st21" d="M145.8,146.1l10.5-0.2l10.8-22.1c0,0,2.2-0.5,1.6,1.6c-0.5,2.2-11.3,23.8-11.3,23.8h-18.9c0,0-0.4-2.3,2.5-2
		c2.9,0.3,5.6,0.3,5.6,0.3L145.8,146.1z"/>
	<path class="st22" d="M66.2,119.4v-11.9c0,0-1.6-7.6-10.3-1.1c0,0-3.2,1.6-2.2,9.7c1.1,8.1,4.3,13,3.8,25.4
		C57,154,52.7,169.6,57,173.4c4.3,3.8,4.3,4.9,14,4.9s32.4,0,32.4,0l1-2.9c0,0-4.3-3.1-16.2-2.5c-11.9,0.5-24.8,0-26.5-3.8
		c0,0-2.2-1.1-1.6-7.6c0.5-6.5,3.3-13.3,3.3-13.3s1.5-11.5,2.1-12.6S66.2,119.4,66.2,119.4z"/>
	<circle class="st13" cx="56.8" cy="223.9" r="3"/>
	<circle class="st13" cx="81" cy="223.9" r="3"/>
	<circle class="st23" cx="106.1" cy="224.2" r="3.2"/>
	<path class="st24" d="M54.9,219.3l0.5-2.7c0,0,10.8-4.9,21.6-5.9h1.1l0.2,1.6l-20.8,4.4l-1.6,2.7H54.9z"/>
	<path class="st14" d="M57.6,219.9l0.5-2.2c0,0,19.4-3.8,20-2.7s0-2.7,0-2.7l-20.5,4.3V219.9z"/>
	<polygon class="st13" points="83.5,210.1 93.7,212.3 95.1,214.1 83,212.3 	"/>
	<polygon class="st25" points="82.9,212.3 95.3,213.9 98.3,216.1 82.6,215 	"/>
	<rect x="167.7" y="14.7" class="st16" width="2.2" height="43.3"/>
	<path class="st19" d="M155.8,70.2h22.7c0,0-3.2-11-15.7-11.6C162.8,58.6,156.3,60.9,155.8,70.2z"/>
	<path class="st16" d="M162.1,59c0,0,3.5-4.4,13.2-1.2c0,0,5.9,4.3,7,12.4h-4.8C177.5,70.2,179.3,61.8,162.1,59z"/>
	<path class="st26" d="M160.4,70.2c0,0,1.9,5.3,8.4,6.1c6.5,0.8-5.4-6.1-5.4-6.1H160.4z"/>
	<path class="st27" d="M163.4,70.2h14c0,0-2.2,6.4-7,6.4C165.5,76.5,163.4,70.2,163.4,70.2z"/>
	<circle class="st29" cx="129" cy="129" r="123"/>
	<path class="st10" d="M100.6,90.5c-0.3,0.1-0.8,0.1-1,0.4c-0.1,0.1-0.1,0.3-0.2,0.5c-0.1,0.4-0.5,0.7-0.8,0.9c-1,1-1.2,2.4-1.5,3.7
		c-0.2,0.9-0.3,1.8-0.5,2.7c0.4,0.2,0.9-0.1,1.1-0.5c0.2-0.4,0.3-0.9,0.7-1.1c0.5-0.4,1.3-0.3,1.7-0.7c0.1-0.1,0.2-0.3,0.3-0.5
		c0.7-1.5,1.4-3,2.2-4.5c0.3-0.7,0.9-2-0.1-2.2C101.9,89,101.2,90.3,100.6,90.5z"/>
	<path class="st30" d="M108.8,102.1c-0.4,0-0.9,0-1.3,0"/>
</g>
<g id="Layer_2">
	<path class="st30" d="M110,93.7c0,0,0.5,0.1,0.5,0.1c-0.3,0-0.5,0-0.8,0.1c0.2,0,0.5,0,0.7,0c-0.2,0-0.4,0.1-0.6,0.2
		c0.3-0.1,0.3-0.2,0.5-0.3c-0.2,0.1-0.2,0.2-0.5,0.3c0.2,0,0.5,0,0.7,0c-0.2,0-0.3,0-0.5,0c0.2,0,0.4,0,0.7,0c-0.2,0-0.4,0-0.7,0
		c0.1,0.1,0.3,0.1,0.4,0c-0.3,0-0.5,0-0.8,0c0.2-0.1,0.3-0.1,0.5-0.2c-0.3,0-0.5,0.1-0.8,0.1C109.6,93.9,109.8,93.9,110,93.7
		c-0.3,0-0.6,0-0.9,0c0.2-0.1,0.5-0.1,0.7-0.2c-0.3,0-0.6,0-0.9,0c0.3-0.1,0.5-0.1,0.8-0.2c-0.4,0-0.7,0.1-1.1,0.1
		c0.3,0,0.5,0,0.8-0.1c-0.3,0-0.7,0-1,0.1c0.3,0,0.5,0,0.8-0.1c-0.3,0-0.7,0-1,0.1c0.3,0,0.6-0.1,0.9-0.1c-0.4,0-0.8,0-1.1,0.1
		c0.3,0,0.7-0.1,1-0.1c-0.3,0-0.6,0-0.8,0c0.3,0,0.7-0.1,1-0.1c-0.2,0.1-0.5,0.1-0.7,0.1c0.3,0,0.6,0,0.9-0.1
		c-0.2,0-0.4,0.1-0.5,0.1c0.3,0,0.7,0,1,0c-0.3,0.1-0.6,0.1-0.9,0.2c0.4,0,0.9,0,1.3-0.1c-0.2,0.1-0.5,0.1-0.7,0.2
		c0.3,0,0.6,0,0.9,0c-0.2,0.1-0.4,0.1-0.6,0.2c0.2,0,0.5,0,0.7-0.1c-0.2,0.1-0.4,0.2-0.6,0.2c0.2,0,0.4,0,0.7-0.1
		c-0.1,0-0.3,0-0.4,0.1c0.2,0,0.5,0,0.7,0.1c-0.6-0.1-1.1-0.2-1.7-0.3c0.1,0,0.3-0.1,0.4-0.1c-0.3,0-0.6-0.1-0.9-0.1
		c0.1-0.1,0.2-0.1,0.3-0.1c-0.3-0.1-0.6-0.1-0.9,0c0.2,0,0.4,0,0.6-0.1c-0.2,0.1-0.4,0.1-0.6,0.1"/>
	<path class="st30" d="M111.7,95.6c-0.3-0.1-0.5,0.3-0.7,0.1"/>
	<path class="st31" d="M110.5,95c-0.1,0.1-0.2,0.2-0.3,0.3c-0.4,0.5-0.3,2.8-0.4,3.5c0,0.1,0,0.1,0,0.2c0.1,0.1,0.3,0.2,0.4,0.1
		c0.1,0,0.1,0,0.2-0.1c0,0,0-0.1,0.1-0.1c0.2-0.5,0.3-2.7,0.5-3.2c0.1-0.2,0.1-0.4,0-0.6C110.9,95,110.7,94.8,110.5,95z"/>
	<path class="st31" d="M102.2,93.2C102.7,93.1,101.8,93.1,102.2,93.2C102.8,93.3,101.7,93,102.2,93.2c0.3,0.1,0.5,0.3,0.8,0.4
		c0.4,0.2,0.8,0.3,1.2,0.5c2.1,0.7,3.6,1.1,5.6,1.9"/>
</g>
</svg>
